<!DOCTYPE svg PUBLIC "-//W3C//DTD SVG 20010904//EN" "http://www.w3.org/TR/2001/REC-SVG-20010904/DTD/svg10.dtd">
<svg version="1.0" xmlns="http://www.w3.org/2000/svg" width="512px" height="160px" viewBox="0 0 5120 1600" preserveAspectRatio="xMidYMid meet">
<g id="layer101" fill="#da1c24" stroke="none">
 <path d="M1195 1390 c6 -19 2 -20 -62 -20 -165 -1 -315 -60 -423 -167 -37 -38 -76 -86 -88 -108 l-21 -40 -1 158 0 157 -230 0 -230 0 0 -330 0 -330 -70 0 -70 0 0 -135 0 -135 70 0 70 0 0 -95 0 -95 230 0 230 0 0 152 0 153 36 -53 c68 -102 164 -178 279 -222 44 -17 89 -24 167 -28 107 -5 108 -5 102 -28 l-6 -24 1971 0 1971 0 0 605 0 605 -1966 0 c-1961 0 -1965 0 -1959 -20z m259 -505 c-5 -12 -30 -15 -135 -15 l-129 0 0 -44 c0 -96 -101 -140 -157 -67 -18 24 -15 76 6 102 23 29 71 36 268 38 132 1 152 -1 147 -14z"/>
 </g>
<g id="layer102" fill="#fef3f3" stroke="none">
 <path d="M140 1040 l0 -330 -70 0 -70 0 0 -135 0 -135 70 0 70 0 0 -95 0 -95 230 0 230 0 0 152 0 153 36 -53 c105 -157 253 -240 441 -250 90 -4 110 -2 183 22 108 35 162 67 240 146 103 103 160 239 160 382 l0 68 -235 0 -235 0 0 -44 c0 -28 -7 -52 -20 -69 -50 -64 -149 -31 -150 49 0 49 28 76 91 85 30 4 276 8 547 8 l492 1 0 235 0 235 -542 0 c-604 0 -624 -2 -756 -65 -83 -39 -193 -140 -230 -210 l-21 -40 -1 158 0 157 -230 0 -230 0 0 -330z m198 -132 l-3 -393 -132 -3 -133 -3 0 66 0 65 70 0 70 0 0 330 0 330 65 0 65 0 -2 -392z m192 -98 l0 -490 -160 0 -160 0 0 65 0 65 95 0 95 0 0 425 0 425 65 0 65 0 0 -490z m1550 425 l0 -65 -495 0 c-521 0 -561 -3 -648 -47 -133 -67 -214 -227 -187 -370 22 -122 96 -219 208 -271 49 -23 70 -27 147 -27 76 0 98 4 145 26 30 15 74 43 97 63 50 43 103 145 110 211 l6 45 63 0 64 0 0 -39 c0 -157 -142 -348 -307 -412 -88 -34 -240 -38 -327 -9 -292 97 -427 421 -290 692 35 68 130 167 197 204 109 60 131 62 700 63 l517 1 0 -65z m0 -204 l0 -59 -502 -4 c-459 -3 -506 -5 -539 -21 -104 -52 -118 -191 -26 -261 78 -60 183 -32 227 61 l25 53 58 0 57 0 0 -32 c-1 -70 -61 -160 -137 -205 -61 -35 -172 -44 -240 -18 -153 59 -223 243 -148 390 35 69 84 111 157 136 49 17 95 18 561 19 l507 0 0 -59z"/>
 <path d="M2885 1103 c-82 -16 -142 -59 -175 -123 -68 -132 -32 -345 69 -414 96 -65 234 -54 308 26 89 95 97 311 14 425 -44 60 -143 100 -216 86z m85 -108 c50 -26 65 -67 65 -180 0 -77 -4 -108 -18 -132 -33 -61 -111 -81 -161 -42 -45 36 -56 69 -56 177 0 87 3 103 23 133 38 57 91 73 147 44z"/>
 <path d="M4478 1096 c-120 -32 -178 -125 -178 -287 0 -129 46 -217 136 -263 128 -64 288 6 328 143 21 71 20 185 -1 250 -39 123 -160 190 -285 157z m138 -117 c32 -30 44 -77 44 -172 0 -122 -32 -175 -113 -184 -36 -4 -48 -1 -74 21 -44 37 -56 82 -51 190 4 98 25 147 72 167 33 14 95 3 122 -22z"/>
 <path d="M4885 1085 c-14 -13 -25 -29 -25 -35 0 -22 22 -51 46 -60 72 -28 119 77 48 108 -35 17 -42 15 -69 -13z"/>
 <path d="M2276 1093 c-3 -4 -6 -132 -6 -285 l1 -278 190 0 189 0 0 45 0 45 -130 0 -130 0 0 240 0 240 -53 0 c-30 0 -57 -3 -61 -7z"/>
 <path d="M3240 814 l0 -286 148 4 c165 4 211 19 245 76 33 58 15 156 -35 183 l-22 12 26 13 c51 27 75 91 57 157 -25 97 -94 127 -291 127 l-128 0 0 -286z m259 185 c54 -19 67 -84 26 -124 -21 -22 -33 -25 -95 -25 l-70 0 0 80 0 80 54 0 c29 0 68 -5 85 -11z m-12 -240 c35 -13 43 -25 43 -71 0 -51 -27 -68 -107 -68 l-63 0 0 75 0 75 49 0 c27 0 62 -5 78 -11z"/>
 <path d="M3750 815 l0 -285 60 0 60 0 0 115 0 115 115 0 115 0 0 -115 0 -115 60 0 60 0 0 269 c0 148 -3 276 -6 285 -5 12 -20 16 -60 16 l-54 0 0 -125 0 -125 -115 0 -115 0 0 125 0 125 -60 0 -60 0 0 -285z"/>
 <path d="M4876 843 c-3 -42 -6 -129 -6 -195 l0 -118 58 0 58 0 -3 173 c-5 224 -3 217 -57 217 l-43 0 -7 -77z"/>
 </g>

</svg>