<!DOCTYPE svg PUBLIC "-//W3C//DTD SVG 20010904//EN" "http://www.w3.org/TR/2001/REC-SVG-20010904/DTD/svg10.dtd">
<svg version="1.0" xmlns="http://www.w3.org/2000/svg" width="512px" height="160px" viewBox="0 0 5120 1600" preserveAspectRatio="xMidYMid meet">
<g id="layer101" fill="#a5c737" stroke="none">
 <path d="M455 1570 c-27 -11 -61 -49 -74 -83 -6 -16 -11 -66 -11 -111 l0 -83 -38 -7 c-68 -10 -122 -70 -122 -136 0 -35 2 -34 -39 -14 -45 22 -96 11 -138 -31 l-33 -33 0 -240 0 -240 26 -31 c37 -45 94 -58 144 -33 l38 18 6 -57 c10 -85 64 -187 132 -248 l55 -49 -26 -51 c-29 -59 -26 -88 11 -97 37 -9 51 1 79 57 22 43 30 50 48 45 91 -27 176 -27 278 -1 22 5 28 2 39 -25 29 -70 76 -100 108 -68 18 18 15 43 -13 98 l-25 50 2110 0 2110 0 0 605 0 605 -2095 0 -2095 0 0 38 c0 95 -98 159 -180 117 -59 -31 -70 -57 -70 -171 l0 -104 -25 0 c-25 0 -25 0 -25 93 0 70 -4 101 -18 127 -30 56 -102 83 -157 60z"/>
 </g>
<g id="layer102" fill="#fdfff4" stroke="none">
 <path d="M455 1570 c-27 -11 -61 -49 -74 -83 -6 -16 -11 -66 -11 -111 l0 -83 -38 -7 c-68 -10 -122 -70 -122 -136 0 -35 2 -34 -39 -14 -45 22 -96 11 -138 -31 l-33 -33 0 -240 0 -240 26 -31 c37 -45 94 -58 144 -33 l38 18 6 -57 c10 -85 64 -187 132 -248 l55 -49 -26 -51 c-29 -59 -26 -88 11 -97 37 -9 51 1 79 57 22 43 30 50 48 45 91 -27 176 -27 278 -1 22 5 28 2 39 -25 29 -70 76 -100 108 -68 18 18 14 47 -12 98 l-23 44 43 39 c82 74 144 195 144 284 l0 34 30 -16 c57 -30 142 -8 170 45 7 13 11 102 11 252 0 212 -2 234 -19 258 -37 49 -105 64 -161 35 l-29 -14 -4 51 c-5 43 -11 57 -42 85 -19 18 -45 34 -56 34 -11 1 -24 3 -30 4 -5 1 -14 3 -20 4 -6 0 -10 41 -10 99 0 79 -4 103 -20 129 -48 79 -150 82 -209 7 -18 -23 -21 -40 -21 -130 l0 -104 -25 0 c-25 0 -25 0 -25 93 0 70 -4 101 -18 127 -30 56 -102 83 -157 60z m97 -41 c33 -18 48 -70 48 -174 l0 -95 33 -1 c17 0 42 -2 55 -3 22 -3 22 -1 22 110 0 106 1 114 26 143 34 41 92 44 129 6 23 -22 25 -31 25 -124 0 -120 3 -131 41 -131 41 0 93 -24 113 -51 14 -20 16 -63 16 -337 l0 -313 -399 3 c-220 2 -403 7 -408 11 -4 5 -7 147 -7 315 l2 306 31 28 c25 23 41 28 81 28 l50 0 0 111 c0 110 7 142 39 166 20 15 76 17 103 2z m663 -423 c59 -25 65 -50 65 -273 0 -169 -3 -203 -18 -233 -20 -41 -64 -58 -114 -44 -55 16 -59 34 -56 286 l3 228 25 17 c20 15 46 29 58 32 1 1 18 -5 37 -13z m-1031 -19 c21 -21 25 -38 31 -123 8 -104 1 -337 -10 -367 -21 -52 -117 -58 -155 -10 -19 24 -20 39 -20 245 l0 220 29 29 c38 37 91 40 125 6z m876 -584 c-1 -85 -78 -213 -159 -263 -22 -14 -41 -29 -41 -35 0 -5 14 -34 30 -64 35 -63 34 -61 16 -61 -8 0 -28 25 -45 55 -17 30 -33 55 -36 55 -2 0 -30 -7 -62 -15 -73 -19 -156 -19 -219 0 -27 8 -54 15 -59 15 -6 0 -24 -25 -40 -55 -17 -30 -36 -55 -42 -55 -18 0 -17 3 17 70 l30 59 -34 20 c-48 30 -115 106 -137 156 -26 59 -36 135 -19 145 7 4 190 9 406 9 l394 2 0 -38z"/>
 <path d="M440 375 c-20 -25 -8 -50 25 -50 21 0 31 5 33 18 4 21 -14 47 -33 47 -7 0 -18 -7 -25 -15z"/>
 <path d="M816 374 c-19 -19 -20 -26 -4 -42 18 -18 46 -14 58 7 7 15 6 23 -6 35 -19 20 -29 20 -48 0z"/>
 <path d="M2555 1099 c-116 -15 -187 -92 -206 -223 -26 -185 60 -333 204 -351 173 -22 287 109 275 316 -10 178 -117 279 -273 258z m85 -104 c50 -26 65 -67 65 -180 0 -113 -15 -154 -65 -180 -48 -25 -86 -19 -127 19 l-37 34 -4 100 c-5 116 6 160 49 197 35 29 76 32 119 10z"/>
 <path d="M4163 1100 c-89 -18 -152 -76 -178 -164 -22 -73 -19 -194 6 -260 42 -114 155 -174 276 -147 45 11 65 22 104 61 57 57 79 120 79 226 0 145 -61 246 -169 278 -60 18 -58 17 -118 6z m123 -121 c31 -29 44 -77 44 -164 0 -136 -34 -190 -120 -190 -91 0 -125 63 -118 216 4 91 26 140 72 160 33 14 95 3 122 -22z"/>
 <path d="M4573 1100 c-12 -5 -27 -19 -33 -31 -26 -47 35 -103 83 -78 45 24 50 67 11 98 -30 23 -30 23 -61 11z"/>
 <path d="M1945 1087 c-3 -7 -4 -134 -3 -282 l3 -270 188 -3 187 -2 0 45 0 45 -130 0 -130 0 0 240 0 240 -55 0 c-36 0 -57 -5 -60 -13z"/>
 <path d="M2910 814 l0 -286 148 4 c129 3 152 6 189 26 24 12 49 35 58 52 31 60 11 155 -37 181 l-22 12 27 14 c48 24 75 103 56 162 -29 92 -98 121 -291 121 l-128 0 0 -286z m263 185 c34 -15 51 -50 42 -88 -10 -46 -39 -61 -117 -61 l-68 0 0 80 0 80 60 0 c32 0 70 -5 83 -11z m-16 -240 c35 -13 43 -25 43 -71 0 -51 -27 -68 -107 -68 l-63 0 0 75 0 75 49 0 c27 0 62 -5 78 -11z"/>
 <path d="M3420 815 l0 -285 60 0 60 0 0 115 0 115 115 0 115 0 0 -115 0 -116 58 3 57 3 0 280 0 280 -57 3 -58 3 0 -126 0 -125 -115 0 -115 0 0 125 0 125 -60 0 -60 0 0 -285z"/>
 <path d="M4546 843 c-3 -42 -6 -129 -6 -195 l0 -118 58 0 59 0 -4 163 c-2 89 -6 177 -9 195 -5 30 -7 32 -48 32 l-43 0 -7 -77z"/>
 </g>

</svg>