<!DOCTYPE svg PUBLIC "-//W3C//DTD SVG 20010904//EN" "http://www.w3.org/TR/2001/REC-SVG-20010904/DTD/svg10.dtd">
<svg version="1.0" xmlns="http://www.w3.org/2000/svg" width="512px" height="160px" viewBox="0 0 5120 1600" preserveAspectRatio="xMidYMid meet">
<g id="layer101" fill="#dc1932" stroke="none">
 <path d="M435 1434 c-165 -91 -305 -171 -311 -177 -8 -9 -102 -770 -117 -955 -2 -23 19 -31 358 -152 198 -71 367 -129 377 -130 9 0 130 41 268 90 l252 90 1929 0 1929 0 0 605 0 605 -2014 0 -2013 0 -171 95 c-94 52 -174 95 -179 95 -4 0 -143 -75 -308 -166z"/>
 </g>
<g id="layer102" fill="#fef8fa" stroke="none">
 <path d="M435 1434 c-165 -91 -305 -171 -311 -177 -8 -9 -102 -770 -117 -955 -2 -23 19 -31 358 -152 198 -71 367 -129 376 -130 9 0 138 43 285 97 148 53 308 110 356 127 48 17 89 34 92 37 5 5 -101 970 -107 975 -1 1 -58 33 -127 71 -69 38 -207 115 -307 171 -100 56 -185 102 -190 102 -4 0 -143 -75 -308 -166z m485 -25 c91 -50 213 -117 271 -150 l106 -59 11 -117 c11 -105 55 -491 66 -583 3 -19 8 -63 11 -96 l7 -62 -44 -15 c-23 -8 -170 -60 -325 -115 l-281 -101 -209 75 c-465 167 -433 153 -433 182 0 15 21 207 46 427 42 366 47 401 66 415 43 30 514 288 528 289 9 1 90 -40 180 -90z"/>
 <path d="M342 1163 c8 -26 389 -877 397 -886 4 -4 97 194 206 440 109 247 200 451 202 456 2 4 -31 7 -74 7 l-78 0 -40 -103 -41 -102 -170 -3 -171 -2 -40 102 -41 103 -77 3 c-71 3 -77 1 -73 -15z m508 -332 c0 -23 -104 -251 -111 -244 -7 7 -42 86 -90 206 l-19 47 110 0 c61 0 110 -4 110 -9z"/>
 <path d="M2508 1116 c-113 -41 -168 -130 -168 -275 0 -113 22 -176 80 -233 62 -59 130 -78 216 -59 118 27 184 129 184 282 0 113 -14 161 -66 218 -66 74 -158 98 -246 67z m131 -101 c42 -21 61 -79 61 -181 0 -96 -14 -140 -56 -173 -59 -47 -152 -10 -174 68 -13 47 -13 166 0 213 21 74 101 109 169 73z"/>
 <path d="M4131 1115 c-51 -16 -104 -64 -133 -120 -41 -79 -40 -242 1 -324 77 -150 283 -173 390 -44 41 49 61 119 61 208 0 107 -23 171 -79 226 -68 66 -146 83 -240 54z m148 -111 c38 -31 51 -77 51 -174 0 -87 -27 -156 -70 -177 -61 -30 -129 -3 -156 63 -22 53 -18 199 6 249 23 47 48 63 102 64 25 1 46 -7 67 -25z"/>
 <path d="M4555 1105 c-29 -28 -31 -42 -9 -73 10 -15 25 -22 48 -22 59 0 87 59 46 100 -27 27 -56 25 -85 -5z"/>
 <path d="M1940 835 l0 -285 185 0 185 0 0 45 0 45 -125 0 -125 0 0 240 0 240 -60 0 -60 0 0 -285z"/>
 <path d="M2910 836 l0 -286 128 0 c70 0 144 5 164 10 112 31 154 162 78 239 l-30 29 25 16 c58 38 72 145 28 204 -43 58 -74 67 -240 70 l-153 4 0 -286z m263 183 c30 -16 37 -28 37 -70 0 -54 -27 -73 -111 -77 l-69 -4 0 81 0 81 61 0 c33 0 70 -5 82 -11z m1 -250 c18 -14 26 -30 26 -52 0 -57 -30 -77 -114 -77 l-56 0 0 75 0 75 59 0 c44 0 65 -5 85 -21z"/>
 <path d="M3420 835 l0 -286 58 3 57 3 3 113 3 112 109 0 110 0 0 -115 0 -115 60 0 60 0 0 285 0 285 -60 0 -60 0 0 -125 0 -125 -110 0 -110 0 0 125 0 125 -60 0 -60 0 0 -285z"/>
 <path d="M4546 873 c-3 -42 -6 -132 -6 -200 l0 -123 59 0 59 0 -5 178 c-5 231 -3 222 -57 222 l-43 0 -7 -77z"/>
 </g>

</svg>