<!DOCTYPE svg PUBLIC "-//W3C//DTD SVG 20010904//EN" "http://www.w3.org/TR/2001/REC-SVG-20010904/DTD/svg10.dtd">
<svg version="1.0" xmlns="http://www.w3.org/2000/svg" width="512px" height="160px" viewBox="0 0 5120 1600" preserveAspectRatio="xMidYMid meet">
<g id="layer101" fill="#010102" stroke="none">
 <path d="M211 1578 c-54 -27 -104 -75 -133 -131 -34 -64 -32 -184 4 -252 14 -27 38 -61 52 -74 l25 -24 -50 -45 c-28 -25 -62 -68 -77 -96 -24 -46 -27 -62 -27 -151 0 -92 2 -104 29 -153 16 -29 49 -71 73 -93 l44 -40 -26 -31 c-54 -64 -70 -107 -70 -193 0 -63 5 -89 22 -121 34 -63 66 -97 125 -129 46 -26 63 -30 133 -30 64 0 89 5 123 23 52 27 115 91 132 132 l12 30 2259 0 2259 0 0 605 0 605 -2259 0 -2259 0 -6 23 c-9 38 -84 116 -137 142 -66 34 -183 35 -248 3z m139 -773 c0 -8 -6 -15 -14 -15 -17 0 -28 14 -19 24 12 12 33 6 33 -9z"/>
 </g>
<g id="layer102" fill="#fcfdfd" stroke="none">
 <path d="M211 1578 c-54 -27 -104 -75 -133 -131 -34 -64 -32 -184 4 -252 14 -27 38 -61 52 -74 l25 -24 -50 -45 c-28 -25 -62 -68 -77 -96 -24 -46 -27 -62 -27 -151 0 -92 2 -104 29 -153 16 -29 49 -71 73 -93 l44 -40 -26 -31 c-54 -64 -70 -107 -70 -193 0 -63 5 -89 22 -121 34 -63 66 -97 125 -129 46 -26 63 -30 133 -30 63 0 89 5 122 23 88 46 144 125 158 224 l7 46 46 -21 c208 -92 442 115 379 334 -19 64 -65 130 -112 159 l-33 21 63 62 c51 50 66 73 79 116 31 104 12 190 -59 269 -91 101 -213 125 -346 68 -14 -6 -18 2 -24 41 -10 67 -27 104 -71 153 -59 65 -118 90 -211 90 -60 0 -88 -5 -122 -22z m206 -94 c71 -34 113 -128 92 -207 -12 -46 -63 -106 -107 -124 -32 -13 -33 -15 -30 -64 3 -49 4 -51 41 -64 20 -7 53 -25 72 -39 l34 -27 41 27 c36 24 40 31 35 55 -10 45 13 110 54 150 83 83 211 70 277 -28 48 -71 38 -162 -25 -224 -64 -64 -153 -73 -228 -22 l-35 24 -37 -24 -36 -24 0 -87 1 -86 34 -24 35 -23 38 25 c111 74 253 11 282 -125 13 -66 -32 -155 -96 -188 -36 -19 -132 -19 -168 0 -63 32 -108 117 -97 180 6 32 4 36 -33 61 l-40 26 -35 -27 c-20 -15 -53 -33 -73 -40 -36 -12 -38 -15 -41 -63 -3 -46 -1 -50 22 -56 33 -8 83 -52 103 -89 20 -40 20 -124 0 -164 -63 -120 -238 -132 -314 -20 -61 89 -21 226 77 267 28 12 30 16 30 65 0 49 -2 53 -27 58 -16 3 -47 20 -71 37 -133 96 -116 316 30 391 21 10 44 19 53 19 12 0 15 12 15 58 -1 57 -1 57 -41 76 -126 58 -129 242 -5 317 39 24 125 25 173 3z"/>
 <path d="M295 1398 c-31 -18 -44 -40 -45 -75 0 -77 91 -113 145 -58 35 34 33 78 -4 116 -31 30 -63 36 -96 17z"/>
 <path d="M715 1125 c-54 -53 -16 -145 60 -145 78 0 115 93 59 145 -36 33 -87 33 -119 0z"/>
 <path d="M280 912 c-74 -39 -88 -132 -29 -191 66 -66 163 -40 199 53 34 90 -82 185 -170 138z m70 -107 c0 -8 -6 -15 -14 -15 -17 0 -28 14 -19 24 12 12 33 6 33 -9z"/>
 <path d="M743 625 c-61 -26 -72 -97 -22 -139 17 -14 41 -26 54 -26 13 0 37 12 54 26 74 62 3 176 -86 139z"/>
 <path d="M275 355 c-54 -53 -16 -145 60 -145 26 0 43 7 60 26 34 37 33 78 -4 115 -38 37 -82 39 -116 4z"/>
 <path d="M2305 1103 c-87 -20 -142 -59 -175 -123 -68 -133 -33 -344 69 -414 96 -65 234 -54 308 26 89 95 97 311 14 425 -43 59 -150 102 -216 86z m112 -127 c12 -15 27 -45 34 -69 15 -56 7 -183 -14 -224 -32 -61 -111 -81 -161 -42 -45 36 -56 69 -56 174 0 105 11 138 57 175 39 30 108 23 140 -14z"/>
 <path d="M3898 1096 c-121 -33 -178 -125 -178 -287 0 -198 126 -318 296 -280 77 18 145 83 168 160 20 68 21 182 1 247 -36 123 -163 194 -287 160z m131 -112 c37 -31 51 -77 51 -169 0 -92 -14 -138 -51 -169 -59 -50 -144 -25 -175 50 -16 39 -18 173 -4 226 14 51 61 88 110 88 27 0 48 -8 69 -26z"/>
 <path d="M4323 1100 c-52 -21 -51 -90 2 -110 72 -28 120 76 50 108 -14 7 -27 12 -28 11 -1 0 -12 -4 -24 -9z"/>
 <path d="M1697 1093 c-4 -3 -7 -132 -7 -285 l0 -278 190 0 190 0 0 45 0 45 -130 0 -130 0 0 240 0 240 -53 0 c-30 0 -57 -3 -60 -7z"/>
 <path d="M2660 814 l0 -286 148 4 c165 4 209 17 243 72 35 58 18 160 -32 187 -21 11 -21 11 8 29 18 10 37 36 47 61 15 36 15 50 6 90 -24 99 -95 129 -300 129 l-120 0 0 -286z m259 185 c54 -19 67 -84 26 -124 -21 -22 -33 -25 -95 -25 l-70 0 0 80 0 80 54 0 c29 0 68 -5 85 -11z m-12 -240 c35 -13 43 -25 43 -71 0 -51 -27 -68 -107 -68 l-63 0 0 75 0 75 49 0 c27 0 62 -5 78 -11z"/>
 <path d="M3170 815 l0 -285 60 0 60 0 0 115 0 115 115 0 115 0 0 -115 0 -115 60 0 60 0 -2 283 -3 282 -57 3 -58 3 0 -126 0 -125 -115 0 -115 0 0 125 0 125 -60 0 -60 0 0 -285z"/>
 <path d="M4296 843 c-3 -42 -6 -129 -6 -195 l0 -118 59 0 58 0 -4 173 c-5 225 -3 217 -57 217 l-43 0 -7 -77z"/>
 </g>

</svg>