<!DOCTYPE svg PUBLIC "-//W3C//DTD SVG 20010904//EN" "http://www.w3.org/TR/2001/REC-SVG-20010904/DTD/svg10.dtd">
<svg version="1.0" xmlns="http://www.w3.org/2000/svg" width="512px" height="160px" viewBox="0 0 5120 1600" preserveAspectRatio="xMidYMid meet">
<g id="layer101" fill="#1c94d1" stroke="none">
 <path d="M0 1595 c0 -4 69 -131 154 -283 321 -580 423 -782 551 -1100 43 -105 80 -192 84 -192 3 0 22 40 43 88 l36 87 2126 3 2126 2 0 605 0 605 -1820 0 -1821 0 52 95 c28 52 49 95 46 95 -2 0 -71 -39 -153 -86 -245 -142 -397 -211 -529 -238 -55 -11 -60 -14 -57 -37 15 -139 13 -164 -10 -209 -13 -24 -28 -46 -35 -48 -19 -6 -51 57 -58 112 -3 30 0 75 8 109 8 31 12 59 8 61 -3 2 -28 7 -54 10 -113 17 -276 87 -512 223 -171 98 -185 105 -185 98z"/>
 </g>
<g id="layer102" fill="#f3fcfe" stroke="none">
 <path d="M0 1595 c0 -4 69 -131 154 -283 321 -580 423 -782 551 -1100 43 -105 80 -192 84 -192 3 0 21 37 40 83 105 255 151 358 247 550 101 201 309 592 443 831 33 61 59 111 57 113 -1 2 -70 -36 -152 -83 -245 -142 -397 -211 -529 -238 -55 -11 -60 -14 -57 -37 15 -139 13 -164 -10 -209 -13 -24 -28 -46 -35 -48 -19 -6 -51 57 -58 112 -3 30 0 75 8 109 8 31 12 59 8 61 -3 2 -28 7 -54 10 -113 17 -276 87 -512 223 -171 98 -185 105 -185 98z m321 -259 c121 -63 281 -126 320 -126 17 0 19 -8 19 -73 0 -133 54 -227 130 -227 77 0 134 93 134 223 1 65 3 77 18 77 36 0 199 65 316 126 67 35 122 61 122 58 0 -3 -20 -45 -45 -93 -41 -77 -54 -92 -118 -139 -40 -29 -81 -59 -92 -67 -11 -8 9 -3 44 10 36 14 66 24 67 22 1 -1 -60 -120 -136 -265 -120 -230 -168 -330 -285 -597 l-26 -60 -61 145 c-33 80 -65 158 -71 173 -11 27 -9 31 45 83 31 30 53 54 49 54 -4 0 -33 -16 -66 -35 -32 -20 -59 -34 -60 -33 -1 2 -44 84 -95 183 -92 179 -299 559 -328 603 -8 12 -12 22 -9 22 3 0 60 -29 128 -64z"/>
 <path d="M2430 1101 c-105 -22 -171 -100 -191 -224 -13 -78 3 -174 38 -240 63 -115 221 -150 334 -74 121 81 147 320 50 454 -47 65 -148 101 -231 84z m100 -106 c50 -26 65 -67 65 -180 0 -113 -15 -154 -65 -180 -60 -31 -122 -9 -155 55 -21 41 -22 207 -1 248 34 66 95 88 156 57z"/>
 <path d="M4038 1096 c-121 -33 -178 -125 -178 -287 0 -198 126 -318 296 -280 77 18 145 83 168 160 20 68 21 182 1 247 -36 123 -163 194 -287 160z m131 -112 c37 -31 51 -77 51 -169 0 -130 -31 -183 -112 -192 -37 -4 -49 -1 -76 22 -41 35 -55 88 -50 196 3 69 8 91 27 118 41 57 109 68 160 25z"/>
 <path d="M4463 1100 c-52 -21 -51 -90 2 -110 72 -28 120 76 50 108 -14 7 -27 12 -28 11 -1 0 -12 -4 -24 -9z"/>
 <path d="M1837 1093 c-4 -3 -7 -132 -7 -285 l0 -278 191 0 190 0 -3 43 -3 42 -127 3 -128 3 0 239 0 240 -53 0 c-30 0 -57 -3 -60 -7z"/>
 <path d="M2800 815 l0 -286 148 3 c165 3 209 16 243 72 35 58 18 160 -32 187 -21 11 -21 11 8 29 65 39 78 149 26 211 -47 55 -74 63 -240 67 l-153 4 0 -287z m257 185 c54 -19 69 -85 28 -125 -21 -22 -33 -25 -95 -25 l-70 0 0 80 0 80 54 0 c29 0 67 -5 83 -10z m-8 -241 c33 -12 45 -37 39 -85 -4 -37 -37 -54 -110 -54 l-58 0 0 75 0 75 49 0 c26 0 62 -5 80 -11z"/>
 <path d="M3310 815 l0 -285 60 0 60 0 0 115 0 115 115 0 115 0 0 -115 0 -115 60 0 60 0 -2 283 -3 282 -57 3 -58 3 0 -126 0 -125 -115 0 -115 0 0 125 0 125 -60 0 -60 0 0 -285z"/>
 <path d="M4436 843 c-3 -42 -6 -129 -6 -195 l0 -118 59 0 58 0 -4 173 c-5 225 -3 217 -57 217 l-43 0 -7 -77z"/>
 </g>

</svg>