<!DOCTYPE svg PUBLIC "-//W3C//DTD SVG 20010904//EN" "http://www.w3.org/TR/2001/REC-SVG-20010904/DTD/svg10.dtd">
<svg version="1.0" xmlns="http://www.w3.org/2000/svg" width="512px" height="160px" viewBox="0 0 5120 1600" preserveAspectRatio="xMidYMid meet">
<g id="layer101" fill="#bd3137" stroke="none">
 <path d="M680 1398 c0 -7 9 -37 20 -65 l20 -53 -360 0 -360 0 0 -470 0 -470 418 0 419 0 -9 -61 c-4 -33 -5 -65 -2 -70 3 -5 884 -9 2150 -9 l2144 0 0 605 0 605 -2220 0 c-1769 0 -2220 -3 -2220 -12z"/>
 </g>
<g id="layer102" fill="#eb1b22" stroke="none">
 <path d="M680 1402 c0 -5 9 -34 19 -65 l20 -57 -360 0 -359 0 0 -470 0 -470 419 0 418 0 -3 -22 c-2 -13 -5 -42 -8 -66 l-4 -42 2149 0 2149 0 0 600 0 600 -2220 0 c-1221 0 -2220 -4 -2220 -8z m857 -494 c-2 -24 -4 -5 -4 42 0 47 2 66 4 43 2 -24 2 -62 0 -85z m-280 -30 c-2 -29 -3 -8 -3 47 0 55 1 79 3 53 2 -26 2 -71 0 -100z m-440 -235 c-1 -65 -3 -12 -3 117 0 129 2 182 3 118 2 -65 2 -171 0 -235z m49 -120 c-3 -7 -13 -12 -23 -12 -17 1 -17 2 0 6 15 4 17 25 19 231 l3 227 2 -220 c2 -121 1 -225 -1 -232z m237 265 c8 -5 6 -8 -5 -8 -16 0 -18 10 -16 93 l2 92 3 -85 c3 -51 9 -87 16 -92z m14 65 c-2 -21 -4 -4 -4 37 0 41 2 58 4 38 2 -21 2 -55 0 -75z m548 77 c-4 -12 -9 -19 -12 -17 -3 3 -2 15 2 27 4 12 9 19 12 17 3 -3 2 -15 -2 -27z m-1304 10 c8 12 10 12 7 -5 -2 -11 -10 -20 -18 -20 -8 0 -16 9 -18 20 -3 17 -1 17 7 5 10 -13 12 -13 22 0z m1006 -242 c-1 -46 -3 -9 -3 82 0 91 2 128 3 83 2 -46 2 -120 0 -165z m30 0 c-1 -46 -3 -9 -3 82 0 91 2 128 3 83 2 -46 2 -120 0 -165z m320 120 c-2 -13 -4 -5 -4 17 -1 22 1 32 4 23 2 -10 2 -28 0 -40z m-37 25 c0 -14 -2 -15 -9 -4 -7 11 -9 11 -14 0 -4 -10 -6 -9 -6 4 -1 9 6 17 14 17 8 0 15 -8 15 -17z m-577 -91 c-7 -4 -13 -39 -16 -82 l-3 -75 -2 83 c-2 72 0 82 16 82 11 0 13 -3 5 -8z m14 -119 c-2 -21 -4 -6 -4 32 0 39 2 55 4 38 2 -18 2 -50 0 -70z m-610 -5 c-2 -18 -4 -4 -4 32 0 36 2 50 4 33 2 -18 2 -48 0 -65z m30 0 c-2 -18 -4 -4 -4 32 0 36 2 50 4 33 2 -18 2 -48 0 -65z m50 -5 c-2 -16 -4 -5 -4 22 0 28 2 40 4 28 2 -13 2 -35 0 -50z m40 0 c-2 -16 -4 -5 -4 22 0 28 2 40 4 28 2 -13 2 -35 0 -50z"/>
 </g>
<g id="layer103" fill="#fff8f8" stroke="none">
 <path d="M0 812 l0 -472 1010 0 1010 0 0 465 0 465 -468 0 c-258 0 -712 3 -1010 7 l-542 6 0 -471z m1910 -2 l0 -350 -900 0 -900 0 0 350 0 350 900 0 900 0 0 -350z"/>
 <path d="M280 1078 c0 -7 9 -123 20 -258 11 -135 20 -257 20 -272 0 -25 4 -28 34 -28 l34 0 6 118 c8 153 14 246 22 360 l6 92 -26 0 c-25 0 -25 -1 -28 -87 -2 -70 -6 -88 -18 -88 -11 0 -17 21 -25 85 -8 68 -13 85 -27 88 -10 2 -18 -2 -18 -10z m89 -315 c-2 -166 -12 -219 -22 -109 -4 43 -7 114 -7 158 0 63 3 78 15 78 13 0 15 -20 14 -127z"/>
 <path d="M450 805 l0 -285 48 0 c78 0 82 7 88 149 2 83 0 129 -7 138 -8 9 -8 17 -1 26 7 8 10 59 9 132 -2 116 -3 120 -24 123 -23 3 -23 3 -23 -127 0 -124 -1 -131 -20 -131 -19 0 -20 7 -20 130 l0 130 -25 0 -25 0 0 -285z m88 -127 c-3 -108 -5 -123 -20 -126 -16 -3 -18 8 -18 122 0 120 1 126 20 126 20 0 20 -5 18 -122z"/>
 <path d="M630 821 c0 -234 -2 -271 -15 -271 -8 0 -15 -7 -15 -15 0 -12 13 -15 55 -15 42 0 55 3 55 15 0 8 -7 15 -15 15 -13 0 -15 39 -17 268 l-3 267 -22 3 -23 3 0 -270z"/>
 <path d="M703 1074 c-3 -8 -1 -20 5 -26 16 -16 42 -2 42 22 0 24 -38 28 -47 4z"/>
 <path d="M820 805 c0 -278 0 -285 20 -285 19 0 20 7 20 203 0 266 7 337 31 337 11 0 19 7 19 15 0 11 -12 15 -45 15 l-45 0 0 -285z"/>
 <path d="M930 805 l0 -286 40 3 c42 3 56 21 20 26 -19 3 -20 10 -20 108 0 86 3 104 15 104 8 0 15 7 15 15 0 8 -7 15 -15 15 -13 0 -15 22 -15 134 0 128 1 135 20 138 38 6 26 23 -17 26 l-43 3 0 -286z"/>
 <path d="M1035 1077 c-3 -7 -4 -134 -3 -282 l3 -270 56 -3 c78 -4 81 2 76 135 -6 127 -6 97 0 260 4 123 3 133 -16 152 -24 24 -108 30 -116 8z m83 -154 c-3 -122 -5 -138 -20 -141 -16 -3 -18 9 -18 137 0 135 1 141 20 141 20 0 20 -5 18 -137z m2 -268 c0 -98 -1 -105 -20 -105 -19 0 -20 7 -20 105 0 98 1 105 20 105 19 0 20 -7 20 -105z"/>
 <path d="M1210 805 l0 -286 40 3 c42 3 56 21 20 26 -19 3 -20 10 -20 108 0 86 3 104 15 104 8 0 15 5 15 10 0 6 -7 13 -15 16 -12 5 -15 30 -15 139 0 127 1 134 20 137 38 6 26 23 -17 26 l-43 3 0 -286z"/>
 <path d="M1315 1077 c-3 -7 -4 -134 -3 -282 l3 -270 47 -3 c37 -2 51 1 68 18 20 20 21 28 18 271 -3 235 -4 252 -22 265 -25 18 -105 19 -111 1z m85 -272 c0 -248 -1 -255 -20 -255 -19 0 -20 7 -20 255 0 248 1 255 20 255 19 0 20 -7 20 -255z"/>
 <path d="M1490 805 l0 -286 40 3 c42 3 56 21 20 26 -19 3 -20 10 -20 108 0 86 3 104 15 104 8 0 15 7 15 15 0 8 -7 15 -15 15 -13 0 -15 22 -15 134 0 128 1 135 20 138 38 6 26 23 -17 26 l-43 3 0 -286z"/>
 <path d="M1626 1068 c-3 -13 -10 -129 -16 -258 -6 -129 -12 -246 -13 -260 -2 -19 3 -26 19 -28 21 -3 22 0 29 223 4 124 11 227 15 230 5 3 11 -43 14 -103 4 -59 8 -138 11 -177 2 -38 5 -94 5 -122 0 -50 1 -53 26 -53 25 0 25 1 20 53 -3 28 -15 151 -26 272 -12 121 -23 226 -25 233 -2 6 -16 12 -29 12 -18 0 -27 -6 -30 -22z"/>
 <path d="M2807 1099 c-81 -19 -132 -62 -168 -144 -34 -75 -31 -211 4 -289 32 -69 76 -111 140 -132 83 -28 188 -3 244 58 48 51 67 116 68 223 0 88 -3 107 -27 157 -32 68 -86 112 -159 127 -56 12 -50 12 -102 0z m130 -123 c12 -15 27 -45 34 -69 15 -56 7 -183 -14 -224 -32 -61 -111 -81 -161 -42 -45 36 -56 69 -56 174 0 105 11 138 57 175 39 30 108 23 140 -14z"/>
 <path d="M4433 1100 c-89 -18 -152 -76 -178 -164 -22 -73 -19 -194 6 -260 78 -211 379 -200 444 16 19 65 19 180 0 244 -35 118 -150 187 -272 164z m116 -116 c38 -32 51 -77 51 -177 0 -122 -32 -175 -113 -184 -36 -4 -48 -1 -74 21 -44 37 -56 82 -51 192 3 75 8 99 24 121 43 58 113 70 163 27z"/>
 <path d="M4843 1099 c-12 -4 -27 -18 -33 -30 -26 -47 33 -101 85 -77 70 32 21 134 -52 107z"/>
 <path d="M2215 1087 c-3 -7 -4 -134 -3 -282 l3 -270 185 0 185 0 3 43 3 42 -130 0 -131 0 0 240 0 240 -55 0 c-36 0 -57 -5 -60 -13z"/>
 <path d="M3180 814 l0 -286 148 4 c165 4 209 17 243 72 36 58 18 160 -33 187 l-22 12 27 14 c67 35 81 155 26 218 -44 50 -104 65 -261 65 l-128 0 0 -286z m269 181 c46 -23 54 -83 16 -120 -21 -22 -33 -25 -95 -25 l-70 0 0 80 0 80 60 0 c34 0 74 -7 89 -15z m-20 -236 c33 -12 45 -37 39 -85 -4 -37 -37 -54 -110 -54 l-58 0 0 75 0 75 49 0 c26 0 62 -5 80 -11z"/>
 <path d="M3690 815 l0 -285 60 0 60 0 0 115 0 115 115 0 115 0 0 -115 0 -115 60 0 60 0 -2 283 -3 282 -57 3 -58 3 0 -126 0 -125 -115 0 -115 0 0 125 0 125 -60 0 -60 0 0 -285z"/>
 <path d="M4816 843 c-3 -42 -6 -129 -6 -195 l0 -118 59 0 58 0 -4 173 c-5 225 -3 217 -57 217 l-43 0 -7 -77z"/>
 </g>

</svg>