<!DOCTYPE svg PUBLIC "-//W3C//DTD SVG 20010904//EN" "http://www.w3.org/TR/2001/REC-SVG-20010904/DTD/svg10.dtd">
<svg version="1.0" xmlns="http://www.w3.org/2000/svg" width="512px" height="160px" viewBox="0 0 5120 1600" preserveAspectRatio="xMidYMid meet">
<g id="layer101" fill="#675c5f" stroke="none">
 <path d="M1000 1551 c-46 -14 -114 -53 -171 -98 l-56 -44 -51 35 c-57 38 -141 72 -201 82 -100 16 -220 -56 -258 -154 -19 -51 -24 -171 -10 -254 l8 -46 -56 -26 c-67 -31 -157 -113 -185 -170 -30 -62 -27 -148 6 -215 33 -66 113 -131 205 -167 l67 -26 4 -102 c3 -77 9 -113 27 -151 83 -185 271 -210 463 -62 l48 37 62 -40 c74 -48 142 -70 217 -70 71 0 125 25 173 78 l38 42 1895 0 1895 0 0 605 0 605 -1910 0 c-1058 0 -1910 4 -1910 9 0 19 -87 105 -125 122 -41 19 -128 24 -175 10z"/>
 </g>
<g id="layer102" fill="#fdfcfd" stroke="none">
 <path d="M1000 1551 c-46 -14 -114 -53 -171 -98 l-56 -44 -51 35 c-57 38 -141 72 -201 82 -100 16 -220 -56 -258 -154 -19 -51 -24 -171 -10 -254 l8 -46 -56 -26 c-67 -31 -157 -113 -185 -170 -30 -62 -27 -148 6 -215 33 -66 113 -131 205 -167 l67 -26 4 -102 c3 -77 9 -113 27 -151 83 -185 271 -210 463 -62 l48 37 62 -40 c107 -70 229 -89 313 -51 56 25 111 90 129 152 17 57 21 172 7 231 l-9 38 62 30 c207 98 280 286 167 429 -40 50 -140 116 -200 132 l-46 11 4 84 c7 166 -49 288 -154 335 -41 19 -128 24 -175 10z m150 -113 c106 -72 106 -295 1 -574 -50 -131 -71 -169 -96 -169 -32 0 -29 28 19 147 66 166 90 265 90 378 1 78 -3 101 -19 130 -18 31 -27 35 -66 38 -37 2 -54 -3 -104 -36 -121 -78 -268 -266 -367 -470 l-50 -103 43 -67 c90 -139 80 -132 175 -132 325 0 684 131 684 250 0 35 -42 80 -106 110 -52 26 -64 45 -40 68 15 15 19 14 62 -6 72 -35 111 -69 134 -117 18 -38 20 -49 10 -85 -38 -140 -307 -255 -643 -276 -56 -4 -108 -10 -115 -14 -24 -12 175 -192 258 -234 80 -40 105 -43 137 -21 33 23 46 78 39 160 -5 60 -4 74 9 78 40 16 55 -18 55 -127 -1 -157 -97 -222 -241 -162 -76 31 -157 95 -270 214 l-94 99 -87 7 -87 7 -7 -48 c-11 -69 -9 -153 5 -196 26 -77 84 -84 181 -23 41 26 59 32 72 25 40 -22 7 -62 -86 -105 -46 -21 -68 -25 -107 -22 -91 9 -132 75 -133 213 -1 50 2 109 7 132 6 39 5 43 -12 43 -29 0 -160 49 -202 75 -44 28 -87 78 -95 111 -17 68 24 144 105 195 52 33 85 34 89 3 2 -15 -10 -28 -47 -52 -50 -31 -91 -82 -91 -114 0 -27 49 -77 100 -103 48 -24 168 -62 173 -54 1 2 14 40 29 84 l27 80 -36 75 c-75 160 -120 343 -107 430 22 139 125 178 272 105 77 -39 97 -57 88 -80 -10 -28 -32 -26 -91 9 -97 59 -162 60 -191 4 -13 -25 -15 -49 -11 -117 6 -92 27 -168 77 -277 l31 -69 50 94 c78 149 156 259 254 358 137 139 247 183 325 131z m-270 -576 c20 -25 26 -66 14 -97 -8 -19 -55 -45 -82 -45 -28 0 -69 35 -76 66 -22 86 90 145 144 76z"/>
 <path d="M522 679 c-5 -13 -13 -39 -17 -56 -7 -33 -6 -33 32 -34 21 0 46 -2 56 -4 20 -4 21 -5 -39 84 l-23 34 -9 -24z"/>
 <path d="M2512 1091 c-123 -43 -186 -172 -163 -334 18 -127 83 -205 189 -228 161 -34 276 70 289 260 15 221 -136 366 -315 302z m128 -96 c44 -23 63 -68 68 -163 3 -63 0 -93 -13 -128 -40 -105 -169 -113 -210 -12 -20 51 -21 208 0 248 33 64 95 86 155 55z"/>
 <path d="M4148 1096 c-119 -32 -178 -125 -178 -281 0 -165 75 -269 208 -291 109 -17 224 57 256 165 21 72 20 185 -1 252 -24 73 -84 132 -154 153 -61 19 -69 19 -131 2z m131 -112 c17 -14 35 -42 41 -62 14 -53 12 -187 -4 -226 -31 -75 -116 -100 -175 -50 -41 34 -54 83 -50 192 3 73 8 96 25 119 43 58 112 70 163 27z"/>
 <path d="M4582 1102 c-12 -2 -30 -15 -39 -29 -15 -22 -15 -28 -2 -51 27 -49 103 -44 116 6 10 42 -30 82 -75 74z"/>
 <path d="M1947 1093 c-9 -8 -9 -526 -1 -547 5 -14 31 -16 189 -16 l182 0 -1 45 -1 45 -127 0 -128 0 0 240 0 240 -53 0 c-30 0 -57 -3 -60 -7z"/>
 <path d="M2910 814 l0 -286 148 4 c165 4 209 17 243 72 36 58 18 160 -33 187 -20 11 -20 12 10 30 40 26 55 67 50 136 -4 49 -10 61 -40 89 -46 41 -106 54 -258 54 l-120 0 0 -286z m269 181 c48 -24 56 -81 16 -120 -21 -22 -33 -25 -95 -25 l-70 0 0 80 0 80 60 0 c34 0 74 -7 89 -15z m-20 -236 c21 -7 33 -20 38 -37 19 -71 -12 -102 -103 -102 l-64 0 0 75 0 75 49 0 c26 0 62 -5 80 -11z"/>
 <path d="M3420 815 l0 -285 60 0 60 0 0 115 0 115 115 0 115 0 0 -115 0 -116 58 3 57 3 0 280 0 280 -57 3 -58 3 0 -126 0 -125 -115 0 -115 0 0 125 0 125 -60 0 -60 0 0 -285z"/>
 <path d="M4547 848 c-2 -40 -6 -128 -6 -195 l-2 -123 58 0 58 0 -3 172 c-3 224 -2 218 -56 218 l-43 0 -6 -72z"/>
 </g>

</svg>