<!DOCTYPE svg PUBLIC "-//W3C//DTD SVG 20010904//EN" "http://www.w3.org/TR/2001/REC-SVG-20010904/DTD/svg10.dtd">
<svg version="1.0" xmlns="http://www.w3.org/2000/svg" width="512px" height="160px" viewBox="0 0 5120 1600" preserveAspectRatio="xMidYMid meet">
<g id="layer101" fill="#543d7c" stroke="none">
 <path d="M145 1583 c-49 -26 -96 -75 -121 -128 l-24 -50 0 -591 c0 -664 -2 -648 73 -724 23 -23 62 -52 87 -64 44 -21 56 -21 640 -21 588 0 596 0 642 22 56 26 123 92 140 139 l12 34 1763 0 1763 0 0 605 0 605 -1764 0 -1764 0 -7 29 c-8 39 -78 117 -126 141 -37 19 -62 20 -661 20 -547 -1 -627 -3 -653 -17z"/>
 </g>
<g id="layer102" fill="#fdfcfe" stroke="none">
 <path d="M145 1583 c-49 -26 -96 -75 -121 -128 l-24 -50 0 -591 c0 -664 -2 -648 73 -724 23 -23 62 -52 87 -64 44 -21 56 -21 640 -21 585 0 596 0 641 21 57 27 115 84 140 138 17 38 19 77 19 635 0 427 -3 605 -12 633 -15 49 -78 123 -129 148 -37 19 -62 20 -661 20 -547 -1 -627 -3 -653 -17z m1250 -59 c51 -28 91 -68 119 -119 21 -40 21 -46 21 -595 l0 -556 -26 -49 c-28 -56 -91 -109 -147 -125 -23 -6 -231 -10 -563 -10 -598 0 -590 -1 -666 77 -74 77 -74 75 -71 684 3 498 4 536 22 569 39 73 104 126 176 141 19 4 274 6 565 6 522 -2 531 -2 570 -23z"/>
 <path d="M460 821 l0 -431 230 0 c243 0 309 8 362 43 115 78 115 256 0 333 l-32 22 31 12 c98 41 144 147 118 270 -14 66 -60 119 -132 151 -50 23 -63 24 -314 27 l-263 3 0 -430z m484 295 c51 -21 76 -60 76 -118 0 -113 -46 -138 -254 -138 -122 0 -145 2 -150 16 -8 21 -8 239 1 247 13 14 292 8 327 -7z m5 -401 c53 -54 47 -151 -11 -181 -33 -17 -253 -32 -299 -21 -24 6 -24 8 -24 122 l0 116 152 -3 153 -3 29 -30z"/>
 <path d="M2555 1099 c-115 -15 -181 -84 -204 -215 -21 -115 10 -234 80 -302 82 -80 247 -75 326 10 48 51 68 116 68 224 0 92 -2 105 -30 159 -49 96 -131 139 -240 124z m85 -102 c44 -21 70 -90 70 -182 -1 -129 -44 -195 -129 -195 -34 0 -88 41 -102 77 -16 42 -13 207 5 241 33 64 97 88 156 59z"/>
 <path d="M4163 1100 c-89 -18 -152 -76 -178 -164 -22 -73 -19 -194 6 -260 42 -113 156 -173 277 -146 42 9 65 22 102 58 58 56 80 120 80 228 0 145 -61 246 -169 278 -60 18 -58 17 -118 6z m116 -116 c38 -32 51 -77 51 -177 0 -122 -32 -175 -113 -184 -36 -4 -48 -1 -74 21 -44 37 -56 82 -51 192 3 75 8 99 24 121 43 58 113 70 163 27z"/>
 <path d="M4573 1100 c-12 -5 -27 -19 -33 -31 -26 -47 35 -103 83 -78 45 24 50 67 11 98 -30 23 -30 23 -61 11z"/>
 <path d="M1948 1094 c-9 -8 -10 -507 -2 -538 l6 -26 182 0 181 0 0 45 1 45 -128 0 -128 0 0 240 0 240 -53 0 c-30 0 -56 -3 -59 -6z"/>
 <path d="M2910 814 l0 -286 148 4 c165 4 210 17 243 72 35 58 18 160 -32 187 -21 11 -21 11 7 30 70 45 76 165 11 225 -44 41 -106 54 -257 54 l-120 0 0 -286z m291 167 c27 -32 24 -77 -6 -106 -21 -22 -33 -25 -95 -25 l-70 0 0 81 0 81 76 -4 c65 -3 79 -7 95 -27z m-42 -222 c21 -7 33 -20 38 -37 19 -71 -12 -102 -103 -102 l-64 0 0 75 0 75 49 0 c26 0 62 -5 80 -11z"/>
 <path d="M3420 815 l0 -285 60 0 60 0 0 115 0 115 115 0 115 0 0 -115 0 -115 60 0 59 0 -2 283 -2 282 -57 3 -58 3 0 -126 0 -125 -115 0 -115 0 0 125 0 125 -60 0 -60 0 0 -285z"/>
 <path d="M4547 838 c-4 -46 -7 -134 -7 -195 l0 -113 58 0 58 0 -3 173 c-5 224 -3 217 -57 217 l-43 0 -6 -82z"/>
 </g>

</svg>