<!DOCTYPE svg PUBLIC "-//W3C//DTD SVG 20010904//EN" "http://www.w3.org/TR/2001/REC-SVG-20010904/DTD/svg10.dtd">
<svg version="1.0" xmlns="http://www.w3.org/2000/svg" width="512px" height="160px" viewBox="0 0 5120 1600" preserveAspectRatio="xMidYMid meet">
<g id="layer101" fill="#6f3010" stroke="none">
<path d="M639 1574 c-24 -7 -59 -28 -78 -46 -30 -29 -38 -32 -99 -33 -87 -1 -136 -27 -223 -115 -107 -108 -179 -246 -220 -418 -30 -125 -23 -322 14 -437 38 -115 90 -198 182 -290 171 -171 421 -246 618 -185 68 21 177 93 197 130 17 31 75 27 130 -10 62 -41 142 -70 215 -77 51 -5 81 0 174 27 l112 33 -22 23 -22 24 1751 0 1752 0 0 605 0 605 -1997 0 -1996 0 -56 59 c-43 45 -67 62 -101 71 -25 7 -61 19 -80 28 -45 20 -191 23 -251 6z"/>
</g>
<g id="layer102" fill="#533424" stroke="none">
<path d="M639 1574 c-24 -7 -59 -28 -78 -46 -30 -29 -38 -32 -99 -33 -87 -1 -136 -27 -223 -115 -107 -108 -179 -246 -220 -418 -30 -125 -23 -322 14 -437 38 -115 90 -198 182 -290 171 -171 421 -246 618 -185 68 21 177 93 197 130 17 31 75 27 130 -10 62 -41 142 -70 215 -77 51 -5 81 0 174 27 l112 33 -22 23 -22 24 1751 0 1752 0 0 605 0 605 -1997 0 -1996 0 -56 59 c-43 45 -67 62 -101 71 -25 7 -61 19 -80 28 -45 20 -191 23 -251 6z m164 -776 l32 -29 -50 24 c-27 13 -61 29 -75 35 -21 8 -18 9 18 5 29 -4 54 -16 75 -35z m397 32 c0 -5 -17 -9 -37 -9 -38 1 -38 1 -8 9 43 11 45 11 45 0z m-345 -31 c22 -10 29 -16 15 -13 -28 7 -80 33 -65 33 6 0 28 -9 50 -20z m530 -29 c-28 -12 -37 -12 -30 0 3 6 16 10 28 9 21 0 21 -1 2 -9z"/>
</g>
<g id="layer103" fill="#35493a" stroke="none">
<path d="M540 1278 c-144 -51 -254 -145 -314 -270 -40 -86 -56 -155 -56 -246 1 -266 176 -496 417 -547 88 -19 127 -19 192 1 59 17 126 72 156 127 18 33 18 33 -11 77 -25 38 -29 53 -29 114 1 48 6 82 18 103 l17 33 -41 45 c-44 48 -102 85 -162 105 -52 16 -43 20 26 9 72 -12 155 -48 186 -83 29 -31 52 -32 200 -9 138 21 178 21 197 -3 14 -18 14 -18 12 1 -2 11 -9 22 -17 26 -13 5 137 42 151 36 3 -1 16 11 29 26 17 22 19 31 9 37 -8 5 -10 17 -6 34 5 22 2 28 -20 36 -15 6 -41 12 -58 13 -23 2 -32 8 -34 25 -5 31 -40 52 -88 52 -33 0 -45 5 -58 24 -19 30 -63 41 -112 27 -30 -8 -41 -7 -54 4 -22 20 -100 19 -128 -1 -21 -15 -22 -14 -22 18 0 52 -56 137 -114 173 -43 26 -60 30 -135 33 -69 2 -99 -2 -151 -20z m930 -402 c0 -8 8 -17 18 -19 11 -3 8 -5 -9 -6 -19 -1 -28 5 -32 19 -3 13 0 20 9 20 8 0 14 -6 14 -14z m-50 -10 c0 -15 -48 -28 -65 -18 -5 3 4 12 20 18 39 17 45 17 45 0z m-210 -36 c-8 -5 -31 -9 -50 -9 l-35 1 30 8 c17 4 39 8 50 9 16 1 17 -1 5 -9z m-470 -280 c25 -13 41 -65 30 -94 -11 -29 -47 -56 -76 -56 -12 0 -33 9 -48 21 -33 26 -37 88 -6 119 21 21 69 26 100 10z"/>
<path d="M1115 597 c-12 -15 -18 -45 -11 -62 6 -16 88 -2 124 21 26 17 25 23 -5 29 -10 2 -18 4 -18 5 0 1 -7 3 -15 5 -8 1 -26 6 -40 9 -15 3 -29 1 -35 -7z"/>
<path d="M1235 496 l-40 -34 18 -31 c14 -25 15 -31 4 -31 -8 0 -19 11 -25 25 -13 28 -20 30 -45 11 -16 -12 -17 -18 -7 -38 7 -13 19 -31 28 -41 8 -9 20 -27 26 -39 13 -25 168 -89 182 -75 3 3 -4 24 -15 48 -11 24 -28 79 -37 122 -9 42 -23 86 -33 97 -16 20 -17 19 -56 -14z"/>
</g>
<g id="layer104" fill="#2cb14a" stroke="none">
<path d="M540 1278 c-144 -51 -254 -145 -314 -270 -40 -86 -56 -155 -56 -246 1 -266 176 -496 417 -547 88 -19 127 -19 192 1 59 17 126 72 156 127 18 33 18 33 -11 77 -25 38 -29 53 -29 114 1 48 6 82 18 103 l17 33 -41 45 c-44 48 -102 85 -162 105 -52 16 -43 20 25 9 74 -12 145 -43 185 -81 32 -30 33 -31 105 -24 184 17 435 71 468 101 24 21 17 37 -13 30 -24 -5 -340 -35 -360 -34 -6 0 73 18 176 39 103 20 191 41 195 45 10 9 -27 35 -52 36 -12 1 -28 2 -36 3 -8 0 -16 11 -18 23 -5 32 -40 53 -88 53 -33 0 -45 5 -58 24 -19 30 -63 41 -112 27 -30 -8 -41 -7 -54 4 -22 20 -100 19 -128 -1 -21 -15 -22 -14 -22 18 0 52 -56 137 -114 173 -43 26 -60 30 -135 33 -69 2 -99 -2 -151 -20z m200 -728 c25 -13 41 -65 30 -94 -11 -29 -47 -56 -76 -56 -12 0 -33 9 -48 21 -33 26 -37 88 -6 119 21 21 69 26 100 10z"/>
</g>
<g id="layer105" fill="#ef5830" stroke="none">
<path d="M639 1574 c-24 -7 -59 -28 -78 -46 -30 -29 -38 -32 -99 -33 -87 -1 -136 -27 -223 -115 -107 -108 -179 -246 -220 -418 -30 -125 -23 -322 14 -437 38 -115 90 -198 182 -290 171 -171 421 -246 618 -185 68 21 177 93 197 130 17 31 75 27 130 -10 62 -41 142 -70 215 -77 51 -5 81 0 174 27 l112 33 -22 23 -22 24 1751 0 1752 0 0 605 0 605 -1997 0 -1996 0 -56 59 c-43 45 -67 62 -101 71 -25 7 -61 19 -80 28 -45 20 -191 23 -251 6z m214 -115 c15 -11 41 -19 62 -19 37 0 53 -12 113 -84 32 -40 29 -87 -13 -163 -19 -35 -35 -65 -35 -68 0 -2 15 1 32 6 47 13 91 11 113 -5 16 -11 24 -11 52 0 49 21 96 17 137 -11 24 -16 51 -25 77 -25 62 0 107 -24 124 -65 10 -23 22 -35 35 -35 36 0 72 -42 77 -93 8 -69 -10 -102 -72 -132 -59 -29 -276 -77 -438 -96 -101 -12 -107 -14 -101 -33 13 -40 58 -50 69 -15 7 20 12 21 62 15 71 -8 111 -26 150 -66 37 -38 55 -82 78 -193 12 -57 26 -89 51 -122 40 -53 34 -60 -50 -53 -94 8 -214 84 -276 177 -12 17 -21 21 -45 16 -25 -6 -34 -16 -54 -61 -30 -68 -91 -132 -156 -164 -66 -33 -192 -39 -285 -15 -212 55 -381 227 -436 445 -24 92 -21 262 5 363 42 160 146 328 245 395 71 48 134 43 182 -15 l22 -25 16 49 c19 58 41 92 67 101 10 4 52 8 93 9 61 2 79 -2 99 -18z"/>
<path d="M540 1278 c-144 -51 -254 -145 -314 -270 -40 -86 -56 -155 -56 -246 1 -266 176 -496 417 -547 88 -19 127 -19 192 1 59 17 126 72 156 127 18 33 18 33 -11 77 -25 38 -29 53 -29 114 1 48 6 82 18 103 l17 33 -41 45 c-44 48 -102 85 -162 105 -52 16 -43 20 26 9 72 -12 155 -48 186 -83 17 -18 35 -26 59 -26 62 0 358 48 417 68 22 7 -28 14 -195 28 l-95 8 85 16 c66 12 86 19 88 33 3 12 -7 22 -33 33 -20 8 -40 12 -45 9 -6 -4 -14 4 -19 17 -14 37 -39 52 -92 54 -27 2 -59 10 -71 18 -12 9 -41 16 -65 16 -41 0 -63 13 -43 25 5 3 10 23 10 44 0 56 -54 138 -114 176 -43 26 -60 30 -135 33 -69 2 -99 -2 -151 -20z m200 -728 c25 -13 41 -65 30 -94 -11 -29 -47 -56 -76 -56 -12 0 -33 9 -48 21 -33 26 -37 88 -6 119 21 21 69 26 100 10z"/>
</g>
<g id="layer106" fill="#2ca8dd" stroke="none">
<path d="M1117 593 c-2 -5 -7 -21 -11 -36 l-7 -29 53 7 c58 8 91 22 83 34 -4 8 -82 31 -104 31 -5 0 -12 -3 -14 -7z"/>
<path d="M1238 499 c-21 -17 -38 -35 -38 -40 0 -5 18 -40 41 -76 46 -76 18 -60 -33 19 -35 53 -35 53 -61 34 -17 -13 -17 -17 -3 -43 31 -60 130 -132 204 -148 38 -8 38 -8 12 47 -11 24 -27 78 -36 121 -9 42 -23 86 -33 97 -16 19 -17 19 -53 -11z"/>
</g>
<g id="layer107" fill="#fece2f" stroke="none">
<path d="M540 1278 c-89 -31 -155 -72 -216 -132 -47 -48 -111 -142 -102 -151 2 -2 21 0 43 5 60 14 131 12 173 -6 31 -13 47 -13 100 -3 109 20 196 -7 283 -87 28 -27 62 -69 77 -94 40 -71 61 -90 100 -90 62 0 358 48 417 68 22 7 -28 14 -195 28 l-95 8 85 16 c66 12 86 19 88 33 3 12 -7 22 -33 33 -20 8 -40 12 -45 9 -6 -4 -14 4 -19 17 -14 37 -39 52 -92 54 -27 2 -59 10 -71 18 -12 9 -41 16 -65 16 -41 0 -63 13 -43 25 5 3 10 23 10 44 0 56 -54 138 -114 176 -43 26 -60 30 -135 33 -69 2 -99 -2 -151 -20z"/>
<path d="M662 610 c-55 -13 -102 -70 -102 -125 0 -138 188 -186 250 -64 54 106 -31 214 -148 189z m78 -60 c25 -13 41 -65 30 -94 -11 -29 -47 -56 -76 -56 -12 0 -33 9 -48 21 -33 26 -37 88 -6 119 21 21 69 26 100 10z"/>
</g>
<g id="layer108" fill="#fffdfb" stroke="none">
<path d="M639 1574 c-24 -7 -59 -28 -78 -46 -30 -29 -38 -32 -99 -33 -87 -1 -136 -27 -223 -115 -107 -108 -179 -246 -220 -418 -30 -125 -23 -322 14 -437 38 -115 90 -198 182 -290 217 -217 541 -270 742 -122 32 24 71 62 87 85 l28 42 39 -34 c79 -67 202 -116 294 -116 22 0 88 14 147 31 l107 31 -75 82 c-90 96 -97 108 -117 207 -8 42 -25 96 -36 119 -22 45 -17 59 19 60 8 0 53 13 99 29 105 37 155 82 177 159 30 101 -3 198 -85 257 -27 20 -52 42 -55 50 -8 22 -107 74 -155 81 -25 4 -65 16 -90 27 -31 14 -65 19 -115 19 l-71 -1 -1 57 c-1 69 -17 102 -86 175 -39 41 -64 58 -98 67 -25 7 -61 19 -80 28 -45 20 -191 23 -251 6z m214 -115 c15 -11 41 -19 62 -19 37 0 53 -12 113 -84 32 -40 29 -87 -13 -163 -19 -35 -35 -65 -35 -68 0 -2 15 1 32 6 47 13 91 11 113 -5 16 -11 24 -11 52 0 49 21 96 17 137 -11 24 -16 51 -25 77 -25 62 0 107 -24 124 -65 10 -23 22 -35 35 -35 36 0 72 -42 77 -93 8 -69 -10 -102 -72 -132 -59 -29 -276 -77 -438 -96 -101 -12 -107 -14 -101 -33 13 -40 58 -50 69 -15 7 20 12 21 62 15 71 -8 111 -26 150 -66 37 -38 55 -82 78 -193 12 -57 26 -89 51 -122 40 -53 34 -60 -50 -53 -94 8 -214 84 -276 177 -12 17 -21 21 -45 16 -25 -6 -34 -16 -54 -61 -30 -68 -91 -132 -156 -164 -66 -33 -192 -39 -285 -15 -212 55 -381 227 -436 445 -24 92 -21 262 5 363 42 160 146 328 245 395 71 48 134 43 182 -15 l22 -25 16 49 c19 58 41 92 67 101 10 4 52 8 93 9 61 2 79 -2 99 -18z"/>
<path d="M936 584 c-18 -47 7 -148 39 -160 23 -9 140 32 192 67 24 17 43 32 41 34 -2 2 -25 -1 -52 -7 -39 -8 -61 -7 -105 6 -31 9 -67 18 -81 20 -14 3 3 3 38 1 34 -3 62 -3 62 -1 0 5 -109 56 -120 56 -4 0 -11 -7 -14 -16z"/>
<path d="M665 466 c-29 -21 -12 -46 30 -46 42 0 59 25 30 46 -10 8 -24 14 -30 14 -6 0 -20 -6 -30 -14z"/>
<path d="M2675 1099 c-115 -15 -185 -89 -206 -220 -19 -121 26 -262 100 -313 96 -65 234 -54 308 26 48 51 67 116 68 224 0 92 -2 105 -30 159 -49 96 -131 139 -240 124z m112 -123 c12 -15 27 -45 34 -69 15 -56 7 -183 -14 -224 -29 -54 -99 -78 -150 -51 -52 27 -67 66 -68 182 -1 103 11 139 58 176 39 30 108 23 140 -14z"/>
<path d="M2064 1087 c-3 -8 -4 -135 -2 -283 l3 -269 185 0 185 0 3 43 3 42 -130 0 -131 0 0 240 0 240 -55 0 c-37 0 -57 -4 -61 -13z"/>
<path d="M3030 814 l0 -286 148 4 c129 3 152 6 189 26 24 12 49 35 58 52 31 59 11 155 -37 181 -20 11 -20 12 10 30 66 43 76 151 20 215 -43 49 -105 64 -260 64 l-128 0 0 -286z m286 174 c8 -8 17 -31 21 -50 4 -30 1 -41 -20 -62 -23 -23 -34 -26 -97 -26 l-70 0 0 81 0 82 76 -5 c47 -3 81 -11 90 -20z m-39 -229 c35 -13 43 -25 43 -71 0 -51 -27 -68 -107 -68 l-63 0 0 75 0 75 49 0 c27 0 62 -5 78 -11z"/>
<path d="M3540 815 l0 -285 60 0 60 0 0 115 0 115 115 0 115 0 0 -115 0 -115 54 0 c40 0 55 4 60 16 8 20 8 518 0 538 -5 12 -20 16 -60 16 l-54 0 0 -125 0 -125 -115 0 -115 0 0 125 0 125 -60 0 -60 0 0 -285z"/>
<path d="M4224 1081 c-87 -40 -134 -135 -134 -272 0 -106 26 -175 86 -228 94 -82 225 -79 314 7 58 56 80 120 80 228 0 181 -87 284 -240 284 -42 0 -79 -7 -106 -19z m182 -102 c32 -30 44 -77 44 -172 0 -128 -36 -182 -120 -182 -92 0 -125 60 -118 211 4 101 19 135 69 162 33 18 96 8 125 -19z"/>
<path d="M4663 1074 c-15 -24 -15 -29 -2 -53 29 -52 119 -35 119 23 0 56 -85 78 -117 30z"/>
<path d="M4667 838 c-4 -46 -7 -134 -7 -195 l0 -113 58 0 57 0 -3 162 c-1 90 -5 178 -8 196 -5 30 -7 32 -48 32 l-43 0 -6 -82z"/>
</g>


</svg>