<!DOCTYPE svg PUBLIC "-//W3C//DTD SVG 20010904//EN" "http://www.w3.org/TR/2001/REC-SVG-20010904/DTD/svg10.dtd">
<svg version="1.0" xmlns="http://www.w3.org/2000/svg" width="512px" height="160px" viewBox="0 0 5120 1600" preserveAspectRatio="xMidYMid meet">
<g id="layer101" fill="#3a6b94" stroke="none">
 <path d="M659 1590 c-46 -13 -77 -40 -93 -79 -23 -58 -75 -69 -116 -26 -29 31 -95 34 -157 6 -45 -21 -69 -51 -79 -97 -5 -25 -17 -35 -75 -63 -54 -26 -77 -44 -101 -79 -38 -55 -49 -132 -25 -178 43 -84 202 -182 365 -225 85 -23 86 -24 118 -111 l13 -37 -37 -7 c-84 -15 -132 -65 -132 -139 0 -42 21 -152 46 -242 16 -56 95 -185 140 -227 41 -38 116 -62 214 -69 162 -12 285 29 389 129 l55 54 1968 0 1968 0 0 605 0 605 -1812 2 -1813 3 -78 28 c-55 19 -97 27 -143 27 -37 0 -87 6 -113 14 -63 20 -178 36 -256 36 -49 0 -65 3 -65 14 0 8 -14 26 -31 40 -24 20 -41 26 -77 25 -26 0 -59 -4 -73 -9z"/>
 </g>
<g id="layer102" fill="#e3b560" stroke="none">
 <path d="M659 1590 c-46 -13 -77 -40 -93 -79 -23 -58 -75 -69 -116 -26 -29 31 -95 34 -157 6 -45 -21 -69 -51 -79 -97 -5 -25 -17 -35 -75 -63 -54 -26 -77 -44 -101 -79 -38 -55 -49 -132 -25 -178 43 -84 202 -182 365 -225 85 -23 86 -24 118 -111 l13 -37 -37 -7 c-84 -15 -132 -65 -132 -139 0 -42 21 -152 46 -242 16 -56 95 -185 140 -227 41 -38 116 -62 214 -69 109 -9 189 5 270 45 94 46 170 126 220 231 22 47 40 95 40 106 0 11 11 33 25 49 38 45 84 167 100 266 8 49 16 89 17 90 2 1 36 12 77 25 41 13 92 33 115 46 23 12 66 37 98 54 63 35 124 97 134 136 9 37 -2 91 -30 149 -34 70 -138 151 -232 182 -206 66 -238 74 -301 74 -36 0 -86 6 -112 14 -63 20 -178 36 -256 36 -49 0 -65 3 -65 14 0 8 -14 26 -31 40 -24 20 -41 26 -77 25 -26 0 -59 -4 -73 -9z m361 -201 c41 -6 95 -17 120 -25 25 -8 77 -14 117 -14 47 0 89 -7 120 -19 26 -10 67 -22 90 -26 24 -4 45 -11 49 -16 3 -5 16 -9 29 -9 33 0 140 -83 159 -124 29 -62 18 -87 -54 -120 -19 -9 -57 -30 -85 -46 -41 -24 -222 -90 -248 -90 -4 0 -7 8 -7 19 0 39 -23 79 -66 115 -65 55 -201 86 -375 86 l-125 0 -3 81 c-1 45 -6 104 -12 132 -5 27 -9 51 -9 53 0 14 205 16 300 3z m-324 -119 c31 -121 30 -128 -3 -135 -16 -3 -43 -10 -61 -15 -28 -7 -38 -4 -75 23 -23 18 -54 38 -69 46 -40 21 -98 71 -98 85 0 21 72 54 161 75 46 11 92 19 103 18 14 -2 23 -22 42 -97z m-288 -72 c41 -35 95 -74 118 -88 l43 -26 -34 -27 c-36 -29 -45 -63 -23 -85 9 -9 16 -5 29 18 25 41 86 69 187 87 131 23 356 3 438 -40 44 -23 134 -115 134 -138 0 -10 -7 -65 -15 -122 -18 -119 -48 -208 -86 -257 -15 -19 -34 -57 -42 -85 -41 -138 -101 -216 -204 -267 -62 -30 -70 -32 -172 -30 -138 2 -166 14 -226 106 -46 70 -51 85 -79 211 -24 104 -22 115 16 115 17 0 50 -11 74 -25 33 -19 46 -35 60 -72 24 -65 29 -69 44 -33 16 38 19 110 6 128 -5 7 -10 20 -11 30 -1 9 -4 24 -7 32 -2 8 -15 47 -28 85 -12 39 -37 102 -55 141 -35 77 -39 80 -149 104 -87 19 -241 93 -277 133 -47 51 -35 95 34 126 40 17 106 37 135 40 8 0 48 -27 90 -61z"/>
 <path d="M666 952 c-3 -6 7 -13 24 -17 52 -11 103 -87 113 -167 6 -42 4 -49 -20 -68 -14 -11 -38 -23 -52 -27 -60 -14 -43 -33 32 -33 40 0 53 5 85 34 35 33 37 38 37 94 -1 48 -6 69 -31 108 -16 27 -43 55 -59 63 -38 18 -120 27 -129 13z"/>
 <path d="M928 783 c-10 -2 -18 -13 -18 -24 0 -30 44 -22 48 9 3 22 1 23 -30 15z"/>
 <path d="M880 675 c0 -7 -7 -18 -16 -23 -16 -9 -15 -12 2 -35 10 -15 25 -24 32 -22 8 3 23 5 34 5 14 0 18 5 14 16 -4 10 1 22 11 30 16 12 15 13 -15 14 -20 0 -35 6 -38 15 -8 19 -24 20 -24 0z"/>
 <path d="M771 601 c-17 -11 -7 -41 13 -41 19 0 28 14 20 34 -7 18 -13 19 -33 7z"/>
 <path d="M2066 1084 c-9 -24 -7 -527 2 -542 7 -9 51 -12 188 -10 l179 3 0 40 0 40 -127 3 -128 3 0 239 0 240 -54 0 c-40 0 -55 -4 -60 -16z"/>
 <path d="M2605 1084 c-106 -58 -158 -185 -135 -329 24 -152 104 -228 240 -229 103 -1 168 42 212 139 18 41 22 68 23 151 0 92 -2 105 -30 159 -20 40 -45 69 -73 90 -39 27 -53 30 -125 33 -61 2 -90 -2 -112 -14z m182 -108 c32 -38 46 -100 41 -186 -5 -87 -26 -133 -68 -155 -87 -45 -159 11 -175 137 -10 86 9 164 51 206 32 32 38 34 81 29 35 -4 53 -12 70 -31z"/>
 <path d="M3035 1087 c-3 -7 -4 -134 -3 -282 l3 -270 140 0 c161 0 211 14 245 70 35 57 20 157 -27 184 -16 9 -15 13 14 39 89 82 50 221 -71 257 -65 19 -294 21 -301 2z m286 -107 c26 -35 24 -76 -6 -106 -22 -22 -32 -25 -93 -22 l-67 3 -3 79 -3 78 76 -4 c67 -3 79 -6 96 -28z m-36 -224 c33 -14 35 -18 35 -60 0 -61 -25 -78 -107 -74 l-58 3 -3 73 -3 72 51 0 c28 0 66 -7 85 -14z"/>
 <path d="M3547 1093 c-4 -3 -7 -132 -7 -285 l0 -278 60 0 60 0 0 115 0 115 115 0 115 0 0 -115 0 -115 55 0 55 0 0 285 0 285 -55 0 -55 0 0 -125 0 -126 -112 3 -113 3 -3 123 -3 122 -53 0 c-29 0 -56 -3 -59 -7z"/>
 <path d="M4222 1079 c-86 -43 -132 -134 -132 -263 0 -108 22 -172 80 -227 127 -124 334 -67 385 105 19 64 19 178 0 242 -18 62 -67 121 -119 145 -58 26 -158 25 -214 -2z m184 -100 c13 -12 28 -39 34 -58 13 -47 13 -166 0 -213 -23 -82 -117 -115 -179 -63 -42 36 -54 81 -49 191 4 101 19 135 69 162 33 18 96 8 125 -19z"/>
 <path d="M4670 1085 c-29 -34 -10 -85 36 -99 28 -8 74 28 74 58 0 47 -80 77 -110 41z"/>
 <path d="M4667 838 c-4 -46 -7 -134 -7 -195 l0 -113 54 0 c34 0 56 5 59 13 2 6 1 86 -4 177 -4 91 -8 173 -8 183 -1 13 -10 17 -45 17 l-43 0 -6 -82z"/>
 </g>
<g id="layer103" fill="#fcfefe" stroke="none">
 <path d="M659 1590 c-46 -13 -77 -40 -93 -79 -23 -58 -75 -69 -116 -26 -29 31 -95 34 -157 6 -45 -21 -69 -51 -79 -97 -5 -25 -17 -35 -75 -63 -54 -26 -77 -44 -101 -79 -38 -55 -49 -132 -25 -178 43 -84 202 -182 365 -225 85 -23 86 -24 118 -111 l13 -37 -37 -7 c-84 -15 -132 -65 -132 -139 0 -42 21 -152 46 -242 16 -56 95 -185 140 -227 41 -38 116 -62 214 -69 109 -9 189 5 270 45 94 46 170 126 220 231 22 47 40 95 40 106 0 11 11 33 25 49 38 45 84 167 100 266 8 49 16 89 17 90 2 1 36 12 77 25 41 13 92 33 115 46 23 12 66 37 98 54 63 35 124 97 134 136 9 37 -2 91 -30 149 -34 70 -138 151 -232 182 -206 66 -238 74 -301 74 -36 0 -86 6 -112 14 -63 20 -178 36 -256 36 -49 0 -65 3 -65 14 0 8 -14 26 -31 40 -24 20 -41 26 -77 25 -26 0 -59 -4 -73 -9z m66 -154 l-7 -43 109 4 c114 4 237 -9 313 -33 25 -8 77 -14 117 -14 47 0 89 -7 120 -19 26 -10 67 -22 90 -26 24 -4 45 -11 49 -16 3 -5 16 -9 29 -9 33 0 140 -83 159 -124 29 -62 18 -87 -54 -120 -19 -9 -57 -30 -85 -46 -66 -39 -245 -96 -254 -81 -4 6 -15 -44 -24 -112 -19 -133 -47 -223 -89 -277 -14 -19 -33 -57 -41 -85 -41 -138 -101 -216 -204 -267 -62 -30 -70 -32 -172 -30 -138 2 -166 14 -226 106 -46 70 -51 85 -79 211 -24 104 -22 115 16 115 17 0 50 -11 74 -25 33 -19 46 -35 60 -72 24 -65 29 -69 44 -33 16 38 19 110 6 128 -5 7 -10 20 -11 30 -1 9 -4 24 -7 32 -2 8 -15 47 -28 85 -12 39 -37 102 -55 141 -35 77 -39 80 -149 104 -87 19 -241 93 -277 133 -47 51 -35 94 33 127 23 11 48 20 56 20 8 0 32 5 53 12 l39 11 0 59 c0 32 4 58 9 58 5 0 16 2 24 5 11 5 14 -4 13 -39 -1 -24 2 -48 7 -52 4 -4 24 2 45 14 21 11 80 31 132 42 52 12 98 26 102 33 4 7 8 26 8 44 0 31 19 52 48 53 10 0 12 -11 7 -44z"/>
 </g>

</svg>