<!DOCTYPE svg PUBLIC "-//W3C//DTD SVG 20010904//EN" "http://www.w3.org/TR/2001/REC-SVG-20010904/DTD/svg10.dtd">
<svg version="1.0" xmlns="http://www.w3.org/2000/svg" width="512px" height="160px" viewBox="0 0 5120 1600" preserveAspectRatio="xMidYMid meet">
<g id="layer101" fill="#df1820" stroke="none">
 <path d="M844 1525 c-31 -64 -38 -73 -48 -59 -11 15 -20 15 -113 0 -104 -17 -219 -19 -263 -7 -19 6 -35 1 -67 -22 -46 -32 -45 -25 -4 -121 31 -70 17 -82 -55 -50 -30 13 -59 24 -64 24 -5 0 -30 -30 -56 -67 -26 -38 -53 -73 -61 -79 -22 -19 -98 -254 -85 -263 7 -4 12 -42 13 -96 2 -81 7 -100 47 -195 36 -86 42 -110 34 -131 -8 -24 0 -34 112 -149 l121 -123 139 -58 c125 -52 149 -66 158 -91 2 -4 93 -8 203 -9 l200 -1 180 63 c99 34 184 66 189 71 6 5 2 14 -10 23 -17 13 194 14 1779 15 l1797 0 0 605 0 605 -1945 0 -1945 0 0 20 c0 29 -76 108 -130 135 -89 45 -86 45 -126 -40z"/>
 </g>
<g id="layer102" fill="#fbf2f0" stroke="none">
 <path d="M844 1525 c-31 -64 -38 -73 -48 -59 -11 15 -20 15 -113 0 -104 -17 -219 -19 -263 -7 -19 6 -35 1 -67 -22 -46 -32 -45 -25 -4 -121 31 -70 17 -82 -55 -50 -30 13 -59 24 -64 24 -5 0 -30 -30 -56 -67 -26 -38 -53 -73 -61 -79 -22 -19 -98 -254 -85 -263 7 -4 12 -42 13 -96 2 -81 7 -100 47 -195 36 -86 42 -110 34 -131 -8 -24 0 -34 112 -149 l121 -123 139 -58 c125 -52 149 -66 158 -91 2 -4 95 -7 208 -8 l205 0 180 64 c98 35 180 67 181 72 1 5 -70 69 -159 142 -89 74 -180 149 -202 167 l-39 34 26 12 c23 10 31 8 56 -10 17 -11 34 -21 39 -21 7 0 85 431 79 437 -1 1 -88 19 -194 41 -105 21 -195 42 -199 46 -4 4 8 19 27 33 19 15 63 55 98 90 72 72 132 185 140 263 4 45 2 50 -39 95 -40 43 -101 82 -157 99 -20 7 -26 0 -58 -69z m152 -16 c27 -18 52 -46 61 -66 13 -31 12 -41 -3 -90 -23 -72 -80 -160 -140 -215 -158 -144 -157 -142 -137 -150 10 -4 104 -23 208 -43 105 -21 194 -41 198 -45 6 -6 -29 -251 -48 -338 -5 -22 -6 -22 -34 -6 -29 17 -29 17 -97 -29 -197 -130 -423 -114 -588 42 -129 124 -179 290 -137 455 24 89 51 140 109 206 l39 44 -33 73 -34 73 28 -7 c36 -11 241 -10 318 0 l61 9 13 -31 c7 -17 16 -31 19 -31 4 0 27 43 51 96 42 93 44 96 72 90 16 -3 49 -20 74 -37z"/>
 <path d="M880 1428 c-169 -368 -180 -393 -165 -396 8 -2 61 36 118 85 103 90 149 150 184 241 15 40 15 47 2 71 -15 27 -73 71 -94 71 -6 0 -27 -33 -45 -72z"/>
 <path d="M401 1184 c-73 -83 -111 -223 -91 -333 29 -159 134 -288 280 -345 67 -27 183 -32 251 -12 56 17 180 85 186 102 1 5 -21 25 -50 45 -28 19 -130 89 -225 155 l-174 119 6 43 c7 55 12 62 40 62 20 0 30 13 60 76 20 42 36 79 36 83 0 4 -49 7 -109 6 -98 0 -112 2 -139 22 l-31 23 -40 -46z m53 -102 c-118 -195 -75 -374 121 -498 41 -26 73 -49 71 -51 -7 -7 -91 30 -134 60 -181 122 -220 303 -111 519 l29 58 30 -15 29 -15 -35 -58z"/>
 <path d="M623 955 c-3 -9 -4 -17 -2 -19 2 -2 76 -53 164 -113 88 -61 193 -133 234 -162 41 -28 78 -48 82 -44 10 12 48 247 41 254 -4 3 -81 20 -172 38 -91 18 -197 39 -237 47 -91 18 -102 18 -110 -1z"/>
 <path d="M2379 1099 c-87 -13 -142 -58 -180 -144 -34 -75 -31 -211 4 -289 47 -102 137 -155 239 -142 134 18 206 108 216 267 12 205 -107 336 -279 308z m118 -123 c12 -15 27 -45 34 -69 15 -56 7 -183 -14 -224 -32 -61 -111 -81 -161 -42 -45 36 -56 69 -56 174 0 105 11 138 57 175 39 30 108 23 140 -14z"/>
 <path d="M3993 1099 c-89 -17 -152 -75 -178 -163 -22 -73 -19 -194 6 -260 78 -211 379 -200 444 16 19 65 19 180 0 244 -36 120 -148 187 -272 163z m116 -115 c17 -14 35 -42 41 -62 13 -48 13 -166 0 -214 -23 -82 -117 -115 -179 -63 -42 36 -54 81 -49 191 3 75 8 99 24 121 43 58 113 70 163 27z"/>
 <path d="M4403 1100 c-52 -21 -51 -90 2 -110 72 -28 120 76 50 108 -14 7 -27 12 -28 11 -1 0 -12 -4 -24 -9z"/>
 <path d="M1777 1093 c-9 -8 -9 -510 -1 -540 6 -23 8 -23 184 -23 176 0 178 0 184 23 3 12 6 32 6 45 0 22 -2 22 -130 22 l-130 0 0 240 0 240 -53 0 c-30 0 -57 -3 -60 -7z"/>
 <path d="M2740 814 l0 -286 148 4 c165 4 209 17 243 72 36 58 18 160 -33 187 l-22 12 26 13 c69 36 84 154 27 219 -44 50 -104 65 -261 65 l-128 0 0 -286z m269 181 c46 -23 54 -83 16 -120 -21 -22 -33 -25 -95 -25 l-70 0 0 80 0 80 60 0 c34 0 74 -7 89 -15z m-20 -236 c21 -7 33 -20 38 -37 19 -71 -12 -102 -103 -102 l-64 0 0 75 0 75 49 0 c26 0 62 -5 80 -11z"/>
 <path d="M3250 815 l0 -285 60 0 60 0 0 115 0 115 115 0 115 0 0 -115 0 -115 60 0 60 0 -2 283 -3 282 -57 3 -58 3 0 -126 0 -125 -115 0 -115 0 0 125 0 125 -60 0 -60 0 0 -285z"/>
 <path d="M4377 838 c-4 -46 -7 -134 -7 -195 l0 -113 58 0 57 0 -3 172 c-3 224 -2 218 -56 218 l-43 0 -6 -82z"/>
 </g>

</svg>