<!DOCTYPE svg PUBLIC "-//W3C//DTD SVG 20010904//EN" "http://www.w3.org/TR/2001/REC-SVG-20010904/DTD/svg10.dtd">
<svg version="1.0" xmlns="http://www.w3.org/2000/svg" width="512px" height="160px" viewBox="0 0 5120 1600" preserveAspectRatio="xMidYMid meet">
<g id="layer101" fill="#2a1d56" stroke="none">
<path d="M625 1585 c-157 -34 -271 -99 -396 -224 -81 -82 -103 -111 -143 -191 -70 -144 -90 -235 -84 -395 5 -110 10 -143 35 -217 106 -308 371 -512 706 -543 71 -7 79 -6 83 11 5 17 17 19 107 21 154 2 310 51 414 129 l32 24 1870 0 1871 0 0 605 0 605 -1865 0 -1865 0 -59 40 c-117 80 -252 120 -408 120 -76 0 -93 3 -93 15 0 19 -117 19 -205 0z"/>
</g>
<g id="layer102" fill="#f39825" stroke="none">
<path d="M625 1585 c-157 -34 -271 -99 -396 -224 -81 -82 -103 -111 -143 -191 -70 -144 -90 -235 -84 -395 5 -110 10 -143 35 -217 106 -308 371 -512 706 -543 71 -7 79 -6 83 11 5 17 17 19 107 21 208 3 365 70 512 218 117 118 180 226 220 379 21 78 17 265 -7 351 -43 157 -143 310 -269 411 -140 112 -254 154 -436 162 -95 4 -123 8 -123 18 0 18 -121 18 -205 -1z m440 -120 c215 -45 428 -237 490 -442 l6 -23 -646 0 -646 0 7 23 c33 107 138 250 237 324 158 117 355 159 552 118z m515 -557 c0 -7 3 -23 6 -35 l6 -23 -671 0 -671 0 0 35 0 35 665 0 c525 0 665 -3 665 -12z m6 -160 c-3 -13 -6 -31 -6 -40 0 -17 -38 -18 -665 -18 l-665 0 0 40 0 40 671 0 671 0 -6 -22z m-31 -160 c-15 -49 -79 -158 -121 -208 -99 -116 -226 -196 -359 -225 -112 -25 -284 -17 -383 18 -177 62 -348 228 -407 396 l-14 41 645 0 645 0 -6 -22z"/>
</g>
<g id="layer103" fill="#fdfbfc" stroke="none">
<path d="M625 1585 c-157 -34 -271 -99 -396 -224 -81 -82 -103 -111 -143 -191 -70 -144 -90 -235 -84 -395 5 -110 10 -143 35 -217 106 -308 371 -512 706 -543 71 -7 79 -6 83 11 5 17 17 19 107 21 208 3 365 70 512 218 117 118 180 226 220 379 21 78 17 265 -7 351 -43 157 -143 310 -269 411 -140 112 -254 154 -436 162 -95 4 -123 8 -123 18 0 18 -121 18 -205 -1z m100 -99 c-141 -45 -229 -100 -327 -204 -74 -79 -124 -163 -159 -267 -21 -60 -24 -89 -24 -205 0 -115 4 -145 23 -204 78 -233 239 -393 477 -473 l70 -24 -76 5 c-238 17 -479 200 -572 436 -73 185 -60 413 34 591 81 153 232 280 397 333 62 21 131 33 187 34 37 1 35 -1 -30 -22z m340 -21 c215 -45 428 -237 490 -442 l6 -23 -646 0 -646 0 7 23 c33 107 138 250 237 324 158 117 355 159 552 118z m515 -557 c0 -7 3 -23 6 -35 l6 -23 -671 0 -671 0 0 35 0 35 665 0 c525 0 665 -3 665 -12z m6 -160 c-3 -13 -6 -31 -6 -40 0 -17 -38 -18 -665 -18 l-665 0 0 40 0 40 671 0 671 0 -6 -22z m-31 -160 c-15 -49 -79 -158 -121 -208 -99 -116 -226 -196 -359 -225 -112 -25 -284 -17 -383 18 -177 62 -348 228 -407 396 l-14 41 645 0 645 0 -6 -22z"/>
<path d="M2645 1103 c-87 -20 -142 -59 -175 -123 -68 -133 -33 -344 69 -414 96 -65 234 -54 308 26 89 95 97 311 14 425 -43 59 -150 102 -216 86z m112 -128 c32 -37 46 -99 41 -185 -5 -87 -26 -133 -68 -155 -60 -31 -122 -9 -155 55 -21 40 -22 207 -2 246 29 56 63 75 122 69 27 -2 47 -12 62 -30z"/>
<path d="M4238 1096 c-121 -33 -178 -125 -178 -287 0 -199 126 -318 297 -280 75 17 144 84 167 162 20 66 21 180 1 245 -36 123 -163 194 -287 160z m131 -112 c37 -31 51 -77 51 -169 0 -130 -31 -183 -112 -192 -37 -4 -49 -1 -76 22 -41 35 -55 88 -50 196 3 69 8 91 27 118 41 57 109 68 160 25z"/>
<path d="M4663 1100 c-49 -20 -53 -77 -7 -106 20 -14 29 -14 54 -4 50 21 53 86 5 108 -14 7 -27 12 -28 11 -1 0 -12 -4 -24 -9z"/>
<path d="M2037 1093 c-4 -3 -7 -132 -7 -285 l0 -278 190 0 190 0 0 45 0 45 -130 0 -130 0 0 240 0 240 -53 0 c-30 0 -57 -3 -60 -7z"/>
<path d="M3000 815 l0 -287 148 4 c165 4 209 17 243 72 35 58 18 160 -32 187 -21 11 -21 11 9 29 44 27 67 94 52 151 -7 24 -22 55 -33 67 -45 49 -73 56 -234 60 l-153 4 0 -287z m259 184 c54 -19 67 -84 26 -124 -21 -22 -33 -25 -95 -25 l-70 0 0 80 0 80 54 0 c29 0 68 -5 85 -11z m-12 -240 c35 -13 43 -25 43 -71 0 -51 -27 -68 -107 -68 l-63 0 0 75 0 75 49 0 c27 0 62 -5 78 -11z"/>
<path d="M3510 815 l0 -285 60 0 60 0 0 115 0 115 115 0 115 0 0 -115 0 -115 60 0 60 0 -2 283 -3 282 -57 3 -58 3 0 -126 0 -125 -115 0 -115 0 0 125 0 125 -60 0 -60 0 0 -285z"/>
<path d="M4636 843 c-3 -42 -6 -129 -6 -195 l0 -118 59 0 58 0 -4 173 c-5 225 -3 217 -57 217 l-43 0 -7 -77z"/>
</g>


</svg>