<!DOCTYPE svg PUBLIC "-//W3C//DTD SVG 20010904//EN" "http://www.w3.org/TR/2001/REC-SVG-20010904/DTD/svg10.dtd">
<svg version="1.0" xmlns="http://www.w3.org/2000/svg" width="512px" height="160px" viewBox="0 0 5120 1600" preserveAspectRatio="xMidYMid meet">
<g id="layer101" fill="#e34d2f" stroke="none">
 <path d="M908 1405 c-2 -3 -1 -28 3 -57 4 -29 8 -69 8 -89 1 -34 -1 -37 -36 -42 -20 -4 -49 -18 -64 -33 -25 -24 -29 -25 -35 -10 -3 9 -20 24 -36 32 -35 18 -76 12 -113 -17 l-25 -21 -31 26 c-35 30 -67 33 -110 10 -28 -14 -36 -14 -93 0 -74 19 -80 19 -129 5 -41 -11 -112 -69 -122 -98 -3 -10 -24 -23 -48 -30 -59 -18 -77 -37 -77 -82 0 -52 40 -99 85 -99 29 0 34 -4 49 -43 54 -142 204 -197 305 -111 29 24 30 24 36 4 15 -47 104 -65 148 -30 23 18 27 19 53 5 37 -19 93 -19 114 0 14 13 21 12 58 -6 36 -18 46 -19 77 -9 19 6 39 19 45 28 8 15 9 15 10 -3 1 -48 51 -518 56 -526 3 -5 833 -9 2045 -9 l2039 0 0 605 0 605 -2103 0 c-1157 0 -2106 -2 -2109 -5z"/>
 </g>
<g id="layer102" fill="#fef8f4" stroke="none">
 <path d="M1854 1258 c-17 -4 -37 -15 -44 -23 -7 -8 -21 -15 -32 -15 -10 0 -32 -7 -49 -15 -26 -14 -35 -14 -86 1 -75 22 -143 13 -206 -26 l-50 -31 -76 25 c-139 46 -188 51 -252 29 -55 -19 -57 -19 -100 0 -55 23 -103 17 -140 -19 -25 -24 -29 -25 -35 -10 -3 9 -20 24 -36 32 -35 18 -76 12 -113 -17 l-25 -21 -31 26 c-35 30 -67 33 -110 10 -28 -14 -36 -14 -93 0 -74 19 -80 19 -129 5 -41 -11 -112 -69 -122 -98 -3 -10 -24 -23 -48 -30 -59 -18 -77 -37 -77 -82 0 -52 40 -99 85 -99 29 0 34 -4 49 -43 54 -142 204 -197 305 -111 29 24 30 24 36 4 15 -47 104 -65 148 -30 23 18 27 19 53 5 37 -19 93 -19 114 0 14 13 21 12 58 -6 36 -18 46 -19 77 -9 19 6 39 19 45 28 7 13 9 9 10 -19 0 -48 32 -172 62 -239 45 -101 116 -160 194 -160 29 0 44 7 70 35 64 68 67 189 9 321 l-23 52 29 26 c15 14 36 40 45 58 l17 33 16 -25 c50 -76 101 -112 175 -123 47 -8 103 13 132 49 21 26 22 26 28 6 7 -20 61 -52 88 -52 7 0 25 7 41 15 24 12 32 12 63 -1 29 -12 39 -12 62 -2 37 18 52 53 52 126 0 62 11 77 37 51 6 -6 28 -11 48 -12 47 -1 75 29 75 83 0 69 -90 132 -191 134 l-57 1 15 29 c38 74 -31 157 -113 134z m46 -93 c0 -17 -5 -25 -17 -25 -15 0 -16 2 -3 10 11 7 11 10 2 10 -10 0 -10 3 0 15 17 19 18 19 18 -10z m-222 -30 l43 -24 11 24 c16 35 48 43 68 17 9 -11 34 -68 55 -126 22 -58 42 -106 46 -106 4 0 10 16 13 35 11 56 47 90 93 89 63 -2 143 -50 143 -86 0 -27 -27 -33 -66 -14 -41 19 -80 21 -91 4 -4 -7 -7 -44 -6 -83 3 -88 -2 -105 -32 -105 -21 0 -61 37 -92 86 -10 16 -12 11 -12 -33 -1 -52 -2 -53 -31 -53 -38 0 -45 15 -70 137 -22 106 -25 111 -105 149 -55 26 -77 29 -106 14 -28 -15 -24 -24 21 -44 46 -20 98 -68 111 -103 17 -44 11 -117 -11 -141 -21 -23 -34 -26 -85 -23 -70 4 -143 86 -167 188 -11 45 -17 53 -60 77 -26 15 -48 25 -48 23 0 -3 7 -21 15 -40 8 -20 15 -64 15 -98 0 -56 -3 -64 -34 -95 -22 -22 -44 -34 -61 -34 -15 0 -25 -3 -23 -7 2 -5 20 -42 41 -83 57 -115 67 -200 31 -272 -37 -73 -129 -37 -184 72 -40 78 -56 153 -80 365 -19 167 -23 182 -46 203 -59 53 -73 14 -50 -139 18 -116 13 -149 -24 -149 -35 0 -49 12 -91 76 -23 35 -43 64 -45 64 -2 0 -2 -30 -1 -67 2 -63 0 -68 -20 -71 -34 -5 -69 24 -109 89 -19 33 -37 59 -39 59 -2 0 -1 -34 2 -75 l6 -75 -36 0 c-45 0 -49 7 -77 140 -11 58 -24 108 -28 112 -25 24 -116 59 -150 56 -52 -4 -54 -30 -2 -53 53 -24 105 -76 120 -120 14 -43 -1 -97 -33 -120 -31 -21 -103 -19 -142 5 -36 22 -80 96 -90 153 -8 39 -27 47 -65 27 -14 -7 -23 -6 -34 6 -33 33 -15 58 50 68 35 6 42 12 53 42 7 18 28 46 47 60 31 24 40 26 102 22 37 -3 84 -14 105 -24 37 -18 37 -18 53 5 12 16 24 21 47 19 30 -3 36 -10 82 -105 28 -56 53 -104 55 -107 3 -2 1 36 -4 85 -8 80 -7 91 9 109 24 27 61 25 79 -2 7 -13 24 -54 36 -92 12 -37 29 -80 36 -95 13 -24 14 -18 14 64 0 112 12 139 62 143 22 2 52 -5 74 -16 35 -18 37 -18 72 0 64 32 191 16 325 -41 l46 -20 18 22 c58 71 157 84 251 32z"/>
 <path d="M1093 1083 c-29 -11 -1 -158 38 -199 65 -69 129 11 94 117 -23 68 -80 104 -132 82z m75 -80 c19 -49 22 -68 13 -82 -11 -17 -26 8 -40 68 -11 49 10 59 27 14z"/>
 <path d="M263 927 c7 -52 59 -106 83 -86 8 6 14 22 14 34 0 27 -49 80 -81 88 -20 5 -21 3 -16 -36z"/>
 <path d="M1503 933 c12 -73 74 -132 91 -87 17 44 -21 107 -70 117 -25 4 -26 3 -21 -30z"/>
 <path d="M1100 762 c0 -25 41 -177 61 -229 36 -90 76 -97 57 -9 -14 64 -118 274 -118 238z"/>
 <path d="M2915 1100 c-88 -10 -147 -56 -186 -145 -34 -76 -32 -210 4 -288 32 -70 76 -112 140 -133 83 -28 188 -3 244 58 48 51 68 116 68 224 0 92 -2 105 -30 159 -49 96 -129 137 -240 125z m101 -111 c37 -30 48 -72 49 -174 0 -113 -15 -154 -65 -180 -62 -32 -128 -6 -156 61 -20 47 -20 203 -1 240 16 31 42 58 67 67 23 9 89 1 106 -14z"/>
 <path d="M4508 1096 c-119 -31 -178 -126 -178 -286 0 -199 126 -319 296 -281 77 18 145 83 168 160 20 68 21 182 1 247 -37 125 -159 193 -287 160z m138 -117 c31 -29 44 -77 44 -164 0 -136 -34 -190 -120 -190 -91 0 -125 63 -118 216 4 91 26 140 72 160 33 14 95 3 122 -22z"/>
 <path d="M4927 1099 c-26 -15 -39 -56 -26 -80 29 -56 119 -36 119 26 -1 43 -56 75 -93 54z"/>
 <path d="M2305 1078 c-3 -13 -4 -140 -3 -283 l3 -260 185 0 185 0 0 40 0 40 -127 3 -128 3 0 239 0 240 -55 0 c-48 0 -55 -3 -60 -22z"/>
 <path d="M3270 814 l0 -286 148 4 c165 4 217 21 247 78 31 59 11 155 -37 181 -20 11 -20 12 10 30 67 43 77 150 20 215 -43 49 -104 64 -260 64 l-128 0 0 -286z m258 185 c55 -19 66 -101 19 -134 -14 -10 -46 -15 -89 -15 l-68 0 0 80 0 80 54 0 c29 0 67 -5 84 -11z m-11 -240 c35 -13 43 -25 43 -71 0 -51 -27 -68 -107 -68 l-63 0 0 75 0 75 49 0 c27 0 62 -5 78 -11z"/>
 <path d="M3780 815 l0 -285 60 0 60 0 0 115 0 115 115 0 115 0 0 -115 0 -116 58 3 57 3 0 280 0 280 -57 3 -58 3 0 -126 0 -125 -115 0 -115 0 0 125 0 125 -60 0 -60 0 0 -285z"/>
 <path d="M4906 843 c-3 -42 -6 -129 -6 -195 l0 -118 55 0 c50 0 55 2 61 25 3 14 4 32 0 40 -3 9 -6 79 -7 157 0 77 -3 147 -6 154 -3 9 -21 14 -48 14 l-42 0 -7 -77z"/>
 </g>

</svg>