<!DOCTYPE svg PUBLIC "-//W3C//DTD SVG 20010904//EN" "http://www.w3.org/TR/2001/REC-SVG-20010904/DTD/svg10.dtd">
<svg version="1.0" xmlns="http://www.w3.org/2000/svg" width="512px" height="160px" viewBox="0 0 5120 1600" preserveAspectRatio="xMidYMid meet">
<g id="layer101" fill="#395b99" stroke="none">
 <path d="M74 1560 c-11 -4 -33 -22 -47 -40 l-27 -32 0 -678 0 -679 31 -35 c17 -20 47 -40 67 -46 50 -14 1274 -14 1324 0 50 14 98 70 98 115 l0 35 1800 0 1800 0 0 605 0 605 -1800 0 -1800 0 0 30 c0 43 -25 87 -63 110 -31 19 -54 20 -697 19 -366 0 -674 -4 -686 -9z"/>
 </g>
<g id="layer102" fill="#fbfefe" stroke="none">
 <path d="M74 1560 c-11 -4 -33 -22 -47 -40 l-27 -32 0 -678 0 -679 31 -35 c17 -20 47 -40 67 -46 50 -14 1274 -14 1324 0 20 6 50 26 67 46 l31 35 0 670 c0 739 3 709 -63 749 -31 19 -54 20 -697 19 -366 0 -674 -4 -686 -9z m736 -315 l0 -275 -95 0 -95 0 0 -110 0 -110 95 0 95 0 0 -115 c0 -84 5 -126 17 -157 50 -128 151 -176 336 -162 l88 6 -3 97 -3 96 -88 5 c-118 7 -127 17 -127 141 l0 89 105 0 c94 0 105 2 104 18 0 9 -6 58 -12 107 l-12 90 -92 3 -93 3 0 275 0 275 196 -3 196 -3 24 -28 24 -28 0 -644 c0 -451 -3 -651 -11 -668 -6 -14 -22 -30 -36 -36 -26 -12 -1297 -17 -1328 -5 -44 17 -45 26 -45 709 l0 647 29 28 28 29 352 1 351 0 0 -275z"/>
 <path d="M2495 1103 c-85 -18 -142 -59 -175 -123 -67 -131 -31 -346 69 -414 96 -65 234 -54 308 26 86 91 96 303 20 415 -46 67 -148 112 -222 96z m112 -127 c32 -38 46 -100 41 -186 -5 -87 -26 -133 -68 -155 -48 -25 -86 -19 -128 19 l-37 34 -3 107 c-4 120 4 152 51 191 26 22 38 25 76 21 32 -4 52 -12 68 -31z"/>
 <path d="M4109 1100 c-132 -22 -199 -121 -199 -291 0 -198 126 -318 296 -280 77 18 145 83 168 160 21 71 20 185 -1 250 -37 117 -142 181 -264 161z m110 -116 c37 -31 51 -77 51 -169 0 -130 -31 -183 -112 -192 -37 -4 -49 -1 -76 22 -42 35 -55 83 -51 193 3 73 8 96 25 119 43 58 112 70 163 27z"/>
 <path d="M4513 1099 c-78 -29 -29 -134 49 -107 30 11 43 38 34 73 -7 27 -52 46 -83 34z"/>
 <path d="M1887 1093 c-4 -3 -7 -132 -7 -285 l0 -278 185 0 c183 0 185 0 190 23 3 12 4 32 3 45 -2 22 -5 22 -130 22 l-128 0 0 240 0 240 -53 0 c-30 0 -57 -3 -60 -7z"/>
 <path d="M2850 814 l0 -286 148 4 c165 4 209 17 243 72 35 58 18 160 -32 187 -21 11 -21 11 8 29 43 26 64 83 52 145 -19 103 -88 135 -291 135 l-128 0 0 -286z m292 166 c26 -32 23 -76 -7 -105 -21 -22 -33 -25 -95 -25 l-70 0 0 81 0 82 77 -5 c64 -4 80 -9 95 -28z m-43 -221 c21 -7 33 -20 38 -37 19 -71 -12 -102 -103 -102 l-64 0 0 75 0 75 49 0 c26 0 62 -5 80 -11z"/>
 <path d="M3360 815 l0 -285 60 0 60 0 0 115 0 115 115 0 115 0 0 -115 0 -115 60 0 60 0 -2 283 -3 282 -57 3 -58 3 0 -126 0 -125 -115 0 -115 0 0 125 0 125 -60 0 -60 0 0 -285z"/>
 <path d="M4487 838 c-4 -46 -7 -134 -7 -195 l0 -113 61 0 62 0 -7 58 c-3 31 -6 113 -7 182 -1 68 -4 130 -6 137 -3 8 -22 13 -48 13 l-42 0 -6 -82z"/>
 </g>

</svg>