<!DOCTYPE svg PUBLIC "-//W3C//DTD SVG 20010904//EN" "http://www.w3.org/TR/2001/REC-SVG-20010904/DTD/svg10.dtd">
<svg version="1.0" xmlns="http://www.w3.org/2000/svg" width="512px" height="160px" viewBox="0 0 5120 1600" preserveAspectRatio="xMidYMid meet">
<g id="layer101" fill="#ef4e20" stroke="none">
<path d="M192 1575 c-73 -34 -145 -111 -172 -182 -17 -46 -21 -74 -18 -138 4 -78 18 -123 65 -196 15 -24 15 -27 -14 -67 -76 -104 -71 -265 13 -393 16 -25 16 -27 -8 -60 -61 -83 -76 -209 -37 -313 27 -73 96 -148 167 -183 l57 -28 299 -3 c253 -3 306 -1 350 13 66 21 139 74 178 131 l32 44 2008 0 2008 0 0 605 0 605 -2239 0 -2238 0 -29 46 c-31 49 -99 104 -158 129 -22 10 -68 15 -123 15 -72 0 -97 -5 -141 -25z"/>
</g>
<g id="layer102" fill="#bb664c" stroke="none">
</g>
<g id="layer103" fill="#3fba80" stroke="none">
<path d="M192 1575 c-73 -34 -145 -111 -172 -182 -17 -46 -21 -74 -18 -138 4 -78 18 -123 65 -196 15 -24 15 -27 -14 -67 -76 -104 -71 -265 13 -393 16 -25 16 -27 -8 -60 -61 -83 -76 -209 -37 -313 27 -73 96 -148 167 -183 l57 -28 320 0 c316 0 321 0 367 23 190 95 256 324 143 492 -32 48 -33 50 -16 72 50 64 65 111 66 203 0 107 -19 157 -87 231 -64 70 -143 104 -240 104 -42 0 -88 -4 -101 -9 l-25 -10 -4 117 c-3 100 -7 125 -30 174 -31 67 -91 128 -161 162 -43 22 -64 26 -141 26 -76 0 -100 -4 -144 -25z m368 -1225 l0 -230 -140 0 c-152 0 -181 7 -238 55 -99 83 -104 244 -11 335 59 57 102 68 257 69 l132 1 0 -230z"/>
</g>
<g id="layer104" fill="#8162aa" stroke="none">
<path d="M192 1575 c-73 -34 -145 -111 -172 -182 -17 -46 -21 -74 -18 -138 4 -78 18 -123 65 -196 15 -24 15 -27 -14 -67 -76 -104 -71 -265 13 -393 16 -25 16 -27 -8 -60 -61 -83 -76 -209 -37 -313 27 -73 96 -148 167 -183 l57 -28 320 0 c316 0 321 0 367 23 190 95 256 324 143 492 -32 48 -33 50 -16 72 50 64 65 111 66 203 0 107 -19 157 -87 231 -64 70 -143 104 -240 104 -42 0 -88 -4 -101 -9 l-25 -10 -4 117 c-3 100 -7 125 -30 174 -31 67 -91 128 -161 162 -43 22 -64 26 -141 26 -76 0 -100 -4 -144 -25z m246 -101 c35 -18 63 -41 85 -72 l32 -47 3 -157 3 -158 -132 0 c-72 0 -149 5 -170 11 -51 16 -105 62 -131 112 -25 49 -30 157 -9 197 67 127 199 174 319 114z m122 -1124 l0 -230 -140 0 c-152 0 -181 7 -238 55 -99 83 -104 244 -11 335 59 57 102 68 257 69 l132 1 0 -230z"/>
</g>
<g id="layer105" fill="#f07162" stroke="none">
<path d="M192 1575 c-73 -34 -145 -111 -172 -182 -17 -46 -21 -74 -18 -138 4 -78 18 -123 65 -196 15 -24 15 -27 -14 -67 -76 -104 -71 -265 13 -393 16 -25 16 -27 -8 -60 -61 -83 -76 -209 -37 -313 27 -73 96 -148 167 -183 l57 -28 320 0 c316 0 321 0 367 23 190 95 256 324 143 492 -32 48 -33 50 -16 72 50 64 65 111 66 203 0 107 -19 157 -87 231 -64 70 -143 104 -240 104 -42 0 -88 -4 -101 -9 l-25 -10 -4 117 c-3 100 -7 125 -30 174 -31 67 -91 128 -161 162 -43 22 -64 26 -141 26 -76 0 -100 -4 -144 -25z m246 -101 c35 -18 63 -41 85 -72 l32 -47 3 -618 2 -617 -140 0 c-152 0 -181 7 -238 55 -99 84 -104 244 -10 335 22 22 58 45 80 52 l39 11 -46 23 c-94 45 -138 111 -139 209 -1 104 56 187 151 220 l38 13 -28 11 c-16 6 -31 11 -35 11 -18 0 -85 66 -104 103 -25 49 -30 157 -9 197 67 127 199 174 319 114z"/>
<path d="M2147 203 c546 -2 1440 -2 1985 0 546 1 100 2 -992 2 -1092 0 -1538 -1 -993 -2z"/>
</g>
<g id="layer106" fill="#44b8e9" stroke="none">
<path d="M192 1575 c-73 -34 -145 -111 -172 -182 -17 -46 -21 -74 -18 -138 4 -78 18 -123 65 -196 15 -24 15 -27 -14 -67 -76 -104 -71 -265 13 -393 16 -25 16 -27 -8 -60 -61 -83 -76 -209 -37 -313 27 -73 96 -148 167 -183 l57 -28 320 0 c316 0 321 0 367 23 190 95 256 324 143 492 -32 48 -33 50 -16 72 50 64 65 111 66 203 0 107 -19 157 -87 231 -64 70 -143 104 -240 104 -42 0 -88 -4 -101 -9 l-25 -10 -4 117 c-3 100 -7 125 -30 174 -31 67 -91 128 -161 162 -43 22 -64 26 -141 26 -76 0 -100 -4 -144 -25z m246 -101 c35 -18 63 -41 85 -72 l32 -47 3 -386 3 -387 152 -4 c166 -4 188 -10 247 -69 106 -107 76 -295 -59 -366 -43 -23 -50 -23 -333 -23 -311 0 -323 2 -386 55 -99 84 -104 244 -10 335 22 22 58 45 80 52 l39 11 -46 23 c-94 45 -138 111 -139 209 -1 104 56 187 151 220 l38 13 -28 11 c-16 6 -31 11 -35 11 -18 0 -85 66 -104 103 -25 49 -30 157 -9 197 67 127 199 174 319 114z"/>
</g>
<g id="layer107" fill="#fefcf9" stroke="none">
<path d="M192 1575 c-73 -34 -145 -111 -172 -182 -17 -46 -21 -74 -18 -138 4 -78 18 -123 65 -196 15 -24 15 -27 -14 -67 -76 -104 -71 -265 13 -393 16 -25 16 -27 -8 -60 -61 -83 -76 -209 -37 -313 27 -73 96 -148 167 -183 l57 -28 320 0 c316 0 321 0 367 23 190 95 256 324 143 492 -32 48 -33 50 -16 72 50 64 65 111 66 203 0 107 -19 157 -87 231 -64 70 -143 104 -240 104 -42 0 -88 -4 -101 -9 l-25 -10 -4 117 c-3 100 -7 125 -30 174 -31 67 -91 128 -161 162 -43 22 -64 26 -141 26 -76 0 -100 -4 -144 -25z m246 -101 c35 -18 63 -41 85 -72 l32 -47 3 -237 c2 -142 7 -238 13 -238 5 0 9 5 9 10 0 25 57 94 99 118 38 22 58 27 116 27 58 0 78 -5 116 -27 171 -100 141 -366 -48 -420 l-38 -11 32 -7 c38 -9 77 -33 111 -69 97 -104 63 -289 -67 -358 -43 -23 -50 -23 -333 -23 -311 0 -323 2 -386 55 -99 84 -104 244 -10 335 22 22 58 45 80 52 l39 11 -46 23 c-94 45 -138 111 -139 209 -1 104 56 187 151 220 l38 13 -28 11 c-16 6 -31 11 -35 11 -18 0 -85 66 -104 103 -25 49 -30 157 -9 197 67 127 199 174 319 114z"/>
<path d="M560 660 l0 -80 88 0 87 1 -40 19 c-45 22 -103 83 -111 117 -12 48 -24 20 -24 -57z"/>
<path d="M2357 1098 c-80 -17 -132 -61 -168 -143 -18 -40 -22 -69 -23 -142 0 -83 3 -97 32 -156 25 -50 44 -73 78 -96 105 -69 253 -42 322 59 88 130 60 365 -54 443 -46 32 -128 47 -187 35z m130 -123 c32 -37 46 -99 41 -185 -5 -87 -26 -133 -68 -155 -60 -31 -122 -9 -155 55 -21 40 -22 207 -2 246 16 31 42 58 67 67 32 13 95 -1 117 -28z"/>
<path d="M3995 1099 c-135 -17 -205 -117 -205 -290 0 -106 26 -175 86 -228 129 -113 329 -55 378 108 9 30 16 87 16 126 0 196 -107 306 -275 284z m111 -120 c31 -29 44 -77 44 -164 0 -130 -31 -183 -112 -192 -37 -4 -49 -1 -75 21 -44 37 -56 82 -51 190 4 98 25 147 72 167 33 14 95 3 122 -22z"/>
<path d="M4392 1099 c-29 -11 -46 -53 -32 -79 17 -32 48 -43 81 -30 75 32 28 137 -49 109z"/>
<path d="M1767 1093 c-4 -3 -7 -132 -7 -285 l0 -278 190 0 190 0 0 45 0 45 -130 0 -130 0 0 240 0 240 -53 0 c-30 0 -57 -3 -60 -7z"/>
<path d="M2730 814 l0 -285 148 3 c165 3 209 16 243 72 35 58 18 160 -32 187 -21 11 -21 11 8 29 40 24 66 90 58 142 -4 22 -20 55 -37 74 -43 49 -104 64 -260 64 l-128 0 0 -286z m259 185 c54 -19 67 -84 26 -124 -21 -22 -33 -25 -95 -25 l-70 0 0 80 0 80 54 0 c29 0 68 -5 85 -11z m-10 -240 c33 -12 45 -37 39 -85 -4 -37 -37 -54 -110 -54 l-58 0 0 75 0 75 49 0 c26 0 62 -5 80 -11z"/>
<path d="M3240 815 l0 -285 60 0 60 0 0 115 0 115 115 0 115 0 0 -115 0 -116 58 3 57 3 0 280 0 280 -57 3 -58 3 0 -126 0 -125 -115 0 -115 0 0 125 0 125 -60 0 -60 0 0 -285z"/>
<path d="M4366 843 c-3 -42 -6 -129 -6 -195 l0 -118 59 0 58 0 -4 173 c-5 225 -3 217 -57 217 l-43 0 -7 -77z"/>
</g>


</svg>