<!DOCTYPE svg PUBLIC "-//W3C//DTD SVG 20010904//EN" "http://www.w3.org/TR/2001/REC-SVG-20010904/DTD/svg10.dtd">
<svg version="1.0" xmlns="http://www.w3.org/2000/svg" width="512px" height="160px" viewBox="0 0 5120 1600" preserveAspectRatio="xMidYMid meet">
<g id="layer101" fill="#271833" stroke="none">
<path d="M245 1586 c-64 -20 -100 -42 -148 -90 -68 -69 -91 -124 -95 -228 -6 -138 25 -204 165 -349 l74 -76 -44 -26 c-71 -42 -144 -129 -163 -194 -54 -185 107 -436 351 -548 95 -44 164 -59 265 -59 131 1 220 33 381 135 l76 49 2006 0 2007 0 0 605 0 605 -2106 0 -2106 0 -152 75 c-89 45 -183 83 -230 95 -90 23 -219 26 -281 6z"/>
</g>
<g id="layer102" fill="#655e88" stroke="none">
<path d="M245 1586 c-64 -20 -100 -42 -148 -90 -68 -69 -91 -124 -95 -228 -6 -138 25 -204 165 -349 l74 -76 -44 -26 c-71 -42 -144 -129 -163 -194 -54 -185 107 -436 351 -548 95 -44 164 -59 265 -59 131 1 220 33 381 135 l76 49 2006 0 2007 0 0 605 0 605 -2106 0 -2106 0 -152 75 c-89 45 -183 83 -230 95 -90 23 -219 26 -281 6z m2330 -505 c94 -43 128 -107 133 -248 5 -125 -12 -183 -66 -236 -49 -47 -98 -67 -169 -67 -155 1 -240 115 -231 309 8 168 91 258 238 260 33 0 71 -7 95 -18z m855 -108 l0 -123 115 0 115 0 0 120 0 120 55 0 55 0 0 -280 0 -280 -55 0 -55 0 0 115 0 115 -115 0 -115 0 0 -115 0 -115 -55 0 -55 0 0 283 0 283 55 0 55 -1 0 -122z m776 103 c165 -77 182 -401 26 -511 -41 -28 -50 -30 -132 -30 -82 0 -91 2 -132 30 -28 21 -53 50 -73 90 -27 53 -30 68 -30 154 0 113 14 158 64 214 71 79 178 99 277 53z m331 -2 c15 -24 15 -29 2 -53 -28 -50 -111 -34 -111 22 0 38 19 57 58 57 25 0 38 -7 51 -26z m-2587 -219 l0 -235 125 0 125 0 0 -45 0 -45 -180 0 -180 0 0 280 0 280 55 0 55 0 0 -235z m1190 213 c54 -28 80 -73 80 -140 0 -50 -32 -101 -70 -113 -17 -5 -14 -10 18 -40 34 -31 37 -38 37 -88 0 -66 -22 -103 -80 -131 -32 -16 -67 -21 -177 -24 l-138 -5 0 282 0 281 143 0 c128 0 147 -2 187 -22z m1393 -270 c4 -66 7 -154 7 -195 l0 -73 -56 0 -56 0 6 123 c3 67 6 155 6 195 l0 72 43 0 44 0 6 -122z"/>
<path d="M2407 989 c-33 -25 -57 -102 -57 -178 0 -123 44 -191 123 -191 89 0 127 59 127 195 0 97 -14 141 -55 173 -37 29 -103 30 -138 1z"/>
<path d="M4036 989 c-46 -36 -60 -75 -60 -174 -1 -103 18 -156 65 -180 62 -33 125 -14 160 48 32 57 33 202 1 263 -33 64 -112 85 -166 43z"/>
<path d="M2920 930 l0 -80 75 0 c62 0 79 4 95 20 29 29 27 84 -5 115 -21 22 -33 25 -95 25 l-70 0 0 -80z"/>
<path d="M2920 695 l0 -75 69 0 c63 0 71 2 90 26 28 35 26 69 -4 99 -21 22 -33 25 -90 25 l-65 0 0 -75z"/>
</g>
<g id="layer103" fill="#948dbf" stroke="none">
<path d="M245 1586 c-64 -20 -100 -42 -148 -90 -68 -69 -91 -124 -95 -228 -6 -138 25 -204 165 -349 l74 -76 -44 -26 c-71 -42 -144 -129 -163 -194 -54 -185 107 -436 351 -548 95 -44 164 -59 265 -59 131 1 220 33 381 135 l76 49 2009 1 c1105 1 1998 5 1984 9 l-25 8 25 2 c16 1 19 4 10 7 -29 11 -59 46 -65 77 -10 45 -86 196 -99 196 -6 0 -20 19 -30 43 -10 23 -25 51 -34 61 -10 11 -11 16 -4 12 7 -5 12 -1 12 10 0 10 -3 14 -6 11 -9 -9 -44 32 -44 50 0 8 -9 26 -20 40 -11 14 -20 36 -20 48 0 12 -7 28 -16 36 -8 7 -25 30 -37 52 -12 22 -28 51 -36 64 -7 14 -14 30 -16 37 -1 6 -9 27 -17 46 -8 19 -18 43 -21 53 -4 10 -11 15 -17 12 -8 -5 -15 38 -7 48 1 2 -15 18 -35 36 -21 18 -38 42 -38 52 0 11 -9 30 -21 42 -15 16 -19 30 -15 55 3 22 1 30 -6 26 -6 -4 -8 -3 -4 4 3 6 2 13 -4 17 -6 4 -7 11 -4 17 4 6 2 8 -4 4 -5 -3 -12 -1 -14 6 -3 7 -33 15 -74 19 -38 4 -843 7 -1788 8 l-1719 1 -151 75 c-89 45 -183 83 -230 95 -90 23 -219 26 -281 6z m261 -102 c48 -14 129 -45 179 -69 156 -75 411 -246 402 -269 -3 -7 4 -13 16 -13 11 -1 27 -10 36 -19 9 -9 11 -14 4 -10 -6 3 -14 2 -18 -4 -9 -14 -27 -1 -19 13 5 8 3 8 -7 0 -16 -15 -43 -17 -34 -3 4 6 -6 10 -22 10 -21 0 -25 3 -13 10 13 8 13 11 1 22 -8 7 -11 8 -8 2 4 -7 1 -14 -7 -17 -16 -7 -82 40 -78 54 1 6 -2 8 -7 4 -6 -3 -48 15 -93 41 -185 106 -344 162 -479 171 -104 7 -138 -3 -199 -59 -25 -23 -39 -38 -33 -34 9 5 11 2 7 -8 -6 -15 -34 -11 -34 5 0 46 66 131 124 161 87 45 160 48 282 12z m-398 -235 c-3 -20 -5 -19 -9 9 -3 20 -2 29 4 23 5 -5 7 -19 5 -32z m2466 -161 c94 -48 136 -122 144 -249 3 -65 0 -100 -13 -142 -73 -234 -377 -235 -455 -2 -8 22 -14 78 -14 125 1 151 67 249 189 281 36 9 120 2 149 -13z m1629 -4 c53 -27 96 -75 117 -131 27 -74 27 -202 0 -276 -59 -156 -239 -206 -375 -103 -88 67 -119 280 -58 401 58 114 204 165 316 109z m321 15 c35 -16 40 -66 10 -96 -29 -28 -53 -29 -88 -2 -32 25 -34 61 -4 89 25 23 46 25 82 9z m-2574 -239 l0 -240 130 0 130 0 0 -45 0 -45 -190 0 -190 0 0 278 c0 153 3 282 7 285 3 4 30 7 60 7 l53 0 0 -240z m1195 214 c55 -28 88 -92 81 -153 -7 -52 -28 -88 -60 -102 l-22 -11 33 -33 c29 -29 33 -39 33 -87 0 -63 -24 -109 -72 -135 -27 -14 -63 -18 -185 -21 l-153 -4 0 287 0 287 153 -4 c130 -2 158 -6 192 -24z m285 -99 l0 -125 110 0 109 0 3 123 3 122 63 3 62 3 0 -286 0 -285 -65 0 -65 0 0 115 0 115 -110 0 -110 0 0 -115 0 -115 -60 0 -60 0 0 285 0 285 60 0 60 0 0 -125z m1105 -57 c2 -7 6 -97 8 -200 l6 -188 -60 0 -59 0 0 148 c0 81 3 171 6 200 l7 52 44 0 c26 0 45 -5 48 -12z m-3700 -309 c25 -12 52 -31 60 -42 20 -29 19 -80 -3 -107 l-18 -23 -13 30 c-19 47 -63 82 -132 108 -35 13 -62 24 -59 25 3 0 23 7 45 15 54 19 68 18 120 -6z"/>
<path d="M2431 997 c-49 -25 -66 -62 -70 -153 -4 -107 3 -146 35 -183 50 -59 143 -48 181 21 26 47 26 219 0 265 -30 55 -94 77 -146 50z"/>
<path d="M4053 996 c-52 -24 -68 -66 -68 -181 0 -122 18 -162 80 -184 35 -12 45 -11 77 2 51 21 71 64 76 165 5 89 -12 154 -47 186 -26 23 -80 29 -118 12z"/>
<path d="M2920 930 l0 -82 75 4 c87 4 109 19 109 73 0 57 -30 79 -114 83 l-70 4 0 -82z"/>
<path d="M2920 696 l0 -76 58 0 c81 0 106 16 110 66 4 56 -19 75 -103 81 l-65 6 0 -77z"/>
<path d="M4536 1323 c-9 -9 -7 -41 3 -47 4 -3 6 7 4 22 -3 23 -2 24 6 7 8 -17 10 -17 10 -3 1 19 -13 31 -23 21z"/>
</g>
<g id="layer104" fill="#bab9bf" stroke="none">
<path d="M245 1586 c-64 -20 -100 -42 -148 -90 -68 -69 -91 -124 -95 -228 -6 -138 25 -204 165 -349 l74 -76 -44 -26 c-71 -42 -144 -129 -163 -194 -54 -185 107 -436 351 -548 95 -44 164 -59 265 -59 131 1 220 33 381 135 l76 49 994 1 c547 1 986 3 977 6 -10 2 -18 11 -18 19 0 8 -7 14 -15 14 -9 0 -27 11 -40 25 -16 18 -25 22 -28 13 -3 -7 -6 11 -6 40 -1 33 -5 51 -11 47 -5 -3 -10 -1 -10 5 0 6 -4 9 -9 5 -5 -3 -13 -1 -16 5 -4 6 -1 9 6 8 6 -2 14 3 17 11 2 8 0 11 -5 8 -5 -3 -10 0 -10 8 0 8 4 12 9 9 4 -3 8 0 8 5 0 6 -7 11 -15 11 -8 0 -15 5 -15 10 0 6 -5 10 -11 10 -5 0 -7 -6 -3 -13 6 -9 3 -8 -8 1 -17 14 -14 42 4 42 5 0 6 -5 2 -12 -4 -6 -3 -8 4 -4 6 3 10 15 9 26 -1 14 -9 20 -27 21 -64 3 -79 4 -83 9 -3 3 -9 48 -12 100 -4 52 -11 97 -16 98 -5 2 -9 15 -9 28 0 13 -6 24 -12 24 -9 0 -8 4 2 10 13 9 13 10 0 10 -13 0 -13 1 0 10 13 8 13 10 -2 10 -12 0 -15 5 -11 17 4 11 3 14 -5 9 -7 -4 -12 -31 -12 -62 0 -30 -4 -54 -9 -54 -6 0 -8 -9 -6 -20 2 -11 1 -20 -3 -20 -4 0 -16 -22 -26 -48 -27 -70 -113 -120 -207 -121 -67 -1 -147 35 -184 83 -90 119 -80 340 22 442 31 32 137 72 180 69 15 -1 38 -3 51 -3 15 -1 21 -6 16 -14 -4 -7 -4 -10 1 -6 4 4 14 3 22 -3 8 -8 13 -8 13 -1 0 6 -5 12 -11 14 -6 2 -12 16 -12 31 -1 15 -5 28 -9 28 -5 1 -12 2 -17 3 -5 0 -13 5 -18 9 -4 5 -2 7 6 5 7 -2 15 2 18 9 3 7 -3 11 -15 8 -15 -3 -18 1 -14 21 2 14 0 24 -7 24 -6 0 -10 3 -10 8 4 21 -2 32 -13 26 -8 -5 -9 -2 -5 9 3 9 0 23 -8 31 -8 8 -15 25 -15 38 0 18 2 20 10 8 5 -8 10 -10 10 -5 -1 12 -25 45 -33 45 -3 0 -4 -10 -2 -21 3 -12 1 -18 -3 -15 -4 4 -8 12 -8 17 -1 5 -2 13 -3 18 0 6 -311 10 -768 11 l-767 1 -150 74 c-89 45 -183 83 -230 95 -90 23 -219 26 -281 6z m285 -106 c263 -87 633 -344 832 -578 52 -61 77 -137 59 -183 -10 -25 -14 -20 -25 31 -3 14 -15 36 -26 48 -12 12 -22 31 -23 42 -1 10 -4 18 -7 17 -3 -1 -44 33 -91 75 -209 190 -447 341 -669 425 -123 47 -264 64 -342 43 -67 -19 -127 -112 -129 -201 0 -33 -1 -33 -11 -9 -14 36 -4 130 21 177 27 53 94 110 151 128 60 20 176 13 260 -15z m1420 -620 l0 -240 130 0 130 0 0 -45 0 -45 -190 0 -190 0 0 285 0 285 60 0 60 0 0 -240z m-733 -24 c105 -105 114 -117 112 -148 -2 -18 -7 -39 -13 -47 -6 -7 -11 -19 -12 -26 -4 -27 -96 -135 -114 -135 -6 0 -10 15 -11 33 -2 151 -19 267 -37 267 -13 0 -34 87 -27 110 5 15 0 27 -16 41 -12 10 -17 19 -10 19 7 0 64 -51 128 -114z m-758 -56 c28 0 4 -18 -67 -50 -94 -43 -168 -93 -211 -142 -29 -34 -26 -45 9 -23 12 7 11 3 -2 -18 -23 -33 -23 -76 -1 -124 18 -40 77 -120 103 -139 8 -7 31 -26 50 -43 19 -17 40 -31 45 -31 6 0 16 -9 23 -20 14 -22 1 -27 -20 -7 -7 6 -33 25 -58 41 -69 45 -144 127 -176 191 -32 66 -42 151 -24 195 19 45 109 122 186 159 38 18 76 37 84 41 10 6 20 2 32 -11 9 -10 21 -19 27 -19z m377 -169 c76 -35 103 -110 55 -156 -35 -34 -65 -55 -78 -55 -7 0 -13 -4 -13 -10 0 -5 -4 -10 -9 -10 -5 0 -5 15 -1 33 13 62 -58 117 -151 117 -43 0 -49 15 -13 34 10 6 21 14 24 17 8 9 51 31 79 40 41 12 63 10 107 -10z m318 -249 c-92 -87 -253 -188 -354 -222 -90 -30 -300 -29 -300 1 0 6 6 7 12 3 7 -5 56 -7 108 -6 82 2 103 6 160 33 79 37 200 110 257 156 45 36 59 40 66 21 4 -9 6 -8 6 2 1 9 11 16 22 17 12 1 27 7 32 12 6 6 13 11 16 11 3 0 -8 -12 -25 -28z"/>
</g>
<g id="layer105" fill="#c1bddd" stroke="none">
<path d="M245 1586 c-64 -20 -100 -42 -148 -90 -68 -69 -91 -124 -95 -228 -6 -138 25 -204 165 -349 l74 -76 -44 -26 c-71 -42 -144 -129 -163 -194 -54 -185 107 -436 351 -548 95 -44 164 -59 265 -59 131 1 220 33 381 135 l76 49 994 1 c547 1 986 3 977 6 -10 2 -18 11 -18 19 0 8 -7 14 -15 14 -9 0 -27 11 -40 25 -16 18 -25 22 -28 13 -3 -7 -6 11 -6 40 -1 33 -5 51 -11 47 -5 -3 -10 -1 -10 5 0 6 -4 9 -9 5 -5 -3 -13 -1 -16 5 -4 6 -1 9 6 8 6 -2 14 3 17 11 2 8 0 11 -5 8 -5 -3 -10 0 -10 8 0 8 4 12 9 9 4 -3 8 0 8 5 0 6 -7 11 -15 11 -8 0 -15 5 -15 10 0 6 -5 10 -11 10 -5 0 -7 -6 -3 -13 6 -9 3 -8 -8 1 -17 14 -14 42 4 42 5 0 6 -5 2 -12 -4 -6 -3 -8 4 -4 6 3 10 15 9 26 -1 14 -9 20 -27 21 -64 3 -79 4 -83 9 -3 3 -9 48 -12 100 -4 52 -11 97 -16 98 -5 2 -9 15 -9 28 0 13 -6 24 -12 24 -9 0 -8 4 2 10 13 9 13 10 0 10 -13 0 -13 1 0 10 13 8 13 10 -2 10 -12 0 -15 5 -11 17 4 11 3 14 -5 9 -7 -4 -12 -31 -12 -62 0 -30 -4 -54 -9 -54 -6 0 -8 -9 -6 -20 2 -11 1 -20 -3 -20 -4 0 -16 -22 -26 -48 -27 -70 -113 -120 -207 -121 -67 -1 -147 35 -184 83 -90 119 -80 340 22 442 31 32 137 72 180 69 15 -1 38 -3 51 -3 15 -1 21 -6 16 -14 -4 -7 -4 -10 1 -6 4 4 14 3 22 -3 8 -8 13 -8 13 -1 0 6 -5 12 -11 14 -6 2 -12 16 -12 31 -1 15 -5 28 -9 28 -5 1 -12 2 -17 3 -5 0 -13 5 -18 9 -4 5 -2 7 6 5 7 -2 15 2 18 9 3 7 -3 11 -15 8 -15 -3 -18 1 -14 21 2 14 0 24 -7 24 -6 0 -10 3 -10 8 4 21 -2 32 -13 26 -8 -5 -9 -2 -5 9 3 9 0 23 -8 31 -8 8 -15 25 -15 38 0 18 2 20 10 8 5 -8 10 -10 10 -5 -1 12 -25 45 -33 45 -3 0 -4 -10 -2 -21 3 -12 1 -18 -3 -15 -4 4 -8 12 -8 17 -1 5 -2 13 -3 18 0 6 -311 10 -768 11 l-767 1 -150 74 c-89 45 -183 83 -230 95 -90 23 -219 26 -281 6z m285 -106 c263 -87 633 -344 832 -578 52 -61 77 -137 59 -183 -10 -25 -14 -20 -25 31 -3 14 -15 36 -26 48 -12 12 -22 31 -23 42 -1 10 -4 18 -7 17 -3 -1 -44 33 -91 75 -207 189 -449 342 -669 425 -123 47 -264 64 -342 43 -67 -19 -127 -112 -129 -201 0 -33 -1 -33 -11 -9 -14 36 -4 130 21 177 27 53 94 110 151 128 60 20 176 13 260 -15z m1420 -620 l0 -240 130 0 130 0 0 -45 0 -45 -190 0 -190 0 0 285 0 285 60 0 60 0 0 -240z m-733 -24 c105 -105 114 -117 112 -148 -2 -18 -7 -39 -13 -47 -6 -7 -11 -19 -12 -26 -4 -27 -96 -135 -114 -135 -6 0 -10 15 -11 33 -2 151 -19 267 -37 267 -13 0 -34 87 -27 110 5 15 0 27 -16 41 -12 10 -17 19 -10 19 7 0 64 -51 128 -114z m-758 -56 c28 0 4 -18 -67 -50 -94 -43 -168 -93 -211 -142 -29 -34 -26 -45 9 -23 12 7 11 3 -2 -18 -23 -33 -23 -76 -1 -124 18 -40 77 -120 103 -139 8 -7 31 -26 50 -43 19 -17 40 -31 45 -31 6 0 16 -9 23 -20 14 -22 1 -27 -20 -7 -7 6 -33 25 -58 41 -69 45 -144 127 -176 191 -32 66 -42 151 -24 195 19 45 109 122 186 159 38 18 76 37 84 41 10 6 20 2 32 -11 9 -10 21 -19 27 -19z m377 -169 c76 -35 103 -110 55 -156 -35 -34 -65 -55 -78 -55 -7 0 -13 -4 -13 -10 0 -5 -4 -10 -9 -10 -5 0 -5 15 -1 33 13 62 -58 117 -151 117 -43 0 -49 15 -13 34 10 6 21 14 24 17 8 9 51 31 79 40 41 12 63 10 107 -10z m318 -249 c-92 -87 -253 -188 -354 -222 -90 -30 -300 -29 -300 1 0 6 6 7 12 3 7 -5 56 -7 108 -6 82 2 103 6 160 33 79 37 200 110 257 156 45 36 59 40 66 21 4 -9 6 -8 6 2 1 9 11 16 22 17 12 1 27 7 32 12 6 6 13 11 16 11 3 0 -8 -12 -25 -28z"/>
<path d="M2430 993 c-56 -29 -71 -71 -68 -189 3 -92 5 -104 30 -136 32 -42 73 -55 123 -38 52 17 78 76 77 178 0 103 -2 112 -13 112 -6 0 -8 4 -5 9 9 14 -49 71 -80 76 -18 4 -42 -1 -64 -12z"/>
<path d="M4081 1006 c2 -2 18 -6 34 -10 22 -5 26 -4 15 4 -14 9 -59 15 -49 6z"/>
<path d="M4423 660 c0 -30 2 -43 4 -27 2 15 2 39 0 55 -2 15 -4 2 -4 -28z"/>
<path d="M4463 523 c15 -2 37 -2 50 0 12 2 0 4 -28 4 -27 0 -38 -2 -22 -4z"/>
</g>
<g id="layer106" fill="#f1eff7" stroke="none">
<path d="M245 1586 c-64 -20 -100 -42 -148 -90 -68 -69 -91 -124 -95 -228 -6 -138 25 -204 165 -349 l74 -76 -44 -26 c-71 -42 -144 -129 -163 -194 -54 -185 107 -436 351 -548 95 -44 164 -59 265 -59 130 1 218 32 380 134 l75 48 470 6 c259 3 471 6 473 6 8 0 0 30 -8 30 -5 0 -10 9 -10 20 0 11 -4 20 -10 20 -5 0 -10 6 -10 13 0 18 -24 67 -32 67 -5 0 -8 9 -8 21 0 11 -5 17 -10 14 -6 -4 -10 8 -10 29 0 29 -4 36 -20 37 -39 3 -43 4 -46 17 -1 7 0 8 2 3 3 -5 18 2 34 17 l29 27 -61 5 -61 5 -5 135 c-2 74 -6 137 -8 139 -2 2 -4 -44 -4 -103 0 -91 -2 -105 -14 -94 -8 7 -10 15 -6 18 12 8 5 93 -8 98 -7 2 -12 19 -12 38 0 19 -5 34 -11 34 -5 0 -8 -4 -5 -8 3 -5 -1 -9 -9 -9 -10 0 -11 4 -6 11 6 7 4 19 -5 30 -10 14 -14 16 -14 5 0 -12 -2 -12 -9 0 -5 8 -8 23 -5 34 2 15 -1 18 -16 14 -14 -3 -17 -1 -13 11 4 10 2 13 -5 8 -8 -5 -10 -2 -6 8 3 9 10 14 14 11 14 -9 -8 69 -23 80 -7 5 -12 16 -10 23 3 7 -7 15 -25 18 -23 5 -30 11 -27 25 2 11 0 17 -6 14 -5 -4 -9 5 -9 19 0 14 -4 26 -9 26 -5 0 -12 18 -16 39 -4 24 -13 41 -22 43 -10 2 -17 17 -20 43 -2 22 -8 42 -12 45 -5 3 -11 14 -13 25 -2 11 -10 19 -18 17 -11 -3 -11 0 1 14 9 12 9 15 2 10 -9 -5 -13 0 -13 17 0 18 -6 26 -23 29 -12 2 -137 5 -277 7 l-255 2 -150 75 c-88 44 -183 82 -229 94 -90 23 -219 26 -281 6z m265 -97 c209 -57 522 -255 743 -469 144 -138 169 -175 175 -260 4 -60 1 -76 -21 -122 -72 -145 -340 -378 -550 -479 -150 -71 -293 -71 -438 2 -200 100 -335 295 -299 431 16 60 94 132 205 190 l90 46 35 -29 c29 -25 32 -31 20 -39 -8 -5 -20 -10 -26 -10 -6 0 -19 -9 -29 -20 -18 -19 -17 -20 6 -21 13 -1 28 0 34 1 19 4 -2 -10 -80 -51 -91 -47 -164 -94 -182 -117 -36 -45 3 -156 82 -235 160 -160 344 -205 517 -125 42 19 67 36 64 44 -3 7 2 10 15 7 15 -4 18 -2 12 12 -5 14 -3 16 8 10 11 -7 12 -6 2 6 -17 21 -5 182 13 175 10 -4 14 3 14 21 0 14 -3 24 -6 21 -3 -4 -5 -9 -4 -13 1 -8 -67 -63 -100 -80 -14 -7 -38 -15 -53 -19 l-29 -7 18 31 c17 28 17 32 2 58 -9 15 -27 33 -40 39 -28 15 -83 17 -109 3 -16 -9 -19 -7 -19 9 0 53 116 131 194 131 24 0 56 -10 83 -25 23 -14 43 -22 44 -18 3 20 -4 69 -10 78 -8 10 -41 112 -45 137 -1 7 -7 22 -12 33 -6 11 -16 39 -24 63 -7 23 -17 42 -22 42 -4 0 -8 9 -8 20 0 11 -6 23 -14 26 -8 3 -18 19 -22 36 -4 21 -37 62 -97 122 -50 50 -87 85 -83 79 4 -7 5 -13 1 -13 -3 0 -10 11 -15 25 -5 14 -17 25 -26 25 -13 0 -14 3 -5 14 8 9 8 16 2 20 -5 4 -13 0 -18 -8 -11 -19 -53 -2 -52 21 0 16 1 16 9 -2 7 -16 9 -16 9 -4 1 15 7 15 41 7 22 -6 40 -15 40 -20 0 -5 4 -7 9 -4 14 9 215 -96 326 -170 206 -137 436 -348 448 -411 6 -32 -19 -95 -57 -146 -29 -37 -34 -56 -11 -37 8 6 19 9 26 5 14 -9 62 44 91 99 41 80 8 157 -126 292 -178 177 -485 374 -691 442 -215 72 -349 62 -409 -28 -55 -84 -55 -164 0 -246 22 -32 23 -35 5 -20 -40 37 -71 115 -71 183 0 206 179 309 420 242z m-197 -576 c4 -7 5 -13 4 -13 -1 0 -34 32 -72 72 l-70 72 66 -59 c37 -33 69 -66 72 -72z"/>
</g>


</svg>