<!DOCTYPE svg PUBLIC "-//W3C//DTD SVG 20010904//EN" "http://www.w3.org/TR/2001/REC-SVG-20010904/DTD/svg10.dtd">
<svg version="1.0" xmlns="http://www.w3.org/2000/svg" width="512px" height="160px" viewBox="0 0 5120 1600" preserveAspectRatio="xMidYMid meet">
<g id="layer101" fill="#030608" stroke="none">
<path d="M204 1591 c-38 -16 -83 -71 -90 -108 -4 -23 -2 -52 7 -78 13 -37 13 -44 -10 -100 -21 -50 -25 -81 -29 -193 -4 -118 -6 -134 -24 -143 -30 -16 -58 -70 -58 -112 0 -46 20 -87 58 -119 l28 -23 -6 -95 c-4 -52 -5 -116 -2 -142 3 -36 0 -53 -16 -75 -91 -128 0 -299 165 -308 32 -2 85 -14 118 -28 87 -37 180 -50 313 -45 95 4 130 10 186 32 41 15 88 26 118 26 60 0 117 28 155 75 l28 35 1988 0 1987 0 0 615 0 615 -2014 0 -2013 0 -7 39 c-7 45 -44 95 -89 117 -37 20 -95 14 -134 -14 -27 -19 -32 -19 -83 -6 -93 25 -224 29 -322 9 l-87 -17 -31 22 c-35 25 -103 35 -136 21z"/>
</g>
<g id="layer102" fill="#405b60" stroke="none">
<path d="M204 1591 c-38 -16 -83 -71 -90 -108 -4 -23 -2 -52 7 -78 13 -37 13 -44 -10 -100 -21 -50 -25 -81 -29 -193 -4 -118 -6 -134 -24 -143 -30 -16 -58 -70 -58 -112 0 -46 20 -87 58 -119 l28 -23 -6 -95 c-4 -52 -5 -116 -2 -142 3 -36 0 -53 -16 -75 -91 -128 0 -299 165 -308 32 -2 85 -14 118 -28 87 -37 180 -50 313 -45 95 4 130 10 186 32 41 15 88 26 118 26 77 0 153 48 177 113 l11 27 1973 0 1974 0 7 61 c8 80 8 919 -1 1027 l-6 82 -2014 0 -2014 0 12 21 c25 47 -18 131 -84 165 -37 20 -95 14 -134 -14 -27 -19 -32 -19 -83 -6 -93 25 -224 29 -322 9 l-87 -17 -31 22 c-35 25 -103 35 -136 21z m111 -111 c44 -35 40 -34 96 -14 95 33 288 28 405 -12 l47 -16 29 31 c32 35 62 39 90 14 25 -22 23 -50 -7 -89 -15 -20 -21 -35 -15 -39 18 -11 53 -88 67 -149 7 -33 14 -115 15 -183 l2 -123 28 0 c17 0 31 -7 38 -21 19 -34 8 -62 -32 -84 -44 -23 -48 -40 -48 -210 -1 -66 -5 -140 -10 -165 -8 -42 -6 -47 21 -74 74 -73 -4 -205 -105 -177 -28 7 -43 4 -95 -22 -56 -27 -72 -30 -184 -35 -136 -4 -234 11 -308 49 -30 15 -63 22 -106 23 -54 1 -66 5 -92 30 -52 50 -51 110 4 161 19 19 21 27 14 102 -4 44 -4 121 0 169 11 136 11 136 -26 146 -46 12 -68 47 -51 83 10 23 17 26 45 23 19 -2 33 1 33 7 1 5 1 71 0 145 0 153 14 230 54 290 l26 39 -25 25 c-29 29 -32 62 -8 88 23 26 55 22 98 -12z"/>
<path d="M450 1446 c-79 -23 -118 -43 -163 -85 -63 -58 -90 -126 -90 -221 1 -306 1 -550 0 -635 -1 -116 22 -192 79 -254 91 -101 301 -148 467 -105 196 51 252 152 261 473 3 80 8 223 12 316 8 192 -1 255 -47 346 -34 67 -72 102 -159 143 -60 28 -74 31 -190 33 -81 1 -141 -2 -170 -11z m211 -860 c5 -17 20 -40 34 -53 29 -27 31 -40 11 -68 -13 -19 -11 -20 35 -22 98 -4 153 -60 146 -147 -4 -42 -10 -55 -41 -83 -30 -28 -43 -33 -83 -33 -116 0 -196 102 -149 191 13 25 12 26 -14 26 -32 0 -106 53 -115 83 -7 21 10 60 25 60 6 0 10 9 10 21 0 46 17 59 77 56 53 -2 57 -4 64 -31z m-156 -150 c39 -26 58 -62 57 -111 -1 -56 -14 -81 -55 -105 -37 -23 -129 -27 -165 -6 -62 34 -81 125 -39 187 38 56 142 74 202 35z"/>
<path d="M695 406 c-39 -17 -55 -37 -61 -78 -11 -71 65 -135 141 -118 55 12 85 50 85 104 0 82 -82 128 -165 92z m21 -71 c13 -51 -46 -77 -68 -30 -14 30 3 55 38 55 17 0 25 -7 30 -25z"/>
<path d="M339 401 c-23 -24 -29 -38 -29 -73 0 -62 39 -99 110 -106 46 -4 54 -2 80 23 78 75 26 185 -88 185 -35 0 -49 -6 -73 -29z m55 -53 c23 -37 -36 -77 -63 -44 -8 10 -11 26 -7 42 5 20 12 25 33 22 14 -2 31 -11 37 -20z"/>
</g>
<g id="layer103" fill="#76cddd" stroke="none">
<path d="M204 1591 c-38 -16 -83 -71 -90 -108 -4 -23 -2 -52 7 -78 13 -37 13 -44 -10 -100 -21 -50 -25 -81 -29 -193 -4 -118 -6 -134 -24 -143 -30 -16 -58 -70 -58 -112 0 -46 20 -87 58 -119 l28 -23 -6 -95 c-4 -52 -5 -116 -2 -142 3 -36 0 -53 -16 -75 -91 -128 0 -299 165 -308 32 -2 85 -14 118 -28 87 -37 180 -50 313 -45 95 4 130 10 186 32 41 15 88 26 118 26 77 0 153 48 177 113 l11 27 1975 0 1975 0 0 585 0 585 -2015 0 -2016 0 12 21 c25 47 -18 131 -84 165 -37 20 -95 14 -134 -14 -27 -19 -32 -19 -83 -6 -93 25 -224 29 -322 9 l-87 -17 -31 22 c-35 25 -103 35 -136 21z m111 -111 c44 -35 40 -35 96 -13 34 13 77 17 189 17 129 0 152 -3 204 -23 l59 -23 29 31 c32 34 62 39 90 14 25 -22 23 -50 -7 -89 -20 -26 -22 -34 -11 -43 25 -21 65 -126 77 -201 6 -41 9 -114 7 -162 l-4 -88 28 0 c29 0 48 -23 48 -59 0 -18 -39 -52 -73 -64 -5 -1 -10 -70 -13 -153 -2 -82 -8 -172 -13 -199 -9 -48 -8 -51 20 -79 76 -75 -4 -207 -109 -177 -26 8 -40 5 -76 -15 -62 -35 -193 -58 -284 -50 -93 7 -187 31 -232 59 -25 15 -53 21 -97 21 -54 1 -65 5 -92 30 -38 37 -48 83 -27 124 9 17 21 32 28 34 8 3 13 52 15 169 2 90 4 182 6 203 2 37 0 40 -30 48 -46 12 -68 47 -51 83 10 23 17 26 45 23 18 -2 34 0 36 5 1 4 -1 56 -5 115 -11 154 9 257 62 332 l20 29 -25 25 c-29 29 -32 62 -8 88 23 26 55 22 98 -12z"/>
<path d="M448 1445 c-76 -21 -134 -53 -177 -100 -65 -71 -70 -104 -71 -445 -1 -162 -1 -340 -1 -395 -1 -186 63 -289 211 -338 82 -27 191 -38 282 -26 177 22 259 94 292 256 14 70 31 419 31 623 -1 266 -79 382 -284 426 -81 17 -220 17 -283 -1z m213 -858 c4 -16 19 -39 33 -52 30 -28 32 -42 11 -72 -14 -21 -14 -21 24 -16 29 4 52 -1 86 -17 59 -28 79 -66 72 -134 -4 -41 -10 -55 -41 -83 -31 -29 -43 -33 -88 -33 -113 0 -191 102 -144 191 13 25 12 26 -14 26 -32 0 -106 53 -115 83 -7 21 10 60 25 60 6 0 10 9 10 21 0 46 17 59 77 56 53 -2 57 -4 64 -30z m-172 -145 c51 -25 74 -62 73 -116 -2 -60 -23 -100 -66 -120 -98 -46 -216 18 -216 118 0 106 110 169 209 118z"/>
<path d="M550 566 c0 -17 5 -26 16 -26 10 0 14 7 12 22 -5 32 -28 35 -28 4z"/>
<path d="M610 559 c0 -38 24 -35 28 4 2 19 -1 27 -12 27 -11 0 -16 -10 -16 -31z"/>
<path d="M700 409 c-38 -16 -59 -39 -66 -74 -12 -68 45 -125 126 -125 120 0 138 167 22 200 -44 12 -49 12 -82 -1z m16 -74 c13 -51 -46 -77 -68 -30 -14 30 3 55 38 55 17 0 25 -7 30 -25z"/>
<path d="M364 420 c-33 -13 -54 -50 -54 -95 0 -58 41 -96 107 -102 42 -5 53 -1 81 22 57 48 52 127 -10 165 -34 21 -87 25 -124 10z m30 -72 c23 -37 -36 -77 -63 -44 -8 10 -11 26 -7 42 5 20 12 25 33 22 14 -2 31 -11 37 -20z"/>
<path d="M155 326 c-20 -31 -11 -70 22 -96 46 -36 102 -16 58 20 -8 7 -15 9 -15 6 0 -4 -9 -2 -21 4 -17 10 -20 17 -14 51 8 45 -6 52 -30 15z"/>
<path d="M992 311 c-6 -16 -8 -32 -5 -34 8 -9 -17 -47 -31 -47 -21 0 -29 -30 -8 -31 32 -2 47 3 70 24 28 26 29 77 3 101 -18 16 -19 16 -29 -13z"/>
</g>
<g id="layer104" fill="#f9fefe" stroke="none">
<path d="M204 1591 c-38 -16 -83 -71 -90 -108 -4 -23 -2 -52 7 -78 13 -37 13 -44 -10 -100 -21 -50 -25 -81 -29 -193 -4 -118 -6 -134 -24 -143 -30 -16 -58 -70 -58 -112 0 -46 20 -87 58 -119 l28 -23 -6 -95 c-4 -52 -5 -116 -2 -142 3 -36 0 -53 -16 -75 -91 -128 0 -299 165 -308 32 -2 85 -14 118 -28 87 -37 180 -50 313 -45 95 4 130 10 186 32 41 15 88 26 118 26 103 0 188 78 196 182 3 35 -32 138 -47 138 -4 0 -4 24 0 53 4 28 8 100 8 158 1 103 2 107 26 123 34 22 65 74 65 109 0 34 -33 101 -58 119 -16 11 -20 31 -25 128 -6 113 -20 177 -51 239 -15 28 -15 34 -1 68 20 47 13 92 -22 133 -53 64 -128 76 -190 32 -27 -19 -32 -19 -83 -6 -93 25 -224 29 -322 9 l-87 -17 -31 22 c-35 25 -103 35 -136 21z m111 -111 c44 -35 40 -35 96 -14 58 21 262 31 326 15 26 -6 65 -19 86 -28 l38 -17 30 32 c33 35 63 40 91 15 24 -22 23 -52 -6 -87 l-23 -30 23 -34 c54 -79 68 -137 68 -289 l1 -143 27 0 c29 0 48 -23 48 -59 0 -18 -39 -52 -73 -64 -5 -1 -10 -70 -13 -153 -2 -82 -8 -172 -13 -199 -9 -48 -8 -51 20 -79 76 -75 -4 -207 -109 -177 -26 8 -40 5 -74 -14 -56 -31 -163 -55 -242 -55 -111 0 -248 33 -289 69 -13 11 -39 16 -82 16 -57 0 -67 3 -94 29 -38 37 -48 83 -27 124 9 17 21 32 27 34 8 3 13 58 15 168 3 91 6 183 7 204 2 37 0 40 -30 48 -46 12 -68 47 -51 83 10 23 17 26 45 23 18 -2 34 0 35 4 2 5 0 55 -4 111 -12 162 6 264 59 333 l24 32 -26 26 c-29 29 -32 61 -8 88 23 26 55 22 98 -12z"/>
<path d="M261 1459 c8 -16 8 -23 0 -29 -9 -5 -8 -10 2 -19 11 -9 19 -7 37 7 l23 18 -28 22 c-35 28 -49 28 -34 1z"/>
<path d="M912 1447 c-22 -23 -22 -24 -4 -41 16 -14 21 -14 30 -3 9 10 9 16 0 25 -8 8 -8 15 2 27 20 24 -4 17 -28 -8z"/>
<path d="M132 850 c-12 -19 1 -30 34 -30 20 0 17 27 -4 39 -14 7 -21 5 -30 -9z"/>
<path d="M1051 856 c-7 -8 -11 -22 -9 -31 2 -13 6 -14 19 -3 11 8 14 20 10 31 -6 17 -8 17 -20 3z"/>
<path d="M556 583 c-12 -12 -6 -43 9 -43 8 0 15 9 15 19 0 21 -13 34 -24 24z"/>
<path d="M610 559 c0 -17 5 -29 11 -27 6 2 10 7 10 11 -1 4 -1 16 -1 27 0 11 -4 20 -10 20 -5 0 -10 -14 -10 -31z"/>
<path d="M640 509 c-14 -6 -46 -7 -71 -4 -31 4 -49 3 -54 -5 -13 -22 14 -34 80 -35 51 -2 68 2 81 16 9 10 13 23 9 28 -7 13 -12 13 -45 0z"/>
<path d="M526 419 c12 -13 27 -33 33 -44 9 -15 11 -15 7 -2 -3 11 0 17 9 17 8 0 15 -7 15 -15 0 -21 13 -19 28 6 12 18 11 20 -5 15 -10 -3 -28 0 -39 7 -12 6 -32 18 -45 26 l-24 14 21 -24z"/>
<path d="M364 420 c-59 -23 -74 -117 -26 -163 81 -77 222 -12 196 92 -16 63 -101 99 -170 71z m30 -72 c23 -37 -36 -77 -63 -44 -8 10 -11 26 -7 42 5 20 12 25 33 22 14 -2 31 -11 37 -20z"/>
<path d="M700 409 c-88 -35 -91 -149 -5 -185 110 -46 202 36 150 135 -21 41 -99 67 -145 50z m16 -74 c13 -51 -46 -77 -68 -30 -14 30 3 55 38 55 17 0 25 -7 30 -25z"/>
<path d="M150 261 c0 -10 39 -45 44 -40 3 2 -6 14 -20 26 -13 12 -24 18 -24 14z"/>
<path d="M2560 1101 c-77 -16 -125 -56 -162 -136 -18 -40 -23 -68 -23 -140 0 -123 18 -179 75 -236 128 -128 335 -65 381 115 16 65 7 222 -15 266 -31 60 -86 109 -140 125 -53 16 -62 16 -116 6z m123 -101 c43 -34 60 -95 55 -202 -4 -102 -17 -139 -61 -172 -37 -27 -103 -28 -139 -1 -49 36 -63 79 -63 190 1 109 13 146 61 184 36 28 112 29 147 1z"/>
<path d="M4175 1101 c-76 -19 -121 -59 -157 -136 -20 -43 -23 -66 -22 -155 0 -88 4 -113 23 -153 84 -172 312 -182 405 -17 30 53 31 59 31 175 0 132 -8 159 -69 223 -50 53 -142 81 -211 63z m124 -97 c41 -29 61 -89 61 -189 0 -133 -34 -196 -116 -211 -85 -16 -144 56 -152 186 -5 95 10 154 53 197 28 28 40 33 82 33 29 0 58 -7 72 -16z"/>
<path d="M1970 815 l0 -285 180 0 180 0 0 40 0 40 -130 0 -130 0 0 245 0 245 -50 0 -50 0 0 -285z"/>
<path d="M2940 814 l0 -286 143 4 c121 2 147 6 177 23 78 46 93 155 29 221 -18 19 -28 34 -22 34 20 0 62 48 71 83 23 83 -30 175 -114 196 -23 6 -97 11 -163 11 l-121 0 0 -286z m273 183 c23 -15 27 -24 27 -66 0 -70 -21 -85 -121 -90 l-79 -3 0 92 0 92 73 -4 c48 -2 83 -9 100 -21z m-2 -256 c26 -31 25 -83 -2 -107 -15 -14 -40 -20 -95 -22 l-74 -4 0 82 0 82 76 -4 c65 -3 79 -7 95 -27z"/>
<path d="M3440 815 l0 -285 50 0 50 0 0 115 0 115 125 0 125 0 1 -102 c1 -57 1 -109 0 -115 -1 -9 14 -13 49 -13 l50 0 0 286 0 285 -47 -3 -48 -3 -3 -122 -3 -123 -124 0 -125 0 0 125 0 125 -50 0 -50 0 0 -285z"/>
<path d="M4572 1088 c-7 -7 -12 -24 -12 -38 0 -34 17 -50 52 -50 18 0 33 8 44 25 15 23 15 27 0 50 -18 27 -63 34 -84 13z"/>
<path d="M4567 788 c-4 -79 -7 -169 -7 -200 l0 -58 50 0 50 0 0 133 c0 72 -3 162 -7 200 l-6 67 -37 0 -37 0 -6 -142z"/>
</g>


</svg>