<!DOCTYPE svg PUBLIC "-//W3C//DTD SVG 20010904//EN" "http://www.w3.org/TR/2001/REC-SVG-20010904/DTD/svg10.dtd">
<svg version="1.0" xmlns="http://www.w3.org/2000/svg" width="512px" height="160px" viewBox="0 0 5120 1600" preserveAspectRatio="xMidYMid meet">
<g id="layer101" fill="#d34b47" stroke="none">
 <path d="M483 1580 c-64 -28 -79 -62 -88 -188 -6 -91 -11 -115 -35 -158 -27 -49 -30 -69 -64 -396 -20 -189 -36 -361 -36 -382 0 -30 7 -45 33 -71 45 -45 117 -65 260 -72 l117 -6 10 -39 c13 -47 187 -233 238 -255 48 -20 101 -3 146 47 35 39 41 57 37 113 l-2 27 2010 0 2011 0 0 605 0 605 -2074 0 -2074 0 -7 50 c-8 59 -42 106 -92 126 -23 10 -79 14 -190 14 -134 0 -164 -3 -200 -20z"/>
 </g>
<g id="layer102" fill="#fdf3f3" stroke="none">
 <path d="M483 1581 c-64 -30 -79 -64 -88 -189 -6 -91 -11 -115 -35 -158 -27 -49 -30 -69 -64 -396 -20 -189 -36 -361 -36 -382 0 -30 7 -45 33 -71 45 -45 117 -65 260 -72 l117 -6 10 -39 c13 -47 187 -233 238 -255 48 -20 101 -3 146 47 60 67 54 115 -25 197 -32 34 -59 65 -59 70 0 5 17 15 38 22 90 32 95 55 66 301 -13 107 -33 272 -43 367 -16 143 -24 179 -44 215 -22 37 -26 59 -29 156 -5 121 -13 142 -72 186 -25 19 -44 21 -199 24 -153 2 -177 0 -214 -17z m311 -90 c21 -5 42 -13 47 -18 5 -5 13 -61 18 -125 7 -83 15 -125 28 -144 l18 -28 -25 7 c-74 20 -204 28 -288 18 -48 -6 -98 -14 -111 -18 l-25 -6 21 34 c16 26 22 59 28 144 4 61 10 113 14 117 22 24 200 36 275 19z m-30 -302 c42 -5 93 -16 114 -23 36 -13 37 -15 44 -72 16 -143 20 -184 16 -184 -3 0 -19 7 -36 16 -56 27 -72 -9 -25 -58 29 -30 26 -46 -5 -29 -11 6 -32 37 -47 68 -38 83 -52 107 -63 111 -12 4 -4 -31 15 -68 19 -36 16 -41 -14 -25 -15 8 -31 11 -37 7 -6 -3 -22 -5 -35 -3 -13 1 -27 -3 -32 -10 -6 -10 -12 -9 -28 5 -47 42 -69 -19 -30 -83 27 -44 34 -34 13 18 -9 23 -14 44 -11 47 12 12 48 -19 69 -59 11 -23 23 -37 25 -30 2 7 0 21 -6 32 -13 23 -15 61 -3 61 15 0 30 -16 37 -40 17 -57 67 -170 76 -170 14 0 11 12 -25 106 -19 49 -32 92 -30 96 11 17 63 -23 74 -57 10 -32 30 -49 30 -26 0 6 12 4 26 -4 29 -15 54 -10 54 11 0 7 -14 29 -31 49 -35 39 -20 48 22 12 24 -20 28 -33 39 -132 15 -142 19 -181 25 -229 5 -34 3 -38 -12 -31 -72 28 -503 33 -567 6 -16 -6 -30 -10 -31 -9 -5 6 31 317 37 323 3 3 11 -9 17 -27 6 -18 25 -50 42 -71 37 -45 88 -52 113 -15 23 32 2 48 -22 18 -19 -24 -20 -24 -47 -6 -35 23 -89 137 -81 171 4 14 10 25 15 25 21 0 70 -53 85 -90 17 -42 38 -47 29 -7 -29 126 -75 226 -59 128 l7 -43 -27 21 c-15 12 -35 21 -46 21 -17 0 -18 6 -12 68 14 142 15 146 59 160 88 29 176 36 279 21z m174 -699 c31 -7 52 -17 52 -25 0 -14 -79 -35 -134 -35 -18 0 -35 -3 -38 -6 -3 -3 0 -27 7 -55 10 -38 29 -66 89 -131 76 -82 90 -113 50 -113 -14 0 -50 30 -101 86 -72 77 -81 91 -92 146 l-13 60 -147 7 c-197 9 -274 28 -222 55 55 30 432 37 549 11z"/>
 <path d="M737 483 c-3 -5 12 -8 33 -8 21 0 36 3 33 8 -2 4 -17 7 -33 7 -16 0 -31 -3 -33 -7z"/>
 <path d="M2344 1094 c-25 -6 -58 -20 -72 -31 -122 -90 -138 -345 -30 -468 101 -115 293 -90 365 47 26 49 28 61 28 173 0 104 -3 125 -22 161 -56 104 -154 148 -269 118z m135 -90 c40 -29 61 -90 61 -184 0 -47 -5 -101 -10 -121 -22 -79 -109 -119 -179 -82 -49 25 -74 80 -79 172 -5 96 10 155 53 198 28 28 40 33 82 33 29 0 58 -7 72 -16z"/>
 <path d="M3975 1101 c-75 -19 -121 -58 -157 -136 -19 -42 -23 -66 -23 -155 1 -89 4 -112 24 -153 62 -126 207 -171 326 -102 85 49 120 135 113 283 -3 73 -9 107 -25 138 -33 62 -92 110 -152 123 -57 12 -63 12 -106 2z m124 -97 c42 -30 61 -89 61 -192 0 -104 -13 -147 -55 -180 -64 -51 -151 -31 -189 42 -24 48 -33 173 -16 235 7 26 26 59 45 78 28 28 40 33 82 33 29 0 58 -7 72 -16z"/>
 <path d="M1770 815 l0 -285 180 0 180 0 0 40 0 40 -130 0 -130 0 0 245 0 245 -50 0 -50 0 0 -285z"/>
 <path d="M2740 814 l0 -286 143 4 c112 3 149 7 175 21 46 25 72 72 72 129 0 41 -5 54 -35 87 -34 37 -35 40 -15 46 11 4 27 17 36 30 62 94 16 214 -93 244 -21 6 -93 11 -160 11 l-123 0 0 -286z m273 183 c23 -15 27 -24 27 -66 0 -69 -19 -83 -120 -89 l-80 -5 0 93 0 92 73 -4 c48 -2 83 -9 100 -21z m-2 -256 c28 -35 25 -85 -7 -110 -21 -17 -41 -21 -95 -21 l-69 0 0 81 0 81 76 -4 c65 -3 79 -7 95 -27z"/>
 <path d="M3240 815 l0 -285 50 0 50 0 0 115 0 115 125 0 125 0 0 -115 0 -115 50 0 50 0 0 286 0 285 -47 -3 -48 -3 -2 -110 c-1 -60 -2 -116 -3 -122 0 -10 -32 -13 -125 -13 l-125 0 0 125 0 125 -50 0 -50 0 0 -285z"/>
 <path d="M4372 1088 c-17 -17 -15 -54 4 -72 24 -24 61 -20 80 9 15 23 15 27 0 50 -18 27 -63 34 -84 13z"/>
 <path d="M4367 788 c-4 -79 -7 -169 -7 -200 l0 -58 50 0 50 0 0 133 c0 72 -3 162 -7 200 l-6 67 -37 0 -37 0 -6 -142z"/>
 </g>

</svg>