<!DOCTYPE svg PUBLIC "-//W3C//DTD SVG 20010904//EN" "http://www.w3.org/TR/2001/REC-SVG-20010904/DTD/svg10.dtd">
<svg version="1.0" xmlns="http://www.w3.org/2000/svg" width="512px" height="160px" viewBox="0 0 5120 1600" preserveAspectRatio="xMidYMid meet">
<g id="layer101" fill="#126ca4" stroke="none">
<path d="M179 1535 c-58 -19 -131 -82 -158 -138 -27 -56 -28 -155 -2 -212 10 -22 39 -60 65 -83 l48 -44 -41 -34 c-22 -19 -52 -59 -67 -89 -24 -49 -26 -64 -22 -133 5 -89 22 -128 82 -185 l41 -40 -50 -51 c-57 -57 -75 -103 -75 -187 0 -70 36 -147 85 -185 21 -16 46 -37 56 -46 18 -17 53 -18 439 -18 l420 0 0 37 0 37 28 -26 c49 -47 92 -62 167 -62 84 0 138 24 186 84 l32 40 1854 0 1853 0 0 605 0 605 -1850 0 -1850 0 -52 54 c-58 59 -99 76 -183 76 -93 -1 -173 -57 -216 -155 -18 -38 -24 -74 -27 -153 l-4 -103 -48 73 c-133 207 -335 325 -585 342 -56 4 -94 1 -126 -9z"/>
</g>
<g id="layer102" fill="#f5971c" stroke="none">
<path d="M179 1535 c-58 -19 -131 -82 -158 -138 -27 -56 -28 -155 -2 -212 10 -22 39 -60 65 -83 l48 -44 -41 -34 c-22 -19 -52 -59 -67 -89 -24 -49 -26 -64 -22 -133 5 -89 22 -128 82 -185 l41 -40 -50 -51 c-57 -57 -75 -103 -75 -187 0 -70 36 -147 85 -185 21 -16 46 -37 56 -46 18 -17 53 -18 439 -18 l420 0 0 37 0 37 28 -26 c49 -47 92 -62 167 -62 115 0 188 53 230 166 19 50 20 82 20 568 0 513 0 515 -23 572 -68 168 -279 214 -399 87 -55 -58 -76 -121 -81 -237 l-4 -103 -48 73 c-133 207 -335 325 -585 342 -56 4 -94 1 -126 -9z m299 -118 c99 -35 172 -80 246 -153 71 -72 117 -144 154 -246 l27 -73 3 -383 3 -383 -353 3 c-391 3 -392 3 -440 70 -33 47 -33 139 1 187 44 61 82 71 289 71 l182 0 0 155 c0 227 -21 298 -111 379 -56 51 -115 76 -196 82 -94 8 -139 28 -169 79 -47 81 -25 168 56 223 32 22 42 24 135 19 73 -3 120 -11 173 -30z m801 6 c14 -11 37 -40 51 -64 l25 -44 0 -505 c0 -498 0 -506 -22 -552 -28 -61 -71 -88 -138 -88 -64 0 -107 26 -137 82 -23 43 -23 45 -26 522 -2 325 1 496 8 532 13 61 48 109 95 130 39 18 110 12 144 -13z"/>
</g>
<g id="layer103" fill="#fbfffe" stroke="none">
<path d="M179 1535 c-58 -19 -131 -82 -158 -138 -27 -56 -28 -155 -2 -212 10 -22 39 -60 65 -83 l48 -44 -41 -34 c-22 -19 -52 -59 -67 -89 -24 -49 -26 -64 -22 -133 5 -89 22 -128 82 -185 l41 -40 -50 -51 c-57 -57 -75 -103 -75 -187 0 -70 36 -147 85 -185 21 -16 46 -37 56 -46 18 -17 53 -18 439 -18 l420 0 0 37 0 37 28 -26 c49 -47 92 -62 167 -62 115 0 188 53 230 166 19 50 20 82 20 568 0 513 0 515 -23 572 -68 168 -279 214 -399 87 -55 -58 -76 -121 -81 -237 l-4 -103 -48 73 c-133 207 -335 325 -585 342 -56 4 -94 1 -126 -9z m299 -118 c99 -35 172 -80 246 -153 71 -72 117 -144 154 -246 l27 -73 3 -383 3 -383 -353 3 c-391 3 -392 3 -440 70 -33 47 -33 139 1 187 44 61 82 71 289 71 l182 0 0 155 c0 227 -21 298 -111 379 -56 51 -115 76 -196 82 -94 8 -139 28 -169 79 -47 81 -25 168 56 223 32 22 42 24 135 19 73 -3 120 -11 173 -30z m801 6 c14 -11 37 -40 51 -64 l25 -44 0 -505 c0 -498 0 -506 -22 -552 -28 -61 -71 -88 -138 -88 -64 0 -107 26 -137 82 -23 43 -23 45 -26 522 -2 325 1 496 8 532 13 61 48 109 95 130 39 18 110 12 144 -13z m-932 -434 c94 -35 141 -165 94 -257 -23 -46 -46 -67 -94 -87 -132 -55 -265 43 -255 187 5 66 39 117 98 149 39 21 113 25 157 8z"/>
<path d="M2535 1101 c-77 -20 -131 -67 -166 -146 -18 -40 -22 -69 -23 -142 0 -83 3 -97 32 -156 24 -49 44 -73 77 -95 79 -52 188 -52 266 1 156 105 141 437 -23 515 -50 24 -120 34 -163 23z m132 -125 c12 -15 27 -45 34 -69 15 -56 7 -183 -14 -224 -32 -61 -111 -81 -162 -41 -42 32 -55 76 -55 178 0 100 11 134 57 170 39 30 108 23 140 -14z"/>
<path d="M4148 1096 c-120 -32 -178 -125 -178 -287 0 -106 26 -175 86 -228 94 -82 225 -79 314 7 58 56 80 120 80 227 0 148 -60 247 -169 279 -64 19 -71 19 -133 2z m131 -112 c38 -32 51 -77 51 -177 0 -128 -36 -182 -120 -182 -92 0 -125 60 -118 211 3 75 8 99 24 121 43 58 113 70 163 27z"/>
<path d="M4555 1085 c-28 -27 -30 -37 -14 -66 15 -28 55 -42 82 -28 45 24 50 67 11 98 -34 27 -50 26 -79 -4z"/>
<path d="M1947 1093 c-4 -3 -7 -132 -7 -285 l0 -278 190 0 190 0 0 45 0 45 -130 0 -130 0 0 240 0 240 -53 0 c-30 0 -57 -3 -60 -7z"/>
<path d="M2910 814 l0 -286 148 4 c165 4 209 17 243 72 35 58 18 160 -32 187 -21 11 -21 11 8 29 67 40 77 152 21 216 -43 49 -105 64 -260 64 l-128 0 0 -286z m259 185 c54 -19 67 -84 26 -124 -21 -22 -33 -25 -95 -25 l-70 0 0 80 0 80 54 0 c29 0 68 -5 85 -11z m-12 -240 c35 -13 43 -25 43 -71 0 -51 -27 -68 -107 -68 l-63 0 0 75 0 75 49 0 c27 0 62 -5 78 -11z"/>
<path d="M3420 815 l0 -285 60 0 60 0 0 115 0 115 115 0 115 0 0 -115 0 -115 60 0 60 0 -2 283 -3 282 -57 3 -58 3 0 -126 0 -125 -115 0 -115 0 0 125 0 125 -60 0 -60 0 0 -285z"/>
<path d="M4546 843 c-3 -42 -6 -129 -6 -195 l0 -118 58 0 58 0 -3 173 c-5 224 -3 217 -57 217 l-43 0 -7 -77z"/>
</g>


</svg>