<!DOCTYPE svg PUBLIC "-//W3C//DTD SVG 20010904//EN" "http://www.w3.org/TR/2001/REC-SVG-20010904/DTD/svg10.dtd">
<svg version="1.0" xmlns="http://www.w3.org/2000/svg" width="512px" height="160px" viewBox="0 0 5120 1600" preserveAspectRatio="xMidYMid meet">
<g id="layer101" fill="#4169a6" stroke="none">
<path d="M259 1537 c-102 -29 -181 -96 -228 -197 l-26 -55 -3 -454 c-3 -434 -2 -458 18 -522 25 -85 95 -165 178 -206 l57 -28 485 0 c476 0 486 0 532 22 25 11 66 40 91 62 l44 41 1857 0 1856 0 0 605 0 605 -1851 0 -1852 0 -44 41 c-25 22 -70 53 -101 67 l-57 27 -455 2 c-340 2 -467 -1 -501 -10z"/>
</g>
<g id="layer102" fill="#3baab0" stroke="none">
<path d="M259 1537 c-102 -29 -181 -96 -228 -197 l-26 -55 -3 -454 c-3 -434 -2 -458 18 -522 25 -85 95 -165 178 -206 l57 -28 485 0 c476 0 486 0 532 22 25 11 66 40 91 62 l44 41 1857 0 1856 0 0 605 0 605 -1851 0 -1852 0 -44 41 c-25 22 -70 53 -101 67 l-57 27 -455 2 c-340 2 -467 -1 -501 -10z m2516 -465 c63 -50 110 -148 88 -185 -5 -11 -9 -2 -10 28 -1 28 -10 57 -26 80 -27 39 -67 73 -67 56 0 -6 8 -15 19 -20 25 -14 58 -94 67 -166 5 -43 9 -54 14 -40 4 11 6 23 4 27 -3 4 1 10 7 14 9 5 11 -13 6 -72 -3 -43 -9 -93 -13 -110 -9 -47 -73 -125 -114 -140 -78 -28 -202 -10 -237 34 -67 83 -68 87 -68 237 0 135 1 141 27 182 31 47 84 91 124 102 42 11 152 -6 179 -27z m-682 -237 l-3 -265 145 0 c138 0 145 -1 145 -20 0 -19 -7 -20 -167 -20 l-168 0 0 285 0 285 25 0 25 0 -2 -265z m-1843 -80 c0 -100 -1 -105 -21 -105 -19 0 -21 4 -15 31 3 17 6 47 6 66 0 20 4 32 10 28 6 -4 10 12 10 39 0 25 2 46 5 46 3 0 5 -47 5 -105z m86 8 c8 -17 14 -39 14 -48 0 -23 28 -83 56 -121 36 -49 132 -91 198 -86 17 1 17 -1 5 -13 -19 -20 -127 -4 -174 25 -71 44 -126 167 -124 275 1 22 3 31 6 20 2 -11 11 -34 19 -52z m2754 -224 l75 -5 -82 -2 -83 -2 2 108 2 107 5 -100 6 -100 75 -6z m-53 64 c-2 -16 -4 -3 -4 27 0 30 2 43 4 28 2 -16 2 -40 0 -55z m-2790 -110 c-15 -16 -18 -16 -33 -2 -14 15 -14 18 2 33 15 16 18 16 33 2 14 -15 14 -18 -2 -33z"/>
<path d="M2620 1062 c-81 -22 -129 -96 -137 -211 -7 -119 10 -186 61 -238 53 -53 109 -64 176 -35 88 38 114 101 108 262 -3 97 -6 111 -31 149 -38 57 -116 89 -177 73z"/>
</g>
<g id="layer103" fill="#429eca" stroke="none">
<path d="M259 1537 c-102 -29 -181 -96 -228 -197 l-26 -55 -3 -454 c-3 -434 -2 -458 18 -522 25 -85 95 -165 178 -206 l57 -28 485 0 c476 0 486 0 532 22 25 11 66 40 91 62 l44 41 1857 0 1856 0 0 605 0 605 -1851 0 -1852 0 -44 41 c-25 22 -70 53 -101 67 l-57 27 -455 2 c-340 2 -467 -1 -501 -10z m2453 -442 c36 -5 56 -15 87 -45 57 -55 86 -131 63 -167 -4 -6 -8 8 -9 32 -1 28 -10 57 -26 80 -27 39 -67 73 -67 56 0 -6 8 -15 19 -20 25 -14 58 -94 67 -166 5 -43 9 -54 14 -40 4 11 6 23 4 27 -3 4 0 9 6 13 23 14 3 -171 -24 -229 -15 -32 -55 -72 -93 -93 -13 -7 -56 -13 -98 -13 -98 0 -120 13 -183 105 -26 39 -27 44 -27 180 0 135 1 141 27 182 45 69 118 114 173 107 11 -2 41 -6 67 -9z m-2224 -7 c-2 -8 5 -12 17 -10 11 1 -3 -9 -32 -23 -36 -18 -62 -40 -84 -73 l-31 -47 5 38 c7 45 18 60 71 99 42 30 57 35 54 16z m1605 -253 l-3 -265 145 0 c80 0 145 -2 145 -4 0 -2 3 -11 6 -20 5 -14 -13 -16 -167 -16 l-174 0 0 285 0 285 25 0 25 0 -2 -265z m1439 128 l3 -138 150 3 c116 2 147 0 138 -9 -10 -10 -9 -15 4 -24 13 -10 -16 -12 -138 -11 l-154 1 -5 -125 c-4 -102 -8 -125 -20 -125 -13 0 -15 39 -18 283 -2 276 -2 282 18 282 18 0 20 -8 22 -137z m-201 81 c12 -13 23 -32 24 -41 1 -10 6 -26 10 -36 12 -28 -4 -86 -34 -119 -22 -24 -28 -27 -28 -13 0 10 8 20 18 22 20 6 32 30 23 45 -4 6 -10 5 -16 -3 -7 -10 -8 -5 -3 15 8 39 -11 91 -45 119 -19 17 -25 28 -18 35 14 14 42 4 69 -24z m-3081 -289 c0 -100 -1 -105 -21 -105 -19 0 -21 4 -15 31 3 17 6 47 6 66 0 20 4 32 10 28 6 -4 10 12 10 39 0 25 2 46 5 46 3 0 5 -47 5 -105z m86 8 c8 -17 14 -39 14 -50 0 -36 56 -128 96 -155 42 -30 98 -49 146 -50 24 -1 27 -3 16 -14 -18 -19 -128 -2 -173 26 -71 44 -126 167 -124 275 1 22 3 31 6 20 2 -11 11 -34 19 -52z m2754 -224 l75 -5 -82 -2 -83 -2 2 108 2 107 5 -100 6 -100 75 -6z m-2240 164 c0 -15 -42 -99 -63 -125 -8 -10 -22 -18 -32 -18 -16 0 -17 2 -3 18 23 26 58 99 58 121 0 14 6 19 20 18 11 -1 20 -7 20 -14z m3035 -43 c8 0 16 12 18 28 2 15 5 -15 6 -65 1 -93 1 -93 -24 -93 -25 0 -25 0 -24 93 1 50 4 80 6 65 2 -16 10 -28 18 -28z m-848 -57 c-2 -16 -4 -3 -4 27 0 30 2 43 4 28 2 -16 2 -40 0 -55z m-2102 57 c-10 -16 13 -75 39 -99 13 -13 41 -29 63 -36 21 -8 32 -14 24 -15 -11 0 -11 -3 0 -16 11 -13 9 -14 -17 -8 -70 17 -132 71 -143 126 -6 27 -3 35 14 45 26 15 27 15 20 3z m-688 -167 c-15 -16 -18 -16 -33 -2 -14 15 -14 18 2 33 15 16 18 16 33 2 14 -15 14 -18 -2 -33z"/>
<path d="M2593 1046 c-39 -18 -58 -35 -79 -72 -26 -44 -28 -56 -29 -154 0 -127 13 -168 66 -214 51 -43 96 -52 160 -31 91 31 124 105 117 267 -3 95 -6 109 -31 147 -48 72 -126 94 -204 57z"/>
</g>
<g id="layer104" fill="#97c55f" stroke="none">
<path d="M259 1537 c-102 -29 -181 -96 -228 -197 l-26 -55 -3 -454 c-3 -434 -2 -458 18 -522 25 -85 95 -165 178 -206 l57 -28 485 0 c476 0 486 0 532 22 25 11 66 40 91 62 l44 41 1857 0 1856 0 0 605 0 605 -1851 0 -1852 0 -44 41 c-25 22 -70 53 -101 67 l-57 27 -455 2 c-340 2 -467 -1 -501 -10z m-9 -657 c0 -212 -1 -230 -17 -230 -17 0 -18 16 -15 222 3 205 7 236 30 238 1 0 2 -103 2 -230z m2464 219 c58 -14 113 -62 139 -118 28 -64 31 -253 4 -323 -67 -172 -303 -184 -389 -19 -26 50 -28 61 -28 175 0 111 2 127 26 174 27 55 64 87 123 108 45 16 71 17 125 3z m-2226 -11 c-2 -8 5 -12 17 -11 11 2 2 -6 -21 -16 -104 -48 -159 -186 -132 -330 20 -112 88 -191 182 -212 62 -13 148 5 195 42 32 25 81 111 81 140 0 12 7 17 20 16 26 -2 25 -17 -5 -82 -43 -90 -110 -137 -216 -150 -209 -26 -343 171 -284 417 19 81 47 125 108 169 43 31 58 36 55 17z m1604 -220 c-2 -128 0 -248 3 -265 l6 -33 144 0 c138 0 145 -1 145 -20 0 -19 -7 -20 -172 -20 l-173 0 0 285 0 285 25 0 25 0 -3 -232z m1156 221 c34 -7 59 -20 82 -44 62 -64 48 -186 -26 -224 l-30 -15 38 -38 c31 -31 38 -45 38 -78 0 -56 -22 -103 -60 -130 -29 -21 -47 -24 -161 -28 l-129 -5 0 287 0 286 100 0 c54 0 121 -5 148 -11z m292 -124 l0 -135 147 0 c112 0 144 -3 135 -12 -9 -9 -7 -14 6 -24 13 -9 -14 -11 -136 -6 l-151 5 -3 -129 c-3 -125 -4 -129 -25 -132 l-23 -3 0 285 0 286 25 0 25 0 0 -135z m345 -305 c8 0 16 12 18 28 2 15 5 -15 6 -65 1 -93 1 -93 -24 -93 -25 0 -25 0 -24 93 1 50 4 80 6 65 2 -16 10 -28 18 -28z m-2950 0 c-10 -16 13 -75 39 -99 13 -13 41 -29 63 -36 21 -8 32 -14 24 -15 -11 0 -11 -3 0 -16 11 -13 9 -14 -17 -8 -70 17 -132 71 -143 126 -6 27 -3 35 14 45 26 15 27 15 20 3z m-675 -157 c0 -21 -29 -28 -46 -11 -14 13 -14 17 1 32 13 13 20 14 31 5 8 -6 14 -18 14 -26z"/>
</g>
<g id="layer105" fill="#7fc8e2" stroke="none">
<path d="M259 1537 c-102 -29 -181 -96 -228 -197 l-26 -55 -3 -454 c-3 -434 -2 -458 18 -522 25 -85 95 -165 178 -206 l57 -28 485 0 c476 0 486 0 532 22 25 11 66 40 91 62 l44 41 1857 0 1856 0 0 605 0 605 -1851 0 -1852 0 -44 41 c-25 22 -70 53 -101 67 l-57 27 -455 2 c-340 2 -467 -1 -501 -10z m-9 -657 c0 -212 -1 -230 -17 -230 -17 0 -18 16 -15 222 3 205 7 236 30 238 1 0 2 -103 2 -230z m450 209 c58 -26 87 -53 115 -109 72 -142 48 -343 -52 -431 -46 -40 -83 -55 -154 -64 -210 -26 -343 170 -284 420 21 88 66 149 137 184 59 29 175 29 238 0z m516 2 c118 -54 135 -204 30 -266 -23 -14 -80 -34 -126 -46 -89 -22 -148 -47 -169 -73 -22 -26 -18 -91 5 -123 34 -45 74 -63 147 -65 56 -1 71 2 106 25 24 16 44 40 52 62 15 40 39 47 39 11 0 -55 -85 -120 -171 -131 -74 -9 -132 8 -181 53 -63 60 -69 138 -15 195 32 34 55 43 205 87 45 13 86 33 107 52 30 26 35 36 35 73 0 51 -35 100 -87 121 -49 21 -146 18 -193 -6 -41 -21 -80 -67 -80 -94 0 -17 -26 -33 -36 -23 -9 9 15 73 38 103 34 43 92 64 178 64 52 0 88 -6 116 -19z m1498 8 c58 -14 113 -62 139 -118 28 -64 31 -253 4 -323 -67 -172 -303 -184 -389 -19 -26 50 -28 61 -28 175 0 111 2 127 26 174 27 55 64 87 123 108 45 16 71 17 125 3z m1586 0 c60 -13 111 -53 143 -113 19 -36 22 -56 22 -171 0 -115 -3 -135 -22 -171 -95 -178 -342 -153 -398 40 -23 78 -17 244 10 296 33 65 81 104 150 121 43 10 39 10 95 -2z m-2208 -231 c-2 -128 0 -248 3 -265 l6 -33 144 0 c138 0 145 -1 145 -20 0 -19 -7 -20 -172 -20 l-173 0 0 285 0 285 25 0 25 0 -3 -232z m1156 221 c34 -7 59 -20 82 -44 62 -64 48 -186 -26 -224 l-30 -15 38 -38 c31 -31 38 -45 38 -78 0 -56 -22 -103 -60 -130 -29 -21 -47 -24 -161 -28 l-129 -5 0 287 0 286 100 0 c54 0 121 -5 148 -11z m292 -124 l0 -135 160 0 160 0 0 135 0 135 25 0 25 0 0 -285 0 -285 -25 0 -25 0 0 128 0 127 -160 3 -159 4 -3 -129 c-3 -124 -4 -128 -25 -131 l-23 -3 0 285 0 286 25 0 25 0 0 -135z m1095 105 c0 -18 -6 -26 -23 -28 -24 -4 -38 18 -28 44 3 9 15 14 28 12 17 -2 23 -10 23 -28z m-5 -335 c0 -198 -1 -205 -20 -205 -19 0 -20 7 -20 205 0 198 1 205 20 205 19 0 20 -7 20 -205z m-4370 -232 c0 -21 -29 -28 -46 -11 -14 13 -14 17 1 32 13 13 20 14 31 5 8 -6 14 -18 14 -26z"/>
<path d="M484 1061 c-104 -48 -159 -186 -132 -330 20 -112 88 -191 182 -212 62 -13 148 5 195 42 50 39 84 119 89 210 8 131 -29 223 -110 276 -54 36 -161 43 -224 14z"/>
<path d="M2578 1040 c-20 -11 -45 -34 -56 -52 -52 -86 -50 -267 4 -350 34 -53 74 -71 146 -66 50 4 63 9 93 38 92 89 87 350 -7 420 -45 33 -129 38 -180 10z"/>
<path d="M3043 1044 c-2 -6 -2 -57 -1 -115 l3 -104 65 -3 c150 -7 210 25 210 115 0 52 -17 85 -53 105 -28 16 -218 18 -224 2z"/>
<path d="M3049 780 c-1 -3 -2 -51 -3 -107 l-1 -103 83 0 c107 0 144 15 165 68 16 39 13 69 -8 103 -19 29 -94 50 -167 47 -37 -2 -68 -5 -69 -8z"/>
</g>
<g id="layer106" fill="#d6edad" stroke="none">
<path d="M259 1537 c-102 -29 -181 -96 -228 -197 l-26 -55 -3 -454 c-3 -434 -2 -458 18 -522 25 -85 95 -165 178 -206 l57 -28 485 0 c476 0 486 0 532 22 25 11 66 40 91 62 l44 41 1857 0 1856 0 0 605 0 605 -1851 0 -1852 0 -44 41 c-25 22 -70 53 -101 67 l-57 27 -455 2 c-340 2 -467 -1 -501 -10z m-9 -663 c0 -219 -1 -235 -17 -232 -17 3 -18 22 -18 236 0 214 1 232 18 232 16 0 17 -18 17 -236z m450 215 c58 -26 87 -53 115 -109 68 -135 51 -325 -38 -418 -70 -73 -175 -99 -281 -68 -68 20 -121 68 -155 141 -32 68 -40 207 -17 287 19 67 97 159 148 175 59 19 178 15 228 -8z m516 2 c118 -54 135 -204 30 -266 -23 -14 -80 -34 -126 -46 -89 -22 -148 -47 -169 -73 -22 -26 -18 -91 5 -123 34 -45 74 -63 147 -65 56 -1 71 2 106 25 24 16 44 40 52 62 15 40 39 47 39 11 0 -55 -85 -120 -171 -131 -74 -9 -132 8 -181 53 -63 60 -69 138 -15 195 32 34 55 43 205 87 45 13 86 33 107 52 30 26 35 36 35 73 0 51 -35 100 -87 121 -49 21 -146 18 -193 -6 -41 -21 -80 -67 -80 -94 0 -17 -26 -33 -36 -23 -9 9 15 73 38 103 34 43 92 64 178 64 52 0 88 -6 116 -19z m1538 -2 c43 -23 87 -74 106 -126 28 -75 28 -221 0 -297 -68 -180 -304 -196 -392 -27 -26 50 -28 61 -28 175 0 111 2 127 26 174 42 84 119 126 213 117 29 -3 63 -10 75 -16z m1546 10 c60 -13 111 -53 143 -113 19 -36 22 -56 22 -171 0 -115 -3 -135 -22 -171 -95 -178 -342 -153 -398 40 -23 78 -17 244 10 296 33 65 81 104 150 121 43 10 39 10 95 -2z m-2208 -231 c-2 -128 0 -248 3 -265 l6 -33 144 0 c138 0 145 -1 145 -20 0 -19 -7 -20 -172 -20 l-173 0 0 285 0 285 25 0 25 0 -3 -232z m1195 212 c58 -26 83 -69 83 -144 0 -55 -2 -61 -40 -98 l-40 -40 30 -35 c25 -28 30 -42 30 -88 0 -44 -5 -59 -27 -86 -41 -49 -77 -59 -208 -59 l-115 0 0 285 0 285 123 0 c99 0 130 -4 164 -20z m253 -115 l0 -135 160 0 160 0 0 135 0 135 25 0 25 0 0 -285 0 -285 -25 0 -25 0 0 131 c0 115 -2 130 -16 125 -9 -3 -81 -6 -160 -6 l-144 0 0 -125 0 -125 -25 0 -25 0 0 285 0 285 25 0 25 0 0 -135z m1095 105 c0 -18 -6 -26 -23 -28 -24 -4 -38 18 -28 44 3 9 15 14 28 12 17 -2 23 -10 23 -28z m-5 -335 c0 -198 -1 -205 -20 -205 -19 0 -20 7 -20 205 0 198 1 205 20 205 19 0 20 -7 20 -205z m-4370 -232 c0 -21 -29 -28 -46 -11 -14 13 -14 17 1 32 13 13 20 14 31 5 8 -6 14 -18 14 -26z"/>
<path d="M492 1065 c-91 -42 -144 -142 -143 -271 1 -113 29 -177 104 -238 33 -27 48 -31 111 -34 154 -8 244 80 254 250 8 130 -29 222 -110 275 -34 23 -54 28 -112 30 -46 2 -83 -3 -104 -12z"/>
<path d="M4159 1036 c-61 -42 -74 -82 -74 -227 0 -120 1 -127 27 -167 35 -52 77 -74 139 -74 62 1 103 23 137 74 26 40 27 46 27 172 0 147 -11 181 -75 223 -47 33 -132 32 -181 -1z"/>
</g>
<g id="layer107" fill="#f9f9f9" stroke="none">
<path d="M250 1531 c0 -7 -6 -11 -15 -7 -8 3 -15 1 -15 -4 0 -9 -39 -26 -52 -22 -5 1 -7 -4 -5 -10 1 -7 -6 -12 -16 -11 -10 0 -16 -2 -13 -5 10 -9 -46 -62 -58 -55 -6 3 -8 3 -4 -1 4 -5 -7 -34 -23 -66 -16 -31 -29 -67 -29 -79 0 -12 -3 -20 -8 -18 -12 8 -4 -887 9 -919 6 -16 12 -39 12 -51 1 -11 6 -19 11 -15 5 3 7 -2 3 -11 -4 -10 -2 -16 6 -14 7 1 11 -6 11 -15 -1 -10 1 -16 5 -14 7 4 80 -72 74 -78 -2 -2 4 -3 14 -3 10 1 17 -3 16 -10 -2 -8 4 -10 14 -6 11 4 14 3 9 -5 -5 -8 -1 -10 10 -5 11 4 15 3 11 -4 -5 -7 1 -9 15 -5 13 3 19 1 15 -5 -4 -6 4 -8 20 -5 14 3 23 1 20 -4 -3 -5 186 -9 453 -9 267 0 456 4 453 9 -3 5 6 7 21 4 14 -3 26 -1 26 4 0 6 7 7 16 4 10 -4 13 -2 8 6 -5 8 -2 9 10 5 11 -5 15 -3 10 5 -5 8 -2 9 10 5 10 -4 15 -3 11 3 -6 10 9 15 30 10 6 -1 7 1 3 5 -4 4 10 21 29 38 l36 32 1856 2 1856 3 3 595 2 595 -1861 0 -1860 0 -27 32 c-15 18 -26 35 -25 39 1 4 -5 6 -15 5 -10 0 -16 5 -14 13 2 8 -3 11 -11 8 -8 -3 -23 2 -33 12 -11 9 -27 15 -38 13 -10 -2 -16 0 -12 6 4 7 -153 10 -469 11 -331 0 -476 -3 -481 -10 -4 -8 -9 -7 -15 2 -7 12 -9 12 -9 0z m465 -444 c105 -57 151 -154 143 -306 -9 -176 -100 -285 -248 -298 -174 -16 -287 95 -298 293 -6 121 12 184 74 253 60 67 110 89 199 90 60 0 78 -4 130 -32z m476 22 c83 -28 129 -87 129 -164 0 -90 -41 -125 -199 -170 -52 -14 -106 -32 -120 -40 -87 -45 -86 -142 2 -195 78 -48 221 -10 253 66 9 22 21 34 34 34 24 0 25 -10 6 -53 -36 -86 -155 -128 -271 -96 -53 15 -125 86 -126 125 -2 65 4 90 29 117 37 39 64 52 162 77 106 27 156 53 175 90 20 39 19 55 -7 101 -25 45 -88 79 -147 79 -85 0 -173 -53 -186 -111 -5 -21 -13 -29 -27 -29 -18 0 -20 4 -15 37 8 44 56 98 112 123 46 21 145 26 196 9z m-941 -235 c0 -219 -1 -235 -17 -232 -17 3 -18 22 -18 236 0 214 1 232 18 232 16 0 17 -18 17 -236z m2504 215 c43 -23 87 -74 106 -126 28 -75 28 -221 0 -297 -68 -180 -304 -196 -392 -27 -26 50 -28 61 -28 175 0 111 2 127 26 174 42 84 119 126 213 117 29 -3 63 -10 75 -16z m1591 2 c51 -23 78 -53 107 -116 19 -42 22 -67 22 -160 0 -93 -3 -118 -23 -163 -42 -95 -115 -138 -222 -130 -82 6 -134 43 -174 123 -28 56 -30 68 -30 170 0 97 3 116 26 166 26 55 69 98 119 118 41 16 131 12 175 -8z m289 3 c21 -21 20 -41 -3 -54 -11 -5 -22 -10 -25 -10 -8 0 -36 31 -36 40 0 11 29 40 40 40 5 0 16 -7 24 -16z m-2542 -226 c-2 -128 0 -248 3 -265 l6 -33 144 0 c138 0 145 -1 145 -20 0 -19 -7 -20 -172 -20 l-173 0 0 285 0 285 25 0 25 0 -3 -232z m1195 212 c58 -26 83 -69 83 -144 0 -55 -2 -61 -40 -98 l-40 -40 30 -35 c25 -28 30 -42 30 -88 0 -44 -5 -59 -27 -86 -41 -49 -77 -59 -208 -59 l-115 0 0 285 0 285 123 0 c99 0 130 -4 164 -20z m253 -115 l0 -135 155 0 155 0 0 136 0 135 33 -3 c18 -2 32 -8 31 -15 -1 -7 -2 -134 -2 -283 l-2 -270 -25 0 c-24 0 -25 3 -25 58 0 31 -3 87 -7 125 l-6 67 -153 0 -154 0 0 -125 0 -125 -25 0 -25 0 0 285 0 285 25 0 25 0 0 -135z m1100 -230 l0 -205 -30 0 -30 0 0 205 0 205 30 0 30 0 0 -205z m-4380 -232 c0 -21 -29 -28 -46 -11 -14 13 -14 17 1 32 13 13 20 14 31 5 8 -6 14 -18 14 -26z"/>
<path d="M507 1068 c-21 -6 -56 -29 -82 -53 -52 -51 -77 -122 -76 -221 1 -113 29 -177 104 -238 37 -29 44 -31 126 -31 79 0 92 3 129 28 80 52 121 158 108 280 -18 180 -147 278 -309 235z"/>
<path d="M2578 1040 c-20 -11 -45 -34 -56 -52 -52 -86 -50 -267 4 -350 34 -53 74 -71 146 -66 50 4 63 9 93 38 43 41 65 109 65 196 0 102 -17 162 -60 207 -34 37 -42 41 -96 44 -45 2 -68 -2 -96 -17z"/>
<path d="M4180 1042 c-72 -35 -105 -120 -98 -252 7 -127 52 -200 134 -216 73 -14 146 22 180 88 21 41 30 194 15 255 -30 118 -132 173 -231 125z"/>
<path d="M3108 1053 l-58 -4 0 -110 0 -111 106 4 c105 3 106 3 135 36 57 64 27 154 -59 180 -22 7 -46 11 -53 10 -8 -1 -40 -3 -71 -5z"/>
<path d="M3073 783 c-22 -4 -23 -9 -23 -109 l0 -104 68 0 c124 0 182 34 182 107 0 44 -14 69 -48 87 -29 15 -142 27 -179 19z"/>
</g>


</svg>