<!DOCTYPE svg PUBLIC "-//W3C//DTD SVG 20010904//EN" "http://www.w3.org/TR/2001/REC-SVG-20010904/DTD/svg10.dtd">
<svg version="1.0" xmlns="http://www.w3.org/2000/svg" width="512px" height="160px" viewBox="0 0 5120 1600" preserveAspectRatio="xMidYMid meet">
<g id="layer101" fill="#628497" stroke="none">
 <path d="M565 1576 c-349 -113 -565 -407 -565 -772 0 -233 82 -420 257 -585 94 -87 198 -146 328 -185 77 -22 108 -26 215 -26 106 0 138 4 215 26 95 29 213 87 276 136 l37 30 1896 0 1896 0 0 605 0 605 -1891 0 -1890 0 -63 45 c-78 55 -161 97 -250 124 -58 18 -93 21 -230 21 -139 -1 -170 -4 -231 -24z"/>
 </g>
<g id="layer102" fill="#f79a22" stroke="none">
 <path d="M565 1576 c-349 -113 -565 -407 -565 -772 0 -233 82 -420 257 -585 94 -87 198 -146 328 -185 77 -22 108 -26 215 -26 106 0 138 4 215 26 95 29 213 87 276 136 l37 30 1896 0 1896 0 0 605 0 605 -1891 0 -1890 0 -63 45 c-78 55 -161 97 -250 124 -58 18 -93 21 -230 21 -139 -1 -170 -4 -231 -24z m480 -187 c86 -12 166 -38 196 -65 26 -24 24 -38 -3 -20 -82 52 -276 79 -535 74 -204 -3 -225 9 -38 21 125 9 264 5 380 -10z m-106 -55 c79 -7 207 -39 238 -59 24 -16 30 -39 13 -50 -6 -4 -10 -3 -9 2 4 25 -6 34 -53 47 -171 48 -658 44 -712 -5 -14 -12 -4 -19 56 -41 l53 -19 -51 4 c-103 8 -184 72 -121 96 22 9 163 28 252 34 54 4 255 -1 334 -9z m-42 -124 c23 -6 54 -15 70 -21 l28 -11 -35 -18 c-28 -15 -44 -16 -80 -10 -52 11 -192 11 -235 1 -16 -4 -29 -12 -27 -19 3 -17 -12 -15 -39 7 -20 16 -21 21 -10 34 37 45 206 64 328 37z m39 -146 c38 -8 69 -16 71 -18 2 -2 -8 -11 -21 -19 -21 -14 -34 -15 -78 -6 -70 13 -266 13 -302 0 -18 -7 -26 -16 -23 -26 8 -19 -33 -4 -47 18 -14 23 8 44 57 56 62 14 266 11 343 -5z m210 -23 c86 -41 125 -96 110 -156 -13 -52 -108 -83 -152 -50 -18 14 -18 14 4 8 61 -15 115 51 86 107 -15 31 -58 71 -104 99 -51 31 -15 26 56 -8z m-201 -114 c58 -13 105 -32 105 -43 0 -3 -4 -3 -8 0 -31 19 -422 36 -490 22 -44 -10 -40 -21 16 -42 64 -23 77 -37 27 -28 -71 12 -160 48 -163 66 -4 19 19 28 103 39 82 11 337 2 410 -14z"/>
 </g>
<g id="layer103" fill="#fcfbf6" stroke="none">
 <path d="M565 1576 c-349 -113 -565 -407 -565 -772 0 -233 82 -420 257 -585 94 -87 198 -146 328 -185 77 -22 108 -26 215 -26 107 0 138 4 215 26 148 45 236 97 345 206 78 77 104 112 142 185 76 149 93 216 93 380 0 166 -14 228 -80 360 -103 205 -270 346 -489 414 -58 18 -93 21 -230 21 -139 -1 -170 -4 -231 -24z m480 -187 c86 -12 166 -38 196 -65 26 -24 24 -38 -3 -20 -82 52 -276 79 -535 74 -204 -3 -225 9 -38 21 125 9 264 5 380 -10z m-106 -55 c79 -7 207 -39 238 -59 24 -16 30 -39 13 -50 -6 -4 -10 -3 -9 2 4 25 -6 34 -53 47 -171 48 -658 44 -712 -5 -14 -12 -4 -19 56 -41 l53 -19 -51 4 c-103 8 -184 72 -121 96 22 9 163 28 252 34 54 4 255 -1 334 -9z m-42 -124 c23 -6 54 -15 70 -21 l28 -11 -35 -18 c-28 -15 -44 -16 -80 -10 -52 11 -192 11 -235 1 -16 -4 -29 -12 -27 -19 3 -17 -12 -15 -39 7 -20 16 -21 21 -10 34 37 45 206 64 328 37z m39 -146 c38 -8 69 -16 71 -18 2 -2 -8 -11 -21 -19 -21 -14 -34 -15 -78 -6 -70 13 -266 13 -302 0 -18 -7 -26 -16 -23 -26 8 -19 -33 -4 -47 18 -14 23 8 44 57 56 62 14 266 11 343 -5z m210 -23 c86 -41 125 -96 110 -156 -13 -52 -108 -83 -152 -50 -18 14 -18 14 4 8 61 -15 115 51 86 107 -15 31 -58 71 -104 99 -51 31 -15 26 56 -8z m-201 -114 c58 -13 105 -32 105 -43 0 -3 -4 -3 -8 0 -31 19 -422 36 -490 22 -44 -10 -40 -21 16 -42 64 -23 77 -37 27 -28 -71 12 -160 48 -163 66 -4 19 19 28 103 39 82 11 337 2 410 -14z m-30 -114 c33 -49 32 -75 -6 -131 -17 -26 -34 -64 -37 -85 -4 -35 -1 -41 44 -83 26 -25 61 -53 76 -62 28 -16 37 -32 18 -32 -15 0 -109 48 -143 74 -84 62 -89 156 -14 258 13 18 18 37 15 62 -5 48 14 47 47 -1z m-141 -15 c-4 -7 -22 -35 -40 -63 -67 -107 -54 -156 75 -273 86 -79 137 -152 141 -202 4 -44 0 -66 -12 -83 -11 -15 -13 -10 -15 29 -3 71 -41 123 -154 215 -55 45 -109 95 -120 113 -39 65 -19 135 63 220 51 52 79 72 62 44z"/>
 <path d="M4571 1097 c-48 -24 -45 -88 6 -108 22 -8 32 -6 52 9 37 27 39 64 5 91 -31 24 -32 25 -63 8z"/>
 <path d="M1946 1084 c-9 -24 -7 -527 2 -542 7 -9 51 -12 188 -10 l179 3 0 40 0 40 -127 3 -128 3 0 239 0 240 -54 0 c-40 0 -55 -4 -60 -16z"/>
 <path d="M2490 1085 c-108 -49 -167 -189 -140 -336 16 -85 30 -117 75 -161 96 -95 261 -85 346 22 39 49 62 146 57 237 -6 95 -45 174 -106 218 -38 26 -53 30 -120 33 -53 1 -88 -3 -112 -13z m177 -109 c12 -15 27 -45 34 -69 15 -56 7 -183 -14 -224 -30 -57 -99 -78 -155 -49 -47 24 -66 78 -64 186 2 93 15 132 55 166 26 22 38 25 76 21 32 -4 52 -12 68 -31z"/>
 <path d="M2917 1093 c-4 -3 -7 -132 -7 -286 l0 -279 148 4 c129 3 152 6 189 26 24 12 49 35 58 52 31 59 11 155 -37 181 -20 11 -20 12 10 30 40 26 55 67 50 134 -9 109 -80 145 -283 145 -67 0 -125 -3 -128 -7z m249 -93 c57 -22 72 -83 29 -125 -21 -22 -33 -25 -95 -25 l-70 0 0 73 c0 41 3 77 7 80 10 11 99 8 129 -3z m14 -255 c13 -12 20 -31 20 -56 0 -52 -26 -69 -107 -69 l-63 0 0 68 c0 38 3 72 8 76 14 15 120 1 142 -19z"/>
 <path d="M3427 1093 c-4 -3 -7 -132 -7 -285 l0 -278 60 0 60 0 0 115 0 115 115 0 115 0 0 -115 0 -115 55 0 55 0 0 285 0 285 -55 0 -54 0 -3 -122 -3 -123 -112 -3 -113 -3 0 126 0 125 -53 0 c-30 0 -57 -3 -60 -7z"/>
 <path d="M4104 1081 c-84 -38 -134 -136 -134 -265 0 -106 22 -169 79 -225 86 -87 214 -94 305 -19 64 53 88 107 94 212 8 153 -35 248 -131 295 -56 27 -155 28 -213 2z m175 -97 c37 -31 51 -77 51 -169 0 -130 -31 -183 -112 -192 -37 -4 -49 -1 -76 22 -41 35 -55 88 -50 196 3 69 8 91 27 118 41 57 109 68 160 25z"/>
 <path d="M4546 843 c-3 -42 -6 -129 -6 -195 l0 -118 55 0 c37 0 55 4 56 13 4 33 -3 325 -7 350 -5 24 -10 27 -48 27 l-43 0 -7 -77z"/>
 </g>

</svg>