<!DOCTYPE svg PUBLIC "-//W3C//DTD SVG 20010904//EN" "http://www.w3.org/TR/2001/REC-SVG-20010904/DTD/svg10.dtd">
<svg version="1.0" xmlns="http://www.w3.org/2000/svg" width="512px" height="160px" viewBox="0 0 5120 1600" preserveAspectRatio="xMidYMid meet">
<g id="layer101" fill="#6776b6" stroke="none">
<path d="M0 805 l0 -795 860 0 c473 0 860 3 860 8 0 4 -41 46 -92 94 l-93 87 1793 1 1792 0 0 605 0 605 -1792 0 -1793 0 95 95 95 95 -863 0 -862 0 0 -795z"/>
</g>
<g id="layer102" fill="#f38721" stroke="none">
<path d="M0 805 l0 -795 860 0 c473 0 860 3 860 8 0 4 -41 46 -92 94 l-93 87 1793 1 1792 0 0 605 0 605 -1792 0 -1793 0 95 95 95 95 -863 0 -862 0 0 -795z m565 257 c40 -27 49 -29 61 -17 8 7 14 23 14 34 0 30 86 115 107 107 10 -4 14 -4 10 0 -9 10 24 64 40 64 7 0 13 4 13 9 0 6 9 8 20 6 13 -3 18 0 14 7 -5 8 -1 9 10 5 10 -4 15 -3 11 3 -7 11 24 75 32 66 3 -3 21 14 40 37 20 23 42 42 50 42 7 0 18 7 23 15 9 13 10 13 10 0 1 -8 8 -2 16 13 9 16 13 31 10 35 -4 3 -66 9 -139 12 -95 5 -34 7 221 8 193 1 352 -1 352 -5 0 -11 -673 -683 -684 -683 -4 0 -63 53 -130 117 -165 160 -430 414 -510 491 -37 34 -65 66 -62 70 2 4 98 -85 214 -199 115 -113 231 -219 257 -237z m-360 -329 l98 -108 -97 98 c-53 54 -101 95 -106 92 -6 -3 -10 1 -10 9 0 9 4 16 9 16 5 0 52 -48 106 -107z m385 -418 c25 -27 75 -82 113 -121 37 -39 67 -74 67 -77 0 -4 -153 -7 -340 -7 l-340 0 2 38 c1 36 1 36 5 5 l4 -33 71 0 c62 0 70 2 75 20 5 19 6 19 18 4 9 -14 14 -14 20 -4 6 9 4 11 -6 6 -8 -4 -6 -1 4 7 9 8 17 19 17 26 0 6 4 11 10 11 5 0 30 22 56 49 26 28 52 47 58 44 6 -3 8 -3 4 2 -11 11 50 67 63 59 6 -4 15 -1 19 6 9 15 2 40 -11 40 -4 0 -6 -7 -3 -15 4 -8 1 -15 -6 -15 -8 0 -10 9 -6 25 5 20 -5 37 -52 92 -33 37 -69 77 -81 87 -11 11 -21 23 -21 27 0 7 93 -91 260 -276z"/>
</g>
<g id="layer103" fill="#e8784f" stroke="none">
<path d="M0 805 l0 -795 860 0 c473 0 860 3 860 8 0 4 -41 46 -92 94 l-93 87 555 2 c854 2 1000 3 1000 12 0 4 -27 7 -60 7 -33 0 -60 4 -60 10 0 10 9 13 42 13 14 0 15 4 8 18 -6 11 -6 20 -1 23 5 4 12 0 15 -6 2 -7 4 -4 3 7 -2 20 -22 34 -22 16 0 -5 -3 -12 -7 -16 -4 -4 -5 -12 -4 -18 2 -7 1 -9 -1 -4 -3 4 -8 5 -12 3 -4 -3 -8 1 -8 9 0 8 4 12 9 9 4 -3 8 40 8 95 l0 101 75 0 c41 0 75 4 75 9 0 12 -142 14 -149 2 -7 -11 -25 -14 -66 -12 l-30 2 21 17 c17 15 38 18 105 17 95 -1 209 23 241 52 25 22 48 77 48 113 0 35 -27 101 -48 116 -14 10 -13 13 5 22 44 24 67 124 43 187 -13 33 -57 72 -92 80 -16 4 -28 10 -28 14 0 4 -21 8 -47 8 -27 1 -77 2 -113 2 l-65 2 5 122 5 122 28 3 c39 5 33 22 -8 22 -67 0 -35 19 38 23 39 1 -283 4 -718 5 l-790 2 95 95 95 95 -863 0 -862 0 0 -795z m565 257 c40 -27 49 -29 61 -17 8 7 14 23 14 34 0 30 86 115 107 107 10 -4 14 -4 10 0 -9 10 24 64 40 64 7 0 13 4 13 9 0 6 9 8 20 6 13 -3 18 0 14 7 -5 8 -1 9 10 5 10 -4 15 -3 11 3 -7 11 24 75 32 66 3 -3 21 14 40 37 20 23 42 42 50 42 7 0 18 7 23 15 9 13 10 13 10 0 1 -8 8 -2 16 13 9 16 13 31 10 35 -4 3 -66 9 -139 12 -95 5 -34 7 221 8 193 1 352 -1 352 -5 0 -11 -673 -683 -684 -683 -4 0 -63 53 -130 117 -165 160 -430 414 -510 491 -37 34 -65 66 -62 70 2 4 98 -85 214 -199 115 -113 231 -219 257 -237z m2235 -14 c0 -16 -3 -19 -11 -11 -6 6 -8 16 -5 22 11 17 16 13 16 -11z m380 -68 c20 -11 14 -90 -8 -107 -20 -14 -114 -13 -124 2 -4 5 -8 24 -8 41 0 16 -5 35 -12 42 -17 17 -4 25 50 33 47 6 75 3 102 -11z m-2975 -247 l98 -108 -97 98 c-53 54 -101 95 -106 92 -6 -3 -10 1 -10 9 0 9 4 16 9 16 5 0 52 -48 106 -107z m926 -270 c186 -185 339 -340 339 -345 0 -4 -149 -8 -332 -8 l-331 0 -86 89 c-93 98 -215 230 -245 269 -18 23 -18 25 -2 34 15 8 14 11 -6 28 l-23 18 28 11 c15 6 27 17 27 26 0 9 9 15 25 15 18 0 28 9 42 37 9 20 16 44 16 54 -3 29 49 60 63 38 8 -14 34 16 34 40 0 20 14 24 88 29 18 2 99 -74 363 -335z m2026 280 c4 -10 14 -23 22 -29 13 -10 13 -16 3 -38 -6 -14 -16 -26 -22 -26 -6 0 -9 -4 -6 -9 3 -5 -22 -8 -57 -7 l-62 1 0 55 0 55 45 6 c25 3 51 7 58 7 7 1 16 -6 19 -15z m-2597 -83 c0 -11 -4 -20 -9 -20 -7 0 -8 17 -2 38 4 10 11 -2 11 -18z m30 -345 c25 -27 75 -82 113 -121 37 -39 67 -74 67 -77 0 -4 -153 -7 -340 -7 l-340 0 2 38 c1 36 1 36 5 5 l4 -33 71 0 c62 0 70 2 75 20 5 19 6 19 18 4 9 -14 14 -14 20 -4 6 9 4 11 -6 6 -8 -4 -6 -1 4 7 9 8 17 19 17 26 0 6 4 11 10 11 5 0 30 22 56 49 26 28 52 47 58 44 6 -3 8 -3 4 2 -11 11 50 67 63 59 6 -4 15 -1 19 6 9 15 2 40 -11 40 -4 0 -6 -7 -3 -15 4 -8 1 -15 -6 -15 -8 0 -10 9 -6 25 5 20 -5 37 -52 92 -33 37 -69 77 -81 87 -11 11 -21 23 -21 27 0 7 93 -91 260 -276z"/>
<path d="M600 716 c-5 -5 -10 -15 -10 -20 0 -6 7 -2 15 8 8 11 15 14 15 7 0 -7 5 -9 10 -6 6 3 10 10 10 14 0 11 -28 9 -40 -3z"/>
<path d="M3414 1099 c-7 -12 -6 -557 1 -569 9 -15 102 -12 112 3 4 6 10 59 13 117 l5 105 103 3 102 3 0 -108 c0 -122 5 -133 61 -133 73 0 69 -19 69 297 l0 284 -62 -3 -63 -3 -3 -118 -3 -118 -106 3 -106 3 2 105 c1 58 -2 110 -6 116 -9 13 -111 25 -119 13z"/>
<path d="M4118 1094 c-33 -10 -59 -28 -91 -64 -52 -58 -70 -112 -71 -214 -1 -135 43 -222 133 -268 135 -69 281 -9 340 139 20 49 11 238 -13 287 -29 57 -82 104 -139 121 -62 18 -98 18 -159 -1z m149 -109 c49 -35 69 -195 35 -285 -35 -91 -143 -104 -193 -23 -47 76 -32 269 24 308 28 19 106 19 134 0z"/>
<path d="M4540 1090 c-58 -58 20 -142 88 -94 15 10 22 25 22 49 0 58 -69 86 -110 45z"/>
<path d="M4542 913 c-5 -10 -12 -100 -14 -200 l-5 -183 64 0 64 0 -7 193 c-4 121 -11 195 -18 199 -22 15 -75 8 -84 -9z"/>
</g>
<g id="layer104" fill="#b1689d" stroke="none">
<path d="M0 805 l0 -795 860 0 c473 0 860 3 860 8 0 4 -41 46 -92 94 l-93 87 560 3 c308 1 521 4 473 5 -81 3 -88 6 -88 24 0 11 5 17 10 14 6 -3 11 1 11 9 1 9 2 22 3 29 1 6 -5 21 -13 31 -9 11 -11 17 -5 13 6 -3 11 0 11 8 0 8 -4 12 -9 9 -4 -3 -8 0 -8 6 0 6 -5 8 -12 4 -7 -4 -8 -3 -4 5 4 6 12 9 17 6 5 -4 9 -3 10 2 5 43 5 61 -3 57 -4 -3 -8 2 -8 11 0 9 4 14 9 11 4 -3 7 8 5 25 -3 24 -1 30 11 25 8 -3 15 -1 15 4 0 6 -6 10 -14 10 -8 0 -18 5 -22 11 -4 8 1 9 17 4 13 -5 48 -7 78 -6 153 6 241 113 241 295 0 137 -44 222 -139 271 -41 20 -60 23 -130 21 -68 -2 -81 0 -76 11 3 8 5 24 5 36 0 18 2 19 10 7 6 -9 10 -10 10 -3 0 6 -4 15 -10 18 -5 3 -10 14 -10 23 0 12 3 13 8 5 4 -7 8 27 7 76 0 49 -4 87 -8 84 -5 -3 -7 3 -5 13 2 15 15 20 58 25 30 3 -183 6 -475 7 l-530 2 95 95 95 95 -863 0 -862 0 0 -795z m565 257 c40 -27 49 -29 61 -17 8 7 14 23 14 34 0 30 86 115 107 107 10 -4 14 -4 10 0 -9 10 24 64 40 64 7 0 13 4 13 9 0 6 9 8 20 6 13 -3 18 0 14 7 -5 8 -1 9 10 5 10 -4 15 -3 11 3 -7 11 24 75 32 66 3 -3 21 14 40 37 20 23 42 42 50 42 7 0 18 7 23 15 9 13 10 13 10 0 1 -8 8 -2 16 13 9 16 13 31 10 35 -4 3 -66 9 -139 12 -95 5 -34 7 221 8 193 1 352 -1 352 -5 0 -11 -673 -683 -684 -683 -4 0 -63 53 -130 117 -165 160 -430 414 -510 491 -37 34 -65 66 -62 70 2 4 98 -85 214 -199 115 -113 231 -219 257 -237z m2015 -61 c7 10 11 10 24 0 9 -8 16 -10 16 -5 0 19 51 -42 61 -74 15 -45 18 -134 7 -193 -10 -52 -36 -80 -88 -98 -29 -10 -37 -9 -46 4 -6 8 -19 15 -28 15 -9 0 -16 8 -16 19 0 10 -8 21 -18 23 -17 5 -19 16 -17 124 1 71 7 128 14 142 13 25 74 55 80 39 2 -5 7 -3 11 4z m-1960 -51 c6 0 18 -8 28 -17 10 -10 74 -70 143 -133 155 -143 689 -671 689 -682 0 -4 -155 -8 -344 -8 l-344 0 -73 73 c-67 65 -68 66 -11 7 34 -36 62 -69 62 -73 0 -4 -153 -7 -340 -7 l-340 0 2 38 c1 36 1 36 5 5 l4 -33 71 0 c62 0 70 2 75 20 5 19 6 19 18 4 9 -14 14 -14 20 -4 6 9 4 11 -6 6 -8 -4 -6 -1 4 7 9 8 17 19 17 26 0 6 4 11 10 11 5 0 30 22 56 49 26 28 52 47 58 44 6 -3 8 -3 4 2 -11 11 50 67 63 59 6 -4 15 -1 19 6 9 15 2 40 -11 40 -4 0 -6 -7 -3 -15 4 -8 1 -15 -6 -15 -8 0 -10 9 -6 25 5 20 -5 37 -52 92 -33 37 -69 77 -81 87 -11 11 -21 23 -21 28 0 4 28 -23 63 -61 34 -37 64 -67 66 -65 2 2 -23 32 -55 66 -85 89 -116 132 -108 152 4 10 13 14 24 11 13 -4 21 4 34 35 9 22 20 39 24 38 5 -2 29 19 54 46 25 27 50 46 56 42 5 -3 16 9 23 27 7 17 24 40 36 50 13 10 23 28 23 40 l0 21 20 -22 c12 -12 25 -22 30 -22z m-415 -217 l98 -108 -97 98 c-53 54 -101 95 -106 92 -6 -3 -10 1 -10 9 0 9 4 16 9 16 5 0 52 -48 106 -107z m2099 -234 c-10 -16 -23 -9 -21 10 1 15 4 17 14 9 7 -5 10 -14 7 -19z m179 -36 c-3 -7 -9 -10 -14 -7 -5 3 -7 10 -4 15 4 5 0 9 -7 9 -10 0 -9 3 2 10 17 10 31 -6 23 -27z"/>
<path d="M460 457 c0 -2 14 -16 32 -33 l32 -29 -25 32 c-20 27 -39 41 -39 30z"/>
<path d="M560 347 c0 -2 15 -16 33 -33 l32 -29 -29 33 c-28 30 -36 37 -36 29z"/>
</g>
<g id="layer105" fill="#e3706a" stroke="none">
<path d="M0 805 l0 -795 860 0 c473 0 860 3 860 8 0 4 -41 46 -92 94 l-93 87 560 3 c308 1 521 4 473 5 -81 3 -88 6 -88 24 0 11 5 17 10 14 6 -3 11 1 11 9 1 9 2 22 3 29 1 6 -5 21 -13 31 -9 11 -11 17 -5 13 6 -3 11 0 11 8 0 8 -4 12 -9 9 -4 -3 -8 0 -8 6 0 6 -5 8 -12 4 -7 -4 -8 -3 -4 5 4 6 12 9 17 6 5 -4 9 -3 10 2 5 43 5 61 -3 57 -4 -3 -8 2 -8 11 0 9 4 14 9 11 4 -3 7 8 5 25 -3 24 -1 30 11 25 8 -3 15 -1 15 4 0 6 -6 10 -14 10 -8 0 -18 5 -22 11 -4 8 1 9 17 4 13 -5 48 -7 78 -6 153 6 241 113 241 295 0 137 -44 222 -139 271 -41 20 -60 23 -130 21 -68 -2 -81 0 -76 11 3 8 5 24 5 36 0 18 2 19 10 7 6 -9 10 -10 10 -3 0 6 -4 15 -10 18 -5 3 -10 14 -10 23 0 12 3 13 8 5 4 -7 8 27 7 76 0 49 -4 87 -8 84 -5 -3 -7 3 -5 13 2 15 15 20 58 25 30 3 -183 6 -475 7 l-530 2 95 95 95 95 -863 0 -862 0 0 -795z m565 257 c40 -27 49 -29 61 -17 8 7 14 23 14 34 0 30 86 115 107 107 10 -4 14 -4 10 0 -9 10 24 64 40 64 7 0 13 4 13 9 0 6 9 8 20 6 13 -3 18 0 14 7 -5 8 -1 9 10 5 10 -4 15 -3 11 3 -7 11 24 75 32 66 3 -3 21 14 40 37 20 23 42 42 50 42 7 0 18 7 23 15 9 13 10 13 10 0 1 -8 8 -2 16 13 9 16 13 31 10 35 -4 3 -66 9 -139 12 -95 5 -34 7 221 8 193 1 352 -1 352 -6 0 -4 -157 -164 -348 -355 -191 -191 -344 -347 -341 -347 11 0 689 -671 689 -681 0 -5 -296 -9 -695 -9 l-695 0 2 38 c1 36 1 36 5 5 l4 -33 71 0 c62 0 70 2 75 20 5 19 6 19 18 4 9 -14 14 -14 20 -4 6 9 4 11 -6 6 -8 -4 -6 -1 4 7 9 8 17 19 17 26 0 6 4 11 10 11 5 0 30 22 56 49 26 28 52 47 58 44 6 -3 8 -3 4 2 -11 11 50 67 63 59 6 -4 15 -1 19 6 9 15 2 40 -11 40 -4 0 -6 -7 -3 -15 4 -8 1 -15 -6 -15 -8 0 -10 9 -6 24 4 18 -3 34 -29 66 -19 23 -32 46 -29 51 3 5 0 8 -8 7 -7 -2 -12 4 -10 12 2 8 0 12 -4 7 -4 -4 -23 7 -41 25 -32 31 -45 57 -21 42 6 -4 -3 11 -20 33 -35 42 -35 79 -2 68 13 -4 21 4 34 35 9 22 20 39 24 38 5 -2 29 19 54 46 25 27 50 46 56 42 5 -3 16 9 23 27 7 17 24 40 36 50 13 10 23 28 23 40 l0 21 20 -22 c12 -12 27 -22 35 -22 7 0 15 -3 17 -7 2 -5 30 -33 64 -63 77 -69 -153 156 -348 341 -81 76 -151 140 -155 141 -38 7 -61 4 -56 -9 3 -8 0 -13 -8 -11 -9 2 -14 -5 -13 -19 0 -12 -3 -20 -8 -17 -6 4 -13 -105 -11 -173 1 -7 -3 -10 -8 -7 -9 5 -13 366 -5 375 2 2 99 -88 214 -202 115 -113 231 -219 257 -237z m955 334 c0 -6 -101 -106 -108 -106 -3 0 18 25 48 55 52 53 60 60 60 51z m-198 -203 c-17 -21 -43 -49 -58 -63 l-29 -25 20 25 c26 33 88 100 93 100 2 0 -10 -17 -26 -37z m-193 -200 c-160 -163 -162 -166 -143 -180 14 -10 14 -12 -3 -22 -17 -9 -16 -12 8 -36 23 -23 40 -31 73 -34 4 -1 5 -8 2 -16 -4 -11 21 -43 74 -97 44 -45 80 -84 80 -87 0 -3 -65 59 -145 139 l-145 145 147 147 c81 82 150 148 153 148 2 0 -43 -48 -101 -107z m1451 8 c7 10 11 10 24 0 9 -8 16 -10 16 -5 0 19 51 -42 61 -74 15 -45 18 -134 7 -193 -10 -52 -36 -80 -88 -98 -29 -10 -37 -9 -46 4 -6 8 -19 15 -28 15 -9 0 -16 8 -16 19 0 10 -8 21 -18 23 -17 5 -19 16 -17 124 1 71 7 128 14 142 13 25 74 55 80 39 2 -5 7 -3 11 4z m-2414 -214 c78 -83 167 -187 161 -187 -4 0 -139 136 -190 193 -14 16 -31 26 -36 22 -7 -3 -11 3 -11 14 0 33 14 25 76 -42z m2138 -288 c-10 -16 -23 -9 -21 10 1 15 4 17 14 9 7 -5 10 -14 7 -19z m-980 -75 c33 -35 57 -64 55 -64 -3 0 -36 32 -74 71 -39 38 -63 67 -55 63 8 -4 42 -35 74 -70z m1159 39 c-3 -7 -9 -10 -14 -7 -5 3 -7 10 -4 15 4 5 0 9 -7 9 -10 0 -9 3 2 10 17 10 31 -6 23 -27z m-1047 -155 l29 -33 -32 29 c-18 17 -33 31 -33 33 0 8 8 1 36 -29z"/>
<path d="M2515 710 c-3 -5 -1 -18 4 -27 9 -15 10 -14 9 10 -3 30 -4 32 -13 17z"/>
</g>
<g id="layer106" fill="#d5668b" stroke="none">
<path d="M0 805 l0 -795 860 0 c473 0 860 3 860 8 0 4 -41 46 -92 94 l-93 87 560 3 c308 1 461 4 340 5 -211 3 -265 10 -265 35 0 5 5 6 10 3 6 -3 10 -3 11 2 5 44 5 65 -3 69 -4 3 -8 41 -8 85 0 62 -3 78 -12 73 -10 -6 -10 -4 0 8 10 13 10 17 0 21 -7 3 6 6 30 6 32 1 42 -3 42 -15 0 -8 5 -12 10 -9 6 4 8 10 5 15 -3 5 4 14 15 20 11 6 20 8 20 4 0 -3 7 -1 16 6 24 21 15 82 -16 97 -19 9 -26 9 -33 0 -5 -7 -10 -8 -13 -2 -2 6 -36 9 -76 9 -40 -1 -58 0 -40 3 l32 4 1 327 c1 180 1 345 1 367 -1 24 5 46 16 58 9 10 12 18 7 17 -6 -2 -154 -2 -330 -1 l-320 1 95 95 95 95 -863 0 -862 0 0 -795z m565 257 c40 -27 49 -29 61 -17 8 7 14 23 14 34 0 30 86 115 107 107 10 -4 14 -4 10 0 -9 10 24 64 40 64 7 0 13 4 13 9 0 6 9 8 20 6 13 -3 18 0 14 7 -5 8 -1 9 10 5 10 -4 15 -3 11 3 -7 11 24 75 32 66 3 -3 21 14 40 37 20 23 42 42 50 42 7 0 18 7 23 15 9 13 10 13 10 0 1 -8 8 -2 16 13 9 16 13 31 10 35 -4 3 -66 9 -139 12 -95 5 -34 7 221 8 193 1 352 -1 352 -6 0 -4 -157 -164 -348 -355 -191 -191 -344 -347 -341 -347 11 0 689 -671 689 -681 0 -5 -296 -9 -695 -9 l-695 0 2 38 c1 36 1 36 5 5 l4 -33 71 0 c62 0 70 2 75 20 5 19 6 19 18 4 9 -14 14 -14 20 -4 6 9 4 11 -6 6 -8 -4 -6 -1 4 7 9 8 17 19 17 26 0 6 4 11 10 11 5 0 30 22 56 49 26 28 52 47 58 44 6 -3 8 -3 4 2 -11 11 50 67 63 59 6 -4 15 -1 19 6 9 15 2 40 -11 40 -4 0 -6 -7 -3 -15 4 -8 1 -15 -6 -15 -8 0 -10 9 -6 24 4 18 -3 34 -29 66 -19 23 -32 46 -29 51 3 5 0 8 -8 7 -7 -2 -12 4 -10 12 2 8 0 12 -4 7 -4 -4 -23 7 -41 25 -32 31 -45 57 -22 42 6 -4 -15 25 -47 63 -58 70 -88 131 -73 154 4 6 11 9 17 5 6 -3 23 5 39 18 15 13 38 26 51 30 12 4 20 11 17 16 -3 4 6 19 20 31 13 13 25 30 25 37 0 6 6 12 13 12 13 0 57 52 57 68 0 24 23 30 56 14 19 -8 34 -19 34 -23 0 -4 8 -10 18 -14 9 -3 2 9 -17 29 -19 19 -39 32 -44 29 -6 -3 -7 -1 -4 5 6 9 -280 290 -300 294 -38 7 -61 4 -56 -9 3 -8 0 -13 -8 -11 -9 2 -14 -5 -13 -19 0 -12 -3 -20 -8 -17 -6 4 -13 -105 -11 -173 1 -7 -3 -10 -8 -7 -9 5 -13 366 -5 375 2 2 99 -88 214 -202 115 -113 231 -219 257 -237z m955 334 c0 -6 -101 -106 -108 -106 -3 0 18 25 48 55 52 53 60 60 60 51z m-198 -203 c-17 -21 -43 -49 -58 -63 l-29 -25 20 25 c26 33 88 100 93 100 2 0 -10 -17 -26 -37z m-193 -200 c-160 -163 -162 -166 -143 -180 14 -10 14 -12 -3 -22 -17 -9 -16 -12 8 -36 23 -23 40 -31 73 -34 4 -1 5 -8 2 -16 -4 -11 21 -43 74 -97 44 -45 80 -84 80 -87 0 -3 -65 59 -145 139 l-145 145 147 147 c81 82 150 148 153 148 2 0 -43 -48 -101 -107z m-963 -206 c78 -83 167 -187 161 -187 -4 0 -139 136 -190 193 -14 16 -31 26 -36 22 -7 -3 -11 3 -11 14 0 33 14 25 76 -42z m1158 -363 c33 -35 57 -64 55 -64 -3 0 -36 32 -74 71 -39 38 -63 67 -55 63 8 -4 42 -35 74 -70z m112 -116 l29 -33 -32 29 c-18 17 -33 31 -33 33 0 8 8 1 36 -29z"/>
<path d="M695 890 c38 -38 72 -70 74 -70 3 0 -26 32 -64 70 -38 39 -72 70 -74 70 -3 0 26 -31 64 -70z"/>
<path d="M946 811 c-3 -5 1 -11 9 -15 15 -6 29 7 18 18 -9 9 -21 8 -27 -3z"/>
<path d="M2510 1102 c-19 -4 -55 -20 -81 -36 -39 -24 -48 -38 -68 -93 -24 -65 -43 -221 -29 -229 4 -3 8 -16 8 -28 0 -67 65 -148 145 -182 45 -18 136 -18 183 1 55 23 109 82 132 142 25 67 27 199 5 264 -42 122 -160 186 -295 161z m132 -119 c49 -44 69 -147 49 -244 -29 -140 -178 -155 -222 -22 -16 49 -7 189 15 231 30 57 114 75 158 35z"/>
<path d="M2900 815 l0 -285 128 0 c146 0 215 15 253 56 20 22 24 35 24 94 0 62 -3 72 -29 98 -28 30 -28 30 -7 41 31 17 51 64 51 121 0 57 -12 86 -46 114 -44 36 -93 46 -236 46 l-138 0 0 -285z m283 171 c12 -9 17 -27 17 -60 0 -44 -2 -48 -35 -62 -19 -7 -59 -14 -90 -14 l-55 0 0 75 0 75 73 0 c44 -1 79 -6 90 -14z m-11 -243 c18 -16 24 -68 10 -89 -14 -22 -52 -34 -106 -34 l-56 0 0 70 0 70 67 0 c48 0 72 -5 85 -17z"/>
<path d="M3410 815 l0 -285 60 0 60 0 0 115 0 115 115 0 115 0 0 -115 0 -116 58 3 57 3 3 260 c1 143 0 270 -3 283 -5 19 -12 22 -60 22 l-54 0 -3 -122 -3 -123 -112 -3 -113 -3 0 126 0 125 -60 0 -60 0 0 -285z"/>
<path d="M4105 1087 c-93 -43 -137 -121 -143 -253 -5 -107 11 -169 59 -227 46 -56 101 -81 179 -81 159 0 248 117 238 313 -5 106 -39 179 -106 226 -38 26 -53 30 -120 33 -49 1 -88 -3 -107 -11z m160 -99 c41 -32 55 -76 55 -173 0 -50 -6 -99 -14 -119 -42 -101 -170 -101 -212 0 -8 20 -14 69 -14 119 0 50 6 99 14 119 19 46 61 76 106 76 23 0 48 -8 65 -22z"/>
<path d="M4540 1085 c-29 -35 -8 -90 35 -96 57 -8 91 41 60 87 -18 28 -75 33 -95 9z"/>
<path d="M4537 793 c-4 -71 -7 -158 -7 -195 l0 -68 55 0 55 0 0 173 c0 217 0 217 -55 217 l-42 0 -6 -127z"/>
</g>
<g id="layer107" fill="#499ed6" stroke="none">
<path d="M0 805 l0 -795 860 0 c473 0 860 2 860 5 0 2 -179 182 -397 400 l-398 396 399 394 399 395 -862 0 -861 0 0 -795z m565 257 c40 -27 49 -29 61 -17 8 7 14 23 14 34 0 30 86 115 107 107 10 -4 14 -4 10 0 -9 10 24 64 40 64 7 0 13 4 13 9 0 6 9 8 20 6 13 -3 18 0 14 7 -5 8 -1 9 10 5 10 -4 15 -3 11 3 -7 11 24 75 32 66 3 -3 21 14 40 37 20 23 42 42 50 42 7 0 18 7 23 15 9 13 10 13 10 0 1 -8 8 -2 16 13 9 16 13 31 10 35 -4 3 -66 9 -139 12 -94 5 -29 7 228 8 l360 2 -348 -348 c-191 -191 -347 -351 -347 -355 0 -5 153 -159 340 -344 187 -184 340 -339 340 -344 0 -5 -300 -9 -695 -9 l-695 0 2 38 c1 36 1 36 5 5 l4 -33 71 0 c62 0 70 2 75 20 5 19 6 19 18 4 9 -14 14 -14 20 -4 6 9 4 11 -6 6 -8 -4 -6 -1 4 7 9 8 17 19 17 26 0 6 4 11 10 11 5 0 30 22 56 49 26 28 52 47 58 44 6 -3 8 -3 4 2 -11 11 50 67 63 59 6 -4 15 -1 19 6 9 15 2 40 -11 40 -4 0 -6 -7 -3 -15 4 -8 1 -15 -6 -15 -8 0 -10 9 -6 24 7 27 -13 54 -131 181 -166 178 -244 255 -253 250 -10 -6 -15 676 -6 686 2 2 99 -88 214 -202 115 -113 231 -219 257 -237z"/>
</g>
<g id="layer108" fill="#fefefc" stroke="none">
<path d="M0 805 l0 -795 860 0 c473 0 860 2 860 5 0 2 -179 182 -397 400 l-398 396 399 394 399 395 -862 0 -861 0 0 -795z m1147 357 c-191 -191 -347 -351 -347 -355 0 -5 153 -159 340 -344 187 -184 340 -339 340 -344 0 -5 -300 -9 -695 -9 l-695 0 0 693 c0 382 3 697 7 700 3 4 319 7 702 7 l696 0 -348 -348z"/>
<path d="M1940 815 l0 -285 180 0 180 0 0 45 0 45 -125 0 -125 0 0 240 0 240 -55 0 -55 0 0 -285z"/>
<path d="M2480 1085 c-50 -23 -89 -63 -116 -120 -20 -42 -24 -66 -24 -151 0 -92 3 -106 30 -161 61 -123 205 -167 326 -100 156 88 166 406 16 512 -38 26 -53 30 -120 33 -53 1 -88 -3 -112 -13z m150 -88 c14 -6 35 -32 48 -57 42 -83 25 -252 -31 -298 -23 -20 -83 -26 -115 -13 -51 21 -72 75 -72 185 0 106 11 139 56 175 30 24 77 27 114 8z"/>
<path d="M2908 1094 c-5 -4 -8 -133 -8 -287 l0 -279 148 4 c133 3 151 6 189 27 87 50 100 165 25 227 l-26 21 23 8 c59 18 82 140 38 206 -39 59 -83 73 -242 77 -77 2 -143 1 -147 -4z m277 -105 c9 -8 18 -32 22 -51 4 -30 1 -41 -20 -62 -23 -23 -34 -26 -97 -26 l-70 0 0 81 0 81 75 -4 c50 -2 80 -8 90 -19z m-32 -228 c30 -12 50 -62 37 -96 -13 -34 -40 -45 -109 -45 l-61 0 0 75 0 75 54 0 c30 0 66 -4 79 -9z"/>
<path d="M3417 1093 c-4 -3 -7 -132 -7 -285 l0 -278 60 0 60 0 0 115 0 115 115 0 115 0 0 -115 0 -116 58 3 c31 2 56 6 55 11 -2 4 -3 131 -3 282 l0 275 -55 0 -55 0 0 -125 0 -125 -115 0 -115 0 0 125 0 125 -53 0 c-30 0 -57 -3 -60 -7z"/>
<path d="M4105 1087 c-91 -42 -137 -121 -143 -248 -10 -196 79 -313 238 -313 158 0 249 120 238 316 -5 104 -40 176 -106 223 -38 26 -53 30 -120 33 -49 1 -88 -3 -107 -11z m160 -99 c41 -32 55 -76 55 -173 0 -50 -6 -99 -14 -119 -42 -101 -170 -101 -212 0 -8 20 -14 69 -14 119 0 50 6 99 14 119 19 46 61 76 106 76 23 0 48 -8 65 -22z"/>
<path d="M4540 1085 c-16 -20 -16 -61 0 -80 21 -26 81 -16 99 16 13 24 13 29 -2 53 -20 30 -76 36 -97 11z"/>
<path d="M4537 793 c-4 -71 -7 -158 -7 -195 l0 -68 55 0 55 0 0 128 c0 70 -3 157 -7 195 l-6 67 -42 0 -42 0 -6 -127z"/>
</g>


</svg>