<!DOCTYPE svg PUBLIC "-//W3C//DTD SVG 20010904//EN" "http://www.w3.org/TR/2001/REC-SVG-20010904/DTD/svg10.dtd">
<svg version="1.0" xmlns="http://www.w3.org/2000/svg" width="512px" height="160px" viewBox="0 0 5120 1600" preserveAspectRatio="xMidYMid meet">
<g id="layer101" fill="#1c4372" stroke="none">
 <path d="M915 1393 c11 -28 45 -126 45 -130 0 -3 -165 -3 -367 -2 -400 3 -398 3 -451 -53 -32 -35 -42 -79 -42 -189 0 -109 -15 -142 -70 -154 -29 -6 -30 -9 -30 -60 0 -51 1 -54 29 -60 56 -12 65 -35 71 -169 6 -135 18 -165 84 -205 33 -21 45 -21 579 -21 l545 0 29 -72 29 -73 1877 -3 1877 -2 0 605 0 605 -2106 0 c-2002 0 -2106 -1 -2099 -17z"/>
 </g>
<g id="layer102" fill="#f8fbfc" stroke="none">
 <path d="M212 1253 c-47 -16 -90 -60 -102 -102 -5 -20 -10 -79 -10 -132 0 -109 -15 -142 -70 -154 -29 -6 -30 -9 -30 -60 0 -51 1 -54 29 -60 56 -12 65 -35 71 -169 6 -135 18 -165 84 -205 33 -21 42 -21 811 -21 864 0 818 -4 873 68 24 32 27 45 32 158 7 133 12 148 68 171 29 12 32 17 32 57 0 41 -3 46 -37 63 -53 25 -63 52 -63 171 0 71 -5 112 -15 131 -20 40 -70 79 -108 86 -18 3 -369 7 -782 8 -551 1 -758 -1 -783 -10z m1555 -43 c67 -30 83 -65 83 -187 0 -117 9 -144 56 -169 28 -15 34 -25 34 -50 0 -25 -6 -34 -29 -44 -45 -18 -61 -63 -61 -170 0 -107 -15 -149 -65 -180 -32 -19 -48 -20 -664 -20 -621 0 -632 0 -621 19 6 12 10 116 10 268 0 257 2 273 41 273 12 0 18 10 21 35 2 19 2 39 -1 44 -11 16 -89 23 -124 12 -57 -19 -60 -35 -65 -358 l-4 -293 -70 0 c-68 0 -71 1 -109 39 l-39 39 0 101 c0 123 -14 164 -64 188 -30 14 -36 22 -36 49 0 26 5 34 31 44 54 23 69 61 69 178 0 137 16 167 99 193 14 4 350 8 746 8 689 1 722 0 762 -19z"/>
 <path d="M240 1198 c-60 -31 -70 -54 -70 -171 0 -119 -14 -160 -64 -184 -48 -23 -48 -53 0 -76 50 -24 64 -65 64 -188 l0 -101 39 -39 c36 -36 43 -39 95 -39 52 0 56 2 56 24 0 16 -7 26 -22 29 -56 15 -62 27 -68 151 -6 127 -17 154 -77 186 l-30 16 39 23 c53 30 68 70 68 175 0 94 10 128 46 147 17 8 24 21 24 41 0 24 -4 28 -28 28 -15 0 -48 -10 -72 -22z"/>
 <path d="M1670 1190 c0 -19 7 -33 21 -40 34 -19 49 -71 49 -173 0 -86 2 -96 25 -121 13 -14 37 -31 51 -37 l28 -10 -35 -21 c-57 -34 -63 -52 -69 -177 -6 -113 -6 -114 -38 -141 -18 -15 -32 -36 -32 -48 0 -19 6 -22 35 -22 95 0 134 62 135 212 0 94 1 98 31 133 17 19 37 35 45 35 21 0 17 48 -4 54 -11 4 -30 18 -43 32 -22 23 -24 36 -29 149 -5 119 -6 125 -33 153 -26 27 -83 52 -121 52 -11 0 -16 -9 -16 -30z"/>
 <path d="M717 1046 c-50 -19 -67 -34 -88 -81 -93 -209 73 -412 249 -303 56 35 86 129 66 206 -6 21 -11 22 -110 22 -57 0 -104 3 -104 8 0 17 31 50 53 56 13 3 48 0 77 -8 l52 -14 14 34 c8 18 14 36 14 39 0 3 -19 15 -42 25 -60 26 -135 33 -181 16z m113 -264 c0 -35 -16 -52 -51 -52 -20 0 -29 6 -34 23 -18 61 -20 57 34 57 49 0 51 -1 51 -28z"/>
 <path d="M1100 1053 c-42 -6 -110 -34 -110 -44 0 -13 28 -79 33 -79 3 0 21 7 42 16 48 20 109 15 113 -8 3 -14 -15 -26 -72 -52 -57 -26 -78 -42 -91 -67 -33 -62 -4 -138 67 -175 39 -20 135 -17 185 6 40 18 42 20 33 50 -15 54 -26 61 -65 44 -19 -8 -50 -14 -70 -14 -28 0 -35 4 -35 19 0 15 15 25 60 42 80 29 120 73 120 133 0 48 -25 88 -68 110 -31 15 -105 25 -142 19z"/>
 <path d="M1445 1053 c-41 -8 -105 -35 -105 -44 0 -13 28 -79 33 -79 3 0 21 7 42 16 47 19 109 15 113 -8 2 -13 -16 -26 -71 -52 -85 -41 -114 -80 -103 -141 14 -72 76 -115 165 -115 55 0 130 25 132 44 2 22 -3 41 -17 63 -13 21 -15 21 -50 7 -45 -19 -98 -15 -102 8 -2 12 12 22 53 37 100 38 125 65 125 140 0 44 -27 84 -71 106 -29 16 -107 25 -144 18z"/>
 <path d="M2745 1103 c-87 -20 -142 -59 -175 -123 -30 -58 -43 -155 -31 -228 25 -158 136 -250 274 -227 125 21 194 109 204 264 12 175 -70 297 -212 314 -22 3 -49 3 -60 0z m112 -127 c12 -15 27 -45 34 -69 15 -56 7 -183 -14 -224 -32 -61 -111 -81 -161 -42 -45 36 -56 69 -56 174 0 105 11 138 57 175 39 30 108 23 140 -14z"/>
 <path d="M4338 1096 c-120 -32 -178 -125 -178 -287 0 -106 26 -175 86 -228 94 -82 225 -79 314 7 58 56 80 120 80 228 0 145 -61 246 -169 278 -64 19 -71 19 -133 2z m131 -112 c37 -31 51 -77 51 -169 0 -130 -31 -183 -112 -192 -37 -4 -49 -1 -76 22 -42 35 -55 88 -50 198 3 68 9 93 25 115 42 57 112 69 162 26z"/>
 <path d="M4763 1100 c-52 -21 -51 -90 2 -110 72 -28 120 76 50 108 -14 7 -27 12 -28 11 -1 0 -12 -4 -24 -9z"/>
 <path d="M2137 1093 c-3 -5 -6 -133 -6 -285 l-2 -278 190 0 191 0 0 45 0 45 -130 0 -130 0 0 240 0 240 -54 0 c-30 0 -57 -3 -59 -7z"/>
 <path d="M3100 814 l0 -286 148 4 c165 4 209 17 243 72 35 58 18 160 -32 187 -21 11 -21 11 8 29 44 27 66 88 52 148 -22 101 -90 132 -291 132 l-128 0 0 -286z m269 181 c46 -23 54 -83 16 -120 -21 -22 -33 -25 -95 -25 l-70 0 0 80 0 80 60 0 c34 0 74 -7 89 -15z m-20 -236 c33 -12 45 -37 39 -85 -4 -37 -37 -54 -110 -54 l-58 0 0 75 0 75 49 0 c26 0 62 -5 80 -11z"/>
 <path d="M3610 815 l0 -285 60 0 60 0 0 115 0 115 115 0 115 0 0 -115 0 -115 60 0 60 0 0 254 c0 139 -3 268 -6 285 -6 30 -8 31 -60 31 l-54 0 0 -125 0 -125 -115 0 -115 0 0 125 0 125 -60 0 -60 0 0 -285z"/>
 <path d="M4736 843 c-3 -42 -6 -129 -6 -195 l0 -118 59 0 58 0 -4 173 c-5 225 -3 217 -57 217 l-43 0 -7 -77z"/>
 </g>

</svg>