<!DOCTYPE svg PUBLIC "-//W3C//DTD SVG 20010904//EN" "http://www.w3.org/TR/2001/REC-SVG-20010904/DTD/svg10.dtd">
<svg version="1.0" xmlns="http://www.w3.org/2000/svg" width="512px" height="160px" viewBox="0 0 5120 1600" preserveAspectRatio="xMidYMid meet">
<g id="layer101" fill="#d96544" stroke="none">
<path d="M615 1545 c-140 -27 -231 -69 -346 -161 -120 -95 -221 -259 -255 -411 -25 -113 -16 -292 20 -398 80 -235 262 -410 506 -487 63 -19 97 -23 205 -23 150 0 225 18 359 88 100 52 226 172 284 272 68 116 95 210 100 352 5 147 -11 235 -67 349 -114 234 -315 383 -571 424 -83 13 -148 11 -235 -5z"/>
<path d="M1378 1363 c94 -113 151 -226 184 -362 27 -117 22 -330 -12 -436 -31 -99 -92 -211 -155 -288 -30 -37 -55 -69 -55 -72 0 -3 851 -5 1890 -5 l1890 0 0 605 0 605 -1891 0 -1891 0 40 -47z"/>
</g>
<g id="layer102" fill="#bd8575" stroke="none">
<path d="M615 1545 c-140 -27 -231 -69 -346 -161 -120 -95 -221 -259 -255 -411 -25 -113 -16 -292 20 -398 80 -235 262 -410 506 -487 63 -19 97 -23 205 -23 150 0 225 18 359 88 100 52 226 172 284 272 68 116 95 210 100 352 5 147 -11 235 -67 349 -114 234 -315 383 -571 424 -83 13 -148 11 -235 -5z m-136 -331 c17 -25 31 -47 31 -50 0 -3 10 -18 22 -34 12 -16 20 -32 17 -34 -5 -5 -121 137 -127 154 -2 6 3 10 11 10 9 0 29 -20 46 -46z m591 41 c0 -8 -72 -104 -110 -145 l-31 -35 27 50 c46 83 84 135 99 135 8 0 15 -2 15 -5z"/>
<path d="M1378 1363 c94 -113 151 -226 184 -362 27 -117 22 -330 -12 -436 -31 -99 -92 -211 -155 -288 -30 -37 -55 -69 -55 -72 0 -3 851 -5 1890 -5 l1890 0 0 605 0 605 -1891 0 -1891 0 40 -47z m3177 -276 c17 -18 6 -36 -25 -39 -19 -2 -25 2 -26 17 0 11 1 23 3 28 6 12 33 8 48 -6z m-282 -18 c46 -25 108 -108 102 -138 -2 -12 0 -19 6 -16 5 4 9 -38 9 -105 0 -81 -3 -109 -12 -104 -7 5 -8 3 -3 -5 10 -17 -24 -91 -42 -91 -7 0 -13 -4 -13 -9 0 -13 -68 -51 -88 -50 -10 0 -5 6 14 14 28 12 65 45 50 45 -3 0 4 19 17 43 19 36 22 57 22 157 -1 174 -10 202 -82 246 -39 24 -23 35 20 13z m267 -161 c0 -13 2 -101 5 -195 4 -144 3 -173 -9 -173 -22 0 -26 33 -26 218 0 146 2 172 15 172 9 0 15 -9 15 -22z"/>
</g>
<g id="layer103" fill="#a29aa0" stroke="none">
<path d="M615 1545 c-140 -27 -231 -69 -346 -161 -120 -95 -221 -259 -255 -411 -25 -113 -16 -292 20 -398 80 -235 262 -410 506 -487 63 -19 97 -23 205 -23 150 0 225 18 359 88 100 52 226 172 284 272 68 116 95 210 100 352 5 147 -11 235 -67 349 -114 234 -315 383 -571 424 -83 13 -148 11 -235 -5z m-116 -345 c166 -243 243 -350 249 -346 4 2 70 97 147 210 111 163 145 205 163 206 25 0 29 -16 8 -39 -7 -9 -62 -86 -122 -171 -59 -85 -123 -177 -141 -203 l-34 -49 25 -33 c25 -33 25 -33 3 -28 -12 3 -29 7 -37 11 -20 7 -28 9 -41 11 -6 0 -9 10 -6 22 4 16 -33 76 -147 239 -84 119 -157 223 -161 229 -5 9 1 12 21 9 22 -2 38 -17 73 -68z"/>
<path d="M1378 1363 c94 -113 151 -226 184 -362 27 -117 22 -330 -12 -436 -31 -99 -92 -211 -155 -288 -30 -37 -55 -69 -55 -72 0 -3 851 -5 1890 -5 l1890 0 0 605 0 605 -1891 0 -1891 0 40 -47z m2891 -278 c88 -45 121 -122 121 -280 0 -95 -2 -106 -32 -166 -26 -49 -42 -69 -74 -87 -116 -63 -245 -24 -307 92 -19 36 -22 56 -22 171 0 144 11 179 73 238 59 57 167 71 241 32z m-809 -120 l0 -135 160 0 160 0 0 135 0 135 25 0 25 0 0 -285 0 -285 -25 0 -25 0 0 125 0 125 -150 0 c-82 0 -153 0 -157 0 -5 0 -9 -56 -11 -125 l-3 -125 -24 0 -25 0 0 285 0 285 25 0 25 0 0 -135z m1098 123 c16 -16 -3 -48 -29 -48 -22 0 -34 22 -25 45 6 18 37 20 54 3z m-1288 -60 c35 -58 22 -159 -24 -197 -10 -9 -16 -10 -16 -3 0 6 -6 9 -14 6 -8 -3 -17 1 -22 8 -4 7 -4 10 1 6 5 -5 17 6 27 23 22 36 22 138 1 146 -7 3 -13 14 -13 24 0 32 38 23 60 -13z m1280 -186 c0 -55 3 -147 7 -205 l6 -107 -31 0 -32 0 0 205 0 205 25 0 c25 0 25 0 25 -98z m-1295 -95 c20 -29 20 -121 -1 -141 -8 -9 -23 -16 -32 -16 -15 0 -15 -2 -2 -10 12 -8 11 -10 -6 -10 -12 0 -24 7 -28 15 -3 9 0 15 10 15 8 0 12 5 9 10 -3 6 -2 10 4 10 16 0 8 119 -9 130 -11 7 -11 10 -2 10 7 0 11 4 8 9 -12 19 35 -2 49 -22z"/>
</g>
<g id="layer104" fill="#76a9c6" stroke="none">
<path d="M615 1545 c-140 -27 -231 -69 -346 -161 -120 -95 -221 -259 -255 -411 -25 -113 -16 -292 20 -398 80 -235 262 -410 506 -487 63 -19 97 -23 205 -23 150 0 225 18 359 88 100 52 226 172 284 272 68 116 95 210 100 352 5 147 -11 235 -67 349 -114 234 -315 383 -571 424 -83 13 -148 11 -235 -5z m-116 -345 c166 -243 243 -350 249 -346 4 2 70 97 147 210 111 163 145 205 163 206 25 0 29 -16 8 -39 -7 -9 -62 -86 -122 -171 -59 -85 -123 -176 -141 -202 l-33 -48 80 -115 c67 -97 78 -119 70 -138 l-9 -22 -7 23 c-3 12 -10 22 -14 22 -5 0 -38 43 -75 95 -36 52 -68 95 -70 95 -2 0 -38 -50 -80 -110 -42 -61 -80 -108 -85 -105 -4 3 -13 -2 -20 -10 -11 -13 -10 -14 6 -9 10 4 16 4 13 0 -4 -4 -19 -9 -33 -12 -25 -4 -21 5 60 123 48 70 94 135 101 145 13 14 -3 41 -140 236 -85 120 -158 225 -162 231 -5 9 1 12 21 9 22 -2 38 -17 73 -68z"/>
<path d="M1378 1363 c94 -113 151 -226 184 -362 27 -117 22 -330 -12 -436 -31 -99 -92 -211 -155 -288 -30 -37 -55 -69 -55 -72 0 -3 851 -5 1890 -5 l1890 0 0 605 0 605 -1891 0 -1891 0 40 -47z m2891 -278 c88 -45 121 -122 121 -280 0 -95 -2 -106 -32 -166 -26 -49 -42 -69 -74 -87 -116 -63 -245 -24 -307 92 -19 36 -22 56 -22 171 0 144 11 179 73 238 59 57 167 71 241 32z m-1559 -25 c19 -15 46 -49 60 -76 23 -44 25 -60 25 -169 0 -108 -2 -125 -25 -170 -33 -66 -97 -115 -151 -115 -52 0 -52 23 0 38 50 15 106 78 122 134 15 59 7 224 -13 263 -23 44 -66 84 -102 94 -26 8 -27 9 -7 10 17 1 21 5 17 17 -9 22 30 9 74 -26z m513 12 c47 -30 67 -68 67 -129 0 -55 -27 -108 -65 -125 l-25 -11 35 -39 c31 -34 35 -44 35 -92 0 -45 -5 -60 -27 -87 -41 -49 -77 -59 -208 -59 l-115 0 0 286 0 286 133 -4 c118 -3 136 -6 170 -26z m237 -107 l0 -135 160 0 160 0 0 135 0 135 25 0 25 0 0 -285 0 -285 -25 0 -25 0 0 125 0 125 -150 0 c-82 0 -153 0 -157 0 -5 0 -9 -56 -11 -125 l-3 -125 -24 0 -25 0 0 285 0 285 25 0 25 0 0 -135z m1098 123 c16 -16 -3 -48 -29 -48 -22 0 -34 22 -25 45 6 18 37 20 54 3z m-8 -246 c0 -55 3 -147 7 -205 l6 -107 -31 0 -32 0 0 205 0 205 25 0 c25 0 25 0 25 -98z"/>
</g>
<g id="layer105" fill="#fefefe" stroke="none">
<path d="M615 1545 c-140 -27 -231 -69 -346 -161 -120 -95 -221 -259 -255 -411 -25 -113 -16 -292 20 -398 80 -235 262 -410 506 -487 63 -19 97 -23 205 -23 150 0 225 18 359 88 100 52 226 172 284 272 68 116 95 210 100 352 5 147 -11 235 -67 349 -114 234 -315 383 -571 424 -83 13 -148 11 -235 -5z m-116 -345 c166 -243 243 -350 249 -346 4 2 70 97 147 210 111 163 145 205 163 206 25 0 29 -16 8 -39 -7 -9 -62 -86 -122 -171 -59 -85 -123 -176 -141 -202 l-33 -48 136 -197 c76 -109 148 -213 162 -230 l24 -33 -25 0 c-28 0 -18 -13 -216 273 -85 122 -106 147 -116 135 -7 -7 -65 -89 -129 -183 -152 -223 -157 -228 -182 -224 -18 4 1 34 138 232 l158 227 -154 219 c-84 120 -157 224 -161 230 -5 9 1 12 21 9 22 -2 38 -17 73 -68z"/>
<path d="M1378 1363 c94 -113 151 -226 184 -362 27 -117 22 -330 -12 -436 -31 -99 -92 -211 -155 -288 -30 -37 -55 -69 -55 -72 0 -3 851 -5 1890 -5 l1890 0 0 605 0 605 -1891 0 -1891 0 40 -47z m1302 -282 c51 -26 96 -90 110 -158 18 -87 8 -221 -21 -280 -77 -154 -296 -162 -379 -13 -20 38 -25 62 -28 148 -5 129 2 179 34 229 62 94 181 125 284 74z m1589 4 c88 -45 121 -122 121 -280 0 -95 -2 -106 -32 -166 -26 -49 -42 -69 -74 -87 -116 -63 -245 -24 -307 92 -19 36 -22 56 -22 171 0 144 11 179 73 238 59 57 167 71 241 32z m-2254 -253 l0 -262 148 0 c140 0 147 -1 147 -20 0 -19 -7 -20 -172 -20 l-173 0 2 282 c2 156 3 284 3 286 0 2 10 2 23 0 l22 -3 0 -263z m1208 240 c47 -30 67 -68 67 -129 0 -55 -27 -108 -65 -125 l-25 -11 35 -39 c31 -34 35 -44 35 -92 0 -45 -5 -60 -27 -87 -41 -49 -77 -59 -208 -59 l-115 0 0 286 0 286 133 -4 c118 -3 136 -6 170 -26z m237 -107 l0 -135 160 0 160 0 0 135 0 135 25 0 25 0 0 -285 0 -285 -25 0 -25 0 0 125 0 125 -150 0 c-82 0 -153 0 -157 0 -5 0 -9 -56 -11 -125 l-3 -125 -24 0 -25 0 0 285 0 285 25 0 25 0 0 -135z m1098 123 c16 -16 -3 -48 -29 -48 -22 0 -34 22 -25 45 6 18 37 20 54 3z m-8 -246 c0 -55 3 -147 7 -205 l6 -107 -31 0 -32 0 0 205 0 205 25 0 c25 0 25 0 25 -98z"/>
<path d="M2505 1046 c-70 -31 -98 -96 -99 -231 -1 -88 2 -106 24 -150 34 -69 76 -95 153 -95 57 0 62 2 102 43 25 25 47 58 54 82 14 49 14 188 1 234 -13 46 -48 96 -81 115 -33 19 -113 20 -154 2z"/>
<path d="M4088 1040 c-26 -14 -44 -35 -63 -74 -25 -51 -27 -62 -23 -163 2 -80 8 -118 22 -146 58 -118 234 -118 292 0 27 54 32 228 10 287 -9 22 -25 51 -34 62 -46 54 -136 69 -204 34z"/>
<path d="M2970 940 l0 -110 96 0 c99 0 127 8 156 44 21 26 23 87 4 125 -21 40 -56 51 -161 51 l-95 0 0 -110z"/>
<path d="M2970 674 l0 -106 88 4 c48 3 99 11 113 18 31 14 49 48 49 91 0 73 -43 99 -165 99 l-85 0 0 -106z"/>
</g>


</svg>