<!DOCTYPE svg PUBLIC "-//W3C//DTD SVG 20010904//EN" "http://www.w3.org/TR/2001/REC-SVG-20010904/DTD/svg10.dtd">
<svg version="1.0" xmlns="http://www.w3.org/2000/svg" width="512px" height="160px" viewBox="0 0 5120 1600" preserveAspectRatio="xMidYMid meet">
<g id="layer101" fill="#036dac" stroke="none">
<path d="M565 1576 c-349 -113 -565 -407 -565 -772 0 -233 82 -420 257 -585 94 -87 198 -146 328 -185 77 -22 108 -26 215 -26 106 0 138 4 215 26 95 29 213 87 276 136 l37 30 1896 0 1896 0 0 605 0 605 -1891 0 -1890 0 -63 45 c-78 55 -161 97 -250 124 -58 18 -93 21 -230 21 -139 -1 -170 -4 -231 -24z"/>
</g>
<g id="layer102" fill="#128dcc" stroke="none">
<path d="M565 1576 c-349 -113 -565 -407 -565 -772 0 -233 82 -420 257 -585 94 -87 198 -146 328 -185 77 -22 108 -26 215 -26 106 0 138 4 215 26 95 29 213 87 276 136 l37 30 1896 0 1896 0 0 605 0 605 -1891 0 -1890 0 -63 45 c-78 55 -161 97 -250 124 -58 18 -93 21 -230 21 -139 -1 -170 -4 -231 -24z m-230 -519 c17 -7 40 -19 51 -27 21 -16 49 -70 35 -70 -4 0 -12 9 -17 21 -9 20 -11 20 -24 5 -11 -14 -11 -17 0 -14 8 2 15 -6 17 -17 1 -11 0 -14 -3 -8 -4 10 -9 10 -20 -1 -22 -22 -17 -42 25 -109 71 -111 111 -157 111 -127 0 6 -4 10 -9 10 -5 0 -7 10 -3 22 4 18 8 14 19 -23 8 -24 15 -50 17 -58 1 -7 10 -17 19 -23 9 -5 17 -15 17 -22 0 -22 -39 -26 -77 -8 -22 11 -37 13 -41 6 -9 -14 -45 -27 -37 -14 4 6 -9 17 -28 25 -39 16 -124 132 -132 180 -10 60 -48 171 -71 211 -13 22 -24 44 -24 47 0 12 143 6 175 -6z m473 -10 c15 4 15 3 2 -6 -8 -7 -24 -17 -35 -23 -18 -10 -19 -10 -6 5 8 10 9 17 3 17 -6 0 -14 -4 -17 -10 -3 -5 -12 -10 -18 -10 -7 0 2 9 18 20 17 11 31 16 33 10 2 -5 11 -6 20 -3z m311 -7 c39 -19 121 -112 121 -135 0 -7 -7 -15 -15 -19 -8 -3 -15 -12 -15 -20 0 -8 -12 -17 -27 -20 -31 -6 -105 -5 -85 1 6 3 12 9 12 15 0 6 -7 8 -14 5 -9 -4 -17 2 -21 14 -4 10 -10 17 -15 14 -5 -3 -12 0 -16 6 -4 8 -3 9 4 5 16 -10 15 4 -3 48 -19 45 -42 46 -60 4 -11 -24 -14 -28 -15 -13 0 11 -7 28 -14 38 -13 16 -15 17 -30 1 -22 -21 -57 -90 -50 -97 3 -3 -3 -3 -15 0 -12 3 -21 1 -21 -6 0 -6 -13 -9 -32 -7 -25 2 -34 9 -38 27 -6 26 11 69 35 89 8 7 15 19 15 26 0 8 5 14 10 14 6 0 10 7 10 15 0 13 20 15 120 15 100 0 127 -3 159 -20z m-460 -334 c-9 -8 -10 -7 -5 7 3 10 7 26 7 35 1 9 4 6 6 -7 3 -13 -1 -28 -8 -35z m-21 -23 c-7 -9 -7 -13 0 -13 6 0 19 10 29 23 16 20 21 21 43 10 30 -15 70 -17 70 -3 0 6 7 10 15 10 18 0 18 -13 0 -65 -8 -22 -15 -40 -15 -41 0 0 7 -1 15 -1 8 0 15 8 15 17 0 9 7 17 14 17 20 0 -16 -52 -47 -69 -43 -23 -129 -8 -165 29 -8 7 -19 10 -25 6 -6 -3 1 15 16 42 15 26 27 55 27 64 0 14 2 14 10 1 5 -9 5 -19 -2 -27z m-110 -120 c-10 -2 -28 -2 -40 0 -13 2 -5 4 17 4 22 1 32 -1 23 -4z"/>
</g>
<g id="layer103" fill="#30c5f6" stroke="none">
<path d="M565 1576 c-349 -113 -565 -407 -565 -772 0 -233 82 -420 257 -585 94 -87 198 -146 328 -185 77 -22 108 -26 215 -26 107 0 138 4 215 26 274 82 469 277 557 556 19 64 23 96 23 215 0 165 -14 227 -80 360 -100 203 -270 346 -489 414 -58 18 -93 21 -230 21 -139 -1 -170 -4 -231 -24z m-202 -530 c23 -11 47 -35 62 -60 29 -51 50 -127 37 -135 -5 -3 -8 -14 -6 -23 1 -10 -2 -20 -7 -24 -16 -10 -9 -24 12 -24 16 0 19 4 14 23 -5 20 -5 20 9 -3 16 -28 12 -42 -9 -33 -9 3 -15 -1 -15 -8 1 -19 39 -63 47 -55 4 4 3 10 -3 14 -7 4 -8 16 -4 27 6 16 8 12 14 -18 9 -47 37 -77 65 -70 15 4 25 20 36 56 8 28 15 56 15 62 0 8 10 10 24 8 22 -5 26 -1 32 33 4 22 9 33 11 27 8 -22 30 -14 35 12 3 16 1 25 -7 25 -7 0 -15 10 -18 22 l-6 21 -20 -24 c-28 -33 -27 -7 3 56 13 28 38 63 55 78 32 27 34 27 187 27 133 0 160 -3 193 -19 94 -48 245 -309 225 -387 -3 -12 2 -38 10 -59 9 -20 16 -40 16 -42 0 -3 -42 -3 -92 -1 -104 3 -144 22 -175 81 -23 45 -43 127 -32 127 6 0 7 5 4 10 -3 6 -1 10 6 10 24 0 0 72 -43 125 -24 30 -45 54 -48 55 -3 0 -12 -27 -19 -60 -8 -33 -17 -60 -21 -60 -5 0 -6 -9 -3 -20 3 -11 0 -20 -6 -20 -6 0 -11 7 -11 15 0 10 -10 15 -29 15 -16 0 -31 6 -34 13 -2 6 -9 -13 -16 -43 -7 -30 -15 -63 -18 -72 -3 -13 1 -18 16 -18 20 0 20 -1 3 -45 -9 -25 -31 -59 -49 -77 -27 -27 -38 -30 -83 -29 -28 0 -59 5 -69 10 -21 12 -80 11 -87 -1 -3 -4 -27 -8 -53 -8 -78 0 -143 51 -225 176 -15 23 -29 54 -32 70 -9 59 -47 170 -70 210 -13 22 -24 44 -24 48 0 16 164 1 203 -18z"/>
<path d="M733 963 c-7 -3 -13 -13 -13 -22 0 -14 6 -17 24 -14 14 3 27 11 30 18 5 14 -20 25 -41 18z"/>
<path d="M1104 723 c4 -9 2 -20 -5 -23 -8 -5 -7 -14 3 -31 28 -51 44 -67 58 -59 9 6 7 10 -8 14 -16 6 -21 15 -20 39 1 40 -10 77 -24 77 -5 0 -7 -8 -4 -17z"/>
</g>
<g id="layer104" fill="#fbfffe" stroke="none">
<path d="M565 1576 c-349 -113 -565 -407 -565 -772 0 -233 82 -420 257 -585 94 -87 198 -146 328 -185 77 -22 108 -26 215 -26 107 0 138 4 215 26 274 82 469 277 557 556 19 64 23 96 23 215 0 165 -14 227 -80 360 -100 203 -270 346 -489 414 -58 18 -93 21 -230 21 -139 -1 -170 -4 -231 -24z m-202 -530 c47 -23 79 -76 106 -176 47 -178 71 -223 111 -213 21 6 31 29 60 156 27 117 55 181 97 217 l34 30 155 0 c133 0 160 -3 193 -19 94 -48 245 -309 225 -387 -3 -12 2 -38 10 -59 9 -20 16 -40 16 -42 0 -3 -42 -3 -94 -1 -101 3 -127 14 -168 69 -22 29 -50 139 -36 139 5 0 7 4 4 9 -4 5 -1 11 5 13 22 7 0 72 -42 121 -22 26 -44 47 -48 47 -4 0 -14 -26 -20 -57 -22 -97 -63 -223 -71 -218 -5 3 -35 -22 -68 -56 -58 -60 -61 -62 -111 -61 -28 1 -60 6 -70 11 -21 12 -80 11 -87 -1 -3 -4 -27 -8 -53 -8 -78 0 -143 51 -225 176 -15 23 -29 54 -32 70 -9 59 -47 170 -70 210 -13 22 -24 44 -24 48 0 16 164 1 203 -18z"/>
<path d="M2511 1090 c-91 -31 -144 -100 -162 -213 -18 -107 14 -227 75 -289 87 -86 251 -85 333 4 59 63 87 199 63 311 -31 153 -167 236 -309 187z m129 -95 c50 -26 65 -67 65 -180 0 -113 -15 -154 -65 -180 -46 -24 -85 -19 -124 15 -39 34 -46 61 -47 177 -1 89 12 127 57 162 31 25 74 27 114 6z"/>
<path d="M4148 1096 c-119 -32 -178 -125 -178 -281 0 -107 22 -171 80 -227 94 -91 229 -90 321 2 57 57 79 120 79 225 0 148 -60 247 -169 279 -64 19 -71 19 -133 2z m138 -117 c31 -29 44 -77 44 -164 0 -92 -14 -138 -51 -169 -64 -54 -156 -20 -180 67 -6 23 -9 81 -7 128 4 91 26 140 72 160 33 14 95 3 122 -22z"/>
<path d="M4563 1095 c-40 -28 -34 -88 12 -105 27 -10 62 1 77 24 33 49 -40 115 -89 81z"/>
<path d="M1945 1078 c-3 -13 -4 -140 -3 -283 l3 -260 185 0 185 0 3 43 3 42 -130 0 -131 0 0 240 0 240 -55 0 c-48 0 -55 -3 -60 -22z"/>
<path d="M2910 814 l0 -286 148 4 c129 3 152 6 189 26 24 12 49 35 58 52 31 59 11 155 -36 181 -21 11 -21 11 7 30 66 43 76 159 19 219 -43 45 -107 60 -257 60 l-128 0 0 -286z m259 185 c54 -19 67 -84 26 -124 -21 -22 -33 -25 -95 -25 l-70 0 0 80 0 80 54 0 c29 0 68 -5 85 -11z m10 -253 c14 -13 21 -31 21 -57 0 -52 -26 -69 -107 -69 l-63 0 0 76 0 76 64 -4 c45 -3 71 -10 85 -22z"/>
<path d="M3420 815 l0 -285 60 0 60 0 0 115 0 115 115 0 115 0 0 -115 0 -116 58 3 57 3 0 280 0 280 -57 3 -58 3 0 -126 0 -125 -115 0 -115 0 0 125 0 125 -60 0 -60 0 0 -285z"/>
<path d="M4546 843 c-3 -42 -6 -129 -6 -195 l0 -118 59 0 60 0 -5 88 c-2 48 -6 134 -8 192 -3 58 -5 106 -5 108 -1 1 -21 2 -45 2 l-43 0 -7 -77z"/>
</g>


</svg>