<!DOCTYPE svg PUBLIC "-//W3C//DTD SVG 20010904//EN" "http://www.w3.org/TR/2001/REC-SVG-20010904/DTD/svg10.dtd">
<svg version="1.0" xmlns="http://www.w3.org/2000/svg" width="512px" height="160px" viewBox="0 0 5120 1600" preserveAspectRatio="xMidYMid meet">
<g id="layer101" fill="#52a244" stroke="none">
 <path d="M648 1591 c-51 -17 -249 -143 -260 -166 -7 -16 -22 -25 -49 -29 -41 -7 -181 -76 -253 -126 -27 -18 -52 -47 -65 -73 -20 -41 -21 -58 -21 -391 0 -321 1 -350 19 -384 10 -20 27 -44 37 -54 11 -9 145 -90 299 -180 l280 -163 71 0 c70 0 70 0 222 88 l151 87 2021 0 2020 0 0 605 0 605 -2012 0 -2012 0 -158 91 c-133 76 -166 91 -210 94 -29 3 -65 1 -80 -4z m172 -345 l95 -56 -70 0 c-62 0 -137 -14 -186 -34 -13 -6 -18 1 -23 33 -3 21 -9 46 -12 54 -6 16 72 70 91 63 6 -2 53 -29 105 -60z m-447 -733 c12 -19 3 -16 -53 15 l-50 27 0 251 0 252 43 25 42 25 5 -291 c3 -161 9 -298 13 -304z m302 -43 c38 -17 74 -24 153 -29 l104 -6 -109 -62 c-60 -35 -112 -63 -116 -63 -4 0 -60 30 -125 67 l-117 68 55 8 c33 4 63 15 75 27 11 11 22 19 25 17 3 -2 27 -14 55 -27z"/>
 </g>
<g id="layer102" fill="#f4fbf3" stroke="none">
 <path d="M648 1591 c-51 -17 -249 -143 -260 -166 -7 -16 -22 -25 -49 -29 -41 -7 -181 -76 -253 -126 -27 -18 -52 -47 -65 -73 -20 -41 -21 -58 -21 -391 0 -321 1 -350 19 -384 10 -20 27 -44 37 -54 11 -9 145 -89 299 -179 242 -141 287 -163 331 -167 29 -2 67 1 85 7 44 14 534 300 578 337 68 57 71 71 71 434 0 200 -4 340 -11 363 -16 58 -61 99 -189 173 -63 37 -188 110 -277 161 -138 80 -170 95 -215 98 -29 3 -65 1 -80 -4z m379 -248 c187 -108 276 -165 287 -184 14 -23 16 -70 16 -349 0 -280 -2 -325 -16 -350 -17 -28 -40 -43 -376 -236 -142 -82 -207 -114 -230 -114 -24 0 -106 42 -303 156 -148 86 -280 167 -292 180 -23 25 -23 27 -23 355 0 269 3 335 15 358 16 31 163 121 232 141 59 18 129 5 164 -29 45 -46 50 -84 47 -413 l-3 -303 -47 -3 -48 -3 0 310 c0 298 -1 312 -20 331 -32 32 -76 25 -165 -28 l-80 -48 -3 -305 -2 -306 264 -152 264 -151 153 88 c85 49 201 116 259 150 l105 61 3 308 2 308 -255 148 c-140 81 -260 147 -266 147 -7 0 -42 -17 -79 -39 l-68 -39 -46 22 c-25 11 -46 24 -46 27 0 5 183 112 210 122 36 14 92 -12 347 -160z m-207 -97 l95 -56 -70 0 c-62 0 -137 -14 -186 -34 -13 -6 -18 1 -23 33 -3 21 -9 46 -12 54 -6 16 72 70 91 63 6 -2 53 -29 105 -60z m-447 -733 c12 -19 3 -16 -53 15 l-50 27 0 251 0 252 43 25 42 25 5 -291 c3 -161 9 -298 13 -304z m652 557 c67 -33 95 -77 95 -147 0 -103 -41 -130 -239 -162 -142 -23 -161 -31 -161 -71 0 -45 38 -65 125 -65 92 0 130 17 152 66 16 37 19 39 60 39 42 0 43 -1 43 -32 0 -50 -39 -109 -90 -138 -40 -22 -56 -25 -155 -25 -99 0 -114 3 -154 25 -64 36 -85 70 -85 134 0 102 47 135 232 160 141 20 174 35 170 78 -5 53 -44 72 -146 73 -113 0 -148 -14 -173 -72 -17 -41 -21 -43 -59 -43 l-40 0 0 40 c0 115 97 172 280 167 78 -2 104 -7 145 -27z m-350 -600 c38 -17 74 -24 153 -29 l104 -6 -109 -62 c-60 -35 -112 -63 -116 -63 -4 0 -60 30 -125 67 l-117 68 55 8 c33 4 63 15 75 27 11 11 22 19 25 17 3 -2 27 -14 55 -27z"/>
 <path d="M2477 1100 c-82 -21 -132 -64 -168 -145 -18 -40 -22 -68 -22 -143 0 -83 3 -99 32 -156 35 -71 78 -107 151 -126 78 -21 175 6 227 62 89 95 97 311 14 425 -49 67 -151 103 -234 83z m130 -125 c12 -14 27 -44 34 -68 15 -56 7 -183 -14 -224 -33 -63 -113 -82 -165 -38 -45 38 -54 71 -50 184 3 107 17 141 69 169 36 19 100 8 126 -23z"/>
 <path d="M4109 1100 c-132 -22 -199 -121 -199 -291 0 -106 26 -175 86 -228 129 -113 329 -55 378 108 20 68 21 182 1 247 -34 116 -144 184 -266 164z m117 -121 c31 -29 44 -77 44 -164 0 -130 -31 -183 -112 -192 -37 -4 -49 -1 -76 22 -42 35 -55 88 -50 198 4 93 20 129 69 155 33 18 96 8 125 -19z"/>
 <path d="M4511 1097 c-71 -36 -24 -131 51 -105 48 17 50 85 3 106 -31 14 -25 14 -54 -1z"/>
 <path d="M1887 1093 c-4 -3 -7 -132 -7 -285 l0 -278 191 0 190 0 -3 43 -3 42 -127 3 -128 3 0 239 0 240 -53 0 c-30 0 -57 -3 -60 -7z"/>
 <path d="M2850 814 l0 -285 148 3 c165 3 209 16 243 72 36 58 18 160 -33 187 l-22 12 26 13 c76 40 87 163 20 228 -45 42 -108 56 -254 56 l-128 0 0 -286z m264 182 c39 -16 53 -56 37 -99 -14 -36 -40 -47 -115 -47 l-66 0 0 80 0 80 55 0 c31 0 71 -6 89 -14z m-15 -237 c33 -12 45 -37 39 -85 -4 -37 -37 -54 -110 -54 l-58 0 0 75 0 75 49 0 c26 0 62 -5 80 -11z"/>
 <path d="M3360 815 l0 -285 60 0 60 0 0 115 0 115 115 0 115 0 0 -115 0 -115 60 0 60 0 -2 283 -3 282 -57 3 -58 3 0 -126 0 -125 -115 0 -115 0 0 125 0 125 -60 0 -60 0 0 -285z"/>
 <path d="M4486 843 c-3 -42 -6 -129 -6 -195 l0 -118 59 0 58 0 -4 173 c-5 225 -3 217 -57 217 l-43 0 -7 -77z"/>
 </g>

</svg>