<!DOCTYPE svg PUBLIC "-//W3C//DTD SVG 20010904//EN" "http://www.w3.org/TR/2001/REC-SVG-20010904/DTD/svg10.dtd">
<svg version="1.0" xmlns="http://www.w3.org/2000/svg" width="512px" height="160px" viewBox="0 0 5120 1600" preserveAspectRatio="xMidYMid meet">
<g id="layer101" fill="#cb3636" stroke="none">
 <path d="M857 1404 c-3 -3 -4 -20 -2 -37 2 -18 6 -56 9 -84 l5 -53 -209 0 -210 0 0 -45 0 -45 -225 0 -225 0 0 -375 0 -375 469 0 468 0 6 -85 c3 -47 9 -90 12 -95 4 -7 737 -10 2086 -10 l2079 0 0 605 0 605 -2128 0 c-1171 0 -2131 -3 -2135 -6z"/>
 </g>
<g id="layer102" fill="#fef5f5" stroke="none">
 <path d="M450 1185 l0 -45 -225 0 -225 0 0 -375 0 -375 915 0 915 0 -2 373 -3 372 -402 3 -403 2 0 29 c0 64 15 61 -291 61 l-279 0 0 -45z m462 -107 l3 -43 408 -3 407 -2 0 -270 0 -270 -815 0 -815 0 0 270 c0 209 3 270 13 270 6 0 106 1 222 3 l210 2 3 43 3 42 179 0 179 0 3 -42z"/>
 <path d="M640 810 l0 -230 184 0 183 0 2 159 c1 87 -1 171 -5 185 -6 26 -9 27 -73 26 -105 -2 -100 -5 -103 43 l-3 42 -92 3 -93 3 0 -231z m270 -45 l0 -85 -40 0 -40 0 0 85 0 85 40 0 40 0 0 -85z"/>
 <path d="M190 765 l0 -185 180 0 180 0 0 185 0 185 -45 0 -45 0 0 -135 0 -135 -45 0 -45 0 0 135 0 135 -90 0 -90 0 0 -185z"/>
 <path d="M1097 944 c-4 -4 -7 -88 -7 -186 l0 -178 275 0 275 0 -2 183 -3 182 -45 0 -45 0 -3 -132 -3 -133 -39 0 -39 0 -3 133 -3 132 -45 0 -45 0 -3 -132 -3 -133 -39 0 -39 0 -3 133 -3 132 -85 3 c-47 1 -89 0 -93 -4z"/>
 <path d="M2675 1100 c-114 -13 -182 -86 -205 -222 -36 -204 90 -375 261 -355 92 11 151 55 191 142 18 41 23 68 23 151 0 92 -2 105 -30 159 -49 96 -129 137 -240 125z m85 -105 c50 -26 65 -67 65 -180 0 -113 -15 -154 -65 -180 -60 -31 -116 -14 -150 46 -19 36 -21 51 -18 144 2 86 7 108 24 132 39 52 91 66 144 38z"/>
 <path d="M4268 1095 c-120 -30 -178 -124 -178 -286 0 -198 126 -318 296 -280 77 18 145 83 168 160 20 68 21 182 1 247 -37 126 -157 192 -287 159z m138 -116 c31 -29 44 -77 44 -164 0 -92 -14 -138 -51 -169 -64 -54 -156 -20 -180 67 -6 23 -9 81 -7 130 4 93 20 129 69 155 33 18 96 8 125 -19z"/>
 <path d="M4675 1085 c-28 -27 -30 -37 -14 -66 15 -28 55 -42 82 -28 45 24 50 67 11 98 -34 27 -50 26 -79 -4z"/>
 <path d="M2067 1093 c-4 -3 -7 -132 -7 -285 l0 -278 189 0 188 0 -1 43 -1 42 -127 3 -128 3 0 239 0 240 -53 0 c-30 0 -57 -3 -60 -7z"/>
 <path d="M3030 814 l0 -286 148 4 c165 4 210 17 243 72 36 58 18 160 -33 187 -20 11 -20 12 10 31 45 28 67 92 52 149 -26 99 -94 129 -292 129 l-128 0 0 -286z m257 186 c54 -19 69 -85 28 -125 -21 -22 -33 -25 -95 -25 l-70 0 0 80 0 80 54 0 c29 0 67 -5 83 -10z m12 -254 c14 -13 21 -31 21 -57 0 -52 -26 -69 -107 -69 l-63 0 0 76 0 76 64 -4 c45 -3 71 -10 85 -22z"/>
 <path d="M3540 815 l0 -285 60 0 60 0 0 115 0 115 115 0 115 0 0 -115 0 -115 59 0 60 0 1 269 c0 147 -2 275 -6 285 -5 12 -19 16 -60 16 l-54 0 0 -125 0 -125 -115 0 -115 0 0 125 0 125 -60 0 -60 0 0 -285z"/>
 <path d="M4667 838 c-4 -46 -7 -134 -7 -195 l0 -113 61 0 62 0 -7 58 c-3 31 -6 113 -7 182 -1 68 -4 130 -6 137 -3 8 -22 13 -48 13 l-42 0 -6 -82z"/>
 </g>

</svg>