<!DOCTYPE svg PUBLIC "-//W3C//DTD SVG 20010904//EN" "http://www.w3.org/TR/2001/REC-SVG-20010904/DTD/svg10.dtd">
<svg version="1.0" xmlns="http://www.w3.org/2000/svg" width="512px" height="160px" viewBox="0 0 5120 1600" preserveAspectRatio="xMidYMid meet">
<g id="layer101" fill="#010102" stroke="none">
 <path d="M715 1394 c-343 -52 -619 -236 -688 -459 -36 -116 -30 -200 22 -310 101 -215 391 -380 729 -414 64 -7 858 -11 2220 -11 l2122 0 0 605 0 605 -2157 -1 c-1777 -1 -2174 -3 -2248 -15z"/>
 </g>
<g id="layer102" fill="#4f5362" stroke="none">
 <path d="M715 1394 c-343 -52 -619 -236 -688 -459 -36 -116 -30 -200 22 -310 101 -215 391 -380 729 -414 64 -7 858 -11 2220 -11 l2122 0 0 605 0 605 -2157 -1 c-1777 -1 -2174 -3 -2248 -15z m757 -306 c77 -41 151 -107 186 -167 52 -89 30 -221 -50 -298 -35 -34 -37 -12 -2 34 76 100 73 212 -11 311 -14 17 -64 56 -110 86 -78 52 -95 66 -79 66 3 0 33 -14 66 -32z m-1008 -85 c13 -72 14 -73 64 -73 123 -1 200 -50 222 -141 30 -122 -30 -168 -217 -169 -78 0 -83 1 -88 23 -8 38 -75 386 -75 391 0 4 20 6 44 6 43 0 44 -1 50 -37z m701 -18 l11 -50 77 -7 c42 -4 89 -14 105 -22 92 -48 131 -186 69 -244 -28 -26 -104 -42 -203 -42 -68 0 -74 2 -79 23 -9 41 -75 383 -75 391 0 4 19 6 42 4 43 -3 43 -3 53 -53z m-326 -107 c6 -29 17 -82 24 -118 l13 -65 50 -3 c74 -4 79 6 59 115 -9 48 -19 96 -21 106 -5 14 2 17 40 17 41 0 45 -2 50 -27 44 -226 44 -243 -1 -261 -16 -6 -59 -14 -96 -18 l-68 -6 6 -32 c4 -17 9 -39 11 -48 5 -15 -2 -18 -40 -18 -25 0 -46 3 -46 6 0 3 -9 49 -19 102 -11 53 -27 135 -36 182 -9 47 -18 93 -21 103 -5 14 1 17 40 17 l45 0 10 -52z"/>
 <path d="M493 848 c2 -7 10 -46 17 -85 l13 -73 54 0 c40 0 58 5 73 20 23 23 23 23 10 72 -15 54 -51 78 -117 78 -40 0 -54 -3 -50 -12z"/>
 <path d="M1193 848 c2 -7 10 -46 17 -85 l13 -73 49 0 c73 0 88 12 88 66 0 37 -6 51 -29 75 -26 25 -37 29 -86 29 -42 0 -56 -3 -52 -12z"/>
 </g>
<g id="layer103" fill="#787bb6" stroke="none">
 <path d="M715 1394 c-343 -52 -619 -236 -688 -459 -36 -116 -30 -200 22 -310 101 -215 391 -380 729 -414 64 -7 858 -11 2220 -11 l2122 0 0 605 0 605 -2157 -1 c-1777 -1 -2174 -3 -2248 -15z m490 -208 c167 -35 311 -103 393 -185 195 -195 67 -437 -289 -545 -47 -14 -89 -26 -95 -26 -9 1 53 30 71 33 5 1 57 26 115 54 167 82 244 164 257 272 16 135 -135 276 -367 344 -166 48 -182 50 -390 53 -181 3 -252 -2 -325 -22 -15 -4 -17 -3 -5 4 75 48 445 58 635 18z m-659 -25 c-8 -12 -46 -21 -46 -11 0 5 10 11 23 13 12 2 23 5 25 6 2 0 1 -3 -2 -8z m-85 -128 c1 -15 9 -58 14 -80 5 -20 12 -23 53 -23 70 0 151 -24 169 -49 8 -13 21 -20 30 -17 8 3 12 2 9 -3 -3 -5 1 -25 9 -46 23 -55 17 -120 -14 -148 -40 -36 -68 -43 -178 -46 -100 -3 -102 -2 -107 21 -10 46 -28 134 -32 158 -3 14 -14 71 -24 128 -11 57 -20 105 -20 108 0 7 90 4 91 -3z m704 -41 c7 -23 13 -46 14 -50 0 -4 32 -10 71 -14 120 -11 168 -42 196 -128 20 -61 12 -113 -22 -142 -30 -27 -33 -27 -165 -35 -117 -6 -111 -9 -124 59 -3 13 -11 57 -19 98 -8 41 -18 93 -22 115 -4 22 -9 47 -11 55 -2 8 -6 32 -9 53 l-6 38 42 -3 c41 -3 43 -5 55 -46z m-330 -89 c4 -16 9 -41 12 -58 3 -16 10 -57 17 -90 l12 -60 51 -3 c70 -4 77 10 58 114 -8 44 -17 89 -20 102 -5 20 -2 22 39 22 39 0 45 -3 51 -27 21 -85 35 -164 35 -204 0 -49 -26 -64 -127 -74 -78 -8 -76 -3 -58 -83 5 -22 3 -23 -41 -20 -50 3 -48 0 -58 73 -3 17 -14 71 -25 120 -10 50 -22 106 -25 125 -3 19 -8 47 -11 63 -5 26 -4 27 39 27 39 0 45 -3 51 -27z"/>
 <path d="M495 840 c3 -11 9 -32 12 -47 3 -16 6 -35 8 -43 2 -8 4 -25 4 -37 1 -21 6 -23 50 -23 88 0 110 23 90 91 -18 57 -49 79 -116 79 -50 0 -54 -2 -48 -20z"/>
 <path d="M1198 855 c-2 -3 2 -41 11 -85 l15 -80 50 0 c67 1 86 16 86 70 0 34 -6 47 -31 71 -25 24 -40 29 -78 29 -26 0 -50 -2 -53 -5z"/>
 </g>
<g id="layer104" fill="#fbfcfd" stroke="none">
 <path d="M715 1394 c-343 -52 -619 -236 -688 -459 -25 -79 -29 -129 -18 -191 52 -282 371 -496 795 -536 356 -32 739 105 912 328 226 291 48 656 -391 803 -197 66 -413 85 -610 55z m463 -199 c245 -47 436 -161 494 -293 25 -57 25 -138 -1 -196 -23 -53 -101 -131 -175 -175 -73 -44 -227 -96 -340 -116 -116 -20 -381 -21 -393 -1 -4 7 -39 19 -78 26 -38 7 -114 26 -167 41 -112 33 -119 34 -92 14 29 -23 -65 18 -115 50 -206 129 -238 309 -83 458 115 108 277 174 512 207 91 13 339 4 438 -15z"/>
 <path d="M344 1051 c-2 -2 0 -9 4 -15 4 -6 25 -103 47 -216 l40 -205 105 -3 c123 -4 169 7 204 49 29 34 29 34 46 -56 21 -115 14 -105 77 -105 l56 0 -7 54 -6 53 71 5 c79 6 113 28 125 82 7 30 8 29 19 -24 l10 -55 105 -3 c123 -4 169 7 204 49 20 24 26 42 26 79 0 64 -13 97 -58 143 -41 43 -83 57 -164 57 l-57 0 -11 55 -12 56 -56 -3 c-31 -2 -56 -7 -55 -13 0 -5 4 -30 8 -55 l7 -45 -61 3 c-71 4 -71 5 -46 -108 8 -36 14 -78 15 -93 0 -27 -1 -28 -47 -25 l-48 3 -16 85 c-28 150 -22 140 -84 140 -54 0 -55 0 -55 -30 0 -34 -11 -38 -31 -13 -23 27 -75 43 -143 43 l-65 0 -6 38 c-13 71 -11 70 -76 74 -34 1 -62 1 -65 -1z m119 -28 c3 -10 8 -35 12 -55 l6 -38 67 0 c70 0 135 -22 161 -54 11 -13 16 -14 23 -4 7 9 8 7 4 -7 -3 -11 2 -31 10 -45 l15 -25 -5 30 c-2 17 -8 47 -11 68 l-7 38 48 -3 49 -3 22 -115 c12 -63 22 -117 22 -119 2 -9 104 8 111 19 4 6 1 44 -6 83 -8 40 -17 87 -20 105 l-6 33 48 -3 48 -3 18 -85 c9 -47 17 -106 18 -132 0 -62 -24 -79 -124 -86 l-73 -4 8 -37 c16 -67 14 -71 -36 -71 -25 0 -45 1 -46 3 0 1 -13 65 -28 142 -25 119 -29 132 -30 88 -1 -43 -6 -56 -31 -82 -36 -35 -78 -44 -200 -39 l-85 3 -37 190 c-20 105 -37 198 -38 208 0 14 9 17 44 17 34 0 46 -4 49 -17z m707 -38 l11 -55 67 0 c71 0 133 -22 164 -56 43 -49 60 -137 36 -188 -22 -50 -53 -60 -183 -64 l-120 -4 -38 199 c-21 109 -37 204 -37 211 0 8 16 12 44 12 l45 0 11 -55z"/>
 <path d="M500 844 c0 -17 7 -51 25 -131 5 -19 12 -23 45 -23 21 0 51 5 66 10 25 10 26 13 22 61 -7 69 -31 91 -102 97 -50 4 -56 2 -56 -14z m127 -29 c28 -32 32 -92 6 -102 -9 -4 -35 -7 -57 -7 l-40 -1 -12 65 c-7 36 -13 69 -13 74 -1 5 20 6 46 3 35 -4 53 -12 70 -32z"/>
 <path d="M1200 843 c1 -10 6 -47 13 -83 l12 -65 43 -3 c57 -4 92 18 92 58 0 69 -45 110 -120 110 -32 0 -40 -4 -40 -17z m122 -20 c11 -11 22 -39 25 -61 6 -48 -3 -55 -71 -56 -44 -1 -40 -7 -61 108 l-6 39 46 -6 c28 -3 55 -13 67 -24z"/>
 <path d="M2535 1101 c-106 -27 -175 -114 -189 -241 -7 -65 6 -155 30 -206 68 -143 275 -176 381 -62 89 95 97 311 14 425 -47 65 -157 104 -236 84z m105 -106 c50 -26 65 -67 65 -180 0 -77 -4 -108 -18 -132 -33 -61 -111 -81 -161 -42 -45 36 -56 69 -56 174 0 105 11 138 56 174 31 25 74 27 114 6z"/>
 <path d="M4148 1096 c-120 -32 -178 -125 -178 -287 0 -151 67 -254 184 -280 86 -19 154 0 216 59 58 56 80 120 80 227 0 148 -60 247 -169 279 -64 19 -71 19 -133 2z m138 -117 c31 -29 44 -77 44 -164 0 -136 -34 -190 -120 -190 -91 0 -125 63 -118 218 4 93 20 129 69 155 33 18 96 8 125 -19z"/>
 <path d="M4555 1085 c-14 -13 -25 -29 -25 -35 0 -22 22 -51 46 -60 72 -28 119 77 48 108 -35 17 -42 15 -69 -13z"/>
 <path d="M1947 1093 c-4 -3 -7 -132 -7 -285 l0 -278 190 0 190 0 0 45 0 45 -130 0 -130 0 0 240 0 240 -53 0 c-30 0 -57 -3 -60 -7z"/>
 <path d="M2910 814 l0 -285 148 3 c165 3 209 16 243 72 35 58 18 160 -32 187 -21 11 -21 11 8 29 40 24 66 90 58 142 -4 22 -20 55 -37 74 -43 49 -104 64 -260 64 l-128 0 0 -286z m288 172 c10 -10 17 -32 17 -57 0 -60 -28 -79 -116 -79 l-69 0 0 81 0 82 76 -5 c52 -4 81 -10 92 -22z m-41 -227 c35 -13 43 -25 43 -71 0 -51 -27 -68 -107 -68 l-63 0 0 75 0 75 49 0 c27 0 62 -5 78 -11z"/>
 <path d="M3420 815 l0 -285 60 0 60 0 0 115 0 115 115 0 115 0 0 -115 0 -115 60 0 60 0 -2 283 -3 282 -57 3 -58 3 0 -126 0 -125 -115 0 -115 0 0 125 0 125 -60 0 -60 0 0 -285z"/>
 <path d="M4546 843 c-3 -42 -6 -129 -6 -195 l0 -118 59 0 58 0 -4 173 c-5 225 -3 217 -57 217 l-43 0 -7 -77z"/>
 </g>

</svg>