<!DOCTYPE svg PUBLIC "-//W3C//DTD SVG 20010904//EN" "http://www.w3.org/TR/2001/REC-SVG-20010904/DTD/svg10.dtd">
<svg version="1.0" xmlns="http://www.w3.org/2000/svg" width="512px" height="160px" viewBox="0 0 5120 1600" preserveAspectRatio="xMidYMid meet">
<g id="layer101" fill="#010102" stroke="none">
<path d="M670 1495 l-265 -93 -9 -36 -10 -36 -68 0 -68 0 0 -30 c0 -30 -1 -30 -53 -30 l-52 0 -73 -437 c-40 -241 -72 -447 -72 -458 0 -24 286 -351 304 -348 6 1 132 27 280 59 213 45 272 55 285 46 9 -7 22 -15 29 -18 7 -4 111 13 230 37 l217 43 1888 3 1887 3 0 605 0 605 -1927 0 -1928 0 -150 90 c-82 49 -157 90 -165 89 -8 0 -134 -42 -280 -94z"/>
</g>
<g id="layer102" fill="#895ba5" stroke="none">
<path d="M670 1495 l-265 -93 -9 -36 -10 -36 -68 0 -68 0 0 -30 c0 -30 -1 -30 -53 -30 l-52 0 -73 -437 c-40 -241 -72 -447 -72 -458 0 -12 60 -89 146 -185 115 -130 151 -164 168 -162 11 2 134 28 272 58 138 30 257 54 264 54 7 0 22 -8 32 -17 18 -16 31 -14 234 22 118 22 218 42 223 45 4 3 56 128 116 278 l109 273 -78 78 -78 79 34 63 c19 35 58 107 87 160 l51 96 -152 93 c-84 50 -223 134 -308 186 -85 52 -162 94 -170 93 -8 0 -134 -42 -280 -94z m-152 -252 c15 -14 45 -15 308 -10 160 3 309 3 332 0 l42 -6 0 -418 0 -419 -27 -2 c-36 -2 -807 4 -810 6 -2 2 -5 734 -4 804 l1 32 60 0 c47 0 60 3 60 15 0 20 17 19 38 -2z"/>
</g>
<g id="layer103" fill="#e43790" stroke="none">
<path d="M670 1495 l-265 -93 -9 -36 -10 -36 -68 0 -68 0 0 -30 c0 -30 -1 -30 -53 -30 l-52 0 -73 -437 c-40 -241 -72 -447 -72 -458 0 -12 60 -89 146 -185 115 -130 151 -164 168 -162 11 2 134 28 272 58 138 30 257 54 264 54 7 0 22 -8 32 -17 18 -16 31 -14 234 22 118 22 218 42 223 45 4 3 56 128 116 278 l109 273 -78 78 -78 79 34 63 c19 35 58 107 87 160 l51 96 -152 93 c-84 50 -223 134 -308 186 -85 52 -162 94 -170 93 -8 0 -134 -42 -280 -94z m518 -156 c131 -78 242 -147 249 -153 9 -8 -8 -47 -69 -160 l-80 -148 81 -82 81 -81 -86 -215 c-48 -118 -88 -217 -90 -218 -4 -5 -305 -62 -328 -62 -16 0 -53 29 -169 130 -28 24 -33 25 -225 30 l-197 5 -6 170 c-3 94 -9 181 -13 195 -5 14 -8 38 -8 54 0 27 -1 28 -11 10 -6 -10 -12 -21 -12 -24 -3 -16 -45 -72 -45 -60 0 13 -2 13 -9 0 -6 -8 -7 -18 -4 -24 3 -5 1 -6 -5 -2 -7 4 -12 3 -12 -2 0 -9 -37 -25 -52 -23 -5 1 -8 -8 -8 -19 0 -11 -4 -20 -9 -20 -5 0 -13 -25 -16 -55 -4 -30 -11 -57 -14 -60 -4 -2 16 139 46 313 29 174 53 321 53 325 0 4 28 7 63 5 l62 -3 3 33 3 32 58 0 58 0 7 48 6 47 203 69 c111 38 209 73 217 77 8 5 21 9 28 9 8 0 120 -64 250 -141z"/>
</g>
<g id="layer104" fill="#fdfeff" stroke="none">
<path d="M670 1495 l-265 -93 -9 -36 -10 -36 -68 0 -68 0 0 -30 c0 -30 -1 -30 -53 -30 l-52 0 -73 -437 c-40 -241 -72 -447 -72 -458 0 -12 60 -89 146 -185 115 -130 151 -164 168 -162 11 2 134 28 272 58 138 30 257 54 264 54 7 0 22 -8 32 -17 18 -16 31 -14 234 22 118 22 218 42 223 45 4 3 56 128 116 278 l109 273 -78 78 -78 79 34 63 c19 35 58 107 87 160 l51 96 -152 93 c-84 50 -223 134 -308 186 -85 52 -162 94 -170 93 -8 0 -134 -42 -280 -94z m518 -156 c131 -78 242 -147 249 -153 9 -8 -8 -47 -69 -160 l-80 -148 81 -82 81 -81 -86 -215 c-48 -118 -88 -217 -90 -218 -4 -5 -305 -62 -327 -62 -11 0 -42 20 -71 45 l-53 45 -11 -38 -11 -37 -229 -49 c-126 -27 -234 -47 -240 -45 -6 2 -60 60 -121 129 -81 92 -109 130 -106 145 6 24 125 741 125 750 0 3 28 5 63 3 l62 -3 3 33 3 32 58 0 58 0 7 48 6 47 203 69 c111 38 209 73 217 77 8 5 21 9 28 9 8 0 120 -64 250 -141z"/>
<path d="M437 1124 c-4 -4 -7 -18 -7 -31 l0 -23 160 0 160 0 0 29 0 29 -153 1 c-84 1 -156 -1 -160 -5z"/>
<path d="M832 848 c-46 -8 -102 -36 -102 -52 0 -5 9 -20 20 -32 21 -21 21 -21 58 -3 44 23 95 24 112 3 19 -22 -1 -37 -82 -63 -78 -26 -89 -36 -95 -95 -5 -38 -1 -47 25 -77 28 -32 34 -34 94 -34 62 0 118 18 125 41 2 6 -4 21 -14 32 -18 22 -19 22 -66 4 -52 -19 -82 -10 -82 24 0 15 16 24 70 41 88 29 110 50 110 108 0 79 -71 121 -173 103z"/>
<path d="M437 843 c-4 -3 -7 -82 -7 -175 l0 -168 95 0 c109 0 146 13 170 60 46 89 -20 180 -131 180 l-54 0 0 55 0 55 -33 0 c-19 0 -37 -3 -40 -7z m184 -194 c26 -41 -7 -79 -68 -79 l-43 0 0 53 0 53 51 -6 c28 -4 55 -13 60 -21z"/>
<path d="M2512 1091 c-92 -32 -141 -96 -162 -208 -22 -122 23 -265 99 -317 96 -65 234 -54 308 26 63 67 91 222 59 329 -42 145 -171 217 -304 170z m148 -106 c36 -33 53 -97 48 -187 -5 -95 -24 -140 -68 -163 -60 -31 -122 -9 -155 56 -21 40 -22 207 -1 247 27 52 65 75 114 69 24 -2 51 -12 62 -22z"/>
<path d="M4573 1100 c-52 -21 -51 -90 2 -110 72 -28 120 76 50 108 -14 7 -27 12 -28 11 -1 0 -12 -4 -24 -9z"/>
<path d="M1947 1093 c-4 -3 -7 -132 -7 -285 l0 -278 190 0 190 0 0 45 0 45 -130 0 -130 0 0 240 0 240 -53 0 c-30 0 -57 -3 -60 -7z"/>
<path d="M2910 814 l0 -286 148 4 c165 4 209 17 243 72 36 58 18 160 -33 187 -20 11 -20 12 10 31 45 28 67 92 52 149 -26 99 -94 129 -292 129 l-128 0 0 -286z m259 185 c55 -19 69 -82 26 -124 -21 -22 -33 -25 -95 -25 l-70 0 0 80 0 80 54 0 c29 0 67 -5 85 -11z m1 -244 c26 -14 30 -21 30 -60 0 -59 -23 -75 -107 -75 l-63 0 0 75 0 75 55 0 c31 0 69 -7 85 -15z"/>
<path d="M3420 815 l0 -285 60 0 60 0 0 115 0 115 115 0 115 0 0 -115 0 -116 58 3 57 3 0 280 0 280 -57 3 -58 3 0 -126 0 -125 -115 0 -115 0 0 125 0 125 -60 0 -60 0 0 -285z"/>
<path d="M4104 1081 c-86 -39 -134 -135 -134 -266 0 -107 22 -171 80 -227 61 -59 125 -77 214 -58 49 10 67 20 107 60 57 57 79 120 79 225 0 183 -86 285 -240 285 -42 0 -79 -7 -106 -19z m171 -93 c40 -31 55 -77 55 -165 0 -138 -30 -191 -112 -200 -37 -4 -49 -1 -75 21 -44 37 -56 82 -51 192 3 75 8 99 24 121 41 56 111 69 159 31z"/>
<path d="M4546 843 c-3 -42 -6 -129 -6 -195 l0 -118 59 0 59 0 -5 153 c-2 83 -6 171 -9 195 l-5 42 -43 0 -43 0 -7 -77z"/>
</g>


</svg>