<!DOCTYPE svg PUBLIC "-//W3C//DTD SVG 20010904//EN" "http://www.w3.org/TR/2001/REC-SVG-20010904/DTD/svg10.dtd">
<svg version="1.0" xmlns="http://www.w3.org/2000/svg" width="512px" height="160px" viewBox="0 0 5120 1600" preserveAspectRatio="xMidYMid meet">
<g id="layer101" fill="#dc3e25" stroke="none">
 <path d="M710 1590 c-177 -22 -330 -93 -477 -225 -48 -42 -88 -108 -79 -131 3 -9 -11 -23 -39 -39 -36 -22 -44 -32 -50 -65 -4 -22 -4 -48 0 -59 3 -11 -1 -41 -10 -67 -9 -26 -15 -59 -13 -73 2 -15 -2 -25 -9 -24 -15 3 -33 -104 -33 -198 0 -165 89 -350 237 -490 121 -116 237 -168 427 -193 240 -32 462 17 631 138 l50 36 1887 0 1888 0 0 605 0 605 -1904 0 -1903 0 -29 22 c-16 13 -33 28 -39 35 -11 13 -172 83 -192 83 -7 0 -13 4 -13 9 0 14 -137 41 -204 40 -33 -1 -90 -5 -126 -9z m157 -261 c79 -10 189 -56 243 -100 l25 -21 -145 8 c-80 4 -230 10 -335 13 l-190 6 97 43 c54 23 124 46 155 51 32 5 61 9 65 10 4 0 42 -4 85 -10z m-477 -393 c0 -84 -5 -88 -51 -45 -23 20 -49 44 -60 53 -38 32 -24 46 46 46 l65 0 0 -54z m444 4 c33 -12 56 -59 63 -125 5 -50 4 -53 -30 -79 -30 -23 -41 -26 -77 -20 -51 8 -102 55 -120 110 -11 32 -10 42 5 70 9 17 27 37 38 42 28 14 89 15 121 2z m470 -282 c-18 -109 -26 -127 -91 -205 -56 -68 -121 -123 -146 -123 -4 0 7 21 25 47 18 26 40 66 49 88 14 33 22 41 47 43 22 2 29 7 26 17 -5 12 81 165 92 165 2 0 1 -15 -2 -32z m-933 -163 c99 -145 100 -148 42 -92 -48 47 -133 177 -148 227 l-7 25 19 -25 c11 -14 53 -74 94 -135z m423 -100 c-9 -14 -20 -25 -24 -25 -4 0 -15 11 -24 25 l-16 25 40 0 40 0 -16 -25z"/>
 </g>
<g id="layer102" fill="#fef6f3" stroke="none">
 <path d="M710 1590 c-177 -22 -330 -93 -477 -225 -48 -42 -88 -108 -79 -131 3 -9 -11 -23 -39 -39 -36 -22 -44 -32 -50 -65 -4 -22 -4 -48 0 -59 3 -11 -1 -41 -10 -67 -9 -26 -15 -59 -13 -73 2 -15 -2 -25 -9 -24 -15 3 -33 -104 -33 -198 0 -207 148 -452 351 -582 215 -137 603 -147 849 -22 157 80 300 257 356 441 23 75 26 344 5 444 -23 113 -51 198 -65 203 -8 3 -31 31 -51 62 -33 52 -105 131 -182 197 -30 27 -184 98 -210 98 -7 0 -13 4 -13 9 0 14 -137 41 -204 40 -33 -1 -90 -5 -126 -9z m219 -101 c36 -6 73 -18 82 -25 8 -8 20 -14 26 -14 6 0 37 -12 69 -27 33 -14 62 -26 66 -25 18 4 186 -177 214 -230 16 -32 34 -58 39 -58 6 0 16 -4 24 -9 12 -8 13 -12 1 -26 -11 -13 -10 -26 6 -78 16 -51 19 -92 18 -232 0 -160 -2 -174 -27 -238 -81 -206 -240 -341 -461 -392 -125 -29 -370 -16 -482 26 -165 62 -331 243 -385 421 -20 68 -26 208 -9 208 14 0 30 -44 30 -80 0 -43 43 -151 97 -242 93 -155 243 -264 401 -289 40 -7 75 -9 78 -6 4 3 -33 60 -82 126 -49 67 -124 171 -167 233 -43 62 -86 124 -97 138 -11 13 -20 31 -20 39 0 19 50 -28 97 -91 19 -27 39 -48 44 -48 6 0 7 4 4 10 -3 5 -5 98 -5 207 1 232 2 222 -4 248 -2 11 -5 28 -5 37 -1 15 -19 17 -155 20 -146 3 -179 8 -162 26 12 12 569 8 879 -6 159 -8 291 -11 295 -8 3 4 -4 20 -16 36 -12 16 -22 34 -22 40 0 39 -187 180 -291 218 -85 31 -202 44 -285 32 -104 -15 -131 -24 -224 -70 -97 -49 -117 -63 -202 -143 -33 -32 -57 -50 -53 -40 4 10 7 27 7 39 -2 37 111 139 218 197 77 42 160 67 255 77 106 11 133 11 204 -1z m-62 -160 c79 -10 189 -56 243 -100 l25 -21 -145 8 c-80 4 -230 10 -335 13 l-190 6 97 43 c54 23 124 46 155 51 32 5 61 9 65 10 4 0 42 -4 85 -10z m-477 -393 c0 -84 -5 -88 -51 -45 -23 20 -49 44 -60 53 -38 32 -24 46 46 46 l65 0 0 -54z m-245 -76 c-5 -40 -10 -49 -20 -40 -9 7 -10 21 -5 44 17 75 35 72 25 -4z m153 -85 c-3 -4 -16 9 -28 27 l-23 33 28 -27 c16 -15 26 -30 23 -33z m73 -280 c99 -145 100 -148 42 -92 -48 47 -133 177 -148 227 l-7 25 19 -25 c11 -14 53 -74 94 -135z"/>
 <path d="M556 1074 c-3 -9 -6 -43 -6 -76 l0 -61 37 56 c25 38 50 63 78 76 l40 20 -71 1 c-57 0 -73 -3 -78 -16z"/>
 <path d="M966 1032 c29 -27 55 -59 59 -71 12 -38 23 -22 27 42 3 34 4 63 3 65 -1 1 -33 5 -71 8 l-69 6 51 -50z"/>
 <path d="M1119 1068 c-7 -13 -4 -66 4 -75 5 -7 6 -23 2 -35 -10 -34 -16 -236 -7 -242 4 -3 28 25 53 62 24 36 79 114 121 173 42 59 74 110 71 113 -6 6 -242 9 -244 4z"/>
 <path d="M670 1028 c-25 -13 -57 -40 -72 -63 -15 -22 -32 -39 -38 -37 -13 3 -13 -72 -1 -96 6 -9 12 -29 15 -44 9 -40 66 -109 119 -142 57 -35 140 -45 185 -22 45 23 91 65 109 99 34 66 3 207 -59 269 -62 62 -176 77 -258 36z m164 -88 c33 -12 56 -59 63 -125 5 -50 4 -53 -30 -79 -30 -23 -41 -26 -77 -20 -51 8 -102 55 -120 110 -11 32 -10 42 5 70 9 17 27 37 38 42 28 14 89 15 121 2z"/>
 <path d="M1328 902 c-25 -37 -84 -125 -131 -197 -65 -97 -87 -138 -87 -162 0 -28 -4 -33 -25 -33 -18 0 -33 -13 -56 -47 -18 -27 -73 -101 -121 -166 -48 -65 -88 -120 -88 -122 0 -8 105 6 165 22 33 8 94 30 136 50 68 31 84 44 157 130 83 98 102 136 123 244 19 102 21 119 13 119 -5 0 -8 40 -6 90 2 59 0 90 -7 90 -6 0 -11 9 -11 19 0 40 -19 29 -62 -37z m-24 -244 c-18 -109 -26 -127 -91 -205 -56 -68 -121 -123 -146 -123 -4 0 7 21 25 47 18 26 40 66 49 88 14 33 22 41 47 43 22 2 29 7 26 17 -5 12 81 165 92 165 2 0 1 -15 -2 -32z"/>
 <path d="M1018 674 c-14 -23 -45 -54 -67 -69 -23 -14 -41 -27 -41 -30 0 -3 29 -5 65 -5 74 0 79 6 73 97 l-3 50 -27 -43z"/>
 <path d="M550 650 l0 -57 57 -6 c32 -3 58 -5 59 -4 2 1 -24 30 -57 64 l-59 61 0 -58z"/>
 <path d="M533 516 c4 -9 36 -56 72 -104 36 -48 86 -116 112 -151 l46 -65 33 40 c18 21 69 91 113 155 l80 116 -127 7 c-70 3 -174 9 -231 13 -96 5 -104 5 -98 -11z m261 -121 c-9 -14 -20 -25 -24 -25 -4 0 -15 11 -24 25 l-16 25 40 0 40 0 -16 -25z"/>
 <path d="M2597 1099 c-81 -19 -132 -62 -168 -144 -18 -40 -22 -68 -22 -143 0 -83 3 -99 32 -156 35 -71 78 -107 151 -126 78 -21 175 6 227 62 89 95 96 312 14 425 -48 66 -149 101 -234 82z m130 -123 c12 -15 27 -45 34 -69 15 -56 7 -183 -14 -224 -32 -61 -111 -81 -161 -42 -45 36 -56 69 -56 174 0 105 11 138 57 175 39 30 108 23 140 -14z"/>
 <path d="M4223 1100 c-89 -18 -152 -76 -178 -164 -22 -73 -19 -194 6 -260 42 -114 155 -174 275 -147 77 18 145 83 168 160 20 68 21 182 1 247 -35 118 -150 187 -272 164z m116 -116 c37 -31 51 -77 51 -169 0 -136 -34 -190 -120 -190 -92 0 -125 59 -118 211 3 75 8 99 24 121 43 58 113 70 163 27z"/>
 <path d="M4633 1100 c-77 -31 -30 -135 49 -108 48 17 50 85 3 106 -14 7 -27 12 -28 11 -1 0 -12 -4 -24 -9z"/>
 <path d="M2007 1093 c-4 -3 -7 -132 -7 -285 l0 -278 188 2 187 3 3 43 3 42 -130 0 -131 0 0 240 0 240 -53 0 c-30 0 -57 -3 -60 -7z"/>
 <path d="M2970 814 l0 -286 148 4 c165 4 209 17 243 72 35 58 18 160 -32 187 -21 11 -21 11 8 29 44 27 66 88 52 148 -22 101 -90 132 -291 132 l-128 0 0 -286z m257 186 c54 -19 69 -85 28 -125 -21 -22 -33 -25 -95 -25 l-70 0 0 80 0 80 54 0 c29 0 67 -5 83 -10z m-8 -241 c33 -12 45 -37 39 -85 -4 -37 -37 -54 -110 -54 l-58 0 0 75 0 75 49 0 c26 0 62 -5 80 -11z"/>
 <path d="M3480 815 l0 -285 60 0 60 0 0 115 0 115 115 0 115 0 0 -115 0 -115 60 0 60 0 -2 283 -3 282 -57 3 -58 3 0 -126 0 -125 -115 0 -115 0 0 125 0 125 -60 0 -60 0 0 -285z"/>
 <path d="M4606 843 c-3 -42 -6 -129 -6 -195 l0 -118 59 0 58 0 -4 173 c-5 225 -3 217 -57 217 l-43 0 -7 -77z"/>
 </g>

</svg>