<!DOCTYPE svg PUBLIC "-//W3C//DTD SVG 20010904//EN" "http://www.w3.org/TR/2001/REC-SVG-20010904/DTD/svg10.dtd">
<svg version="1.0" xmlns="http://www.w3.org/2000/svg" width="512px" height="160px" viewBox="0 0 5120 1600" preserveAspectRatio="xMidYMid meet">
<g id="layer101" fill="#1d1d33" stroke="none">
<path d="M0 805 l0 -745 758 2 757 3 3 66 3 67 467 7 c257 4 1067 4 1800 0 l1332 -7 0 606 0 606 -1800 0 -1800 0 0 70 0 70 -760 0 -760 0 0 -745z"/>
</g>
<g id="layer102" fill="#0d2f4b" stroke="none">
<path d="M2500 1078 c-148 -75 -177 -362 -50 -489 78 -78 189 -89 284 -29 37 24 53 44 82 102 23 47 37 91 39 123 3 49 2 49 -5 10 -8 -36 -8 -33 -6 19 6 122 -59 242 -147 275 -50 19 -148 13 -197 -11z m179 -74 c40 -29 61 -90 61 -184 0 -107 -12 -152 -51 -184 -42 -36 -89 -42 -135 -20 -52 26 -76 78 -82 173 -5 96 10 155 53 198 28 28 40 33 82 33 29 0 58 -7 72 -16z"/>
<path d="M3440 815 l0 -285 50 0 50 0 0 114 0 115 120 3 c66 2 125 2 130 0 6 -2 10 -52 10 -118 l0 -114 45 0 45 0 0 285 0 285 -44 0 c-50 0 -51 -2 -55 -133 -1 -39 -5 -75 -7 -79 -3 -4 -1 -8 5 -8 5 0 8 -8 7 -17 -3 -15 -17 -17 -127 -17 l-124 1 -3 126 -3 127 -49 0 -50 0 0 -285z"/>
</g>
<g id="layer103" fill="#3bc3ec" stroke="none">
<path d="M0 805 l0 -745 758 2 757 3 3 743 2 742 -760 0 -760 0 0 -745z m1450 0 l0 -675 -689 0 c-630 0 -689 1 -695 16 -8 20 -7 1300 1 1320 4 12 117 14 694 14 l689 0 0 -675z"/>
<path d="M878 1099 c-26 -10 -28 -15 -28 -65 0 -30 2 -54 4 -54 2 0 20 7 39 15 44 18 128 20 145 3 17 -17 15 -53 -5 -70 -10 -8 -41 -28 -70 -43 -82 -44 -106 -75 -110 -142 -5 -75 19 -116 84 -145 37 -16 60 -19 113 -16 37 3 72 8 79 12 6 4 11 30 11 58 0 48 -1 50 -22 43 -13 -4 -47 -9 -75 -12 -60 -6 -83 6 -83 42 0 18 18 34 83 73 95 58 120 91 120 163 0 53 -18 87 -67 123 -22 17 -45 21 -109 23 -45 1 -94 -2 -109 -8z"/>
<path d="M367 1093 c-4 -3 -7 -156 -7 -339 0 -395 -16 -359 154 -352 174 8 241 49 266 161 38 168 -64 288 -247 289 l-53 1 0 123 0 124 -53 0 c-30 0 -57 -3 -60 -7z m243 -361 c42 -21 60 -53 60 -110 0 -37 -6 -50 -34 -78 -31 -31 -39 -34 -95 -34 l-61 0 0 120 0 120 48 0 c26 0 63 -8 82 -18z"/>
<path d="M4195 1100 c-27 -3 -66 -14 -85 -25 -138 -81 -162 -364 -40 -486 59 -59 119 -78 198 -61 76 16 122 49 157 113 29 52 30 59 30 174 0 104 -3 125 -22 161 -20 38 -94 114 -111 114 -4 0 -23 4 -42 8 -19 4 -57 5 -85 2z m112 -104 c38 -32 53 -84 53 -182 0 -101 -13 -146 -51 -178 -42 -36 -89 -42 -135 -20 -51 26 -76 77 -82 169 -10 152 39 235 138 235 37 0 55 -6 77 -24z"/>
<path d="M1970 815 l0 -285 180 0 180 0 0 40 0 40 -130 0 -130 0 0 245 0 245 -50 0 -50 0 0 -285z"/>
<path d="M2500 1078 c-148 -75 -177 -362 -50 -489 108 -108 286 -82 357 53 26 49 28 61 28 173 0 104 -3 125 -22 160 -26 49 -78 100 -116 114 -50 19 -148 13 -197 -11z m179 -74 c40 -29 61 -90 61 -184 0 -107 -12 -152 -51 -184 -42 -36 -89 -42 -135 -20 -52 26 -76 78 -82 173 -5 96 10 155 53 198 28 28 40 33 82 33 29 0 58 -7 72 -16z"/>
<path d="M2940 814 l0 -286 143 4 c121 2 147 6 177 23 77 45 93 155 31 219 l-32 33 25 11 c42 19 61 70 58 151 -2 43 -62 105 -117 120 -22 6 -95 11 -162 11 l-123 0 0 -286z m268 186 c29 -18 32 -24 32 -68 0 -71 -21 -86 -121 -91 l-79 -3 0 91 0 91 68 0 c49 0 76 -5 100 -20z m3 -259 c19 -23 25 -76 11 -97 -15 -23 -53 -34 -116 -34 l-66 0 0 81 0 81 76 -4 c65 -3 79 -7 95 -27z"/>
<path d="M3440 815 l0 -285 50 0 50 0 0 114 0 115 120 3 c66 2 125 2 130 0 6 -2 10 -52 10 -118 l0 -114 45 0 45 0 0 285 0 285 -44 0 c-42 0 -44 -2 -49 -32 -3 -18 -5 -76 -4 -128 l0 -94 -124 0 -124 1 -3 126 -3 127 -49 0 -50 0 0 -285z"/>
<path d="M4572 1088 c-17 -17 -15 -54 4 -73 40 -39 110 14 80 60 -15 23 -66 31 -84 13z"/>
<path d="M4567 778 c-4 -83 -7 -173 -7 -200 l0 -48 50 0 50 0 0 133 c0 72 -3 162 -7 200 l-6 67 -37 0 -37 0 -6 -152z"/>
</g>


</svg>