<!DOCTYPE svg PUBLIC "-//W3C//DTD SVG 20010904//EN" "http://www.w3.org/TR/2001/REC-SVG-20010904/DTD/svg10.dtd">
<svg version="1.0" xmlns="http://www.w3.org/2000/svg" width="512px" height="160px" viewBox="0 0 5120 1600" preserveAspectRatio="xMidYMid meet">
<g id="layer101" fill="#040201" stroke="none">
<path d="M865 1474 c-293 -68 -377 -112 -434 -226 -17 -34 -31 -68 -31 -75 0 -21 -61 -103 -76 -103 -28 0 -95 -79 -129 -152 -27 -60 -52 -93 -115 -155 -75 -74 -80 -81 -80 -121 0 -24 7 -57 16 -75 22 -42 214 -238 287 -293 76 -57 186 -92 326 -104 58 -5 147 -14 196 -21 54 -7 154 -9 250 -6 154 5 223 12 385 39 58 9 487 13 1868 15 l1792 3 0 605 0 605 -1867 3 c-1511 2 -1877 5 -1913 16 -25 7 -67 20 -95 28 -49 15 -334 28 -380 17z"/>
</g>
<g id="layer102" fill="#2e130c" stroke="none">
<path d="M865 1474 c-293 -68 -377 -112 -434 -226 -17 -34 -31 -68 -31 -75 0 -21 -61 -103 -76 -103 -28 0 -95 -79 -129 -152 -27 -60 -52 -93 -115 -155 -75 -74 -80 -81 -80 -121 0 -24 7 -57 16 -75 22 -42 214 -238 287 -293 76 -57 186 -92 326 -104 58 -5 147 -14 196 -21 54 -7 154 -9 250 -6 154 5 223 12 385 39 58 9 487 13 1868 15 l1792 3 0 605 0 605 -1867 3 c-1511 2 -1877 5 -1913 16 -25 7 -67 20 -95 28 -49 15 -334 28 -380 17z m120 -498 c33 -16 37 -16 70 0 20 9 51 35 70 57 19 22 35 35 35 29 0 -18 -87 -102 -104 -102 -9 0 -20 -9 -26 -19 -14 -27 -13 -141 1 -141 8 0 7 -5 -1 -15 -21 -26 -27 -4 -21 82 l6 81 -37 17 c-21 9 -51 33 -68 53 -42 51 -38 61 5 13 20 -21 51 -46 70 -55z m-278 -199 c54 -52 56 -55 49 -92 -5 -24 -20 -51 -41 -72 -27 -27 -41 -33 -74 -33 -82 0 -131 49 -131 128 0 46 29 88 74 108 50 22 65 17 123 -39z m773 23 c34 -24 55 -85 45 -130 -10 -45 -68 -90 -116 -90 -78 0 -129 49 -129 124 0 29 8 41 53 80 44 40 57 46 85 42 18 -3 46 -14 62 -26z"/>
</g>
<g id="layer103" fill="#553028" stroke="none">
<path d="M865 1474 c-293 -68 -377 -112 -434 -226 -17 -34 -31 -68 -31 -75 0 -21 -61 -103 -76 -103 -28 0 -95 -79 -129 -152 -27 -60 -52 -93 -115 -155 -75 -74 -80 -81 -80 -121 0 -24 7 -57 16 -75 22 -42 214 -238 287 -293 76 -57 186 -92 326 -104 58 -5 147 -14 196 -21 54 -7 154 -9 250 -6 154 5 223 12 385 39 58 9 487 13 1868 15 l1792 3 0 605 0 605 -1867 3 c-1511 2 -1877 5 -1913 16 -25 7 -67 20 -95 28 -49 15 -334 28 -380 17z m45 -435 c12 -16 41 -41 66 -55 l44 -26 44 26 c43 25 106 105 106 134 0 9 3 13 6 9 12 -11 -19 -80 -52 -117 -19 -21 -48 -43 -64 -50 -28 -12 -30 -15 -30 -70 0 -32 -3 -65 -6 -74 -4 -11 0 -16 12 -16 16 0 16 -1 -2 -14 -10 -8 -23 -11 -28 -6 -5 5 -16 6 -25 4 -9 -3 -6 1 7 7 20 11 22 20 22 84 0 70 -1 73 -29 84 -53 23 -122 115 -121 163 1 7 7 -2 15 -20 8 -18 24 -47 35 -63z m-203 -262 c54 -52 56 -55 49 -92 -5 -24 -20 -51 -41 -72 -27 -27 -41 -33 -74 -33 -82 0 -131 49 -131 128 0 46 29 88 74 108 50 22 65 17 123 -39z m773 23 c34 -24 55 -85 45 -130 -10 -45 -68 -90 -116 -90 -78 0 -129 49 -129 124 0 29 8 41 53 80 44 40 57 46 85 42 18 -3 46 -14 62 -26z m-480 -64 c0 -5 -7 -3 -15 4 -8 7 -12 17 -9 22 7 10 24 -9 24 -26z"/>
</g>
<g id="layer104" fill="#eac8a1" stroke="none">
<path d="M865 1474 c-28 -6 -129 -32 -195 -51 -122 -34 -196 -89 -239 -175 -17 -34 -31 -68 -31 -75 0 -21 -61 -103 -76 -103 -28 0 -95 -79 -129 -152 -27 -60 -52 -93 -115 -155 -75 -74 -80 -81 -80 -121 0 -24 7 -57 16 -75 22 -42 214 -238 287 -293 77 -57 186 -91 331 -104 61 -6 143 -14 181 -20 90 -12 320 -12 410 0 39 6 117 15 175 20 112 12 211 41 287 86 58 34 262 231 304 293 27 40 30 53 26 96 -4 47 -9 54 -80 121 -59 56 -82 86 -109 145 -40 85 -76 131 -115 148 -30 12 -83 79 -83 104 0 30 -63 137 -102 172 -48 44 -147 92 -214 105 -27 5 -78 16 -114 24 -60 14 -281 21 -335 10z m390 -137 c39 -10 81 -24 95 -30 39 -19 59 -92 60 -215 0 -86 -4 -110 -21 -145 -29 -56 -123 -146 -184 -177 -28 -13 -64 -36 -81 -51 -18 -14 -48 -29 -68 -33 -43 -8 -110 8 -135 33 -10 10 -44 30 -75 44 -65 30 -172 131 -199 189 -13 27 -17 63 -17 140 0 166 25 219 111 232 24 4 62 13 84 21 58 21 335 16 430 -8z m-860 -397 c9 -28 13 -55 20 -140 17 -219 54 -307 189 -447 l59 -63 -47 0 c-57 0 -155 24 -207 51 -44 22 -205 172 -262 244 l-40 50 72 66 c58 53 79 82 112 150 22 46 45 90 51 96 16 20 46 15 53 -7z m1293 -7 c11 -16 34 -59 50 -96 24 -52 48 -84 104 -136 l72 -68 -31 -39 c-54 -68 -228 -231 -270 -252 -53 -28 -151 -52 -207 -52 l-46 0 46 48 c75 77 143 180 165 251 11 36 27 127 34 203 8 75 18 143 21 152 9 25 41 19 62 -11z m-989 -145 c28 -24 53 -53 56 -65 10 -33 -12 -89 -46 -118 -55 -45 -152 -27 -184 35 -35 67 -9 146 59 176 48 21 62 17 115 -28z m758 25 c82 -38 96 -139 29 -200 -80 -74 -206 -20 -206 89 0 39 2 42 58 91 47 41 68 45 119 20z"/>
<path d="M642 671 c-18 -11 -12 -41 10 -55 14 -8 22 -7 35 7 29 29 -10 71 -45 48z"/>
<path d="M1347 674 c-13 -13 -7 -52 8 -58 27 -10 46 5 43 33 -3 26 -35 41 -51 25z"/>
</g>
<g id="layer105" fill="#fffefd" stroke="none">
<path d="M865 1474 c-28 -6 -129 -32 -195 -51 -122 -34 -196 -89 -239 -175 -17 -34 -31 -68 -31 -75 0 -21 -61 -103 -76 -103 -28 0 -95 -79 -129 -152 -27 -60 -52 -93 -115 -155 -75 -74 -80 -81 -80 -121 0 -24 7 -57 16 -75 22 -42 214 -238 287 -293 77 -57 186 -91 331 -104 61 -6 143 -14 181 -20 90 -12 320 -12 410 0 39 6 117 15 175 20 112 12 211 41 287 86 58 34 262 231 304 293 27 40 30 53 26 96 -4 47 -9 54 -80 121 -59 56 -82 86 -109 145 -40 85 -76 131 -115 148 -30 12 -83 79 -83 104 0 30 -63 137 -102 172 -48 44 -147 92 -214 105 -27 5 -78 16 -114 24 -60 14 -281 21 -335 10z m390 -138 c93 -24 135 -42 135 -61 0 -8 7 -15 16 -15 9 0 12 5 8 12 -14 22 56 -33 71 -56 8 -13 22 -46 30 -74 9 -28 27 -65 41 -81 14 -16 32 -50 40 -75 14 -41 34 -62 34 -36 0 6 9 10 19 10 24 0 50 -35 89 -123 24 -52 48 -84 104 -136 l72 -68 -31 -39 c-54 -68 -228 -231 -270 -252 -52 -27 -150 -52 -204 -52 -24 0 -80 -7 -124 -15 -94 -17 -398 -20 -495 -4 -36 5 -110 14 -165 19 -108 9 -159 21 -217 51 -43 22 -204 172 -261 244 l-39 50 68 63 c55 51 79 83 119 160 38 73 55 98 72 100 17 3 24 -3 29 -22 8 -35 24 -23 24 18 0 22 13 52 41 91 23 33 48 82 56 110 22 76 102 149 124 114 8 -13 11 -7 8 18 -1 9 52 30 98 37 22 4 57 14 79 21 57 21 335 15 429 -9z"/>
<path d="M643 673 c-17 -6 -16 -38 1 -52 11 -9 20 -10 35 -1 44 23 10 72 -36 53z"/>
<path d="M1347 674 c-23 -23 7 -69 37 -58 25 10 17 58 -9 62 -12 2 -24 0 -28 -4z"/>
<path d="M1318 593 c6 -10 21 -19 34 -20 24 -2 20 2 -25 28 -16 9 -17 8 -9 -8z"/>
<path d="M2752 1091 c-112 -39 -165 -128 -165 -278 -1 -83 2 -97 31 -156 48 -96 139 -147 239 -133 127 17 202 112 211 267 13 220 -138 363 -316 300z m155 -115 c12 -15 27 -45 34 -69 15 -56 7 -183 -14 -224 -32 -61 -111 -81 -161 -42 -45 36 -56 69 -56 174 0 105 11 138 57 175 39 30 108 23 140 -14z"/>
<path d="M4388 1096 c-119 -32 -178 -125 -178 -281 0 -107 22 -171 80 -227 93 -90 227 -90 320 0 58 56 80 120 80 227 0 148 -60 247 -169 279 -64 19 -71 19 -133 2z m131 -112 c37 -31 51 -77 51 -169 0 -136 -34 -190 -120 -190 -92 0 -125 59 -118 211 3 75 8 99 24 121 43 58 113 70 163 27z"/>
<path d="M4813 1100 c-52 -21 -51 -90 2 -110 72 -28 120 76 50 108 -14 7 -27 12 -28 11 -1 0 -12 -4 -24 -9z"/>
<path d="M2187 1093 c-4 -3 -7 -132 -7 -285 l0 -278 190 0 190 0 0 45 0 45 -130 0 -130 0 0 240 0 240 -53 0 c-30 0 -57 -3 -60 -7z"/>
<path d="M3150 814 l0 -286 148 4 c165 4 209 17 243 72 35 58 18 160 -32 187 -21 11 -21 11 8 29 44 27 66 88 52 148 -22 101 -90 132 -291 132 l-128 0 0 -286z m259 185 c54 -19 67 -84 26 -124 -21 -22 -33 -25 -95 -25 l-70 0 0 80 0 80 54 0 c29 0 68 -5 85 -11z m-12 -240 c35 -13 43 -25 43 -71 0 -51 -27 -68 -107 -68 l-63 0 0 75 0 75 49 0 c27 0 62 -5 78 -11z"/>
<path d="M3660 815 l0 -285 60 0 60 0 0 115 0 115 115 0 115 0 0 -115 0 -115 60 0 60 0 -2 283 -3 282 -57 3 -58 3 0 -126 0 -125 -115 0 -115 0 0 125 0 125 -60 0 -60 0 0 -285z"/>
<path d="M4786 843 c-3 -42 -6 -129 -6 -195 l0 -118 59 0 58 0 -4 173 c-5 225 -3 217 -57 217 l-43 0 -7 -77z"/>
</g>


</svg>