<!DOCTYPE svg PUBLIC "-//W3C//DTD SVG 20010904//EN" "http://www.w3.org/TR/2001/REC-SVG-20010904/DTD/svg10.dtd">
<svg version="1.0" xmlns="http://www.w3.org/2000/svg" width="512px" height="160px" viewBox="0 0 5120 1600" preserveAspectRatio="xMidYMid meet">
<g id="layer101" fill="#2c6e9e" stroke="none">
<path d="M610 1586 c-73 -21 -114 -41 -155 -77 -53 -47 -65 -82 -65 -194 l0 -95 -78 0 c-178 0 -246 -55 -293 -237 -35 -137 -20 -352 32 -454 45 -89 143 -139 271 -139 l68 0 0 -112 c0 -129 13 -168 69 -205 83 -56 246 -81 424 -65 67 6 139 16 159 22 57 16 120 69 147 123 l23 47 1954 0 1954 0 0 605 0 605 -1959 0 -1959 0 -6 23 c-15 60 -84 113 -190 146 -56 17 -93 21 -210 20 -80 0 -160 -6 -186 -13z"/>
</g>
<g id="layer102" fill="#4585b6" stroke="none">
<path d="M610 1586 c-73 -21 -114 -41 -155 -77 -53 -47 -65 -82 -65 -194 l0 -95 -78 0 c-178 0 -246 -55 -293 -237 -35 -137 -20 -352 32 -454 45 -89 143 -139 271 -139 l68 0 0 -112 c0 -129 13 -168 69 -205 83 -56 246 -81 424 -65 67 6 139 16 159 22 57 16 120 69 147 123 l23 47 957 2 c526 1 1303 2 1726 2 424 1 751 2 728 4 l-43 3 0 130 c0 106 -3 130 -15 134 -43 14 -50 17 -37 22 6 3 12 11 12 19 0 11 15 14 61 14 l62 0 -7 58 c-3 31 -6 113 -7 182 -1 68 -4 130 -6 137 -3 8 -23 13 -49 13 -43 0 -44 -1 -45 -32 l-1 -33 -11 28 c-6 15 -17 27 -24 27 -7 0 -15 11 -19 25 -6 25 -24 35 -24 14 0 -5 -4 -7 -10 -4 -5 3 -10 13 -10 22 0 11 6 14 25 9 18 -5 25 -2 25 8 0 8 4 16 9 18 4 2 11 24 15 50 7 43 6 46 -14 41 -11 -3 -20 0 -20 6 0 6 9 11 19 11 11 0 23 5 26 10 3 6 14 10 25 10 16 0 18 11 22 97 1 53 1 116 -1 141 l-3 44 -427 -2 c-234 -2 -994 -2 -1687 -1 l-1262 1 -6 23 c-15 60 -84 113 -190 146 -56 17 -93 21 -210 20 -80 0 -160 -6 -186 -13z m-378 -456 c-18 -11 -38 -20 -45 -20 -14 1 52 39 68 40 6 0 -5 -9 -23 -20z m178 -50 c0 -40 -4 -70 -10 -70 -5 0 -10 20 -10 45 0 25 -4 45 -10 45 -5 0 -10 9 -10 19 0 17 -8 21 -52 24 -46 3 -43 4 20 5 l72 2 0 -70z m3078 23 c-10 -2 -26 -2 -35 0 -10 3 -2 5 17 5 19 0 27 -2 18 -5z m834 0 c2 -5 17 -15 33 -24 17 -10 34 -26 40 -38 5 -12 18 -24 27 -27 10 -3 18 -15 18 -27 0 -40 12 -67 29 -67 11 0 12 -3 4 -8 -13 -8 -12 -135 1 -163 4 -10 1 -22 -9 -32 -14 -14 -14 -17 2 -26 16 -9 16 -10 -4 -11 -23 0 -40 -36 -30 -63 3 -8 1 -20 -4 -28 -8 -12 -10 -12 -19 1 -8 12 -10 12 -10 -5 0 -30 -18 -53 -28 -38 -6 10 -14 9 -36 -2 -43 -23 -43 -18 1 14 22 16 50 41 61 56 50 64 67 219 36 324 -18 63 -93 144 -145 160 l-34 9 32 1 c17 1 33 -2 35 -6z m-905 -405 c-1 -73 -3 -16 -3 127 0 143 2 203 3 133 2 -70 2 -187 0 -260z m480 109 c-1 -45 -3 -5 -3 88 0 94 2 130 3 82 2 -48 2 -125 0 -170z m408 134 c-3 -5 -1 -12 5 -16 5 -3 10 -11 10 -18 0 -6 -7 -2 -15 9 -17 23 -19 34 -4 34 5 0 8 -4 4 -9z m22 -128 c-2 -16 -4 -5 -4 22 0 28 2 40 4 28 2 -13 2 -35 0 -50z m210 -155 c-2 -35 -3 -7 -3 62 0 69 1 97 3 63 2 -35 2 -91 0 -125z m-3489 108 c37 -19 68 -55 87 -98 21 -52 21 -398 -1 -443 -11 -22 -13 -24 -10 -7 3 14 -1 22 -10 22 -8 0 -14 9 -14 20 0 12 7 20 18 20 14 0 15 2 2 10 -8 5 -25 10 -37 10 -13 0 -23 6 -23 14 0 8 -22 37 -50 64 -27 27 -50 57 -50 66 0 9 -6 16 -13 16 -7 0 -30 27 -51 59 -21 32 -50 65 -64 72 -32 17 -72 53 -72 65 0 5 -11 21 -24 36 -15 19 -22 36 -19 52 4 19 0 25 -18 29 -13 2 54 5 149 6 131 1 180 -2 200 -13z m2849 -168 c-2 -18 -4 -6 -4 27 0 33 2 48 4 33 2 -15 2 -42 0 -60z m-2811 -436 l-29 -27 23 32 c13 18 26 30 29 28 3 -3 -8 -18 -23 -33z"/>
<path d="M4555 1085 c-14 -13 -25 -29 -25 -35 0 -22 22 -51 46 -60 72 -28 119 77 48 108 -35 17 -42 15 -69 -13z"/>
</g>
<g id="layer103" fill="#fce059" stroke="none">
<path d="M610 1586 c-73 -21 -114 -41 -155 -77 -53 -47 -65 -82 -65 -194 l0 -95 -78 0 c-178 0 -246 -55 -293 -237 -35 -137 -20 -352 32 -454 45 -89 143 -139 271 -139 l68 0 0 -112 c0 -129 13 -168 69 -205 83 -56 246 -81 424 -65 148 14 184 23 239 65 68 51 88 102 88 219 l0 98 45 1 c179 5 193 9 243 63 83 90 127 343 87 501 -34 132 -84 217 -141 241 -21 9 -71 14 -134 14 l-100 0 0 95 c0 166 -44 225 -204 274 -56 17 -93 21 -210 20 -80 0 -160 -6 -186 -13z m-200 -531 c0 -137 31 -198 125 -248 37 -20 58 -22 255 -25 118 -1 225 -5 238 -8 36 -8 101 -72 112 -112 5 -21 10 -120 10 -222 0 -159 -3 -191 -19 -226 -24 -52 -75 -91 -143 -110 -74 -20 -283 -20 -378 0 -130 28 -160 67 -160 214 l0 92 175 0 c166 0 175 1 175 19 0 19 -11 20 -268 23 -264 3 -268 3 -317 28 -96 50 -143 178 -132 361 7 121 36 214 79 255 51 48 67 53 161 54 l87 0 0 -95z"/>
</g>
<g id="layer104" fill="#fffdd0" stroke="none">
<path d="M610 1586 c-73 -21 -114 -41 -155 -77 -53 -47 -65 -82 -65 -194 l0 -95 -78 0 c-178 0 -246 -55 -293 -237 -35 -137 -20 -352 32 -454 45 -89 143 -139 271 -139 l68 0 0 -112 c0 -129 13 -168 69 -205 83 -56 246 -81 424 -65 148 14 184 23 239 65 68 51 88 102 88 219 l0 98 45 1 c179 5 193 9 243 63 83 90 127 343 87 501 -34 132 -84 217 -141 241 -21 9 -71 14 -134 14 l-100 0 0 95 c0 166 -44 225 -204 274 -56 17 -93 21 -210 20 -80 0 -160 -6 -186 -13z m362 -80 c69 -22 122 -55 149 -95 20 -29 25 -50 27 -123 l4 -88 -64 -1 c-34 -1 -112 -2 -173 -3 -102 -1 -110 -2 -110 -20 0 -19 9 -19 268 -17 257 2 269 2 312 -19 113 -55 167 -286 115 -492 -23 -93 -41 -129 -76 -157 -39 -31 -90 -43 -164 -39 l-65 3 3 75 c3 90 -16 161 -58 212 -54 66 -78 72 -341 83 l-236 10 -36 28 c-67 51 -74 77 -76 293 -3 242 7 271 113 326 93 48 293 60 408 24z m-562 -451 c0 -137 31 -198 125 -248 37 -20 58 -22 255 -25 118 -1 225 -5 238 -8 36 -8 101 -72 112 -112 5 -21 10 -120 10 -222 0 -159 -3 -191 -19 -226 -24 -52 -75 -91 -143 -110 -74 -20 -283 -20 -378 0 -130 28 -160 67 -160 214 l0 92 175 0 c166 0 175 1 175 19 0 19 -11 20 -268 23 -264 3 -268 3 -317 28 -96 50 -143 178 -132 361 7 121 36 214 79 255 51 48 67 53 161 54 l87 0 0 -95z"/>
</g>
<g id="layer105" fill="#fcfffe" stroke="none">
<path d="M610 1586 c-73 -21 -114 -41 -155 -77 -53 -47 -65 -82 -65 -194 l0 -95 -78 0 c-178 0 -246 -55 -293 -237 -35 -137 -20 -352 32 -454 45 -89 143 -139 271 -139 l68 0 0 -112 c0 -129 13 -168 69 -205 83 -56 246 -81 424 -65 148 14 184 23 239 65 68 51 88 102 88 219 l0 98 45 1 c179 5 193 9 243 63 83 90 127 343 87 501 -34 132 -84 217 -141 241 -21 9 -71 14 -134 14 l-100 0 0 95 c0 166 -44 225 -204 274 -56 17 -93 21 -210 20 -80 0 -160 -6 -186 -13z m362 -80 c69 -22 122 -55 149 -95 20 -29 25 -50 27 -123 l4 -88 -64 -1 c-34 -1 -104 -1 -155 0 -64 2 -96 -1 -106 -10 -32 -30 4 -34 260 -31 243 3 256 3 299 -18 112 -55 166 -286 114 -492 -23 -93 -41 -129 -76 -157 -39 -31 -90 -43 -164 -39 l-65 3 -8 85 c-12 121 -24 162 -62 201 -80 82 -77 82 -311 75 -216 -5 -244 -2 -300 40 -62 46 -69 76 -65 299 4 249 13 274 115 327 93 48 293 60 408 24z m-562 -451 c0 -137 31 -198 125 -248 37 -20 58 -22 255 -25 118 -1 225 -5 238 -8 36 -8 101 -72 112 -112 5 -21 10 -120 10 -222 0 -159 -3 -191 -19 -226 -24 -52 -75 -91 -143 -110 -74 -20 -283 -20 -378 0 -130 28 -160 67 -160 214 l0 92 175 0 c166 0 175 1 175 19 0 19 -11 20 -268 23 -264 3 -268 3 -317 28 -96 50 -143 178 -132 361 7 121 36 214 79 255 51 48 67 53 161 54 l87 0 0 -95z"/>
<path d="M944 1385 c-16 -24 -13 -56 8 -82 27 -34 108 3 108 49 0 53 -86 78 -116 33z"/>
<path d="M557 302 c-38 -42 -8 -102 51 -102 39 0 66 35 56 74 -11 46 -76 63 -107 28z"/>
<path d="M2555 1099 c-64 -8 -104 -28 -142 -72 -52 -59 -66 -112 -61 -229 3 -90 7 -109 32 -155 61 -112 200 -153 316 -93 47 24 74 55 102 115 19 41 23 67 23 151 0 92 -2 105 -30 159 -49 96 -131 139 -240 124z m112 -123 c12 -15 27 -45 34 -69 15 -56 7 -183 -14 -224 -29 -54 -99 -78 -150 -51 -52 27 -66 66 -69 181 -2 102 11 139 59 177 39 30 108 23 140 -14z"/>
<path d="M4147 1095 c-119 -30 -177 -125 -177 -286 0 -151 67 -254 184 -280 86 -19 154 0 216 59 58 56 80 120 80 227 0 124 -46 222 -122 261 -46 24 -129 32 -181 19z m132 -111 c38 -32 51 -77 51 -177 0 -122 -32 -175 -113 -184 -36 -4 -48 -1 -74 21 -44 37 -56 82 -51 192 3 75 8 99 24 121 43 58 113 70 163 27z"/>
<path d="M4572 1100 c-50 -21 -48 -91 4 -110 72 -28 119 76 49 108 -14 7 -27 12 -28 11 -1 0 -12 -4 -25 -9z"/>
<path d="M1945 1087 c-3 -7 -4 -134 -3 -282 l3 -270 185 0 185 0 3 43 3 42 -130 0 -131 0 0 240 0 240 -55 0 c-36 0 -57 -5 -60 -13z"/>
<path d="M2910 814 l0 -286 148 4 c165 4 211 19 245 76 33 58 15 156 -34 183 -21 11 -21 11 7 29 40 27 53 57 54 124 0 54 -3 61 -37 96 -48 47 -103 60 -263 60 l-120 0 0 -286z m285 175 c9 -8 18 -32 22 -51 4 -30 1 -41 -20 -62 -23 -23 -34 -26 -97 -26 l-70 0 0 81 0 81 75 -4 c50 -2 80 -8 90 -19z m-38 -230 c35 -13 43 -25 43 -71 0 -51 -27 -68 -107 -68 l-63 0 0 75 0 75 49 0 c27 0 62 -5 78 -11z"/>
<path d="M3420 815 l0 -285 60 0 60 0 0 115 0 115 115 0 115 0 0 -115 0 -115 59 0 60 0 1 268 c0 148 -2 276 -6 285 -5 13 -19 17 -60 17 l-54 0 0 -125 0 -125 -115 0 -115 0 0 125 0 125 -60 0 -60 0 0 -285z"/>
<path d="M4547 838 c-4 -46 -7 -134 -7 -195 l0 -113 61 0 62 0 -7 58 c-3 31 -6 113 -7 182 -1 68 -4 130 -6 137 -3 8 -22 13 -48 13 l-42 0 -6 -82z"/>
</g>


</svg>