<!DOCTYPE svg PUBLIC "-//W3C//DTD SVG 20010904//EN" "http://www.w3.org/TR/2001/REC-SVG-20010904/DTD/svg10.dtd">
<svg version="1.0" xmlns="http://www.w3.org/2000/svg" width="512px" height="160px" viewBox="0 0 5120 1600" preserveAspectRatio="xMidYMid meet">
<g id="layer101" fill="#f2681e" stroke="none">
 <path d="M95 1580 c-23 -11 -52 -38 -68 -62 l-27 -42 0 -663 c0 -642 1 -665 20 -703 11 -21 34 -49 52 -62 30 -21 46 -23 165 -26 153 -4 176 4 225 73 l32 45 23 -40 c39 -65 80 -80 223 -80 134 0 159 8 204 60 14 18 31 52 37 76 l11 44 2064 0 2064 0 0 605 0 605 -1805 0 -1805 0 0 23 c-1 39 -37 104 -76 133 l-37 29 -631 3 c-614 2 -632 2 -671 -18z"/>
 </g>
<g id="layer102" fill="#fffaf4" stroke="none">
 <path d="M95 1580 c-23 -11 -52 -38 -68 -62 l-27 -42 0 -663 c0 -642 1 -665 20 -703 11 -21 34 -49 52 -62 30 -21 46 -23 165 -26 153 -4 176 4 225 73 l32 45 23 -40 c39 -65 80 -80 223 -80 124 0 146 5 188 44 53 47 56 66 54 281 -2 110 1 205 5 212 6 8 68 13 209 15 l201 3 36 28 c73 55 72 48 75 470 3 354 2 380 -16 421 -11 24 -37 56 -58 72 l-37 29 -631 3 c-614 2 -632 2 -671 -18z m1280 -115 l25 -24 0 -354 c0 -343 -1 -355 -21 -381 l-20 -26 -223 0 c-200 0 -225 -2 -239 -18 -13 -14 -16 -55 -19 -253 -4 -294 4 -279 -140 -279 -146 0 -138 -15 -138 275 0 281 2 275 -107 275 -55 0 -71 -4 -90 -22 -23 -21 -23 -24 -23 -259 0 -286 8 -269 -137 -269 -148 0 -133 -73 -133 668 0 345 3 637 6 648 3 12 15 26 27 32 15 7 224 11 615 11 l593 1 24 -25z"/>
 <path d="M902 1194 c-20 -14 -22 -23 -22 -114 0 -126 5 -130 136 -130 119 0 123 4 125 129 2 87 1 95 -20 113 -31 24 -185 26 -219 2z m128 -114 c0 -13 -7 -20 -20 -20 -13 0 -20 7 -20 20 0 13 7 20 20 20 13 0 20 -7 20 -20z"/>
 <path d="M2513 1099 c-81 -15 -136 -59 -172 -139 -16 -36 -21 -66 -21 -146 0 -92 3 -106 30 -161 34 -68 79 -105 150 -123 164 -43 300 86 300 285 0 194 -121 314 -287 284z m124 -123 c30 -35 43 -87 43 -171 -1 -140 -77 -218 -173 -174 -46 21 -67 76 -68 181 -1 105 11 140 58 178 38 30 108 23 140 -14z"/>
 <path d="M1920 815 l0 -285 180 0 180 0 0 45 0 45 -125 0 -125 0 0 240 0 240 -55 0 -55 0 0 -285z"/>
 <path d="M2880 814 l0 -286 148 4 c170 4 216 19 246 82 30 64 13 151 -36 177 -20 11 -20 12 10 30 40 26 55 67 50 134 -9 110 -79 145 -290 145 l-128 0 0 -286z m286 174 c8 -8 17 -31 21 -50 4 -30 1 -41 -20 -62 -23 -23 -34 -26 -97 -26 l-70 0 0 81 0 82 76 -5 c47 -3 81 -11 90 -20z m-32 -229 c49 -23 53 -104 7 -128 -11 -6 -47 -11 -80 -11 l-61 0 0 75 0 75 55 0 c30 0 65 -5 79 -11z"/>
 <path d="M3397 1093 c-4 -3 -7 -132 -7 -285 l0 -278 60 0 60 0 0 115 0 115 115 0 115 0 0 -115 0 -116 58 3 57 3 3 260 c1 143 0 270 -3 283 -5 19 -12 22 -60 22 l-55 0 0 -125 0 -125 -115 0 -115 0 0 125 0 125 -53 0 c-30 0 -57 -3 -60 -7z"/>
 <path d="M4075 1081 c-87 -40 -128 -117 -133 -251 -5 -123 18 -191 84 -249 94 -82 225 -79 314 7 58 56 80 120 80 227 0 131 -48 227 -134 266 -55 25 -157 25 -211 0z m177 -98 c35 -30 48 -77 48 -168 0 -131 -31 -183 -113 -192 -36 -4 -48 -1 -75 22 -42 35 -55 83 -51 193 4 97 20 133 70 160 31 17 95 9 121 -15z"/>
 <path d="M4514 1075 c-14 -21 -15 -31 -6 -51 28 -61 121 -45 122 22 0 53 -86 75 -116 29z"/>
 <path d="M4517 823 c-4 -54 -7 -142 -7 -195 l0 -98 55 0 55 0 0 179 c0 99 -3 186 -6 195 -4 11 -19 16 -49 16 l-42 0 -6 -97z"/>
 </g>

</svg>