<!DOCTYPE svg PUBLIC "-//W3C//DTD SVG 20010904//EN" "http://www.w3.org/TR/2001/REC-SVG-20010904/DTD/svg10.dtd">
<svg version="1.0" xmlns="http://www.w3.org/2000/svg" width="512px" height="160px" viewBox="0 0 5120 1600" preserveAspectRatio="xMidYMid meet">
<g id="layer101" fill="#38383a" stroke="none">
<path d="M487 1586 c-125 -34 -193 -183 -171 -372 l9 -79 -85 -42 c-157 -77 -240 -178 -240 -290 0 -34 7 -68 19 -92 31 -60 126 -140 221 -185 l85 -41 -7 -45 c-38 -252 58 -423 236 -422 81 1 158 30 250 97 l74 53 54 -40 c105 -80 226 -124 306 -112 67 10 131 59 166 127 l29 57 1844 0 1843 0 0 605 0 605 -1680 0 -1680 0 0 95 0 95 -142 0 -143 0 -22 -38 -22 -37 -1 37 0 38 -395 0 c-219 0 -395 -4 -395 -9 0 -5 -16 -5 -37 0 -48 11 -58 10 -116 -5z"/>
</g>
<g id="layer102" fill="#58c2dd" stroke="none">
<path d="M487 1586 c-125 -34 -193 -183 -171 -372 l9 -79 -85 -42 c-157 -77 -240 -178 -240 -290 0 -34 7 -68 19 -92 31 -60 126 -140 221 -185 l85 -41 -7 -45 c-38 -252 58 -423 236 -422 81 1 158 30 250 97 l74 53 54 -40 c105 -80 226 -124 306 -112 67 10 131 59 165 125 23 45 29 73 34 150 3 52 1 118 -5 147 -8 46 -7 54 7 59 128 44 268 150 295 226 12 34 16 122 19 460 l5 417 -142 0 -141 0 -22 -38 -22 -37 -1 37 0 38 -395 0 c-219 0 -395 -4 -395 -9 0 -5 -16 -5 -37 0 -48 11 -58 10 -116 -5z m363 -186 l0 -100 43 0 42 0 53 100 53 100 60 0 60 0 -58 -111 -58 -110 28 -21 c40 -29 60 -75 60 -136 0 -37 -6 -61 -20 -80 -48 -65 -102 -79 -275 -74 l-98 3 0 258 c0 142 3 261 7 264 3 4 28 7 55 7 l48 0 0 -100z m482 -69 l3 -168 101 166 101 166 56 3 57 3 0 -266 0 -265 -55 0 -55 0 0 167 c0 102 -4 163 -9 158 -5 -6 -52 -80 -104 -165 l-94 -155 -56 -3 -57 -3 0 266 0 265 55 0 55 0 2 -169z"/>
</g>
<g id="layer103" fill="#f7fafb" stroke="none">
<path d="M487 1586 c-125 -34 -193 -183 -171 -372 l9 -79 -85 -42 c-157 -77 -240 -178 -240 -290 0 -34 7 -68 19 -92 31 -60 126 -140 221 -185 l85 -41 -7 -45 c-38 -252 58 -423 236 -422 81 1 158 30 250 97 l74 53 54 -40 c105 -80 226 -124 306 -112 67 10 131 59 165 125 23 45 29 73 34 150 3 52 1 118 -5 147 -8 46 -7 54 7 59 128 44 268 150 295 226 12 34 16 122 19 460 l5 417 -142 0 -141 0 -22 -38 -22 -37 -1 37 0 38 -395 0 c-219 0 -395 -4 -395 -9 0 -5 -16 -5 -37 0 -48 11 -58 10 -116 -5z m146 -103 c4 -2 7 -18 7 -34 l0 -30 -49 7 c-78 10 -103 -12 -121 -108 -9 -46 0 -181 14 -224 3 -8 26 -7 80 1 l76 12 0 -32 c0 -32 -1 -32 -60 -39 -33 -4 -62 -12 -66 -17 -6 -11 34 -129 45 -129 3 0 22 28 41 63 l35 62 3 -57 c2 -45 -2 -67 -21 -105 l-25 -48 30 -60 c17 -33 48 -88 70 -122 l39 -61 75 -7 c41 -4 105 -5 142 -1 37 3 68 6 70 6 6 0 91 139 117 189 22 45 25 58 16 78 -6 13 -11 26 -11 28 0 3 27 5 60 5 l61 0 -14 -27 c-13 -26 -12 -35 24 -123 36 -88 40 -95 65 -92 37 4 127 46 178 82 60 43 84 90 69 130 l-12 31 37 -3 c37 -3 37 -4 40 -51 4 -57 -19 -101 -76 -145 -45 -36 -142 -85 -199 -102 l-43 -13 8 -41 c4 -23 7 -93 7 -156 0 -107 -2 -118 -27 -161 -66 -112 -207 -97 -376 39 l-64 51 -61 -48 c-259 -202 -437 -131 -413 164 4 44 9 96 12 116 6 35 5 36 -38 48 -104 31 -207 99 -250 163 -49 72 -34 143 46 216 43 39 172 111 226 125 19 5 21 11 16 34 -15 66 -18 211 -7 261 16 64 64 121 111 132 32 7 94 4 113 -7z m217 -83 l0 -100 43 0 42 0 53 100 53 100 60 0 60 0 -58 -111 -58 -110 28 -21 c40 -29 60 -75 60 -136 0 -37 -6 -61 -20 -80 -48 -65 -102 -79 -275 -74 l-98 3 0 258 c0 142 3 261 7 264 3 4 28 7 55 7 l48 0 0 -100z m482 -69 l3 -168 101 166 101 166 56 3 57 3 0 -266 0 -265 -55 0 -55 0 0 167 c0 102 -4 163 -9 158 -5 -6 -52 -80 -104 -165 l-94 -155 -56 -3 -57 -3 0 266 0 265 55 0 55 0 2 -169z m-318 -502 c7 -28 4 -45 -12 -83 -18 -38 -29 -50 -68 -67 -59 -27 -103 -19 -152 26 -34 31 -36 37 -37 91 l0 59 120 5 c66 3 125 5 130 5 6 -1 14 -17 19 -36z"/>
<path d="M359 976 c-145 -59 -218 -141 -184 -206 28 -55 154 -135 242 -154 30 -7 31 -6 48 46 10 29 26 72 37 95 l19 41 -37 101 c-26 70 -42 101 -53 101 -9 0 -41 -11 -72 -24z"/>
<path d="M531 664 c-11 -31 -21 -60 -21 -64 0 -9 86 -30 121 -30 21 0 21 0 -1 33 -11 17 -31 51 -43 75 -11 23 -24 42 -28 42 -3 0 -16 -25 -28 -56z"/>
<path d="M1150 649 c-23 -39 -40 -73 -37 -75 7 -7 102 7 118 16 11 7 10 19 -4 64 -10 30 -22 58 -27 61 -5 3 -28 -26 -50 -66z"/>
<path d="M487 516 c-3 -8 -11 -50 -17 -93 -18 -133 13 -234 75 -241 61 -8 164 41 259 121 l29 25 -68 85 -67 84 -91 13 c-50 7 -97 14 -103 17 -6 2 -14 -3 -17 -11z"/>
<path d="M1149 511 l-97 -16 -46 -61 c-25 -34 -52 -67 -61 -74 -24 -20 -18 -36 33 -78 64 -53 143 -93 198 -100 60 -6 89 20 105 97 16 79 -1 252 -25 250 -6 -1 -54 -9 -107 -18z"/>
<path d="M799 473 c5 -10 25 -36 44 -58 l34 -40 29 35 c16 18 37 44 47 57 l18 23 -91 0 c-83 0 -90 -1 -81 -17z"/>
<path d="M850 1135 l0 -75 68 0 c81 0 105 18 105 77 0 53 -29 73 -109 73 l-64 0 0 -75z"/>
<path d="M2545 1103 c-87 -20 -142 -59 -175 -123 -68 -133 -33 -344 69 -414 96 -65 234 -54 308 26 89 95 97 311 14 425 -43 59 -150 102 -216 86z m112 -127 c12 -15 27 -45 34 -69 15 -56 7 -183 -14 -224 -32 -61 -111 -81 -161 -42 -45 36 -56 69 -56 174 0 105 11 138 57 175 39 30 108 23 140 -14z"/>
<path d="M4138 1096 c-121 -33 -178 -125 -178 -287 0 -198 126 -318 296 -280 77 18 145 83 168 160 20 68 21 182 1 247 -36 123 -163 194 -287 160z m131 -112 c37 -31 51 -77 51 -169 0 -130 -31 -183 -112 -192 -37 -4 -49 -1 -75 21 -44 37 -56 82 -51 192 3 75 8 99 24 121 43 58 113 70 163 27z"/>
<path d="M4563 1100 c-52 -21 -51 -90 2 -110 72 -28 120 76 50 108 -14 7 -27 12 -28 11 -1 0 -12 -4 -24 -9z"/>
<path d="M1937 1093 c-4 -3 -7 -132 -7 -285 l0 -278 190 0 190 0 0 45 0 45 -130 0 -130 0 0 240 0 240 -53 0 c-30 0 -57 -3 -60 -7z"/>
<path d="M2900 814 l0 -286 148 4 c165 4 209 17 243 72 35 58 18 160 -32 187 -21 11 -21 11 8 29 71 43 78 157 14 221 -46 46 -102 59 -261 59 l-120 0 0 -286z m259 185 c54 -19 67 -84 26 -124 -21 -22 -33 -25 -95 -25 l-70 0 0 80 0 80 54 0 c29 0 68 -5 85 -11z m-12 -240 c35 -13 43 -25 43 -71 0 -51 -27 -68 -107 -68 l-63 0 0 75 0 75 49 0 c27 0 62 -5 78 -11z"/>
<path d="M3410 815 l0 -285 60 0 60 0 0 115 0 115 115 0 115 0 0 -115 0 -115 60 0 60 0 -2 283 -3 282 -57 3 -58 3 0 -126 0 -125 -115 0 -115 0 0 125 0 125 -60 0 -60 0 0 -285z"/>
<path d="M4536 843 c-3 -42 -6 -129 -6 -195 l0 -118 59 0 58 0 -4 173 c-5 225 -3 217 -57 217 l-43 0 -7 -77z"/>
</g>


</svg>