<!DOCTYPE svg PUBLIC "-//W3C//DTD SVG 20010904//EN" "http://www.w3.org/TR/2001/REC-SVG-20010904/DTD/svg10.dtd">
<svg version="1.0" xmlns="http://www.w3.org/2000/svg" width="512px" height="160px" viewBox="0 0 5120 1600" preserveAspectRatio="xMidYMid meet">
<g id="layer101" fill="#010202" stroke="none">
 <path d="M750 1590 c-14 -4 -48 -8 -77 -9 -29 -1 -67 -7 -85 -15 -18 -8 -50 -18 -70 -21 -21 -3 -50 -16 -65 -29 -15 -13 -45 -29 -65 -35 -69 -23 -256 -210 -279 -279 -6 -20 -22 -49 -35 -64 -12 -15 -25 -47 -29 -70 -4 -24 -14 -56 -23 -73 -22 -44 -22 -328 0 -373 9 -17 19 -49 23 -72 4 -22 17 -55 30 -74 13 -19 32 -55 43 -80 11 -24 30 -51 42 -58 11 -7 32 -31 45 -53 13 -23 36 -47 52 -55 15 -8 40 -29 56 -47 15 -17 44 -37 65 -44 20 -7 51 -23 69 -36 18 -14 52 -27 75 -30 24 -4 53 -13 66 -21 29 -19 125 -26 292 -22 24 1 65 10 90 20 25 10 62 21 82 25 21 3 50 16 65 29 15 13 42 26 59 30 17 4 44 20 59 36 l29 30 1928 0 1928 0 0 605 0 605 -1923 0 -1923 0 -29 30 c-15 16 -44 35 -64 41 -20 7 -48 22 -64 35 -15 13 -48 26 -75 30 -26 3 -53 12 -61 18 -7 6 -46 14 -85 17 -39 3 -82 9 -96 12 -14 3 -36 2 -50 -3z"/>
 </g>
<g id="layer102" fill="#fefeff" stroke="none">
 <path d="M750 1590 c-14 -4 -48 -8 -77 -9 -29 -1 -67 -7 -85 -15 -18 -8 -50 -18 -70 -21 -21 -3 -50 -16 -65 -29 -15 -13 -45 -29 -65 -35 -69 -23 -256 -210 -279 -279 -6 -20 -22 -49 -35 -64 -12 -15 -25 -47 -29 -70 -4 -24 -14 -56 -23 -73 -22 -44 -22 -328 0 -373 9 -17 19 -49 23 -72 4 -22 17 -55 30 -74 13 -19 32 -55 43 -80 11 -24 30 -51 42 -58 11 -7 32 -31 45 -53 13 -23 36 -47 52 -55 15 -8 40 -29 56 -47 15 -17 44 -37 65 -44 20 -7 51 -23 69 -36 18 -14 52 -27 75 -30 24 -4 53 -13 66 -21 29 -19 125 -26 292 -22 24 1 65 10 90 20 25 10 62 21 82 25 21 3 50 16 65 29 15 13 42 27 60 30 18 4 47 24 67 46 19 21 43 41 55 45 23 7 71 60 71 78 0 7 15 24 34 39 19 15 40 44 47 65 6 21 22 51 35 66 13 15 26 44 29 65 4 20 13 54 22 74 32 75 32 342 1 391 -8 12 -17 41 -21 65 -3 23 -16 57 -30 75 -13 18 -29 49 -36 69 -7 21 -27 50 -44 65 -18 16 -39 41 -47 56 -7 15 -30 38 -49 50 -20 12 -48 36 -64 54 -15 17 -45 37 -65 44 -20 6 -49 22 -65 35 -15 13 -48 26 -75 30 -26 3 -53 12 -61 18 -7 6 -46 14 -85 17 -39 3 -82 9 -96 12 -14 3 -36 2 -50 -3z m62 -155 c13 -19 26 -35 29 -35 3 0 16 11 29 25 32 34 48 31 66 -10 8 -19 17 -35 20 -35 4 0 22 9 40 21 39 24 54 19 54 -19 0 -47 13 -56 50 -37 45 23 60 14 60 -36 l0 -41 46 7 46 6 -4 -48 -3 -48 44 -3 c47 -4 45 2 25 -78 -5 -18 0 -22 35 -28 47 -7 52 -24 21 -63 -24 -31 -20 -38 25 -53 42 -14 44 -25 8 -63 l-28 -28 33 -27 c40 -33 40 -43 2 -65 -37 -22 -37 -32 -3 -61 32 -28 26 -52 -16 -61 -42 -9 -46 -19 -20 -54 27 -37 20 -59 -23 -63 -29 -3 -33 -6 -30 -28 9 -78 10 -75 -33 -75 l-40 0 3 -48 4 -48 -48 3 -47 3 -1 -40 c-1 -43 2 -42 -71 -33 -27 3 -30 0 -33 -30 -4 -42 -23 -49 -61 -23 -16 12 -31 21 -34 21 -3 0 -12 -18 -21 -40 -9 -22 -19 -40 -23 -40 -4 0 -22 14 -39 31 l-32 31 -24 -36 c-12 -20 -28 -36 -35 -36 -6 0 -21 16 -33 36 l-23 35 -31 -30 c-18 -17 -35 -31 -39 -31 -4 0 -16 18 -27 41 l-21 40 -33 -20 c-46 -29 -53 -27 -61 20 -6 37 -9 40 -31 35 -81 -20 -74 -23 -74 28 l0 46 -47 -3 -48 -2 3 49 4 49 -41 -7 c-50 -8 -60 7 -36 53 19 38 13 51 -24 51 -43 0 -54 20 -31 55 26 40 26 44 -15 61 -41 17 -44 32 -10 64 32 30 31 36 -5 55 -38 20 -38 46 0 68 36 22 37 27 5 57 -34 32 -31 46 10 61 41 15 42 21 14 60 -25 35 -19 46 26 55 45 8 49 16 30 55 -20 38 -13 47 40 51 36 3 40 5 36 28 -10 64 -10 65 42 62 l47 -3 0 40 c0 49 8 55 53 36 39 -16 41 -15 52 32 9 44 20 48 54 24 40 -28 48 -27 61 14 14 43 40 46 69 9 23 -29 34 -26 56 17 20 38 30 37 57 -6z"/>
 <path d="M720 1279 c-30 -5 -73 -14 -95 -22 -37 -13 -41 -18 -55 -73 -17 -65 -24 -70 -88 -56 -36 9 -43 7 -63 -14 l-22 -24 201 0 202 0 0 -75 0 -75 -66 0 -65 0 3 -42 3 -43 65 -3 c89 -3 111 10 132 78 9 30 19 68 23 83 3 16 17 40 30 53 22 22 31 24 130 24 58 0 105 4 105 8 0 5 -8 17 -19 26 -16 15 -25 15 -65 5 -56 -14 -72 -4 -82 50 -11 58 -21 70 -77 85 -69 19 -130 24 -197 15z"/>
 <path d="M466 1234 c-9 -8 -16 -19 -16 -24 0 -9 28 -40 36 -40 17 0 44 23 44 38 0 38 -37 53 -64 26z"/>
 <path d="M1040 1235 c-23 -28 9 -72 45 -59 36 14 24 74 -15 74 -10 0 -23 -7 -30 -15z"/>
 <path d="M314 903 c-5 -21 -8 -63 -8 -93 l-1 -54 48 -23 c54 -26 65 -43 49 -79 -11 -23 -10 -24 23 -24 l36 0 -3 153 -3 152 -67 3 -67 3 -7 -38z"/>
 <path d="M1106 924 c-9 -8 -16 -22 -16 -30 0 -23 -39 -94 -56 -101 -11 -4 -3 -17 31 -54 41 -44 45 -52 45 -100 0 -47 -3 -55 -43 -94 -25 -25 -58 -47 -82 -54 -24 -7 -141 -11 -300 -11 l-260 -1 35 -30 c50 -42 110 -77 171 -99 l54 -18 42 39 c23 21 47 39 53 39 6 0 29 -18 53 -39 l42 -39 57 18 c31 9 74 28 95 41 51 31 128 104 153 144 l20 32 -26 57 c-14 31 -23 64 -20 72 3 8 28 25 56 37 48 21 50 23 50 65 0 38 -2 42 -24 42 -19 0 -25 7 -30 35 -11 55 -67 83 -100 49z"/>
 <path d="M672 678 l3 -43 84 -3 c91 -3 131 12 131 48 0 30 -31 40 -130 40 l-91 0 3 -42z"/>
 <path d="M290 685 c-26 -31 13 -82 44 -56 19 16 21 42 4 59 -16 16 -33 15 -48 -3z"/>
 <path d="M1222 688 c-18 -18 -14 -46 9 -58 26 -14 49 3 49 35 0 32 -35 46 -58 23z"/>
 <path d="M751 326 c-16 -19 2 -56 28 -56 28 0 47 28 34 48 -13 22 -47 27 -62 8z"/>
 <path d="M2575 1103 c-87 -20 -142 -59 -175 -123 -68 -133 -33 -344 69 -414 96 -65 234 -54 308 26 89 95 97 311 14 425 -43 59 -150 102 -216 86z m112 -127 c12 -15 27 -45 34 -69 15 -56 7 -183 -14 -224 -32 -61 -111 -81 -161 -42 -45 36 -56 69 -56 174 0 105 11 138 57 175 39 30 108 23 140 -14z"/>
 <path d="M4168 1096 c-121 -33 -178 -125 -178 -287 0 -198 126 -318 296 -280 77 18 145 83 168 160 20 68 21 182 1 247 -36 123 -163 194 -287 160z m131 -112 c37 -31 51 -77 51 -169 0 -130 -31 -183 -112 -192 -37 -4 -49 -1 -75 21 -44 37 -56 82 -51 192 3 75 8 99 24 121 43 58 113 70 163 27z"/>
 <path d="M4593 1100 c-52 -21 -51 -90 2 -110 72 -28 120 76 50 108 -14 7 -27 12 -28 11 -1 0 -12 -4 -24 -9z"/>
 <path d="M1967 1093 c-4 -3 -7 -132 -7 -285 l0 -278 190 0 190 0 0 45 0 45 -130 0 -130 0 0 240 0 240 -53 0 c-30 0 -57 -3 -60 -7z"/>
 <path d="M2930 814 l0 -286 148 4 c165 4 209 17 243 72 35 58 18 160 -32 187 -21 11 -21 11 9 29 44 27 67 94 52 151 -26 99 -94 129 -292 129 l-128 0 0 -286z m259 185 c54 -19 67 -84 26 -124 -21 -22 -33 -25 -95 -25 l-70 0 0 80 0 80 54 0 c29 0 68 -5 85 -11z m-12 -240 c35 -13 43 -25 43 -71 0 -51 -27 -68 -107 -68 l-63 0 0 75 0 75 49 0 c27 0 62 -5 78 -11z"/>
 <path d="M3440 815 l0 -285 60 0 60 0 0 115 0 115 115 0 115 0 0 -115 0 -115 60 0 60 0 -2 283 -3 282 -57 3 -58 3 0 -126 0 -125 -115 0 -115 0 0 125 0 125 -60 0 -60 0 0 -285z"/>
 <path d="M4566 843 c-3 -42 -6 -129 -6 -195 l0 -118 59 0 58 0 -4 173 c-5 225 -3 217 -57 217 l-43 0 -7 -77z"/>
 </g>

</svg>