<!DOCTYPE svg PUBLIC "-//W3C//DTD SVG 20010904//EN" "http://www.w3.org/TR/2001/REC-SVG-20010904/DTD/svg10.dtd">
<svg version="1.0" xmlns="http://www.w3.org/2000/svg" width="512px" height="160px" viewBox="0 0 5120 1600" preserveAspectRatio="xMidYMid meet">
<g id="layer101" fill="#cf669b" stroke="none">
 <path d="M198 1591 c-112 -37 -168 -180 -122 -315 18 -52 97 -145 163 -190 l40 -28 -58 -44 c-79 -60 -163 -152 -192 -211 -114 -236 122 -534 571 -718 201 -82 446 -88 591 -15 57 29 114 84 137 131 19 38 21 40 32 20 l11 -21 1874 0 1875 0 0 605 0 605 -2065 0 -2064 0 -51 72 -50 71 0 -71 c0 -61 -3 -73 -20 -82 -15 -8 -27 -6 -52 10 -41 25 -107 26 -155 3 -34 -16 -36 -16 -46 3 -26 47 -105 116 -164 146 -54 26 -79 32 -146 35 -45 1 -94 -1 -109 -6z m392 -706 c27 -13 51 -29 54 -33 3 -5 -13 -15 -36 -21 -60 -18 -114 -56 -148 -103 -90 -124 28 -261 145 -168 32 25 46 30 95 30 61 0 142 -21 204 -52 76 -39 166 -140 166 -187 0 -20 -73 -34 -149 -28 -134 11 -320 88 -455 189 -117 88 -158 167 -118 229 15 24 175 166 190 168 1 1 25 -10 52 -24z"/>
 </g>
<g id="layer102" fill="#fcf4f9" stroke="none">
 <path d="M198 1591 c-112 -37 -168 -180 -122 -315 18 -52 97 -145 163 -190 l40 -28 -58 -44 c-79 -60 -163 -152 -192 -211 -114 -236 122 -534 571 -718 156 -63 362 -84 495 -50 272 71 347 322 168 567 l-33 46 36 12 c33 11 37 10 51 -10 22 -32 74 -50 140 -50 68 0 118 25 134 68 10 25 9 45 -7 127 l-6 30 114 0 c101 0 119 3 168 26 77 36 124 80 157 147 55 111 28 231 -64 295 -78 53 -157 42 -190 -27 -20 -42 -12 -79 26 -117 15 -15 25 -32 22 -38 -11 -17 -78 -41 -115 -41 -31 0 -36 4 -42 28 -11 53 -27 83 -65 122 -68 70 -182 114 -240 92 -20 -8 -30 -6 -50 9 -13 10 -52 28 -87 40 -60 20 -74 20 -169 7 -18 -2 -34 15 -87 91 l-66 95 0 -72 c0 -61 -3 -73 -20 -82 -15 -8 -27 -6 -52 10 -41 25 -107 26 -155 3 -34 -16 -36 -16 -46 3 -26 47 -105 116 -164 146 -54 26 -79 32 -146 35 -45 1 -94 -1 -109 -6z m207 -112 c67 -31 112 -76 146 -144 29 -59 31 -69 27 -147 -3 -46 -6 -89 -9 -97 -2 -8 15 -25 44 -42 l48 -29 -8 38 c-15 72 -9 174 13 217 46 88 107 80 159 -23 l32 -63 5 45 c9 77 44 97 92 54 26 -24 126 -210 167 -310 12 -32 25 -56 27 -53 6 6 41 102 48 130 4 14 -14 44 -61 100 -80 98 -82 119 -10 123 125 7 217 -104 176 -212 -8 -21 -2 -37 40 -107 27 -45 49 -86 49 -91 0 -5 5 -6 10 -3 6 3 10 16 10 28 0 12 9 41 19 64 l19 41 -29 28 c-33 32 -79 118 -79 149 0 72 115 53 189 -31 30 -33 32 -41 29 -93 l-3 -56 45 -12 c100 -27 250 14 290 79 30 49 26 93 -10 130 -34 34 -36 38 -14 38 9 0 31 -15 50 -34 29 -29 34 -41 34 -80 0 -91 -59 -160 -166 -192 -73 -22 -165 -14 -245 20 -11 5 -20 -3 -32 -31 -25 -60 -28 -94 -14 -150 15 -58 9 -73 -33 -73 -52 0 -67 10 -80 53 -16 57 -111 238 -121 232 -4 -3 -13 -29 -20 -59 -9 -43 -9 -62 4 -104 8 -28 12 -54 9 -57 -3 -3 -27 -5 -54 -5 -41 0 -50 3 -57 23 -33 84 -102 244 -142 326 -39 78 -47 91 -48 66 0 -16 10 -73 24 -125 23 -88 23 -96 8 -108 -9 -6 -24 -10 -32 -7 -13 4 -16 -4 -16 -34 -1 -51 -19 -71 -64 -71 -41 0 -66 14 -131 75 -25 23 -84 63 -131 89 -79 42 -88 45 -100 30 -8 -10 -57 -52 -109 -94 -103 -83 -140 -125 -158 -179 -45 -130 110 -304 384 -432 214 -101 444 -111 514 -22 30 39 27 106 -9 168 -107 187 -441 298 -570 189 -18 -15 -32 -20 -36 -14 -12 20 30 71 79 95 41 21 65 25 135 25 223 0 410 -105 491 -275 26 -55 32 -79 31 -131 -2 -121 -63 -187 -202 -218 -168 -39 -358 2 -589 126 -202 108 -344 257 -372 392 -11 52 -10 57 20 119 37 75 88 125 235 229 53 38 97 70 97 72 0 1 -43 29 -96 62 -53 32 -116 81 -140 107 -72 81 -82 188 -21 245 38 36 137 36 212 1z m185 -594 c27 -13 51 -29 54 -33 3 -5 -13 -15 -36 -21 -60 -18 -114 -56 -148 -103 -90 -124 28 -261 145 -168 32 25 46 30 95 30 61 0 142 -21 204 -52 76 -39 166 -140 166 -187 0 -20 -73 -34 -149 -28 -134 11 -320 88 -455 189 -117 88 -158 167 -118 229 15 24 175 166 190 168 1 1 25 -10 52 -24z"/>
 <path d="M282 1388 c-29 -29 -4 -106 52 -160 48 -47 156 -119 167 -112 15 9 10 102 -7 142 -38 92 -169 173 -212 130z"/>
 <path d="M746 1204 c-13 -33 -5 -125 15 -179 22 -60 89 -140 111 -133 19 7 11 50 -32 164 -58 156 -79 188 -94 148z"/>
 <path d="M1187 1175 c20 -25 39 -45 40 -45 11 0 -2 25 -28 55 -46 51 -57 43 -12 -10z"/>
 <path d="M1410 1150 c0 -22 28 -76 49 -94 l21 -19 0 35 c0 25 -8 42 -28 61 -30 29 -42 33 -42 17z"/>
 <path d="M2727 1099 c-80 -19 -133 -63 -165 -139 -38 -87 -36 -221 4 -306 68 -143 274 -177 381 -62 89 95 97 311 14 425 -48 66 -151 102 -234 82z m130 -123 c12 -15 27 -45 34 -69 15 -56 7 -183 -14 -224 -32 -61 -111 -81 -161 -42 -44 35 -56 69 -57 172 -1 104 11 139 58 177 39 30 108 23 140 -14z"/>
 <path d="M4338 1096 c-121 -33 -178 -125 -178 -287 0 -101 26 -174 80 -222 50 -46 65 -54 122 -62 116 -18 229 54 262 164 20 68 21 182 1 247 -37 125 -161 194 -287 160z m131 -112 c37 -31 51 -77 51 -169 0 -136 -34 -190 -120 -190 -91 0 -125 63 -118 216 3 69 8 91 27 118 41 57 109 68 160 25z"/>
 <path d="M4763 1100 c-52 -21 -51 -90 2 -110 72 -28 120 76 50 108 -14 7 -27 12 -28 11 -1 0 -12 -4 -24 -9z"/>
 <path d="M2137 1093 c-4 -3 -7 -132 -7 -285 l0 -278 190 0 190 0 0 45 0 45 -130 0 -130 0 0 240 0 240 -53 0 c-30 0 -57 -3 -60 -7z"/>
 <path d="M3100 815 l0 -287 148 4 c166 4 207 16 242 73 36 59 20 158 -31 186 -21 11 -21 11 9 29 19 12 36 35 47 64 16 40 16 53 6 89 -7 23 -23 53 -34 65 -45 49 -73 56 -234 60 l-153 4 0 -287z m259 184 c54 -19 67 -84 26 -124 -21 -22 -33 -25 -95 -25 l-70 0 0 80 0 80 54 0 c29 0 68 -5 85 -11z m-10 -240 c33 -12 45 -37 39 -85 -4 -37 -37 -54 -110 -54 l-58 0 0 75 0 75 49 0 c26 0 62 -5 80 -11z"/>
 <path d="M3610 815 l0 -285 60 0 60 0 0 115 0 115 115 0 115 0 0 -115 0 -115 60 0 60 0 -2 283 -3 282 -57 3 -58 3 0 -126 0 -125 -115 0 -115 0 0 125 0 125 -60 0 -60 0 0 -285z"/>
 <path d="M4736 843 c-3 -42 -6 -129 -6 -195 l0 -118 59 0 58 0 -4 173 c-5 225 -3 217 -57 217 l-43 0 -7 -77z"/>
 </g>

</svg>