<?xml version="1.0" encoding="utf-8"?>
<!DOCTYPE svg PUBLIC "-//W3C//DTD SVG 20010904//EN" "http://www.w3.org/TR/2001/REC-SVG-20010904/DTD/svg10.dtd">
<svg version="1.0" xmlns="http://www.w3.org/2000/svg" width="512px" height="160px" viewBox="0 0 512 160" preserveAspectRatio="xMidYMid meet">
 <g fill="#fffefe">
  <path d="M50 141.1 l0 -18.1 4 -0.6 c2.4 -0.4 4 -1.2 4 -2 0 -0.8 0.7 -1.4 1.5 -1.4 1.2 0 1.5 1.9 1.5 11.5 0 6.3 0.2 11.5 0.5 11.5 0.3 0 9.9 -1.4 21.5 -3 30.8 -4.4 46.3 -8.2 51.1 -12.6 1.7 -1.5 1.9 -3.3 1.9 -15.4 0 -12.4 -0.2 -13.9 -2 -15.5 -1.2 -1.1 -2 -3.1 -2 -4.9 0 -2 0.7 -3.6 2 -4.4 1.8 -1.1 2 -2.3 2 -15.2 0 -12.8 -0.2 -14.2 -2 -15.7 -2.6 -2.3 -2.6 -7.3 0 -9.6 1.8 -1.5 2 -2.9 2 -11.7 0 -5.5 -0.2 -10 -0.4 -10 -0.2 0 -1.9 0.7 -3.9 1.5 -5.4 2.2 -26 6.1 -47.7 9 -10.7 1.4 -20.3 2.8 -21.2 3.1 -1.6 0.5 -1.8 2.1 -1.8 14.5 0 11.7 -0.2 13.9 -1.5 13.9 -0.8 0 -1.5 -0.4 -1.5 -0.9 0 -0.5 -1.8 -1.2 -4 -1.6 l-4 -0.7 0 -18.3 0 -18.4 5.3 -1 c2.8 -0.6 12.4 -2 21.2 -3.1 34.9 -4.5 56.2 -9.1 65.3 -14 l5.2 -2.8 0 7.9 c0 6.3 0.3 7.9 1.5 7.9 1.3 0 1.5 7.7 1.5 59.4 l0 59.4 -3.8 0.5 c-2 0.3 -7.5 1.9 -12.2 3.6 -11.1 3.9 -23.1 6.3 -53.5 10.6 -13.8 1.9 -26.2 3.8 -27.7 4.1 l-2.8 0.6 0 -18.1z"/>
  <path d="M61.5 116 c-0.3 -0.5 0.2 -1 1.1 -1 3.5 0 0.3 -1.3 -5.8 -2.4 l-6.3 -1.1 -0.3 -17.9 c-0.1 -9.9 0.1 -18.3 0.5 -18.7 0.5 -0.4 7.3 -1.7 15.2 -2.9 13.1 -1.8 18.3 -3 13.7 -3 -0.9 0 -1.4 -0.4 -1.1 -1 0.3 -0.5 3.1 -1 6.1 -1 l5.4 0 0 3.5 c0 3.1 -0.3 3.5 -3.2 4 -3.1 0.5 -24.7 3.5 -25.5 3.5 -0.8 0 -0.2 24.9 0.6 25.5 0.6 0.3 6.1 1.2 12.3 2 16.4 2.2 15.8 2 15.8 5.9 l0 3.3 -9.4 1.1 c-11.6 1.5 -18.3 1.5 -19.1 0.2z"/>
  <path d="M253 113.1 c-12.3 -2.5 -18.1 -11.5 -18.8 -29 -0.6 -13.5 1.4 -21.2 6.9 -27.5 5.3 -6 11.3 -8 22 -7.4 10.3 0.6 16.1 3.9 20.4 11.8 3 5.4 3 5.7 3 20.5 0 16.7 -0.6 18.7 -7.3 25.8 -5.6 5.8 -15.4 7.9 -26.2 5.8z m11.9 -15.7 c5.8 -4.1 8 -17.7 4.2 -26 -3.5 -7.7 -9.3 -9.5 -14.1 -4.4 -6.7 7.2 -6.5 21.7 0.5 28.7 3.7 3.7 5.9 4.1 9.4 1.7z"/>
  <path d="M414.5 113.1 c-12.5 -3.1 -18.5 -13.4 -18.5 -31.6 0 -22.9 9.4 -33.5 28.9 -32.3 12.6 0.8 19 5.4 22.6 16.5 1.3 4.1 1.6 7.9 1.3 18 -0.4 14.6 -1.7 18.3 -8.6 24.5 -5.6 5 -16.5 7.1 -25.7 4.9z m12.4 -15.7 c6 -4.3 8.1 -18.1 3.9 -26.4 -6.6 -13 -18.4 -6.2 -18.2 10.5 0 7.7 1.7 12 6 15.4 3.2 2.5 5.2 2.6 8.3 0.5z"/>
  <path d="M194 81.5 l0 -31.5 21 0 21 0 0 7 0 7 -13 0 -13 0 0 24.5 0 24.5 -8 0 -8 0 0 -31.5z"/>
  <path d="M291 81.4 l0 -31.6 17.3 0.4 c19.2 0.3 22.1 1.2 25.7 7.1 2.5 4 2.8 17.2 0.6 20.2 -1.2 1.7 -1.2 2.3 0.4 4.6 4.7 6.5 3.3 20.7 -2.6 25.8 -4.8 4.3 -9 5.1 -26.1 5.1 l-15.3 0 0 -31.6z m27.5 15.2 c5.2 -3.4 1.9 -8.3 -6.4 -9.3 l-5.1 -0.6 0 6.3 0 6.3 4.5 -0.5 c2.5 -0.3 5.6 -1.3 7 -2.2z m-0.2 -25.7 c1.9 -2.3 1.9 -2.4 -0.8 -4.6 -1.8 -1.6 -3.9 -2.3 -6.6 -2.3 l-3.9 0 0 5.1 0 5.2 4.7 -0.6 c3.3 -0.3 5.3 -1.2 6.6 -2.8z"/>
  <path d="M341 81.5 l0 -31.5 8 0 8 0 0 11.5 0 11.5 9.5 0 9.5 0 0 -11.5 0 -11.5 8 0 8 0 0 31.5 0 31.6 -7.7 -0.3 -7.8 -0.3 -0.3 -12.2 -0.3 -12.3 -9.4 0 -9.5 0 0 12.5 0 12.5 -8 0 -8 0 0 -31.5z"/>
  <path d="M454.2 111.8 c-0.7 -0.7 -1.2 -3.8 -1.2 -7 0 -6.8 1.2 -7.8 8.9 -7.8 5.9 0 8.1 2.2 8.1 8 0 6 -2.2 8 -8.9 8 -3.1 0 -6.2 -0.5 -6.9 -1.2z"/>
  <path d="M453.7 82.3 c-0.4 -7.5 -0.7 -17.8 -0.7 -23 l0 -9.3 8 0 8 0 0 16.3 c0 8.9 -0.3 19.2 -0.7 23 l-0.6 6.7 -6.7 0 -6.7 0 -0.6 -13.7z"/>
 </g>
 <g fill="#e71a20">
  <path d="M58 144 c0 -1.6 0.7 -2 3.5 -2 4 0 4.9 2.4 1.3 3.4 -3.8 1 -4.8 0.7 -4.8 -1.4z"/>
  <path d="M70 142 c0 -1.7 0.7 -2 4 -2 4.5 0 5.7 2.3 1.8 3.4 -4.2 1.1 -5.8 0.7 -5.8 -1.4z"/>
  <path d="M86 140 c0 -1.6 0.7 -2 3.5 -2 4 0 4.9 2.4 1.3 3.4 -3.8 1 -4.8 0.7 -4.8 -1.4z"/>
  <path d="M99 138 c0 -1.6 0.7 -2 3.5 -2 4 0 4.9 2.4 1.3 3.4 -3.8 1 -4.8 0.7 -4.8 -1.4z"/>
  <path d="M371.5 134.5 c0.4 -3.1 0.4 -13.4 0 -23 l-0.7 -17.5 -6.9 0 c-7.4 0 -8.9 -1.1 -8.9 -6.4 l0 -2.6 12 0 11.9 0 0.3 12.3 0.3 12.2 4.8 0.3 4.7 0.3 0 -28.4 0 -28.5 -4.7 -0.4 c-2.7 -0.3 -5.1 -0.3 -5.5 -0.1 -0.5 0.2 -0.8 5.6 -0.8 11.9 l0 11.5 -10.2 -0.3 -10.3 -0.3 0 -4 0 -4 7 -0.5 7 -0.4 -7.5 -0.6 c-5.6 -0.4 -7.5 -0.9 -7.7 -2 -0.1 -0.8 -0.5 -4.1 -0.8 -7.2 l-0.6 -5.8 -6 0 -5.9 0 0 -3.4 c0 -1.9 0.5 -3.8 1.1 -4.1 0.6 -0.4 3.5 -0.4 6.5 0 4.4 0.5 5.4 1 5.4 2.6 0 1.7 0.8 1.9 6.9 1.9 4 0 7.3 -0.5 7.7 -1.1 0.3 -0.6 0.9 -4 1.2 -7.5 l0.5 -6.4 -9.7 0 -9.6 0 0 -6 0 -6 79.5 0 79.5 0 0 59.5 0 59.5 -70.6 0 -70.5 0 0.6 -5.5z m56.6 -24.6 c6 -1.3 11.9 -6.1 15.2 -12.3 1.6 -3.1 2.2 -6.5 2.5 -13.8 0.8 -19.3 -6.1 -29.7 -20.7 -31.5 -15 -1.7 -26.1 10.7 -26.1 29.2 0 15.1 6.9 25.7 18.5 28.6 4.3 1 4.9 1 10.6 -0.2z m37.5 -2.4 c1.5 -2.3 1.5 -2.7 0 -5 -2.8 -4.3 -9.6 -2.6 -9.6 2.3 0 3.5 1.7 5.2 5.2 5.2 1.8 0 3.3 -0.8 4.4 -2.5z m-0.3 -21.2 c0.4 -3.8 0.7 -12.8 0.7 -20 l0 -13.3 -5 0 -5 0 0 6.3 c0 3.5 0.3 12.5 0.7 20 l0.6 13.7 3.7 0 3.7 0 0.6 -6.7z"/>
  <path d="M415.6 99.9 c-4.8 -3.8 -6 -7.5 -6.1 -18.4 0 -8.6 0.3 -10.6 2.3 -14.3 2.7 -5 7.7 -7.7 12.6 -6.8 8.2 1.5 11.6 7.8 11.6 21.1 0 10 -2 16 -6.1 18.9 -3.4 2.3 -11 2.1 -14.3 -0.5z"/>
  <path d="M111.8 125.8 c-0.3 -10 -0.4 -10.2 -2.8 -10.8 -2.1 -0.5 -2.5 -1.2 -2.8 -4.8 -0.3 -4.1 -0.2 -4.2 2.8 -4.2 1.6 0 3.8 -0.4 4.8 -0.9 3.7 -2 18.3 -6.1 21.7 -6.1 l3.5 0 0 14.3 c0 13 -0.2 14.6 -1.9 16.1 -3.1 2.8 -14.7 6.6 -20.1 6.6 l-4.9 0 -0.3 -10.2z"/>
  <path d="M329.7 114.3 c-0.4 -0.3 -0.7 -1.9 -0.7 -3.5 0 -1.5 -0.5 -2.8 -1.1 -2.8 -1.2 0 5.1 -7.8 6.4 -7.9 0.4 -0.1 0.7 1.3 0.7 2.9 0 2 0.5 3 1.5 3 1.1 0 1.5 1.2 1.5 4.5 l0 4.5 -3.8 0 c-2.1 0 -4.2 -0.3 -4.5 -0.7z"/>
  <path d="M350 112.5 c0 -1.8 0.5 -2.5 2 -2.5 1.7 0 2 -0.7 2 -4.5 0 -4.3 0.1 -4.5 3 -4.5 2 0 3 0.5 3 1.5 0 0.9 0.7 1.8 1.5 2.1 1.1 0.4 1.5 2.1 1.5 5.5 l0 4.9 -6.5 0 c-6.3 0 -6.5 -0.1 -6.5 -2.5z"/>
  <path d="M254 112 c0 -2.1 1.6 -2.5 5.8 -1.4 3.9 1.1 2.7 3.4 -1.8 3.4 -3.3 0 -4 -0.3 -4 -2z"/>
  <path d="M277.7 102.6 c3.6 -4.4 4.3 -4.4 4.3 -0.1 0 3.4 -0.2 3.5 -3.6 3.5 l-3.6 0 2.9 -3.4z"/>
  <path d="M146.8 99 c-0.3 -3.6 -0.1 -4 1.9 -4 2 0 2.3 0.5 2.3 4 0 3.3 -0.4 4 -1.9 4 -1.5 0 -2 -0.9 -2.3 -4z"/>
  <path d="M264 99.5 c0 -2.2 0.4 -2.5 3.8 -2.5 l3.7 0.1 -2.8 2.4 c-3.6 3.2 -4.7 3.1 -4.7 0z"/>
  <path d="M304 100 c0 -1.8 0.7 -2 7.5 -2 5.7 0 7.5 0.3 7.5 1.4 0 2 -2.3 2.6 -9.1 2.6 -5.2 0 -5.9 -0.2 -5.9 -2z"/>
  <path d="M236 96.5 c0 -1.9 -0.4 -3.5 -1 -3.5 -0.5 0 -1 -1.6 -1 -3.5 0 -5.5 2.4 -4.3 4.4 2.3 0.9 3.1 1.9 6.3 2.2 7 0.4 0.8 -0.3 1.2 -2 1.2 -2.3 0 -2.6 -0.4 -2.6 -3.5z"/>
  <path d="M320 97 c0 -2.3 0.4 -3 2 -3 2.3 0 2.7 2.9 0.8 4.8 -1.9 1.9 -2.8 1.4 -2.8 -1.8z"/>
  <path d="M334.3 93.6 c0 -4 -0.6 -6.2 -2.2 -8.5 l-2.2 -3.1 3 0 c2.8 0 3.1 0.3 3.1 3 0 1.7 0.5 3 1 3 0.6 0 1 2.5 1 5.5 0 4.7 -0.3 5.5 -1.9 5.5 -1.5 0 -1.8 -0.8 -1.8 -5.4z"/>
  <path d="M249 94.1 c-1.6 -3.1 -1.2 -5.1 1 -5.1 1.6 0 2 0.7 2 3.5 0 3.9 -1.4 4.6 -3 1.6z"/>
  <path d="M114.6 90.8 c-2.2 -17.6 -2.3 -17.8 -6.2 -17.8 -3.2 0 -3.4 -0.2 -3.4 -3.5 0 -3.3 0.2 -3.5 3.5 -3.5 1.9 0 4.3 -0.4 5.3 -1 3.3 -1.8 20 -7 22.6 -7 l2.6 0 0 14.9 c0 14 -0.1 15.1 -2.1 16.4 -1.6 1.2 -1.8 1.7 -0.7 2.3 1.4 0.9 -10.7 3.2 -17.4 3.3 -3.6 0.1 -3.7 0 -4.2 -4.1z"/>
  <path d="M270 90.5 c0 -2.8 0.4 -3.5 2 -3.5 2.1 0 2.4 1 1.4 4.8 -1 3.6 -3.4 2.7 -3.4 -1.3z"/>
  <path d="M320 90 c0 -1.8 -0.7 -2 -8 -2 -7.5 0 -8 -0.1 -8 -2.1 0 -2.1 0.4 -2.1 8 -1.7 5.8 0.3 8.5 1 10 2.3 2.6 2.4 2.6 5.5 0 5.5 -1.3 0 -2 -0.7 -2 -2z"/>
  <path d="M328 79.7 c0 -1.6 4.2 -5.7 5.8 -5.7 0.7 0 1.2 1.5 1.2 3.5 0 3.3 -0.2 3.5 -3.5 3.5 -2.2 0 -3.5 -0.5 -3.5 -1.3z"/>
  <path d="M60 76.6 c0 -1.5 2.1 -2.6 5.1 -2.6 1.2 0 1.9 0.7 1.9 2 0 1.6 -0.7 2 -3.5 2 -2.3 0 -3.5 -0.5 -3.5 -1.4z"/>
  <path d="M234 73.5 c0 -1.9 0.5 -3.5 1 -3.5 0.6 0 1 -1.6 1 -3.5 0 -3.2 -0.2 -3.5 -3 -3.5 -1.6 0 -3 -0.4 -3 -1 0 -0.5 0.7 -1 1.5 -1 1.1 0 1.5 -1.1 1.5 -4 0 -2.9 -0.4 -4 -1.5 -4 -0.8 0 -1.5 -0.4 -1.5 -1 0 -0.5 1.6 -1 3.5 -1 l3.5 0 0.1 6.3 c0.1 3.4 0.4 5.2 0.6 4 0.3 -1.8 1.1 -2.3 3.4 -2.3 l3 0 -2 2.8 c-1.1 1.6 -2.8 5.6 -3.7 9 -1.9 6.9 -4.4 8.4 -4.4 2.7z"/>
  <path d="M316 74.5 c0 -2.1 0.5 -2.5 3 -2.5 4.3 0 3.6 2.6 -1.2 4.3 -1.4 0.5 -1.8 0.1 -1.8 -1.8z"/>
  <path d="M280.5 64 c-2 -3.8 -1.9 -4 1 -4 2.2 0 2.5 0.4 2.5 3.5 0 4.3 -1.4 4.5 -3.5 0.5z"/>
  <path d="M313 63 c0 -2 2.2 -2.6 5.4 -1.4 3 1.2 1.8 3.4 -1.9 3.4 -2.8 0 -3.5 -0.4 -3.5 -2z"/>
  <path d="M256 62.6 c0 -1.7 4.2 -2.8 7.5 -2 4.6 1.1 3 3.4 -2.5 3.4 -3.6 0 -5 -0.4 -5 -1.4z"/>
  <path d="M331.1 60.5 l-2 -3.5 2.9 0 c2.8 0 3 0.3 3 3.5 0 1.9 -0.4 3.5 -0.9 3.5 -0.5 0 -1.8 -1.6 -3 -3.5z"/>
  <path d="M109 54.5 c0 -0.8 -0.7 -1.5 -1.5 -1.5 -1.1 0 -1.5 -1.1 -1.5 -4 0 -3.8 0.2 -4 3 -4 2.9 0 3 -0.2 3 -4.5 0 -3.8 -0.3 -4.5 -2 -4.5 -1.4 0 -2 -0.7 -2 -2.4 0 -2.2 -0.3 -2.3 -4.5 -1.8 -3.7 0.4 -4.5 0.2 -4.5 -1.1 0 -1.1 1.3 -1.8 3.8 -2.2 15.3 -2.6 26.9 -6 35.5 -10.3 0.4 -0.2 0.7 6.2 0.7 14.1 0 12 -0.3 14.8 -1.6 16.2 -5.4 5.4 -28.4 10.3 -28.4 6z"/>
  <path d="M249 52.4 c0 -2.1 0.5 -2.4 3.5 -2.4 2.2 0 3.5 0.5 3.5 1.3 0 0.8 -1.6 1.8 -3.5 2.4 -3.3 1.1 -3.5 1 -3.5 -1.3z"/>
  <path d="M318.8 53.3 c-3.3 -0.8 -2 -3.3 1.7 -3.3 2.8 0 3.5 0.4 3.5 2 0 2 -1.4 2.3 -5.2 1.3z"/>
  <path d="M58 36.6 c0 -1.5 2.1 -2.6 5.1 -2.6 1.2 0 1.9 0.7 1.9 2 0 1.6 -0.7 2 -3.5 2 -2.3 0 -3.5 -0.5 -3.5 -1.4z"/>
  <path d="M71 34.6 c0 -0.7 1 -1.6 2.3 -2 4.1 -1.1 5.7 -0.7 5.7 1.4 0 1.7 -0.7 2 -4 2 -2.7 0 -4 -0.4 -4 -1.4z"/>
 </g>
 <g fill="#d61b21">
  <path d="M58 131.1 l0 -15 3.8 -1 c2 -0.5 8.5 -1.5 14.4 -2.2 10.6 -1.2 13.6 -2.8 5.5 -3 -4.1 -0.1 -4 -0.1 1.8 -1.3 3.3 -0.7 9.8 -1.8 14.5 -2.5 15.5 -2.3 35 -7.6 35 -9.5 0 -0.2 -3 0.4 -6.7 1.5 -9.9 2.8 -28.3 5.9 -40 6.6 -5.7 0.3 -10.3 1 -10.3 1.5 0 0.5 -3.9 0.7 -8.7 0.6 l-8.8 -0.3 -0.3 -15.7 c-0.2 -14.5 -0.1 -15.8 1.5 -15.9 1 0 2.7 -0.2 3.8 -0.5 1.1 -0.2 6 -0.9 11 -1.5 10.3 -1.4 15.1 -2.7 9.8 -2.8 -1.8 -0.1 -3.3 -0.5 -3.3 -1.1 0 -0.5 1.5 -1.1 3.3 -1.4 22.8 -3.2 30.3 -4.6 39.7 -7.5 3.6 -1.1 7.4 -2.7 8.5 -3.5 1.7 -1.3 1.4 -1.3 -2.5 0 -10.7 3.7 -49 10 -54.2 9 -1.5 -0.3 -2.8 -0.1 -2.8 0.4 0 1.1 -7.1 1.3 -11.9 0.4 l-3.1 -0.6 0 -15.4 c0 -8.5 0.3 -15.4 0.8 -15.5 0.4 0 1.6 -0.2 2.7 -0.5 1.1 -0.2 5.4 -0.9 9.5 -1.4 17.8 -2.2 41.9 -6.1 47.3 -7.5 3.2 -0.8 6.1 -1.5 6.5 -1.4 1.5 0.1 -6.4 2.8 -8.5 2.8 -2.8 0.1 -2.9 0.9 -0.5 2.7 1.4 1 1.5 1.5 0.5 2.5 -0.9 0.9 -1.3 4.4 -1.3 10.1 0 7.2 -0.3 8.9 -1.7 9.7 -1.6 0.9 -1.6 1 -0.1 1.1 2.8 0 14.1 -3.1 18.6 -5.2 l4.3 -2.1 -0.2 -12.9 c-0.1 -10.8 0.2 -13.3 1.5 -14.6 1.5 -1.5 1.6 -0.4 1.6 13.5 0 13.9 -0.2 15.4 -2 17.1 -1.9 1.8 -1.9 1.8 0 3.5 1.8 1.5 2 3 2 18.2 0 15.2 -0.2 16.7 -2 18.2 -2 1.7 -2 1.7 0 3.8 1.9 2 2 3.3 1.8 19.1 l-0.3 16.8 -3.2 2.2 c-5.6 3.7 -25.4 8.3 -49.8 11.4 -9.2 1.2 -19.8 2.7 -24.7 3.6 l-2.8 0.6 0 -15.1z m63.5 0.9 c0.3 -0.5 2 -1 3.6 -1 3.1 0 8.9 -2.5 10.1 -4.4 0.9 -1.3 1.1 -24.6 0.3 -24.6 -1.1 0 -17 5.2 -18.7 6.1 -1 0.5 -3.2 0.9 -4.9 0.9 -3.6 0 -3.5 2.1 0.2 3 2.3 0.6 2.4 0.9 2.7 10.8 l0.3 10.2 2.9 0 c1.6 0 3.2 -0.4 3.5 -1z m3 -41.1 c3.2 -0.6 7.1 -2 8.6 -3.2 l2.9 -2.1 0 -12.1 0 -12.2 -9.7 3.3 c-5.9 1.9 -9.8 3.8 -9.8 4.6 0 0.7 1 1.3 2.3 1.2 3.3 -0.1 2.7 1.3 -0.9 2 -2.5 0.5 -3 0.9 -2.4 2.3 0.5 1 1 3.4 1.2 5.3 0.8 7.5 1.4 12 1.7 12 0.1 0 2.9 -0.5 6.1 -1.1z"/>
  <path d="M145.8 138.7 c0.7 -0.8 1.2 -8.9 1.3 -21.7 0.1 -20.3 0.1 -20.3 -2.2 -22.1 l-2.4 -1.8 2.3 -2.1 c2.1 -2 2.2 -2.6 2.2 -22.5 0 -20.2 0 -20.4 -2.3 -22.2 l-2.4 -1.8 2.4 -1.8 c2.1 -1.7 2.3 -2.5 2.3 -11.7 l0 -10 114 0 c100.7 0 114 0.2 114 1.5 0 1.2 -1.7 1.5 -9.5 1.5 l-9.5 0 0 3 0 3 8.5 0 c8.4 0 8.5 0 8.5 -2.5 0 -1.5 0.6 -2.5 1.4 -2.5 1.2 0 1.3 1.8 0.9 9.7 -0.3 5.4 -0.8 11.2 -1.2 12.8 -0.7 3 -0.8 3 -8.5 3.3 -6.9 0.3 -7.7 0.5 -7.1 2 0.4 0.9 0.8 3.5 0.9 5.7 l0.1 4 7.3 0.3 7.2 0.3 0 3.4 0 3.4 -6.5 0.3 c-9 0.4 -8.7 2.2 0.3 2.6 l7.4 0.3 -0.4 -11.6 c-0.3 -13.2 -0.8 -12.5 8.9 -12.4 4.9 0.1 6.3 0.4 6.7 1.7 0.3 0.9 0.7 10.5 0.8 21.2 0.2 10.7 0.6 19.8 1.1 20.1 0.4 0.3 0.2 4.6 -0.5 9.5 l-1.3 8.9 -6.3 0.3 c-3.8 0.2 -6.9 -0.2 -7.8 -0.9 -1.2 -1 -1.4 0.9 -1.4 12.9 0 7.7 -0.3 14.7 -0.6 15.6 -0.6 1.4 -11.6 1.6 -115.1 1.6 -93.5 0 -114.3 -0.2 -113.5 -1.3z m189.2 -28.2 c0 -0.8 -0.4 -1.5 -0.9 -1.5 -1.3 0 -2.2 1.6 -1.4 2.4 1.1 1.1 2.3 0.6 2.3 -0.9z m25 -0.4 c0 -1 -0.7 -2.1 -1.5 -2.5 -0.8 -0.3 -1.5 -1.2 -1.5 -2.1 0 -0.8 -0.4 -1.5 -1 -1.5 -1.1 0 -1.4 6.3 -0.3 7.3 1.4 1.5 4.3 0.7 4.3 -1.2z m-92.4 -0.6 c5.8 -1.8 10.5 -5.8 13.5 -11.7 1.8 -3.3 2.4 -6.5 2.7 -14 0.7 -15 -2.7 -23.3 -11.3 -28.3 -9.3 -5.5 -20.1 -4.2 -27.6 3.4 -5.5 5.5 -7.9 12.4 -7.9 22.6 0 14.5 5.7 24.2 16.6 28 5.1 1.8 8 1.8 14 0z m-60.6 -24 l0 -24.4 13.2 -0.3 13.2 -0.3 0 -3.5 0 -3.5 -18.2 -0.3 -18.2 -0.2 0 28.5 0 28.5 5 0 5 0 0 -24.5z m120.2 21.2 c4.1 -2.3 4.9 -3.5 6.4 -8.1 1.5 -4.7 1.5 -5.8 0.3 -9.7 -0.9 -2.8 -2.5 -5.1 -4.5 -6.4 l-3.1 -2.1 3.4 -3.8 c3.3 -3.6 3.5 -4.1 3.1 -9.7 -0.8 -10.9 -6.1 -13.8 -25.5 -13.9 l-13.3 0 0 28.6 0 28.6 14.3 -0.4 c13.4 -0.3 14.5 -0.5 18.9 -3.1z m26.8 -9.2 l0 -12.5 12.5 0 12.5 0 0 12.6 0 12.5 5.3 -0.3 5.2 -0.3 0 -28 0 -28 -5.2 -0.3 -5.3 -0.3 0 11.5 0 11.6 -12.5 0 -12.5 0 0 -11.5 0 -11.5 -5 0 -5 0 0 28.5 0 28.5 5 0 5 0 0 -12.5z m21.8 -1.1 l0.1 -9.4 -9 0 c-8.7 0 -8.9 0.1 -7.9 2 0.9 1.7 2.1 2 8 2 l7 0 0 8.8 c0 5.1 0.4 8.2 0.9 7.4 0.4 -0.8 0.9 -5.6 0.9 -10.8z m-24.8 -48.8 c0 -0.9 -4 -1.3 -4.6 -0.5 -0.3 0.5 0.6 0.9 2 0.9 1.4 0 2.6 -0.2 2.6 -0.4z"/>
  <path d="M253.1 99.5 c-4.3 -3.7 -6.4 -11 -5.9 -20.4 0.8 -12.8 4.7 -18.2 13.2 -18.3 9.1 -0.2 13.5 6.2 13.6 19.7 0 10.1 -1.4 15.1 -5.2 18.7 -4.1 3.8 -11.3 4 -15.7 0.3z"/>
  <path d="M304 93 l0 -8.9 8.2 0.4 c7 0.3 8.6 0.7 10 2.6 3.6 4.3 1.3 13.6 -3.4 14 -0.7 0.1 -4.3 0.3 -8 0.5 l-6.8 0.3 0 -8.9z"/>
  <path d="M304 68.9 l0 -8 7.1 0.2 c8.3 0.2 11.9 2.3 11.9 6.9 0 6.5 -3.6 9 -13 9 l-6 0 0 -8.1z"/>
  <path d="M412.9 110.2 c-10.7 -3.2 -15.4 -11.3 -17.4 -29.5 -0.4 -3.3 -0.2 -7.1 0.3 -8.5 0.5 -1.5 1.5 -4.5 2.2 -6.7 1.6 -4.9 7.7 -12.4 10.7 -13.1 1.2 -0.3 2.7 -1.2 3.4 -2 1.6 -2 12.8 -1.8 18.1 0.2 5.5 2.2 12.2 8.5 14.9 14.2 1.6 3.6 2.1 6.4 2 14 0 5.2 -0.2 9.7 -0.5 10 -0.3 0.3 -0.6 -3.1 -0.6 -7.5 0 -18.9 -8.8 -29.4 -24.7 -29.3 -8.9 0.1 -17.9 7.6 -20.7 17.3 -3.3 11.2 -1.2 26.1 4.6 33.1 3.6 4.4 7.5 6.5 14.8 8.2 4.6 1 4.9 1.2 2 1.2 -1.9 0 -6 -0.7 -9.1 -1.6z"/>
  <path d="M399 109.6 c0 -0.9 0.7 -1.6 1.6 -1.6 1.7 0 1.4 2.2 -0.4 2.8 -0.7 0.2 -1.2 -0.3 -1.2 -1.2z"/>
  <path d="M427 110.3 c6.9 -2.3 7.3 -2.3 6 -0.8 -0.7 0.8 -2.7 1.5 -4.4 1.4 -1.7 0 -2.4 -0.3 -1.6 -0.6z"/>
  <path d="M455 109 c-2.4 -2.4 -2.7 -7 -0.5 -7 1 0 1.5 1 1.5 2.9 0 3.2 1.4 4.7 5 5.4 2.1 0.4 2 0.4 -0.7 0.6 -2.1 0.1 -4 -0.6 -5.3 -1.9z"/>
  <path d="M437.2 105.5 c1.5 -1.6 3 -2.6 3.3 -2.3 0.4 0.3 -0.9 1.6 -2.7 2.8 l-3.3 2.3 2.7 -2.8z"/>
  <path d="M466.7 106 c0.3 -1.2 -0.2 -2.9 -1.2 -4 -1.9 -2.1 -6.9 -2.7 -8 -1 -0.3 0.5 -1.2 0.7 -2.1 0.3 -2.4 -0.9 1.3 -4.3 4.6 -4.3 4.5 0 10.2 8.5 7.1 10.4 -0.5 0.4 -0.7 -0.3 -0.4 -1.4z"/>
  <path d="M415.6 99.9 c-4.9 -3.8 -6.1 -7.5 -6 -18.4 0 -15.1 3.6 -20.8 13.1 -20.8 5.5 0 9 2.5 11.5 8 1.7 3.8 2 6.2 1.6 14.2 -0.4 10.7 -2.5 15.7 -7.3 17.9 -4.1 1.9 -9.9 1.5 -12.9 -0.9z m12.6 -3.1 c3.6 -2.5 5.1 -8.4 4.5 -17.3 -0.6 -8.3 -1.1 -11 -3.1 -13.9 -1.5 -2.4 -8.3 -5 -9.2 -3.5 -0.3 0.5 -1.4 0.9 -2.4 0.9 -2.5 0 -6.4 5 -5 6.4 1.4 1.4 1.3 2.6 -0.4 2.6 -1.6 0 -2.6 8.2 -1.8 14.2 0.4 3 0.8 3.6 1.7 2.8 1 -0.8 1.5 -0.7 2.1 0.1 0.4 0.7 0.2 1.5 -0.4 1.7 -2.2 0.7 -1.3 3.7 1.9 6.3 3.6 2.9 7.7 2.8 12.1 -0.3z"/>
  <path d="M455.6 93.1 c-2.1 -2.3 -2.2 -8.1 -0.1 -8.1 1.1 0 1.5 1.1 1.5 4 0 3.9 0.1 4 3.7 4 4.2 0 4.1 0.5 -0.3 1.3 -2.3 0.4 -3.6 0.1 -4.8 -1.2z"/>
  <path d="M466.3 61 c0 -4.1 0.2 -5.8 0.4 -3.7 0.2 2 0.2 5.4 0 7.5 -0.2 2 -0.4 0.3 -0.4 -3.8z"/>
  <path d="M453 59 c0 -3.8 0.4 -5 1.5 -5 1.1 0 1.5 1.2 1.5 5 0 3.8 -0.4 5 -1.5 5 -1.1 0 -1.5 -1.2 -1.5 -5z"/>
  <path d="M455 52 c-2.7 -1.7 0.3 -2.8 5.8 -2.3 3.5 0.4 5.2 1 5.2 1.9 0 1.6 -8.6 2 -11 0.4z"/>
 </g>
 <g fill="#76373a">
  <path d="M61.6 107.2 c-7.2 -1.7 -1.3 -4.8 6.6 -3.6 2.7 0.5 4.3 0.3 4.7 -0.5 0.5 -0.7 3.4 -1.2 7.2 -1.3 3.5 0 6.7 -0.5 7 -1.1 0.4 -0.5 2.2 -0.7 4.3 -0.3 2.7 0.5 3.6 1.2 3.6 2.6 0 1.7 -0.7 2 -4.6 2 -2.5 0 -5.5 0.5 -6.6 1.1 -2.5 1.3 -17.9 2 -22.2 1.1z"/>
  <path d="M106 105.5 c0 -2.3 0.4 -2.5 4.5 -2.5 3.7 0 4.5 0.3 4.5 1.9 0 1.9 -2.5 3.1 -6.7 3.1 -1.8 0 -2.3 -0.6 -2.3 -2.5z"/>
  <path d="M63.3 66.8 c-2.9 -0.5 -5.3 -1.3 -5.3 -1.8 0 -1.2 3.8 -1.9 7.5 -1.3 2.4 0.4 3.9 0.1 5.1 -1.1 1.2 -1.3 2.4 -1.5 4.3 -1 1.4 0.4 3.4 0.7 4.4 0.8 1.1 0 1.7 0.8 1.7 2.2 0 1.8 -0.8 2.2 -4.6 2.8 -5.5 0.7 -6.2 0.7 -13.1 -0.6z"/>
  <path d="M115.2 63.3 c0.3 -2.4 0.8 -2.8 4.1 -3.1 2 -0.2 3.7 -0.7 3.7 -1.3 0 -0.5 2 -0.9 4.5 -0.9 3.7 0 4.5 0.3 4.5 1.8 0 1.5 -1.7 2.4 -7.4 4 -9.5 2.8 -9.8 2.8 -9.4 -0.5z"/>
 </g>
 <g fill="#373736">
  <path d="M74 109 c-6.9 -1.1 -13.2 -2 -14 -2.1 -2.8 -0.3 6.5 -2.1 12.8 -2.5 3.4 -0.2 7.1 -0.8 8.2 -1.4 1 -0.5 3.4 -1 5.4 -1 1.9 0 5.7 -0.5 8.4 -1.2 5.9 -1.3 8.2 0.1 8.2 5 0 2.7 -0.4 3.1 -3.7 3.6 -9.6 1.4 -13.6 1.3 -25.3 -0.4z"/>
  <path d="M80.9 69.6 c-0.3 -0.3 -4.6 -1 -9.7 -1.7 -7.5 -0.9 -9 -1.4 -8.1 -2.5 0.7 -0.9 3.3 -1.3 7.4 -1.3 3.5 0.1 7 -0.3 7.6 -0.7 1.4 -0.8 16.9 -3.3 21.2 -3.4 2.5 0 2.7 0.3 2.7 4.4 0 4.2 -0.1 4.4 -3.7 5 -4.4 0.7 -16.8 0.8 -17.4 0.2z"/>
 </g>
 <g fill="#1f2120">
  <path d="M88 110.2 c0 -0.4 1.9 -0.9 4.2 -1.1 2.3 -0.1 4.5 -0.7 4.9 -1.2 0.3 -0.6 1 -1 1.5 -0.9 0.5 0.1 1 -0.3 1.2 -0.9 0.2 -0.6 -0.1 -1.1 -0.7 -1.1 -0.6 0 -1.1 -0.9 -1.1 -2.1 0 -1.6 -0.4 -1.9 -1.7 -1.4 -1 0.4 -4.5 0.9 -7.8 1.1 l-6 0.3 5.5 -0.9 c8 -1.2 27 -4.7 30.3 -5.5 2.7 -0.7 2.7 -0.6 2.7 3.8 0 2.5 -0.5 4.9 -1.1 5.3 -0.6 0.3 -3.3 0.7 -6 0.7 -2.7 0 -4.9 0.4 -4.9 0.7 0 0.6 -4.7 1.5 -17.7 3.6 -1.8 0.3 -3.3 0.1 -3.3 -0.4z"/>
  <path d="M92.2 69.1 c5.8 -0.8 7.3 -2.1 6.4 -5.5 -0.5 -2.2 -1.1 -2.5 -3.4 -2.2 -8.1 1.3 -12 1.4 -5.2 0.1 22.1 -4.3 30 -5.6 31 -5 1.6 1 1.2 6.5 -0.5 6.5 -0.7 0 -1.8 0.6 -2.2 1.3 -0.4 0.8 -3.7 1.9 -7.3 2.6 -3.6 0.7 -8.7 1.7 -11.3 2.2 -2.6 0.5 -6.5 0.8 -8.5 0.8 -3.5 -0.2 -3.4 -0.2 1 -0.8z"/>
 </g>
 <g fill="#0c0c0a">
  <path d="M97.3 108.7 c0 -0.8 0.6 -1.4 1.4 -1.4 0.7 0 1.2 0.5 1 1.1 -0.5 1.5 -2.4 1.8 -2.4 0.3z"/>
  <path d="M101 108.2 c0 -0.4 1.9 -0.9 4.2 -1.1 5 -0.3 4.8 0.4 -0.4 1.3 -2.1 0.4 -3.8 0.3 -3.8 -0.2z"/>
  <path d="M112 105.9 c0 -0.5 0.4 -0.8 0.9 -0.4 1.3 0.8 5.2 -3.6 4.9 -5.5 -0.4 -1.6 -1.9 -1.6 -11 0.1 -3.1 0.6 -6.2 0.9 -6.9 0.7 -0.7 -0.2 3.7 -1.4 9.7 -2.6 6.1 -1.2 14.4 -3.3 18.5 -4.7 7.2 -2.4 7.4 -2.4 9.2 -0.6 1.3 1.2 1.7 2.6 1.3 3.9 -0.9 2.7 -9 6.5 -18.3 8.6 -8.5 1.9 -8.3 1.9 -8.3 0.5z"/>
  <path d="M98 68.2 c0 -0.6 0.8 -0.9 1.7 -0.8 2.9 0.5 16.7 -2.5 17.5 -3.7 0.5 -0.8 0.8 -0.7 0.8 0.4 0 1.1 -1.7 1.9 -6.2 2.7 -12.3 2.3 -13.8 2.4 -13.8 1.4z"/>
  <path d="M120.8 63.3 c-0.9 -0.2 -1.9 -1.5 -2.2 -2.9 -0.6 -2.4 -0.9 -2.5 -6.9 -1.9 -6.2 0.5 -6.1 0.5 2.3 -1.4 4.7 -1.1 11.2 -2.9 14.5 -4 6.5 -2.3 9.1 -2 10 1 1.2 3.7 -5.4 8.5 -10 7.3 -1.9 -0.5 -2.5 -0.2 -2.5 1 0 1.6 -1.7 1.9 -5.2 0.9z"/>
  <path d="M100.5 60 c0.3 -0.5 1.2 -1 2 -1 0.8 0 1.7 0.5 2 1 0.4 0.6 -0.5 1 -2 1 -1.5 0 -2.4 -0.4 -2 -1z"/>
 </g>
</svg>