<!DOCTYPE svg PUBLIC "-//W3C//DTD SVG 20010904//EN" "http://www.w3.org/TR/2001/REC-SVG-20010904/DTD/svg10.dtd">
<svg version="1.0" xmlns="http://www.w3.org/2000/svg" width="512px" height="160px" viewBox="0 0 5120 1600" preserveAspectRatio="xMidYMid meet">
<g id="layer101" fill="#ec701f" stroke="none">
<path d="M425 1101 c-230 -269 -421 -493 -422 -498 -5 -13 354 -506 380 -524 10 -7 414 -51 467 -52 19 0 133 11 252 23 l217 23 46 64 47 63 1854 0 1854 0 0 605 0 605 -2057 1 -2058 0 -75 90 c-41 49 -77 89 -80 89 -3 0 -194 -221 -425 -489z"/>
</g>
<g id="layer102" fill="#fbae13" stroke="none">
<path d="M425 1101 c-230 -269 -421 -493 -422 -498 -5 -13 354 -506 380 -524 10 -7 414 -51 467 -52 19 0 133 11 252 23 l217 23 46 64 47 63 1854 0 1854 0 0 605 0 605 -2057 1 -2058 0 -75 90 c-41 49 -77 89 -80 89 -3 0 -194 -221 -425 -489z m393 292 c-7 -16 -22 -44 -33 -63 -12 -19 -63 -118 -115 -220 -125 -250 -251 -493 -260 -503 -3 -4 -71 -6 -149 -5 l-143 3 224 260 c344 401 478 554 485 555 2 0 -3 -12 -9 -27z m453 -426 c170 -196 309 -360 309 -362 0 -3 -65 -5 -144 -5 l-145 0 -14 28 c-7 15 -85 166 -172 337 -86 171 -175 344 -197 385 l-39 75 46 -50 c25 -27 185 -211 356 -408z"/>
</g>
<g id="layer103" fill="#fbd408" stroke="none">
<path d="M425 1101 c-230 -269 -421 -493 -422 -498 -5 -13 354 -506 380 -524 10 -7 414 -51 467 -52 19 0 133 11 252 23 l216 23 134 180 c73 99 159 218 191 264 60 86 61 89 27 123 -6 6 -126 144 -156 180 -12 14 -118 138 -236 275 -118 138 -223 261 -234 273 -10 13 -29 36 -42 50 -13 15 -51 60 -85 100 -34 39 -64 72 -67 72 -3 0 -194 -221 -425 -489z m786 -62 c195 -226 360 -419 367 -428 11 -16 -1 -37 -96 -167 -60 -82 -132 -179 -160 -216 l-51 -68 4 88 c3 48 7 137 10 197 2 61 2 120 -1 133 l-6 22 -440 0 -439 -1 7 -22 c9 -29 22 -368 14 -384 -3 -7 -32 24 -70 75 -193 261 -230 313 -230 325 0 8 104 135 231 283 128 148 291 338 363 422 71 83 133 152 136 152 4 0 166 -185 361 -411z"/>
</g>
<g id="layer104" fill="#feedad" stroke="none">
<path d="M425 1101 c-230 -269 -421 -493 -422 -498 -5 -13 354 -506 380 -524 10 -7 414 -51 467 -52 19 0 133 11 252 23 l216 23 134 180 c73 99 159 218 191 264 60 86 61 89 27 123 -6 6 -126 144 -156 180 -12 14 -118 138 -236 275 -118 138 -223 261 -234 273 -10 13 -29 36 -42 50 -13 15 -51 60 -85 100 -34 39 -64 72 -67 72 -3 0 -194 -221 -425 -489z m786 -62 c195 -226 360 -419 367 -428 13 -18 6 -28 -258 -387 -50 -69 -27 -61 -250 -85 -187 -20 -210 -21 -210 -11 0 6 3 12 8 14 4 2 59 59 122 128 63 69 138 150 166 180 82 88 124 137 124 144 0 3 -193 6 -430 6 -236 0 -430 -3 -430 -6 0 -7 49 -63 149 -169 37 -38 104 -113 151 -165 47 -52 93 -102 102 -111 37 -34 39 -34 -192 -9 -47 5 -111 12 -143 16 l-58 7 -113 151 c-184 247 -196 265 -196 279 0 8 104 135 231 283 128 148 291 338 363 422 71 83 133 152 136 152 4 0 166 -185 361 -411z"/>
</g>
<g id="layer105" fill="#fffef7" stroke="none">
<path d="M425 1101 c-230 -269 -421 -493 -422 -498 -5 -13 354 -506 380 -524 10 -7 414 -51 467 -52 19 0 133 11 252 23 l216 23 134 180 c73 99 159 218 191 264 60 86 61 89 27 123 -6 6 -126 144 -156 180 -12 14 -118 138 -236 275 -118 138 -223 261 -234 273 -10 13 -29 36 -42 50 -13 15 -51 60 -85 100 -34 39 -64 72 -67 72 -3 0 -194 -221 -425 -489z m786 -62 c195 -226 360 -419 367 -428 13 -18 5 -30 -258 -387 l-45 -61 -110 -12 c-60 -7 -140 -16 -177 -22 -85 -11 -176 -12 -270 0 -40 5 -122 15 -181 22 l-109 12 -112 151 c-184 247 -196 265 -196 279 0 8 104 135 231 283 128 148 291 338 363 422 71 83 133 152 136 152 4 0 166 -185 361 -411z"/>
<path d="M846 150 c-15 -5 -16 -9 -7 -14 7 -5 18 -3 24 3 14 14 6 20 -17 11z"/>
<path d="M1965 1087 c-3 -7 -4 -134 -3 -282 l3 -270 182 -3 183 -2 6 24 c14 59 10 61 -129 64 l-127 3 0 239 0 240 -55 0 c-36 0 -57 -5 -60 -13z"/>
<path d="M2505 1084 c-72 -39 -117 -106 -135 -201 -15 -73 -1 -172 32 -237 87 -170 335 -164 418 11 20 40 23 65 24 153 1 98 -1 109 -29 165 -21 42 -43 69 -73 90 -39 27 -53 30 -125 33 -61 2 -90 -2 -112 -14z m171 -95 c37 -31 49 -72 49 -174 0 -113 -15 -154 -65 -180 -64 -33 -128 -9 -154 57 -48 118 -18 276 58 309 27 11 92 5 112 -12z"/>
<path d="M2937 1093 c-4 -3 -7 -132 -7 -286 l0 -279 148 4 c165 4 211 18 245 76 33 57 15 156 -34 182 -19 11 -19 12 13 33 63 43 69 157 11 219 -42 44 -101 58 -243 58 -70 0 -130 -3 -133 -7z m249 -93 c57 -22 72 -83 29 -125 -21 -22 -33 -25 -95 -25 l-70 0 0 80 0 80 54 0 c30 0 67 -5 82 -10z m-9 -241 c35 -13 43 -25 43 -71 0 -51 -27 -68 -107 -68 l-63 0 0 75 0 75 49 0 c27 0 62 -5 78 -11z"/>
<path d="M3447 1093 c-4 -3 -7 -132 -7 -285 l0 -278 60 0 60 0 0 115 0 115 115 0 115 0 0 -115 0 -115 54 0 c30 0 56 4 58 10 2 5 2 134 0 285 l-3 275 -54 0 -55 0 0 -125 0 -125 -115 0 -115 0 0 125 0 125 -53 0 c-30 0 -57 -3 -60 -7z"/>
<path d="M4108 1071 c-53 -34 -80 -69 -102 -134 -20 -61 -21 -178 0 -246 32 -109 147 -184 256 -167 131 21 208 127 208 285 -1 132 -35 209 -117 262 -41 26 -56 29 -123 29 -67 0 -82 -4 -122 -29z m198 -92 c31 -29 44 -77 44 -160 0 -91 -8 -122 -39 -159 -20 -25 -36 -33 -72 -37 -38 -4 -50 -1 -77 22 -42 35 -55 88 -50 198 4 93 20 129 69 155 33 18 96 8 125 -19z"/>
<path d="M4573 1088 c-36 -46 -14 -98 41 -98 57 0 87 58 48 93 -22 20 -75 22 -89 5z"/>
<path d="M4567 853 c-4 -38 -7 -126 -7 -196 l0 -128 58 3 57 3 -3 115 c-1 63 -5 150 -8 193 l-6 77 -43 0 -42 0 -6 -67z"/>
</g>


</svg>