<!DOCTYPE svg PUBLIC "-//W3C//DTD SVG 20010904//EN" "http://www.w3.org/TR/2001/REC-SVG-20010904/DTD/svg10.dtd">
<svg version="1.0" xmlns="http://www.w3.org/2000/svg" width="512px" height="160px" viewBox="0 0 5120 1600" preserveAspectRatio="xMidYMid meet">
<g id="layer101" fill="#6cb544" stroke="none">
 <path d="M560 1580 c-41 -11 -113 -39 -160 -62 -69 -34 -103 -60 -180 -138 -78 -77 -104 -111 -138 -180 -58 -117 -82 -218 -82 -348 0 -126 18 -206 70 -317 131 -279 415 -449 720 -432 116 6 254 49 347 107 l61 38 48 -114 c26 -63 50 -111 54 -107 4 4 20 45 35 90 l27 83 1879 0 1879 0 0 605 0 605 -1916 0 -1916 0 4 -25 c5 -24 3 -23 -36 13 -90 82 -185 137 -300 174 -94 30 -298 34 -396 8z"/>
 </g>
<g id="layer102" fill="#f6fbf2" stroke="none">
 <path d="M560 1580 c-41 -11 -113 -39 -160 -62 -69 -34 -103 -60 -180 -138 -78 -77 -104 -111 -138 -180 -58 -117 -82 -218 -82 -348 0 -126 18 -206 70 -317 131 -279 415 -449 720 -432 116 6 254 49 347 107 l61 38 48 -114 c26 -63 50 -111 55 -107 8 9 98 285 128 393 94 341 86 568 -25 780 -93 177 -252 310 -449 373 -93 29 -297 33 -395 7z m390 -99 c202 -64 359 -227 431 -446 20 -60 24 -90 23 -215 0 -156 -14 -238 -77 -448 -30 -101 -41 -119 -54 -85 -4 10 -17 35 -30 56 l-24 38 -44 -39 c-105 -93 -271 -152 -425 -152 -274 0 -522 170 -621 425 -75 193 -54 413 56 590 24 39 57 83 74 99 l31 30 0 -30 c0 -37 16 -54 52 -54 33 0 63 39 53 70 -8 26 -41 43 -69 36 -36 -9 30 39 114 83 121 63 207 80 355 70 49 -4 119 -16 155 -28z"/>
 <path d="M651 1246 c160 -54 245 -98 327 -169 99 -84 190 -211 227 -317 16 -46 12 -71 -4 -27 -12 31 -73 120 -110 161 -55 61 -180 151 -266 192 -82 40 -370 124 -424 124 -30 0 -72 -40 -97 -94 -59 -127 -8 -301 114 -391 71 -52 149 -74 297 -85 168 -13 213 -24 311 -71 89 -44 178 -117 226 -187 l32 -47 24 75 c64 204 86 402 58 534 -23 110 -58 176 -127 240 -100 93 -206 116 -529 115 l-215 -1 156 -52z"/>
 <path d="M2545 1103 c-123 -29 -185 -96 -206 -223 -11 -69 1 -171 27 -225 68 -144 274 -178 381 -63 86 92 96 302 20 415 -46 68 -150 113 -222 96z m112 -127 c12 -15 27 -45 34 -69 15 -56 7 -183 -14 -224 -32 -61 -111 -81 -161 -42 -44 35 -56 69 -57 172 -1 104 11 139 58 177 39 30 108 23 140 -14z"/>
 <path d="M4153 1099 c-89 -17 -152 -75 -178 -163 -22 -73 -19 -194 6 -260 42 -114 155 -174 275 -147 77 18 145 83 168 160 20 68 21 182 1 247 -36 120 -148 187 -272 163z m123 -120 c32 -30 44 -77 44 -172 0 -122 -32 -175 -113 -184 -36 -4 -48 -1 -74 21 -44 37 -56 82 -51 192 4 101 19 135 69 162 33 18 96 8 125 -19z"/>
 <path d="M4563 1100 c-52 -21 -51 -90 2 -110 72 -28 120 76 50 108 -14 7 -27 12 -28 11 -1 0 -12 -4 -24 -9z"/>
 <path d="M1936 1083 c-4 -9 -6 -137 -6 -285 l2 -268 189 0 189 0 0 45 0 45 -130 0 -130 0 0 240 0 240 -54 0 c-41 0 -55 -4 -60 -17z"/>
 <path d="M2900 814 l0 -286 148 4 c165 4 209 17 243 72 36 58 18 160 -33 187 l-22 12 27 14 c48 24 75 103 56 162 -29 92 -98 121 -291 121 l-128 0 0 -286z m286 174 c8 -8 17 -31 21 -50 4 -30 1 -41 -20 -62 -23 -23 -34 -26 -97 -26 l-70 0 0 81 0 82 76 -5 c47 -3 81 -11 90 -20z m-39 -229 c35 -13 43 -25 43 -71 0 -51 -27 -68 -107 -68 l-63 0 0 75 0 75 49 0 c27 0 62 -5 78 -11z"/>
 <path d="M3410 815 l0 -285 60 0 60 0 0 115 0 115 115 0 115 0 0 -115 0 -115 60 0 60 0 -2 283 -3 282 -57 3 -58 3 0 -126 0 -125 -115 0 -115 0 0 125 0 125 -60 0 -60 0 0 -285z"/>
 <path d="M4537 838 c-4 -46 -7 -134 -7 -195 l0 -113 59 0 58 0 -4 173 c-5 225 -3 217 -57 217 l-43 0 -6 -82z"/>
 </g>

</svg>