<!DOCTYPE svg PUBLIC "-//W3C//DTD SVG 20010904//EN" "http://www.w3.org/TR/2001/REC-SVG-20010904/DTD/svg10.dtd">
<svg version="1.0" xmlns="http://www.w3.org/2000/svg" width="512px" height="160px" viewBox="0 0 5120 1600" preserveAspectRatio="xMidYMid meet">
<g id="layer101" fill="#313131" stroke="none">
<path d="M530 1501 c-43 -22 -80 -74 -80 -112 0 -19 -5 -29 -15 -29 -8 0 -62 25 -120 55 -57 30 -116 55 -130 55 -68 0 -122 -63 -111 -130 5 -30 2 -41 -19 -60 -101 -95 -55 -288 87 -361 l38 -19 0 -74 c0 -58 5 -83 25 -122 17 -33 25 -65 25 -100 0 -102 61 -149 245 -187 l107 -23 42 -59 c30 -43 56 -67 95 -87 97 -51 172 -36 304 58 46 33 49 34 150 34 l102 0 32 -52 c77 -128 161 -190 261 -191 70 0 116 22 144 69 l20 34 1694 0 1694 0 0 605 0 605 -2105 0 -2104 0 -57 40 c-32 22 -80 47 -108 55 -71 21 -173 19 -216 -4z"/>
</g>
<g id="layer102" fill="#f1634a" stroke="none">
<path d="M530 1501 c-43 -22 -80 -74 -80 -112 0 -19 -5 -29 -15 -29 -8 0 -62 25 -120 55 -57 30 -116 55 -130 55 -68 0 -122 -63 -111 -130 5 -30 2 -41 -19 -60 -101 -95 -55 -288 87 -361 l38 -19 0 -74 c0 -58 5 -83 25 -122 17 -33 25 -65 25 -100 0 -102 61 -149 245 -187 l107 -23 42 -59 c30 -43 56 -67 95 -87 97 -51 172 -36 304 58 46 33 49 34 150 34 l102 0 32 -52 c77 -128 161 -190 261 -191 70 0 116 22 144 69 l20 34 1694 0 1694 0 0 605 0 605 -2105 0 -2104 0 -57 40 c-32 22 -80 47 -108 55 -71 21 -173 19 -216 -4z m241 -118 c76 -41 178 -156 232 -260 25 -49 71 -162 102 -253 32 -91 73 -201 91 -245 19 -44 34 -81 34 -82 0 -11 -57 0 -90 17 -48 24 -68 53 -109 157 -70 176 -171 299 -171 209 0 -38 49 -174 96 -269 24 -48 44 -89 44 -92 0 -13 -75 -3 -109 15 -56 28 -81 62 -172 240 -75 146 -109 190 -109 142 0 -28 75 -278 108 -363 l30 -74 53 -12 c61 -14 255 -38 377 -48 45 -4 82 -11 82 -16 0 -13 -162 -10 -330 5 -80 8 -147 12 -149 10 -6 -5 45 -88 68 -108 26 -24 19 -36 -22 -36 -58 0 -106 43 -163 145 -9 16 -39 26 -144 47 -143 29 -185 49 -185 89 0 30 0 30 154 -15 68 -20 126 -35 127 -33 2 2 -14 51 -36 109 -50 133 -90 287 -90 347 0 60 21 91 62 91 49 0 93 -57 191 -245 94 -181 99 -188 41 -56 -41 93 -57 199 -34 226 18 21 77 19 116 -6 19 -11 54 -44 79 -72 l46 -52 -45 103 c-25 56 -67 139 -93 184 -48 83 -139 188 -161 188 -18 0 -25 -25 -18 -56 8 -31 105 -135 153 -165 40 -25 45 -59 9 -59 -39 0 -207 47 -328 91 -116 42 -297 130 -324 156 -32 33 1 32 61 -2 102 -57 221 -104 354 -141 152 -42 172 -42 101 -3 -95 52 -150 117 -150 178 0 42 23 53 103 47 48 -3 82 -13 118 -33z m-479 -155 c53 -16 133 -89 149 -135 17 -52 6 -138 -30 -227 -34 -85 -39 -127 -16 -146 33 -28 74 20 46 54 -26 31 23 35 56 4 72 -67 -28 -145 -129 -100 -35 15 -50 29 -67 64 -28 58 -27 115 4 211 36 112 33 139 -23 200 -28 29 -69 36 -78 12 -13 -32 7 -86 47 -126 l39 -39 -42 0 c-56 0 -102 29 -128 79 -35 70 -25 115 35 146 36 18 84 19 137 3z m998 -163 c160 -18 507 -20 626 -4 74 9 88 9 109 -5 30 -20 60 -64 50 -74 -15 -15 -526 -6 -670 12 -161 20 -311 51 -331 67 -23 19 -4 32 40 25 22 -3 102 -13 176 -21z m44 -148 c23 -23 63 -82 90 -130 26 -48 50 -87 52 -87 2 0 -6 21 -17 47 -45 105 -33 165 33 165 59 0 117 -42 181 -132 14 -20 13 -16 -3 17 -36 76 -25 103 41 103 53 0 70 -16 63 -58 -7 -46 20 -130 82 -253 24 -49 44 -91 44 -94 0 -3 -16 -5 -36 -5 -66 0 -96 29 -164 159 -34 66 -76 134 -93 152 -27 31 -30 32 -42 15 -18 -24 2 -91 63 -216 25 -52 48 -99 50 -104 9 -19 -89 2 -120 27 -19 14 -66 81 -112 158 -95 161 -122 199 -143 199 -13 0 -15 -8 -10 -49 10 -83 45 -147 139 -254 49 -56 110 -133 135 -170 87 -130 88 -207 5 -207 -87 0 -159 85 -281 330 -109 221 -144 353 -105 408 12 17 25 22 61 22 42 0 51 -4 87 -43z m624 -28 c25 -13 54 -37 69 -60 22 -33 25 -47 20 -88 -3 -27 -20 -79 -36 -116 -36 -78 -36 -79 -16 -99 24 -24 48 -9 41 25 -4 21 -2 29 9 29 23 0 46 -31 43 -59 -4 -37 -63 -52 -113 -28 -75 36 -93 115 -51 221 28 69 25 104 -9 136 -26 24 -45 20 -45 -11 0 -25 27 -79 40 -79 6 0 10 -7 10 -15 0 -35 -92 0 -114 44 -17 32 -20 69 -8 87 26 38 96 44 160 13z"/>
</g>
<g id="layer103" fill="#fdfbfa" stroke="none">
<path d="M530 1501 c-43 -22 -80 -74 -80 -112 0 -19 -5 -29 -15 -29 -8 0 -62 25 -120 55 -57 30 -116 55 -130 55 -68 0 -122 -63 -111 -130 5 -30 2 -41 -19 -60 -101 -95 -55 -288 87 -361 l38 -19 0 -74 c0 -58 5 -83 25 -122 17 -33 25 -65 25 -100 0 -102 61 -149 245 -187 l107 -23 42 -59 c30 -43 56 -67 95 -87 97 -51 172 -36 304 58 46 33 49 34 150 34 l102 0 32 -52 c77 -128 161 -190 261 -191 68 0 115 21 142 66 32 52 35 91 12 160 l-21 62 21 16 c19 15 25 15 55 2 20 -8 68 -14 111 -14 42 0 102 -1 132 -2 67 -2 124 24 152 67 27 43 20 123 -13 168 -22 29 -24 38 -16 73 11 49 3 124 -17 163 -13 26 -13 29 5 40 11 7 27 28 36 46 24 51 11 99 -44 157 -63 67 -88 74 -233 59 -156 -17 -524 -8 -686 15 l-122 18 -40 61 c-83 124 -198 222 -296 251 -71 21 -173 19 -216 -4z m241 -118 c76 -41 178 -156 232 -260 25 -49 71 -162 102 -253 32 -91 73 -201 91 -245 19 -44 34 -81 34 -82 0 -11 -57 0 -90 17 -48 24 -68 53 -109 157 -70 176 -171 299 -171 209 0 -38 49 -174 96 -269 24 -48 44 -89 44 -92 0 -13 -75 -3 -109 15 -56 28 -81 62 -172 240 -75 146 -109 190 -109 142 0 -28 75 -278 108 -363 l30 -74 53 -12 c61 -14 255 -38 377 -48 45 -4 82 -11 82 -16 0 -13 -162 -10 -330 5 -80 8 -147 12 -149 10 -6 -5 45 -88 68 -108 26 -24 19 -36 -22 -36 -58 0 -106 43 -163 145 -9 16 -39 26 -144 47 -143 29 -185 49 -185 89 0 30 0 30 154 -15 68 -20 126 -35 127 -33 2 2 -14 51 -36 109 -50 133 -90 287 -90 347 0 60 21 91 62 91 49 0 93 -57 191 -245 94 -181 99 -188 41 -56 -41 93 -57 199 -34 226 18 21 77 19 116 -6 19 -11 54 -44 79 -72 l46 -52 -45 103 c-25 56 -67 139 -93 184 -48 83 -139 188 -161 188 -18 0 -25 -25 -18 -56 8 -31 105 -135 153 -165 40 -25 45 -59 9 -59 -39 0 -207 47 -328 91 -116 42 -297 130 -324 156 -32 33 1 32 61 -2 102 -57 221 -104 354 -141 152 -42 172 -42 101 -3 -95 52 -150 117 -150 178 0 42 23 53 103 47 48 -3 82 -13 118 -33z m-479 -155 c53 -16 133 -89 149 -135 17 -52 6 -138 -30 -227 -34 -85 -39 -127 -16 -146 33 -28 74 20 46 54 -26 31 23 35 56 4 72 -67 -28 -145 -129 -100 -35 15 -50 29 -67 64 -28 58 -27 115 4 211 36 112 33 139 -23 200 -28 29 -69 36 -78 12 -13 -32 7 -86 47 -126 l39 -39 -42 0 c-56 0 -102 29 -128 79 -35 70 -25 115 35 146 36 18 84 19 137 3z m998 -163 c160 -18 507 -20 626 -4 74 9 88 9 109 -5 30 -20 60 -64 50 -74 -15 -15 -526 -6 -670 12 -161 20 -311 51 -331 67 -23 19 -4 32 40 25 22 -3 102 -13 176 -21z m44 -148 c23 -23 63 -82 90 -130 26 -48 50 -87 52 -87 2 0 -6 21 -17 47 -45 105 -33 165 33 165 59 0 117 -42 181 -132 14 -20 13 -16 -3 17 -36 76 -25 103 41 103 53 0 70 -16 63 -58 -7 -46 20 -130 82 -253 24 -49 44 -91 44 -94 0 -3 -16 -5 -36 -5 -66 0 -96 29 -164 159 -34 66 -76 134 -93 152 -27 31 -30 32 -42 15 -18 -24 2 -91 63 -216 25 -52 48 -99 50 -104 9 -19 -89 2 -120 27 -19 14 -66 81 -112 158 -95 161 -122 199 -143 199 -13 0 -15 -8 -10 -49 10 -83 45 -147 139 -254 49 -56 110 -133 135 -170 87 -130 88 -207 5 -207 -87 0 -159 85 -281 330 -109 221 -144 353 -105 408 12 17 25 22 61 22 42 0 51 -4 87 -43z m624 -28 c25 -13 54 -37 69 -60 22 -33 25 -47 20 -88 -3 -27 -20 -79 -36 -116 -36 -78 -36 -79 -16 -99 24 -24 48 -9 41 25 -4 21 -2 29 9 29 23 0 46 -31 43 -59 -4 -37 -63 -52 -113 -28 -75 36 -93 115 -51 221 28 69 25 104 -9 136 -26 24 -45 20 -45 -11 0 -25 27 -79 40 -79 6 0 10 -7 10 -15 0 -35 -92 0 -114 44 -17 32 -20 69 -8 87 26 38 96 44 160 13z"/>
<path d="M1426 491 c108 -219 173 -299 162 -197 -6 54 -70 154 -158 247 l-61 64 57 -114z"/>
<path d="M2896 1068 c-57 -15 -112 -75 -132 -145 -24 -82 -15 -198 20 -257 71 -121 224 -141 322 -42 50 49 68 104 67 196 -1 96 -18 148 -67 196 -58 59 -123 75 -210 52z m113 -83 c41 -21 56 -66 56 -170 0 -104 -16 -145 -65 -165 -43 -18 -89 -3 -117 39 -20 29 -23 47 -23 128 0 105 13 143 58 167 35 19 56 20 91 1z"/>
<path d="M4326 1068 c-51 -14 -109 -73 -130 -133 -9 -27 -16 -78 -16 -115 0 -136 60 -227 165 -251 103 -23 198 27 240 128 22 52 20 206 -4 258 -33 73 -116 127 -191 124 -14 -1 -42 -6 -64 -11z m113 -83 c88 -45 81 -298 -10 -335 -69 -29 -132 26 -144 125 -13 98 13 182 63 209 35 19 56 20 91 1z"/>
<path d="M4702 1064 c-28 -20 -30 -69 -3 -84 32 -17 60 -12 77 15 20 30 11 58 -22 73 -31 15 -25 15 -52 -4z"/>
<path d="M2400 820 l0 -250 160 0 160 0 0 40 0 40 -110 0 -110 0 0 210 0 210 -50 0 -50 0 0 -250z"/>
<path d="M3250 820 l0 -250 108 0 c125 0 171 11 215 50 29 26 32 34 31 86 0 49 -4 60 -27 79 l-26 23 34 37 c29 30 35 44 35 78 0 57 -31 104 -83 127 -34 16 -65 20 -164 20 l-123 0 0 -250z m245 145 c32 -31 32 -59 0 -91 -22 -22 -32 -25 -83 -22 l-57 3 -3 68 -3 67 61 0 c51 0 65 -4 85 -25z m-21 -196 c24 -11 35 -45 28 -82 -5 -24 -42 -37 -103 -37 l-49 0 0 65 0 65 50 0 c27 0 60 -5 74 -11z"/>
<path d="M3700 820 l0 -250 50 0 50 0 0 100 0 100 100 0 100 0 0 -100 0 -100 50 0 50 0 0 250 0 250 -50 0 -50 0 0 -110 0 -110 -100 0 -100 0 0 110 0 110 -50 0 -50 0 0 -250z"/>
<path d="M4703 912 c-8 -5 -14 -63 -19 -175 l-7 -167 51 0 52 0 0 163 c0 113 -4 167 -12 175 -13 13 -47 16 -65 4z"/>
</g>


</svg>