<!DOCTYPE svg PUBLIC "-//W3C//DTD SVG 20010904//EN" "http://www.w3.org/TR/2001/REC-SVG-20010904/DTD/svg10.dtd">
<svg version="1.0" xmlns="http://www.w3.org/2000/svg" width="512px" height="160px" viewBox="0 0 5120 1600" preserveAspectRatio="xMidYMid meet">
<g id="layer101" fill="#f79919" stroke="none">
 <path d="M83 1589 c-17 -5 -43 -23 -58 -40 l-26 -32 3 -218 3 -219 30 -30 c18 -17 59 -39 100 -53 l70 -24 -71 -21 c-68 -21 -99 -43 -123 -89 -7 -14 -11 -94 -11 -224 0 -226 6 -248 72 -282 18 -10 262 -89 542 -178 395 -124 517 -159 542 -154 48 9 92 63 100 125 l7 50 1928 0 1929 0 0 605 0 605 -2200 0 -2199 0 -288 91 c-339 107 -310 99 -350 88z"/>
 </g>
<g id="layer102" fill="#fffbf0" stroke="none">
 <path d="M83 1589 c-17 -5 -43 -23 -58 -40 l-26 -32 3 -218 3 -219 30 -30 c18 -17 59 -39 100 -53 l70 -24 -71 -21 c-68 -21 -99 -43 -123 -89 -7 -14 -11 -94 -11 -224 0 -226 6 -248 72 -282 18 -10 262 -89 542 -178 395 -124 517 -159 542 -154 37 7 93 64 96 98 6 91 -6 387 -17 413 -15 35 -61 67 -122 83 -23 7 -45 16 -48 21 -3 5 20 17 51 26 34 9 71 30 93 49 l36 33 3 203 c2 112 1 213 -2 225 -3 12 -17 36 -31 53 -22 25 -53 38 -188 81 -89 28 -200 64 -247 80 -97 33 -615 196 -645 203 -11 3 -34 1 -52 -4z m364 -200 c175 -55 359 -113 408 -129 50 -15 135 -43 190 -61 l100 -34 3 -186 c2 -141 -1 -189 -10 -196 -7 -6 -35 -17 -63 -26 -275 -86 -344 -110 -340 -117 3 -5 20 -13 38 -19 127 -37 351 -112 363 -122 11 -9 14 -47 14 -190 0 -171 -1 -179 -19 -179 -11 0 -120 32 -243 71 -123 39 -263 83 -313 99 -346 108 -452 143 -462 152 -14 12 -19 354 -5 374 4 6 97 40 207 74 110 35 204 67 208 71 5 3 -65 30 -155 58 -90 29 -185 60 -213 70 l-50 17 -3 187 c-2 161 0 187 13 187 8 0 158 -45 332 -101z"/>
 <path d="M4573 1100 c-51 -21 -49 -91 4 -111 22 -8 32 -6 52 9 37 27 39 64 5 91 -30 23 -30 23 -61 11z"/>
 <path d="M1945 1078 c-3 -13 -4 -140 -3 -283 l3 -260 185 0 185 0 0 40 0 40 -127 3 -128 3 0 239 0 240 -55 0 c-48 0 -55 -3 -60 -22z"/>
 <path d="M2485 1081 c-103 -46 -158 -181 -135 -326 19 -118 73 -191 163 -221 83 -28 187 -3 244 58 58 62 86 201 64 310 -16 77 -64 146 -121 175 -58 29 -157 31 -215 4z m182 -105 c32 -38 46 -100 41 -186 -5 -87 -26 -133 -68 -155 -82 -42 -149 2 -170 112 -21 106 1 199 57 243 39 30 108 23 140 -14z"/>
 <path d="M2917 1093 c-4 -3 -7 -132 -7 -286 l0 -279 148 4 c165 4 217 21 247 78 31 59 11 155 -37 181 -20 11 -20 12 10 30 40 26 55 67 50 134 -9 109 -80 145 -283 145 -67 0 -125 -3 -128 -7z m256 -95 c52 -27 62 -83 22 -123 -21 -22 -33 -25 -95 -25 l-70 0 0 80 0 80 61 0 c33 0 70 -5 82 -12z m-16 -239 c35 -13 43 -25 43 -71 0 -51 -27 -68 -107 -68 l-63 0 0 75 0 75 49 0 c27 0 62 -5 78 -11z"/>
 <path d="M3427 1093 c-4 -3 -7 -132 -7 -285 l0 -278 60 0 60 0 0 115 0 115 115 0 115 0 0 -115 0 -115 55 0 55 0 0 285 0 285 -55 0 -55 0 0 -125 0 -125 -115 0 -115 0 0 125 0 125 -53 0 c-30 0 -57 -3 -60 -7z"/>
 <path d="M4104 1081 c-84 -38 -134 -136 -134 -265 0 -108 22 -172 80 -228 94 -91 229 -90 321 2 57 57 79 120 79 226 0 180 -88 284 -241 284 -40 0 -79 -7 -105 -19z m182 -102 c31 -29 44 -77 44 -160 0 -91 -8 -122 -39 -159 -20 -25 -36 -33 -72 -37 -38 -4 -50 -1 -76 21 -44 37 -56 82 -51 192 4 101 19 135 69 162 33 18 96 8 125 -19z"/>
 <path d="M4546 843 c-3 -42 -6 -130 -6 -195 l0 -119 58 3 57 3 -3 115 c-1 63 -5 150 -8 193 l-6 77 -43 0 -42 0 -7 -77z"/>
 </g>

</svg>