<!DOCTYPE svg PUBLIC "-//W3C//DTD SVG 20010904//EN" "http://www.w3.org/TR/2001/REC-SVG-20010904/DTD/svg10.dtd">
<svg version="1.0" xmlns="http://www.w3.org/2000/svg" width="512px" height="160px" viewBox="0 0 5120 1600" preserveAspectRatio="xMidYMid meet">
<g id="layer101" fill="#ed4420" stroke="none">
 <path d="M360 1581 c-163 -52 -287 -173 -339 -329 -30 -87 -28 -214 3 -306 21 -62 22 -72 10 -112 -23 -78 -27 -154 -10 -232 20 -94 57 -164 126 -232 66 -66 426 -296 515 -329 168 -63 372 -20 517 108 l56 51 1876 0 1876 0 0 605 0 605 -2012 0 -2012 0 -115 72 c-156 98 -215 118 -339 117 -64 0 -115 -6 -152 -18z"/>
 </g>
<g id="layer102" fill="#fef6f2" stroke="none">
 <path d="M360 1581 c-163 -52 -287 -173 -339 -329 -30 -87 -28 -214 3 -306 21 -62 22 -72 10 -112 -23 -78 -27 -154 -10 -232 20 -94 57 -164 126 -232 66 -66 426 -296 515 -329 216 -82 486 16 604 217 53 90 71 158 71 261 0 65 -6 103 -24 153 -23 65 -23 70 -9 115 24 75 21 205 -6 286 -26 76 -94 174 -149 213 -176 123 -412 266 -479 291 -82 29 -229 31 -313 4z m286 -66 c24 -7 139 -73 255 -147 235 -148 293 -200 330 -296 30 -76 32 -203 5 -284 -19 -57 -19 -57 4 -105 35 -76 44 -161 26 -250 -47 -230 -275 -385 -507 -345 -38 7 -88 21 -110 33 -89 45 -407 255 -450 296 -110 106 -146 278 -89 422 17 45 17 45 -9 100 -33 72 -41 202 -17 284 37 126 152 245 278 286 102 33 189 35 284 6z"/>
 <path d="M408 1355 c-117 -43 -198 -184 -168 -295 6 -23 14 -40 18 -38 4 2 42 21 85 42 61 31 77 43 77 60 0 31 40 66 75 66 19 0 89 -39 212 -117 186 -118 211 -141 198 -184 -8 -23 -52 -59 -74 -59 -9 0 -64 28 -121 62 -98 59 -108 63 -175 66 -92 5 -159 -22 -215 -85 -92 -105 -89 -257 7 -344 32 -29 339 -226 404 -259 135 -69 321 17 365 168 16 55 14 136 -5 155 -4 4 -25 -3 -45 -17 -20 -13 -57 -32 -81 -42 -38 -14 -45 -21 -45 -44 0 -34 -32 -63 -70 -63 -28 0 -71 24 -312 180 -92 59 -98 65 -98 97 0 18 8 44 18 57 30 36 70 29 158 -27 110 -69 131 -77 204 -78 111 -1 197 54 246 159 43 91 21 210 -52 276 -36 32 -376 246 -420 265 -42 17 -137 17 -186 -1z"/>
 <path d="M2385 1103 c-123 -29 -185 -96 -206 -223 -11 -69 1 -171 27 -225 68 -144 274 -178 381 -63 89 95 97 311 14 425 -43 59 -150 102 -216 86z m85 -108 c50 -26 65 -67 65 -180 0 -113 -15 -154 -65 -180 -60 -31 -122 -9 -155 55 -20 38 -20 198 -1 244 28 67 94 93 156 61z"/>
 <path d="M3978 1096 c-121 -33 -178 -125 -178 -287 0 -198 126 -318 296 -280 77 18 145 83 168 160 20 68 21 182 1 247 -37 125 -161 194 -287 160z m131 -112 c37 -31 51 -77 51 -169 0 -130 -31 -183 -112 -192 -37 -4 -49 -1 -75 21 -44 37 -56 82 -51 192 3 75 8 99 24 121 43 58 113 70 163 27z"/>
 <path d="M4402 1100 c-34 -14 -48 -54 -29 -83 19 -30 48 -38 78 -23 49 25 51 83 4 104 -14 7 -27 12 -28 11 -1 0 -12 -4 -25 -9z"/>
 <path d="M1777 1093 c-4 -3 -7 -132 -7 -285 l0 -278 190 0 190 0 0 29 c0 61 -1 61 -136 61 l-124 0 0 240 0 240 -53 0 c-30 0 -57 -3 -60 -7z"/>
 <path d="M2740 814 l0 -286 148 4 c165 4 209 17 243 72 35 58 18 160 -32 187 -21 11 -21 11 8 29 40 24 56 68 51 135 -9 110 -79 145 -290 145 l-128 0 0 -286z m259 185 c54 -19 67 -84 26 -124 -21 -22 -33 -25 -95 -25 l-70 0 0 80 0 80 54 0 c29 0 68 -5 85 -11z m-10 -240 c33 -12 45 -37 39 -85 -4 -37 -37 -54 -110 -54 l-58 0 0 75 0 75 49 0 c26 0 62 -5 80 -11z"/>
 <path d="M3250 815 l0 -285 60 0 60 0 0 115 0 115 115 0 115 0 0 -115 0 -115 60 0 60 0 -2 283 -3 282 -57 3 -58 3 0 -126 0 -125 -115 0 -115 0 0 125 0 125 -60 0 -60 0 0 -285z"/>
 <path d="M4377 838 c-4 -46 -7 -134 -7 -195 l0 -113 59 0 58 0 -4 173 c-5 225 -3 217 -57 217 l-43 0 -6 -82z"/>
 </g>

</svg>