<!DOCTYPE svg PUBLIC "-//W3C//DTD SVG 20010904//EN" "http://www.w3.org/TR/2001/REC-SVG-20010904/DTD/svg10.dtd">
<svg version="1.0" xmlns="http://www.w3.org/2000/svg" width="512px" height="160px" viewBox="0 0 5120 1600" preserveAspectRatio="xMidYMid meet">
<g id="layer101" fill="#3a9dd7" stroke="none">
 <path d="M636 1585 c-159 -33 -302 -93 -416 -173 -73 -52 -220 -179 -220 -190 0 -4 51 -2 113 6 113 13 393 12 415 -2 8 -5 3 -15 -17 -32 -45 -38 -96 -121 -127 -209 -15 -44 -40 -100 -55 -125 -50 -82 -59 -136 -59 -340 0 -218 7 -250 83 -389 l51 -93 29 33 c163 189 224 242 359 310 42 21 104 46 138 56 69 19 73 17 85 -46 25 -133 161 -276 304 -318 116 -33 267 -11 365 54 l39 26 46 -21 c25 -11 94 -41 154 -67 59 -26 110 -45 114 -42 3 4 1 37 -5 74 -6 37 -10 69 -8 71 2 2 36 -6 76 -18 40 -12 74 -19 77 -16 3 2 -2 15 -11 28 -9 12 -16 26 -16 30 0 5 668 8 1485 8 l1485 0 0 605 0 605 -1836 0 -1836 0 -59 35 c-86 53 -179 93 -282 121 -116 33 -359 42 -471 19z"/>
 </g>
<g id="layer102" fill="#f5fcfe" stroke="none">
 <path d="M636 1585 c-159 -33 -302 -93 -416 -173 -73 -52 -220 -179 -220 -190 0 -4 51 -2 113 6 113 13 393 12 415 -2 8 -5 3 -15 -17 -32 -45 -38 -96 -121 -127 -209 -15 -44 -40 -100 -55 -125 -50 -82 -59 -136 -59 -340 0 -218 7 -250 83 -389 l51 -93 29 33 c163 189 224 242 359 310 42 21 104 46 138 56 69 19 73 17 85 -46 25 -133 161 -276 304 -318 116 -33 267 -11 365 54 l39 26 46 -21 c25 -11 94 -41 154 -67 59 -26 110 -45 114 -42 3 4 1 37 -5 74 -6 37 -10 69 -8 71 2 2 36 -6 76 -18 40 -12 74 -19 76 -17 11 10 -166 285 -223 346 l-61 67 -12 94 c-18 153 -49 259 -113 385 -67 134 -197 288 -321 381 -81 62 -221 128 -336 160 -119 33 -361 42 -474 19z m299 -95 c157 -18 286 -62 405 -138 247 -156 421 -454 437 -749 l6 -101 85 -87 c46 -47 83 -88 81 -90 -2 -2 -29 5 -59 15 -30 10 -71 21 -90 25 l-35 7 38 -32 c33 -28 97 -121 97 -142 0 -4 -24 4 -53 17 -29 13 -76 30 -104 38 -49 15 -52 14 -69 -4 -10 -11 -47 -34 -83 -52 -58 -28 -75 -32 -146 -32 -66 1 -91 6 -143 29 -121 55 -192 169 -192 306 l0 70 -34 0 c-45 0 -156 -24 -226 -48 -134 -47 -267 -132 -370 -236 -30 -31 -57 -56 -61 -56 -4 0 -15 23 -24 51 -13 38 -16 73 -13 133 5 95 28 148 91 214 37 37 39 42 19 42 -11 0 -44 -9 -72 -20 l-51 -20 6 47 c19 128 120 251 230 279 l30 8 -34 7 c-19 4 -52 6 -73 3 l-38 -3 16 37 c38 92 169 192 251 192 52 0 37 19 -53 67 -98 52 -194 77 -306 77 -48 1 -84 4 -80 8 4 4 43 25 87 47 95 47 204 79 312 90 112 12 119 12 218 1z"/>
 <path d="M2727 1099 c-82 -19 -132 -63 -168 -144 -18 -40 -22 -68 -22 -143 0 -83 3 -99 32 -156 35 -71 78 -107 151 -126 78 -21 175 6 227 62 86 91 96 303 20 415 -51 75 -151 114 -240 92z m130 -123 c12 -15 27 -45 34 -69 15 -56 7 -183 -14 -224 -32 -61 -111 -81 -161 -42 -43 34 -56 69 -57 166 -1 101 13 148 57 182 40 31 108 25 141 -13z"/>
 <path d="M4338 1096 c-121 -33 -178 -125 -178 -287 0 -198 126 -318 296 -280 77 18 145 83 168 160 20 68 21 182 1 247 -37 125 -161 194 -287 160z m131 -112 c38 -32 51 -77 51 -177 0 -122 -32 -175 -113 -184 -36 -4 -48 -1 -74 21 -44 37 -56 82 -51 192 3 75 8 99 24 121 43 58 113 70 163 27z"/>
 <path d="M4763 1100 c-77 -31 -30 -135 49 -108 48 17 50 85 3 106 -14 7 -27 12 -28 11 -1 0 -12 -4 -24 -9z"/>
 <path d="M2137 1093 c-4 -3 -7 -132 -7 -285 l0 -278 191 0 190 0 -3 43 -3 42 -127 3 -128 3 0 239 0 240 -53 0 c-30 0 -57 -3 -60 -7z"/>
 <path d="M3100 814 l0 -286 148 4 c165 4 209 17 243 72 36 58 18 160 -33 187 l-22 12 27 13 c70 37 81 163 19 227 -40 42 -107 57 -254 57 l-128 0 0 -286z m286 174 c8 -8 17 -31 21 -50 4 -30 1 -41 -20 -62 -23 -23 -34 -26 -97 -26 l-70 0 0 81 0 82 76 -5 c47 -3 81 -11 90 -20z m-31 -232 c33 -14 35 -18 35 -60 0 -60 -23 -76 -107 -76 l-63 0 0 75 0 75 50 0 c28 0 66 -7 85 -14z"/>
 <path d="M3610 815 l0 -285 60 0 60 0 0 115 0 115 115 0 115 0 0 -115 0 -115 60 0 60 0 -2 283 -3 282 -57 3 -58 3 0 -126 0 -125 -115 0 -115 0 0 125 0 125 -60 0 -60 0 0 -285z"/>
 <path d="M4736 843 c-3 -42 -6 -129 -6 -195 l0 -118 59 0 58 0 -4 173 c-5 225 -3 217 -57 217 l-43 0 -7 -77z"/>
 </g>

</svg>