<!DOCTYPE svg PUBLIC "-//W3C//DTD SVG 20010904//EN" "http://www.w3.org/TR/2001/REC-SVG-20010904/DTD/svg10.dtd">
<svg version="1.0" xmlns="http://www.w3.org/2000/svg" width="512px" height="160px" viewBox="0 0 5120 1600" preserveAspectRatio="xMidYMid meet">
<g id="layer101" fill="#ea5621" stroke="none">
 <path d="M1090 1571 c-49 -15 -87 -40 -125 -82 -38 -42 -38 -42 -104 -40 -95 3 -203 -22 -301 -70 -105 -52 -227 -169 -278 -266 -29 -56 -37 -63 -63 -63 -73 0 -161 -60 -195 -134 -65 -139 4 -298 147 -340 29 -9 60 -16 69 -16 9 0 27 -22 42 -52 99 -202 327 -338 563 -338 83 0 83 0 109 -35 57 -75 168 -111 261 -85 50 14 127 76 151 121 l15 29 1869 0 1870 0 0 605 0 605 -1870 0 -1870 0 -20 39 c-46 92 -176 150 -270 122z m-140 -575 c33 -16 54 -37 78 -76 31 -50 33 -61 30 -122 -5 -87 -39 -141 -117 -180 -71 -36 -121 -36 -192 0 -111 56 -150 174 -95 287 31 62 69 93 135 111 56 15 101 10 161 -20z"/>
 </g>
<g id="layer102" fill="#fef6f1" stroke="none">
 <path d="M1090 1571 c-49 -15 -87 -40 -125 -82 -38 -42 -38 -42 -104 -40 -95 3 -203 -22 -301 -70 -105 -52 -227 -169 -278 -266 -29 -56 -37 -63 -63 -63 -73 0 -161 -60 -195 -134 -65 -139 4 -298 147 -340 29 -9 60 -16 69 -16 9 0 27 -22 42 -52 99 -202 327 -338 563 -338 83 0 83 0 109 -35 57 -75 168 -111 261 -85 51 14 127 76 152 124 23 43 24 170 1 211 -16 29 -15 31 24 95 63 105 83 183 83 330 0 145 -22 231 -84 328 l-37 57 19 50 c23 62 19 143 -12 202 -47 94 -176 153 -271 124z m119 -136 c67 -34 77 -141 19 -190 -39 -33 -71 -40 -119 -26 -55 17 -81 60 -76 124 4 49 26 83 62 98 32 13 84 10 114 -6z m-252 -121 c13 -4 26 -19 33 -38 22 -68 91 -111 172 -108 54 2 57 1 86 -35 42 -54 88 -149 101 -211 18 -86 22 -82 -79 -82 l-90 0 0 28 c0 35 -39 117 -75 160 -84 100 -228 144 -351 107 -27 -8 -50 -15 -51 -15 -6 0 -83 138 -83 148 0 23 120 51 220 51 52 1 105 -2 117 -5z m-341 -170 l28 -52 -43 -47 c-130 -141 -128 -340 4 -475 l44 -45 -39 -64 c-21 -35 -43 -68 -49 -74 -18 -18 -140 115 -179 195 -17 37 -32 74 -32 81 0 7 11 28 25 46 35 49 42 108 17 164 -11 24 -25 48 -31 51 -19 12 -12 40 26 117 25 50 57 94 101 138 l65 64 17 -23 c10 -13 30 -47 46 -76z m334 -148 c33 -16 54 -37 78 -76 31 -50 33 -61 30 -122 -5 -87 -39 -141 -117 -180 -71 -36 -121 -36 -192 0 -111 56 -150 174 -95 287 31 62 69 93 135 111 56 15 101 10 161 -20z m-656 -81 c112 -53 71 -225 -54 -225 -92 0 -145 89 -104 175 27 57 96 79 158 50z m1061 -182 c-10 -68 -39 -147 -75 -203 -47 -73 -60 -81 -132 -83 -78 -2 -118 -28 -153 -97 l-24 -48 -73 -7 c-78 -7 -174 6 -240 32 -44 18 -45 16 8 110 l34 61 47 -15 c31 -9 74 -13 123 -10 90 5 154 34 217 99 43 44 93 137 93 174 0 11 3 24 7 27 3 4 44 7 91 7 l84 0 -7 -47z m-132 -353 c73 -58 50 -185 -38 -209 -119 -33 -205 102 -124 194 28 32 36 35 84 35 37 0 60 -6 78 -20z"/>
 <path d="M2555 1099 c-90 -11 -147 -55 -186 -144 -33 -75 -32 -210 3 -285 34 -74 80 -117 147 -137 95 -27 192 2 252 77 39 49 62 146 57 237 -11 172 -120 272 -273 252z m112 -123 c32 -38 46 -100 41 -186 -5 -87 -26 -133 -68 -155 -47 -24 -86 -19 -126 18 -35 31 -36 36 -43 120 -8 112 5 171 49 210 29 26 38 29 79 24 32 -4 52 -12 68 -31z"/>
 <path d="M4572 1100 c-29 -12 -46 -54 -31 -81 15 -28 55 -42 82 -28 45 24 50 67 11 98 -30 23 -30 23 -62 11z"/>
 <path d="M1944 1087 c-3 -8 -4 -135 -2 -283 l3 -269 185 0 185 0 3 43 3 42 -130 0 -131 0 0 240 0 240 -55 0 c-37 0 -57 -4 -61 -13z"/>
 <path d="M2910 814 l0 -286 148 4 c165 4 210 17 243 72 36 58 18 160 -33 187 -21 12 -21 12 6 26 67 35 78 164 19 225 -41 43 -107 58 -255 58 l-128 0 0 -286z m257 186 c54 -19 69 -85 28 -125 -21 -22 -33 -25 -95 -25 l-70 0 0 80 0 80 54 0 c29 0 67 -5 83 -10z m-10 -241 c35 -13 43 -25 43 -71 0 -51 -27 -68 -107 -68 l-63 0 0 75 0 75 49 0 c27 0 62 -5 78 -11z"/>
 <path d="M3420 815 l0 -285 60 0 60 0 0 115 0 115 115 0 115 0 0 -115 0 -115 55 0 c53 0 54 1 60 33 3 17 5 145 3 282 l-3 250 -57 3 -58 3 0 -126 0 -125 -115 0 -115 0 0 125 0 125 -60 0 -60 0 0 -285z"/>
 <path d="M4104 1081 c-86 -39 -134 -136 -134 -272 0 -105 26 -175 85 -227 97 -86 226 -82 316 9 57 56 79 119 79 225 0 180 -88 284 -241 284 -40 0 -79 -7 -105 -19z m182 -102 c31 -29 44 -77 44 -164 0 -130 -31 -183 -112 -192 -37 -4 -49 -1 -75 21 -44 37 -56 82 -51 192 4 101 19 135 69 162 33 18 96 8 125 -19z"/>
 <path d="M4546 843 c-3 -42 -6 -129 -6 -195 l0 -118 55 0 c37 0 55 4 56 13 4 33 -3 325 -7 350 -5 24 -10 27 -48 27 l-43 0 -7 -77z"/>
 </g>

</svg>