<!DOCTYPE svg PUBLIC "-//W3C//DTD SVG 20010904//EN" "http://www.w3.org/TR/2001/REC-SVG-20010904/DTD/svg10.dtd">
<svg version="1.0" xmlns="http://www.w3.org/2000/svg" width="512px" height="160px" viewBox="0 0 5120 1600" preserveAspectRatio="xMidYMid meet">
<g id="layer101" fill="#363078" stroke="none">
 <path d="M578 1411 l-508 -156 0 -123 0 -124 78 7 77 7 -80 -47 c-44 -26 -84 -52 -90 -57 -7 -6 23 -40 85 -99 l95 -89 -92 -86 c-51 -47 -93 -89 -93 -94 0 -6 230 -145 263 -159 5 -2 44 24 87 58 l78 60 151 -139 151 -139 103 48 102 48 5 -142 5 -143 189 79 189 79 1874 0 1873 0 0 605 0 605 -1804 0 -1804 0 -192 80 c-106 44 -202 79 -214 79 -11 -1 -249 -72 -528 -158z m-43 -406 c-27 -25 -53 -45 -58 -45 -4 0 -30 17 -58 38 l-50 37 63 6 c35 3 83 6 108 7 l45 1 -50 -44z"/>
 </g>
<g id="layer102" fill="#fcfcfe" stroke="none">
 <path d="M578 1411 l-508 -156 0 -123 0 -124 78 7 77 7 -80 -47 c-44 -26 -84 -52 -90 -57 -7 -6 23 -40 85 -99 l95 -89 -92 -86 c-51 -47 -93 -89 -93 -94 0 -6 230 -145 263 -159 5 -2 44 24 87 58 l78 60 151 -139 151 -139 103 48 102 48 5 -142 5 -143 190 79 c105 44 208 88 230 98 22 10 57 24 78 32 l37 13 -2 570 -3 571 -195 82 c-107 45 -206 81 -220 81 -14 0 -253 -71 -532 -157z m687 -24 l150 -63 3 -490 2 -490 -137 -56 c-76 -32 -146 -60 -155 -64 -17 -6 -18 22 -18 488 0 272 -2 497 -5 499 -2 3 -37 2 -77 -2 -40 -3 -111 -9 -158 -13 -47 -4 -130 -11 -185 -16 -327 -30 -485 -41 -496 -35 -7 5 -7 11 -1 17 9 9 891 285 917 287 6 0 78 -27 160 -62z m-383 -334 l78 -36 0 -283 c0 -215 -3 -285 -12 -291 -7 -4 -44 -22 -81 -40 l-68 -33 -132 122 c-73 67 -143 132 -157 144 l-25 23 -85 -64 c-47 -36 -87 -65 -90 -65 -3 0 -21 10 -40 21 l-34 21 84 79 85 79 -84 80 c-47 44 -83 81 -80 83 20 15 60 37 67 37 5 0 47 -29 94 -64 l84 -64 155 144 c85 78 156 143 159 143 2 1 39 -15 82 -36z m-347 -48 c-27 -25 -53 -45 -58 -45 -4 0 -30 17 -58 38 l-50 37 63 6 c35 3 83 6 108 7 l45 1 -50 -44z"/>
 <path d="M692 814 c-56 -42 -101 -81 -100 -85 2 -5 48 -43 103 -85 l100 -76 3 81 c2 45 2 117 0 162 l-3 80 -103 -77z"/>
 <path d="M4145 1095 c-114 -30 -175 -127 -175 -283 0 -179 89 -286 240 -286 149 0 240 107 240 280 0 130 -41 222 -118 267 -45 26 -130 36 -187 22z m134 -111 c38 -32 51 -77 51 -177 0 -128 -36 -182 -120 -182 -92 0 -125 60 -118 211 3 75 8 99 24 121 43 58 113 70 163 27z"/>
 <path d="M4573 1100 c-53 -21 -51 -90 3 -110 29 -11 70 7 81 36 9 25 -6 60 -32 72 -14 7 -27 12 -28 11 -1 0 -12 -4 -24 -9z"/>
 <path d="M1946 1083 c-4 -9 -6 -137 -6 -285 l2 -268 188 0 187 0 1 45 1 45 -129 0 -130 0 0 240 0 240 -54 0 c-41 0 -55 -4 -60 -17z"/>
 <path d="M2490 1085 c-76 -34 -121 -100 -139 -202 -21 -114 10 -233 80 -301 82 -80 246 -76 326 10 49 52 68 116 68 224 0 92 -3 105 -30 159 -20 40 -45 69 -73 90 -38 26 -53 30 -120 33 -53 1 -88 -3 -112 -13z m150 -88 c14 -6 35 -32 48 -57 29 -59 31 -184 3 -247 -44 -97 -157 -96 -208 0 -23 43 -22 200 1 244 33 65 97 90 156 60z"/>
 <path d="M2910 814 l0 -286 148 4 c168 3 211 17 244 78 33 63 16 154 -34 181 -20 11 -20 12 10 30 71 46 75 168 7 228 -44 38 -108 51 -255 51 l-120 0 0 -286z m269 181 c48 -24 56 -81 16 -120 -21 -22 -33 -25 -95 -25 l-70 0 0 80 0 80 60 0 c34 0 74 -7 89 -15z m-20 -236 c21 -7 33 -20 38 -37 19 -71 -12 -102 -103 -102 l-64 0 0 75 0 75 49 0 c26 0 62 -5 80 -11z"/>
 <path d="M3420 815 l0 -285 60 0 60 0 0 115 0 115 115 0 115 0 0 -115 0 -115 58 0 57 0 -1 283 -2 282 -56 3 -56 3 0 -126 0 -125 -115 0 -115 0 0 125 0 125 -60 0 -60 0 0 -285z"/>
 <path d="M4547 838 c-4 -46 -7 -134 -7 -195 l0 -113 59 0 60 0 -4 53 c-2 28 -5 111 -6 182 -1 72 -4 136 -7 143 -2 7 -22 12 -47 12 l-42 0 -6 -82z"/>
 </g>

</svg>