<!DOCTYPE svg PUBLIC "-//W3C//DTD SVG 20010904//EN" "http://www.w3.org/TR/2001/REC-SVG-20010904/DTD/svg10.dtd">
<svg version="1.0" xmlns="http://www.w3.org/2000/svg" width="512px" height="160px" viewBox="0 0 5120 1600" preserveAspectRatio="xMidYMid meet">
<g id="layer101" fill="#4d76a5" stroke="none">
 <path d="M992 1469 c-345 -45 -603 -302 -899 -897 -67 -135 -87 -185 -91 -226 -6 -70 14 -108 71 -135 39 -19 61 -21 220 -21 184 0 225 7 269 47 11 9 50 80 88 157 38 78 85 166 104 196 l36 55 0 -92 c0 -105 -10 -143 -40 -143 -11 0 -34 -13 -52 -29 -56 -50 -42 -127 35 -185 58 -45 140 -58 321 -54 144 3 166 6 208 26 93 46 113 107 105 320 l-5 146 35 -55 c38 -59 112 -203 133 -259 20 -53 59 -101 94 -114 24 -9 428 -11 1764 -8 l1732 4 0 604 0 604 -1475 0 -1474 0 -36 24 c-52 36 -117 46 -290 46 -128 0 -164 -3 -205 -19 -68 -26 -134 -77 -205 -160 l-60 -69 -7 62 c-7 74 -27 117 -66 145 -55 39 -163 49 -310 30z"/>
 </g>
<g id="layer102" fill="#fbfdfe" stroke="none">
 <path d="M992 1469 c-345 -45 -603 -302 -899 -897 -67 -135 -87 -185 -91 -226 -6 -70 14 -108 71 -135 39 -19 61 -21 220 -21 184 0 225 7 269 47 11 9 50 80 88 157 38 78 85 166 104 196 l36 55 0 -92 c0 -105 -10 -143 -40 -143 -11 0 -34 -13 -52 -29 -56 -50 -42 -127 35 -185 58 -45 140 -58 321 -54 144 3 166 6 208 26 93 46 113 107 105 320 l-5 146 35 -55 c38 -59 112 -203 133 -259 20 -54 59 -101 96 -116 25 -10 87 -14 246 -14 239 0 261 5 306 71 20 29 23 43 19 90 -8 87 -59 177 -229 400 -48 63 -88 119 -88 124 0 4 55 65 123 134 150 156 192 222 192 302 0 71 -21 104 -91 139 -46 23 -61 25 -226 28 -144 3 -186 1 -227 -13 -68 -22 -145 -81 -216 -164 l-60 -69 -7 62 c-7 74 -27 117 -66 145 -55 39 -163 49 -310 30z m1085 -107 c67 -38 26 -117 -159 -308 -113 -117 -138 -148 -138 -172 0 -30 11 -47 184 -282 89 -121 134 -201 143 -254 9 -56 -3 -59 -233 -57 -112 1 -211 4 -218 7 -7 3 -38 60 -70 128 -96 205 -211 366 -262 366 -47 0 -54 -38 -54 -272 1 -249 -1 -255 -91 -275 -80 -18 -302 -11 -357 12 -53 22 -83 65 -44 65 37 0 81 38 93 82 16 57 16 281 1 335 -17 56 -45 72 -81 46 -52 -38 -133 -161 -213 -320 -73 -148 -83 -163 -114 -173 -40 -14 -342 -3 -361 13 -23 18 -14 48 66 211 314 638 564 866 949 866 85 0 103 -3 126 -21 21 -16 26 -29 26 -63 0 -102 51 -191 103 -178 12 3 69 53 127 112 125 127 129 130 183 144 58 15 364 6 394 -12z"/>
 <path d="M2895 1103 c-88 -20 -142 -59 -176 -126 -67 -129 -30 -343 70 -411 96 -65 234 -54 308 26 49 52 68 116 68 223 0 87 -4 107 -27 157 -28 61 -86 112 -139 122 -58 12 -84 14 -104 9z m112 -128 c12 -14 27 -44 34 -68 15 -56 7 -183 -14 -224 -32 -61 -111 -81 -161 -42 -45 36 -56 69 -56 177 0 87 3 103 23 133 12 18 34 40 47 47 37 19 101 8 127 -23z"/>
 <path d="M4487 1096 c-59 -16 -94 -41 -129 -92 -35 -51 -48 -105 -48 -198 0 -195 127 -314 296 -277 77 18 145 83 168 160 20 68 21 182 1 247 -37 124 -163 194 -288 160z m132 -112 c37 -31 51 -77 51 -169 0 -129 -31 -183 -112 -192 -51 -6 -92 20 -114 73 -16 39 -18 173 -4 226 14 51 61 88 110 88 27 0 48 -8 69 -26z"/>
 <path d="M4895 1085 c-28 -27 -30 -37 -14 -66 14 -27 48 -38 82 -27 48 17 49 85 1 106 -35 17 -42 15 -69 -13z"/>
 <path d="M2287 1093 c-4 -3 -7 -132 -7 -285 l0 -278 190 0 191 0 -2 45 -3 45 -128 0 -128 0 0 240 0 240 -53 0 c-30 0 -57 -3 -60 -7z"/>
 <path d="M3250 814 l0 -286 148 4 c165 4 209 17 243 72 36 58 18 160 -33 187 -21 12 -21 12 6 26 67 35 78 163 21 223 -43 45 -107 60 -257 60 l-128 0 0 -286z m286 174 c8 -8 17 -31 21 -50 4 -30 1 -41 -20 -62 -23 -23 -34 -26 -97 -26 l-70 0 0 81 0 82 76 -5 c47 -3 81 -11 90 -20z m-39 -229 c35 -13 43 -25 43 -71 0 -51 -27 -68 -107 -68 l-63 0 0 75 0 75 49 0 c27 0 62 -5 78 -11z"/>
 <path d="M3760 815 l0 -285 60 0 60 0 0 115 0 115 115 0 115 0 0 -115 0 -115 60 0 60 0 -2 283 -3 282 -57 3 -58 3 0 -126 0 -125 -115 0 -115 0 0 125 0 125 -60 0 -60 0 0 -285z"/>
 <path d="M4887 838 c-4 -46 -7 -134 -7 -195 l0 -113 59 0 58 0 -4 173 c-5 225 -3 217 -57 217 l-43 0 -6 -82z"/>
 </g>

</svg>