<!DOCTYPE svg PUBLIC "-//W3C//DTD SVG 20010904//EN" "http://www.w3.org/TR/2001/REC-SVG-20010904/DTD/svg10.dtd">
<svg version="1.0" xmlns="http://www.w3.org/2000/svg" width="512px" height="160px" viewBox="0 0 5120 1600" preserveAspectRatio="xMidYMid meet">
<g id="layer101" fill="#304b5c" stroke="none">
 <path d="M460 813 c-250 -433 -456 -793 -458 -800 -3 -11 69 -13 382 -13 l386 0 76 130 c42 71 79 130 83 130 4 0 40 -58 81 -130 l75 -130 388 0 c213 0 387 3 387 6 0 4 -23 46 -50 94 -27 48 -50 90 -50 94 0 3 756 6 1680 6 l1680 0 0 605 0 605 -2036 2 -2036 3 -52 90 c-29 49 -59 91 -67 92 -9 2 -169 -265 -469 -784z"/>
 </g>
<g id="layer102" fill="#3ab885" stroke="none">
 <path d="M460 813 c-250 -433 -456 -793 -458 -800 -3 -11 69 -13 382 -13 l386 0 76 130 c42 71 79 130 83 130 4 0 40 -58 81 -130 l75 -130 388 0 c213 0 387 3 387 6 0 4 -23 46 -50 94 -27 48 -50 90 -50 94 0 3 756 6 1680 6 l1680 0 0 605 0 605 -2036 2 -2036 3 -52 90 c-29 49 -59 91 -67 92 -9 2 -169 -265 -469 -784z m588 -94 c56 -97 111 -194 123 -215 30 -54 165 -287 205 -354 l33 -55 -142 -3 c-77 -1 -146 -1 -152 1 -5 3 -48 72 -95 156 -47 83 -87 151 -90 151 -3 0 -45 -70 -95 -155 l-90 -155 -147 0 c-82 0 -148 2 -148 4 0 5 98 175 330 571 67 116 128 220 134 232 15 30 14 30 134 -178z"/>
 </g>
<g id="layer103" fill="#f6fefb" stroke="none">
 <path d="M460 813 c-250 -433 -456 -793 -458 -800 -3 -11 69 -13 382 -13 l386 0 76 130 c42 71 79 130 83 130 4 0 40 -58 81 -130 l75 -130 388 0 c213 0 387 3 387 6 0 8 -41 81 -135 239 -69 116 -617 1063 -727 1255 -30 52 -61 96 -69 97 -9 2 -168 -265 -469 -784z m572 479 c53 -92 210 -363 349 -602 293 -506 339 -586 339 -594 0 -3 -138 -5 -306 -4 l-307 3 -86 152 c-47 84 -88 152 -91 153 -3 0 -45 -70 -95 -155 l-90 -155 -302 0 c-167 0 -303 3 -303 8 0 9 14 33 460 802 286 495 325 560 330 560 3 0 48 -76 102 -168z"/>
 <path d="M2512 1091 c-112 -39 -165 -128 -165 -276 -1 -76 3 -99 25 -145 47 -104 137 -159 239 -147 131 16 208 110 217 268 13 220 -138 363 -316 300z m128 -96 c50 -26 65 -67 65 -180 0 -77 -4 -108 -18 -132 -20 -38 -63 -63 -106 -63 -34 0 -88 41 -102 77 -16 42 -13 207 5 241 34 66 95 88 156 57z"/>
 <path d="M4572 1099 c-29 -11 -46 -53 -31 -80 5 -11 22 -24 37 -30 52 -20 104 50 67 91 -21 23 -45 29 -73 19z"/>
 <path d="M1945 1078 c-3 -13 -4 -140 -3 -283 l3 -260 185 0 185 0 0 40 0 40 -127 3 -128 3 0 239 0 240 -55 0 c-48 0 -55 -3 -60 -22z"/>
 <path d="M2910 814 l0 -286 148 4 c165 4 211 18 245 76 33 58 15 156 -35 183 -20 11 -20 12 10 31 19 12 37 36 48 64 14 38 15 51 5 87 -29 98 -96 127 -293 127 l-128 0 0 -286z m249 190 c58 -12 79 -87 36 -129 -21 -22 -33 -25 -95 -25 l-70 0 0 80 0 80 49 0 c27 0 63 -3 80 -6z m-2 -245 c35 -13 43 -25 43 -71 0 -51 -27 -68 -107 -68 l-63 0 0 75 0 75 49 0 c27 0 62 -5 78 -11z"/>
 <path d="M3420 815 l0 -285 60 0 60 0 0 115 0 115 115 0 115 0 0 -115 0 -116 58 3 57 3 0 280 0 280 -57 3 -58 3 0 -126 0 -125 -115 0 -115 0 0 125 0 125 -60 0 -60 0 0 -285z"/>
 <path d="M4104 1081 c-86 -39 -134 -136 -134 -272 0 -160 75 -264 208 -285 70 -11 140 13 193 66 57 57 79 120 79 225 0 132 -45 222 -133 264 -56 27 -155 28 -213 2z m182 -102 c32 -30 44 -77 44 -172 0 -122 -32 -175 -113 -184 -36 -4 -48 -1 -74 21 -44 37 -56 82 -51 190 4 98 25 147 72 167 33 14 95 3 122 -22z"/>
 <path d="M4546 843 c-3 -42 -6 -129 -6 -195 l0 -118 59 0 58 0 -4 173 c-5 225 -3 217 -57 217 l-43 0 -7 -77z"/>
 </g>

</svg>