<!DOCTYPE svg PUBLIC "-//W3C//DTD SVG 20010904//EN" "http://www.w3.org/TR/2001/REC-SVG-20010904/DTD/svg10.dtd">
<svg version="1.0" xmlns="http://www.w3.org/2000/svg" width="512px" height="160px" viewBox="0 0 5120 1600" preserveAspectRatio="xMidYMid meet">
<g id="layer101" fill="#0e7ac0" stroke="none">
<path d="M338 1407 l-338 -192 0 -406 0 -407 340 -192 c187 -105 348 -194 358 -197 10 -2 86 35 186 91 l169 96 2033 0 2034 0 0 605 0 605 -2027 0 -2027 0 -168 95 c-106 60 -179 95 -196 94 -16 0 -168 -80 -364 -192z"/>
</g>
<g id="layer102" fill="#9ad7f4" stroke="none">
<path d="M338 1407 l-338 -192 0 -406 0 -407 342 -193 c189 -107 352 -194 363 -194 11 0 175 88 363 195 l342 194 0 406 -1 405 -339 193 c-229 129 -348 192 -367 191 -17 0 -163 -78 -365 -192z m342 -425 l0 -158 -102 -59 c-57 -32 -122 -70 -145 -83 l-43 -24 0 160 0 160 143 80 c78 44 143 81 145 81 1 1 2 -70 2 -157z m253 44 l87 -47 0 -160 0 -161 -42 24 c-24 14 -89 51 -145 84 l-103 59 0 157 0 157 58 -33 c31 -18 96 -54 145 -80z m-139 -284 c44 -27 107 -63 139 -81 31 -18 57 -36 57 -39 0 -4 -51 -35 -112 -69 -62 -33 -127 -69 -143 -78 l-30 -18 -142 79 c-78 44 -142 82 -143 86 0 4 44 32 98 62 53 30 115 67 137 80 22 14 44 26 49 26 4 0 45 -22 90 -48z"/>
</g>
<g id="layer103" fill="#f9feff" stroke="none">
<path d="M338 1407 l-338 -192 0 -406 0 -407 342 -193 c189 -107 352 -194 363 -194 11 0 175 88 363 195 l342 194 0 406 -1 405 -339 193 c-229 129 -348 192 -367 191 -17 0 -163 -78 -365 -192z m340 -124 c-3 -96 -5 -108 -21 -108 -10 0 -21 -5 -25 -11 -9 -14 -54 -39 -64 -36 -5 1 -8 -3 -8 -9 0 -5 -4 -7 -10 -4 -5 3 -10 1 -10 -5 0 -6 -4 -8 -10 -5 -5 3 -10 2 -10 -4 0 -6 -11 -13 -25 -17 -14 -3 -25 -11 -25 -17 0 -6 -3 -7 -7 -4 -3 4 -14 1 -22 -7 -33 -30 -72 -25 -151 22 -41 24 -76 46 -78 47 -4 4 74 49 248 147 63 36 135 77 160 91 25 14 49 26 53 27 4 0 6 -48 5 -107z m141 63 c42 -24 99 -56 126 -71 102 -57 240 -137 247 -144 10 -9 -145 -101 -170 -101 -11 0 -23 7 -26 16 -3 9 -13 14 -20 11 -8 -3 -25 2 -38 12 -13 10 -33 21 -46 25 -12 4 -35 19 -52 32 -16 14 -39 27 -52 29 -13 3 -24 9 -26 15 -2 5 -10 10 -18 10 -11 0 -14 21 -14 105 0 58 3 105 7 105 3 0 40 -20 82 -44z m-139 -364 l0 -157 -82 -50 c-46 -28 -111 -65 -146 -83 l-62 -32 2 161 3 162 40 23 c22 13 60 35 85 48 25 13 70 38 100 54 30 17 56 31 58 31 1 1 2 -70 2 -157z m277 32 c20 -13 42 -24 49 -24 11 0 14 -33 14 -165 l0 -166 -77 42 c-43 22 -108 60 -144 82 l-67 41 -4 146 c-2 80 -3 150 0 157 4 12 154 -62 229 -113z m-693 34 l74 -43 4 -70 c1 -38 2 -124 0 -191 l-3 -121 -32 -16 c-18 -9 -51 -28 -75 -42 -23 -14 -47 -25 -52 -25 -6 0 -10 103 -10 275 0 181 4 275 10 275 6 0 44 -19 84 -42z m976 -233 c0 -151 -4 -275 -9 -275 -4 0 -45 21 -90 46 l-81 46 0 183 0 183 78 46 c42 25 83 45 90 46 9 0 12 -61 12 -275z m-482 -51 c125 -71 232 -138 232 -145 0 -4 -11 -14 -24 -21 -70 -38 -107 -58 -163 -87 -34 -17 -65 -35 -68 -41 -3 -5 -14 -10 -24 -10 -21 0 -284 143 -288 157 -2 6 20 24 49 42 93 57 223 130 231 130 5 1 29 -11 55 -25z m384 -224 c32 -17 60 -35 63 -40 4 -7 -105 -72 -309 -185 -28 -15 -75 -43 -105 -61 -66 -38 -66 -39 -70 77 -2 65 0 79 13 79 8 0 18 9 21 20 4 11 10 18 14 15 5 -2 19 4 31 15 13 11 29 20 37 20 7 0 13 5 13 11 0 5 5 7 10 4 6 -3 10 -2 10 3 0 5 20 17 45 26 25 10 45 22 45 27 0 5 9 9 20 9 11 0 20 5 20 12 0 6 3 9 6 5 4 -3 13 1 21 9 13 13 18 13 37 1 11 -8 47 -29 78 -47z m-776 39 c5 -8 8 -8 13 0 5 8 17 3 36 -13 16 -14 31 -23 34 -21 2 3 13 -3 24 -12 10 -10 21 -16 23 -14 8 5 64 -21 64 -30 0 -11 80 -52 80 -42 1 5 10 -3 20 -16 17 -19 20 -38 20 -117 l0 -93 -67 38 c-38 21 -146 82 -241 136 -108 61 -170 101 -164 107 11 11 134 86 144 87 4 1 10 -4 14 -10z"/>
<path d="M2560 1101 c-112 -23 -179 -114 -188 -259 -10 -160 60 -285 176 -312 109 -25 210 18 259 112 26 49 28 61 28 173 0 98 -3 126 -19 155 -32 61 -87 109 -140 125 -53 16 -62 16 -116 6z m123 -101 c44 -35 60 -96 55 -208 -3 -90 -6 -103 -31 -135 -35 -46 -89 -65 -141 -47 -68 22 -103 109 -93 235 6 80 23 123 63 154 36 28 112 29 147 1z"/>
<path d="M4175 1101 c-42 -11 -86 -35 -112 -63 -65 -69 -90 -216 -58 -336 43 -157 204 -227 339 -148 87 51 121 135 114 284 -3 73 -9 107 -25 138 -33 62 -92 110 -152 123 -57 12 -63 12 -106 2z m128 -101 c44 -35 60 -96 55 -208 -3 -89 -6 -103 -31 -135 -49 -65 -131 -72 -186 -17 -33 34 -51 95 -51 177 0 81 17 132 55 170 28 28 40 33 83 33 34 0 57 -6 75 -20z"/>
<path d="M1970 815 l0 -285 180 0 180 0 0 40 0 40 -130 0 -130 0 0 245 0 245 -50 0 -50 0 0 -285z"/>
<path d="M2940 814 l0 -286 143 4 c121 2 147 6 177 23 43 25 70 76 70 132 0 35 -7 50 -35 82 -34 37 -35 40 -15 46 44 14 75 95 60 159 -11 50 -62 100 -117 115 -21 6 -93 11 -160 11 l-123 0 0 -286z m273 183 c23 -15 27 -24 27 -66 0 -69 -19 -83 -120 -89 l-80 -5 0 93 0 92 73 -4 c48 -2 83 -9 100 -21z m-2 -256 c28 -35 25 -85 -7 -110 -21 -17 -41 -21 -95 -21 l-69 0 0 81 0 81 76 -4 c65 -3 79 -7 95 -27z"/>
<path d="M3440 815 l0 -285 50 0 50 0 0 115 0 115 125 0 125 0 0 -115 0 -115 50 0 50 0 0 286 0 285 -47 -3 -48 -3 -3 -122 -3 -123 -124 0 -125 0 0 125 0 125 -50 0 -50 0 0 -285z"/>
<path d="M4572 1088 c-19 -19 -15 -66 7 -78 32 -17 60 -11 77 15 15 23 15 27 0 50 -18 27 -63 34 -84 13z"/>
<path d="M4567 788 c-4 -79 -7 -169 -7 -200 l0 -58 50 0 50 0 0 133 c0 72 -3 162 -7 200 l-6 67 -37 0 -37 0 -6 -142z"/>
</g>


</svg>