<!DOCTYPE svg PUBLIC "-//W3C//DTD SVG 20010904//EN" "http://www.w3.org/TR/2001/REC-SVG-20010904/DTD/svg10.dtd">
<svg version="1.0" xmlns="http://www.w3.org/2000/svg" width="512px" height="160px" viewBox="0 0 5120 1600" preserveAspectRatio="xMidYMid meet">
<g id="layer101" fill="#010102" stroke="none">
<path d="M655 1518 c-247 -44 -451 -81 -453 -83 -5 -4 -202 -1184 -202 -1208 0 -19 27 -33 229 -115 l228 -93 102 61 101 62 95 -52 c80 -43 98 -49 116 -40 16 9 25 8 40 -6 18 -16 30 -16 227 0 114 10 210 21 214 24 3 4 17 34 31 67 l25 60 1856 3 1856 2 0 605 0 605 -1984 0 -1984 0 -17 95 c-9 52 -20 94 -23 94 -4 -1 -209 -37 -457 -81z"/>
</g>
<g id="layer102" fill="#308ec5" stroke="none">
<path d="M655 1518 c-247 -44 -451 -81 -453 -83 -5 -4 -202 -1184 -202 -1208 0 -19 27 -33 229 -115 l228 -93 102 61 101 62 95 -52 c80 -43 98 -49 116 -40 16 9 25 8 40 -6 18 -16 30 -16 227 1 114 9 210 19 213 21 3 1 18 36 34 76 15 40 64 163 107 272 l80 199 -72 72 -72 72 76 141 c42 77 76 145 76 151 0 5 -63 47 -140 93 l-139 83 -1 53 0 52 -69 0 -69 0 -6 48 c-15 104 -38 222 -45 221 -3 -1 -208 -37 -456 -81z m547 -710 c2 -276 0 -413 -7 -418 -6 -5 -65 -7 -130 -5 -66 2 -252 4 -412 4 l-293 1 0 415 0 415 363 2 c199 2 388 1 419 0 l58 -4 2 -410z"/>
</g>
<g id="layer103" fill="#59bd99" stroke="none">
<path d="M655 1518 c-247 -44 -451 -81 -453 -83 -5 -4 -202 -1184 -202 -1208 0 -19 27 -33 229 -115 l228 -93 102 61 101 62 95 -52 c80 -43 98 -49 116 -40 16 9 25 8 40 -6 18 -16 30 -16 227 1 114 9 210 19 213 21 3 1 18 36 34 76 15 40 64 163 107 272 l80 199 -72 72 -72 72 76 141 c42 77 76 145 76 151 0 5 -63 47 -140 93 l-139 83 -1 53 0 52 -69 0 -69 0 -6 48 c-15 104 -38 222 -45 221 -3 -1 -208 -37 -456 -81z m380 -71 c3 -12 12 -56 21 -97 8 -41 17 -83 19 -93 4 -16 1 -16 -25 3 -15 11 -31 20 -34 20 -3 0 -39 20 -79 45 -41 25 -77 45 -80 45 -6 0 -97 -60 -107 -70 -3 -3 -24 -18 -48 -33 -23 -15 -40 -32 -37 -38 4 -5 107 -9 267 -9 143 1 262 -1 264 -3 6 -6 5 -817 -1 -827 -3 -5 -58 -8 -128 -5 -67 2 -254 4 -414 4 l-293 1 -1 328 c-1 180 -5 338 -9 352 -8 25 -8 25 -10 -5 -1 -18 -4 -23 -7 -12 -2 9 -9 15 -14 12 -5 -4 -9 -1 -9 4 0 6 -13 11 -30 11 -22 0 -30 5 -30 18 0 14 2 15 10 2 8 -13 10 -13 10 2 0 9 -5 20 -10 23 -6 4 -8 10 -5 15 3 5 8 26 10 47 3 21 8 54 12 73 10 49 11 53 12 71 1 11 22 18 79 28 42 7 102 17 132 22 30 5 69 12 85 15 17 3 39 7 50 9 11 2 69 11 130 21 60 9 130 22 155 28 82 20 109 19 115 -7z m390 -845 c-3 -7 0 -10 5 -7 6 3 10 -4 10 -17 0 -15 -3 -19 -8 -11 -5 8 -28 11 -64 10 -59 -3 -85 9 -105 47 -8 15 -5 31 14 69 l25 49 64 -63 c36 -36 62 -70 59 -77z"/>
</g>
<g id="layer104" fill="#3abecd" stroke="none">
<path d="M655 1518 c-247 -44 -451 -81 -453 -83 -5 -4 -202 -1184 -202 -1208 0 -19 27 -33 229 -115 l228 -93 102 61 101 62 95 -52 c80 -43 98 -49 116 -40 16 9 25 8 40 -6 18 -16 30 -16 227 1 114 9 210 19 213 21 3 1 18 36 34 76 15 40 64 163 107 272 l80 199 -72 72 -72 72 76 141 c42 77 76 145 76 151 0 5 -63 47 -140 93 l-139 83 -1 53 0 52 -69 0 -69 0 -6 48 c-15 104 -38 222 -45 221 -3 -1 -208 -37 -456 -81z m380 -71 c3 -12 12 -56 21 -97 8 -41 17 -83 19 -93 4 -16 1 -16 -25 3 -15 11 -31 20 -34 20 -3 0 -39 20 -79 45 -41 25 -77 45 -80 45 -6 0 -97 -60 -107 -70 -3 -3 -24 -18 -48 -33 -23 -15 -40 -32 -37 -38 4 -5 107 -9 267 -9 143 1 262 -1 264 -3 6 -6 5 -817 -1 -827 -3 -5 -58 -8 -128 -5 -67 2 -254 4 -414 4 l-293 1 -1 328 c-1 180 -5 338 -9 352 -8 25 -8 25 -10 -5 -1 -18 -4 -23 -7 -12 -2 9 -9 15 -14 12 -5 -4 -9 -1 -9 4 0 6 -13 11 -30 11 -22 0 -30 5 -30 18 0 14 2 15 10 2 8 -13 10 -13 10 2 0 9 -5 20 -10 23 -6 4 -8 10 -5 15 3 5 8 26 10 47 3 21 8 54 12 73 10 49 11 53 12 71 1 11 22 18 79 28 42 7 102 17 132 22 30 5 69 12 85 15 17 3 39 7 50 9 11 2 69 11 130 21 60 9 130 22 155 28 82 20 109 19 115 -7z m390 -845 c-3 -7 0 -10 5 -7 6 3 10 -4 10 -17 0 -15 -3 -19 -8 -11 -5 8 -28 11 -64 10 -59 -3 -85 9 -105 47 -8 15 -5 31 14 69 l25 49 64 -63 c36 -36 62 -70 59 -77z m-520 -422 c-4 -7 -195 180 -195 191 0 2 45 -38 100 -90 55 -51 97 -97 95 -101z m366 156 c34 -19 56 -37 50 -40 -10 -7 -38 9 -100 56 -36 27 -18 22 50 -16z"/>
</g>
<g id="layer105" fill="#c1df8f" stroke="none">
<path d="M655 1518 c-247 -44 -451 -81 -453 -83 -5 -4 -202 -1184 -202 -1208 0 -19 27 -33 229 -115 l228 -93 102 61 101 62 95 -52 c80 -43 98 -49 116 -40 16 9 25 8 40 -6 18 -16 30 -16 227 1 114 9 210 19 213 21 3 1 18 36 34 76 15 40 64 163 107 272 l80 199 -72 72 -72 72 76 141 c42 77 76 145 76 151 0 5 -63 47 -140 93 l-139 83 -1 53 0 52 -69 0 -69 0 -6 48 c-15 104 -38 222 -45 221 -3 -1 -208 -37 -456 -81z m403 -159 c11 -61 26 -117 33 -125 7 -8 31 -14 60 -14 47 0 49 -1 49 -27 1 -25 14 -36 121 -98 67 -38 123 -73 125 -77 3 -4 -27 -66 -66 -137 -38 -72 -70 -133 -70 -137 0 -3 32 -39 72 -80 l71 -74 -53 -135 c-29 -74 -61 -142 -71 -151 -17 -15 -22 -13 -84 31 l-66 47 -229 5 c-190 4 -230 3 -230 -8 0 -8 44 -55 97 -105 l98 -92 -29 -13 c-27 -12 -35 -10 -128 40 l-99 52 -106 -62 -105 -62 -81 33 c-74 29 -249 102 -254 105 -3 1 175 1067 179 1070 2 1 111 21 243 44 132 23 283 50 335 61 52 10 111 18 130 19 l36 1 22 -111z"/>
</g>
<g id="layer106" fill="#f2f056" stroke="none">
<path d="M655 1518 c-247 -44 -451 -81 -453 -83 -5 -4 -202 -1184 -202 -1208 0 -19 27 -33 229 -115 l228 -93 102 61 101 62 95 -52 c80 -43 98 -49 116 -40 16 9 25 8 40 -6 18 -16 30 -16 227 1 114 9 210 19 213 21 3 1 18 36 34 76 15 40 64 163 107 272 l80 199 -72 72 -72 72 76 141 c42 77 76 145 76 151 0 5 -63 47 -140 93 l-139 83 -1 53 0 52 -69 0 -69 0 -6 48 c-15 104 -38 222 -45 221 -3 -1 -208 -37 -456 -81z m403 -159 c11 -61 26 -117 33 -125 7 -8 31 -14 60 -14 47 0 49 -1 49 -27 1 -25 14 -36 121 -98 67 -38 123 -73 125 -77 3 -4 -27 -66 -66 -137 -38 -72 -70 -133 -70 -137 0 -3 32 -39 72 -80 l71 -74 -47 -123 c-27 -67 -57 -135 -69 -151 -11 -16 -20 -36 -21 -45 -2 -21 -27 -94 -35 -102 -12 -12 -63 -20 -56 -9 3 5 15 10 26 10 12 0 19 5 17 12 -5 15 -98 82 -145 105 -18 8 -33 19 -33 24 0 5 -26 21 -57 35 -32 15 -66 31 -75 35 -26 13 -205 11 -214 -2 -8 -13 214 -239 234 -239 7 0 10 -5 7 -11 -4 -6 -20 0 -41 16 -27 20 -41 25 -64 20 -23 -5 -48 4 -125 45 l-96 52 -105 -63 -106 -62 -81 33 c-74 29 -249 102 -254 105 -3 1 175 1067 179 1070 2 1 111 21 243 44 132 23 283 50 335 61 52 10 111 18 130 19 l36 1 22 -111z m147 -1209 c-3 -5 -17 -10 -31 -10 -14 0 -22 4 -19 10 3 6 17 10 31 10 14 0 22 -4 19 -10z"/>
</g>
<g id="layer107" fill="#fcfefe" stroke="none">
<path d="M655 1518 c-247 -44 -451 -81 -453 -83 -5 -4 -202 -1184 -202 -1208 0 -19 27 -33 229 -115 l228 -93 102 61 101 62 95 -52 c80 -43 98 -49 116 -40 16 9 25 8 40 -6 18 -16 30 -16 227 1 114 9 210 19 213 21 3 1 18 36 34 76 15 40 64 163 107 272 l80 199 -72 72 -72 72 76 141 c42 77 76 145 76 151 0 5 -63 47 -140 93 l-139 83 -1 53 0 52 -69 0 -69 0 -6 48 c-15 104 -38 222 -45 221 -3 -1 -208 -37 -456 -81z m403 -159 c11 -61 26 -117 33 -125 7 -8 31 -14 60 -14 47 0 49 -1 49 -27 1 -25 14 -36 121 -98 67 -38 123 -73 125 -77 3 -4 -27 -66 -66 -137 -38 -72 -70 -133 -70 -137 0 -3 32 -39 72 -80 l71 -74 -52 -131 c-28 -73 -61 -143 -71 -157 -11 -13 -18 -28 -15 -32 2 -4 -4 -29 -14 -56 -18 -45 -22 -49 -67 -61 -27 -7 -87 -13 -134 -14 -47 0 -94 -4 -105 -9 -14 -5 -29 -1 -53 17 -25 19 -40 23 -62 18 -23 -5 -48 4 -125 45 l-96 52 -105 -63 -106 -62 -81 33 c-74 29 -249 102 -254 105 -3 1 175 1067 179 1070 2 1 111 21 243 44 132 23 283 50 335 61 52 10 111 18 130 19 l36 1 22 -111z"/>
<path d="M442 1093 l3 -28 155 0 155 0 3 28 3 27 -161 0 -161 0 3 -27z"/>
<path d="M525 841 c-12 -20 -102 -341 -97 -346 3 -3 20 -5 39 -5 38 0 43 9 71 122 8 37 18 65 21 62 3 -3 17 -44 31 -92 23 -80 27 -87 52 -90 32 -4 35 2 69 118 12 41 24 69 26 62 3 -7 15 -50 27 -95 21 -81 21 -82 55 -85 18 -2 37 0 41 5 5 4 0 35 -10 68 -10 33 -33 111 -51 173 l-32 112 -33 0 c-31 0 -34 -3 -44 -42 -6 -24 -19 -68 -27 -98 l-16 -55 -13 40 c-7 22 -20 66 -29 98 -15 52 -19 57 -45 57 -16 0 -31 -4 -35 -9z"/>
<path d="M902 824 c-43 -21 -50 -29 -42 -43 20 -38 34 -42 75 -21 46 24 74 25 100 6 28 -20 7 -40 -71 -66 -36 -12 -71 -31 -79 -43 -17 -25 -20 -89 -5 -118 26 -47 115 -63 190 -33 44 18 49 31 22 64 -18 22 -19 22 -51 6 -46 -24 -86 -18 -86 14 0 21 9 27 63 46 34 12 71 29 82 39 27 25 34 67 16 108 -29 70 -121 87 -214 41z"/>
<path d="M2512 1091 c-93 -32 -142 -97 -162 -212 -36 -208 93 -379 267 -355 127 17 202 112 211 267 13 220 -138 363 -316 300z m128 -96 c50 -26 65 -67 65 -180 0 -77 -4 -108 -18 -132 -33 -61 -111 -81 -161 -42 -45 36 -56 69 -56 174 0 105 11 138 56 174 31 25 74 27 114 6z"/>
<path d="M4148 1096 c-120 -32 -178 -125 -178 -287 0 -106 26 -175 86 -228 94 -82 225 -79 314 7 58 56 80 120 80 227 0 148 -60 247 -169 279 -64 19 -71 19 -133 2z m131 -112 c37 -31 51 -77 51 -169 0 -130 -31 -183 -112 -192 -37 -4 -49 -1 -75 21 -44 37 -56 82 -51 192 3 75 8 99 24 121 43 58 113 70 163 27z"/>
<path d="M4573 1100 c-52 -21 -51 -90 2 -110 72 -28 120 76 50 108 -14 7 -27 12 -28 11 -1 0 -12 -4 -24 -9z"/>
<path d="M1947 1093 c-4 -3 -7 -132 -7 -285 l0 -278 190 0 190 0 0 45 0 45 -130 0 -130 0 0 240 0 240 -53 0 c-30 0 -57 -3 -60 -7z"/>
<path d="M2910 814 l0 -286 148 4 c165 4 209 17 243 72 35 58 18 160 -32 187 -21 11 -21 11 9 29 44 27 67 94 52 151 -26 99 -94 129 -292 129 l-128 0 0 -286z m259 185 c54 -19 67 -84 26 -124 -21 -22 -33 -25 -95 -25 l-70 0 0 80 0 80 54 0 c29 0 68 -5 85 -11z m-12 -240 c35 -13 43 -25 43 -71 0 -51 -27 -68 -107 -68 l-63 0 0 75 0 75 49 0 c27 0 62 -5 78 -11z"/>
<path d="M3420 815 l0 -285 60 0 60 0 0 115 0 115 115 0 115 0 0 -115 0 -115 60 0 60 0 -2 283 -3 282 -57 3 -58 3 0 -126 0 -125 -115 0 -115 0 0 125 0 125 -60 0 -60 0 0 -285z"/>
<path d="M4546 843 c-3 -42 -6 -129 -6 -195 l0 -118 59 0 58 0 -4 173 c-5 225 -3 217 -57 217 l-43 0 -7 -77z"/>
</g>


</svg>