<!DOCTYPE svg PUBLIC "-//W3C//DTD SVG 20010904//EN" "http://www.w3.org/TR/2001/REC-SVG-20010904/DTD/svg10.dtd">
<svg version="1.0" xmlns="http://www.w3.org/2000/svg" width="512px" height="160px" viewBox="0 0 5120 1600" preserveAspectRatio="xMidYMid meet">
<g id="layer101" fill="#26ace1" stroke="none">
 <path d="M1260 1554 c-129 -19 -449 -64 -710 -99 -261 -36 -492 -68 -512 -72 l-38 -6 0 -567 0 -567 203 -27 c111 -15 449 -63 751 -107 301 -43 555 -79 562 -79 11 0 14 19 14 85 l0 85 1795 0 1795 0 0 605 0 605 -1795 0 -1794 0 -3 87 c-2 69 -6 88 -18 90 -8 1 -121 -14 -250 -33z"/>
 </g>
<g id="layer102" fill="#f8ffff" stroke="none">
 <path d="M1260 1554 c-129 -19 -449 -64 -710 -99 -261 -36 -492 -68 -512 -72 l-38 -6 0 -567 0 -567 203 -27 c111 -15 449 -63 751 -107 301 -43 553 -79 560 -79 8 0 11 203 10 777 -2 649 -4 778 -15 780 -8 1 -120 -14 -249 -33z m168 -392 l2 -312 -22 -5 c-13 -3 -176 -4 -363 -3 l-340 3 0 265 0 265 85 13 c222 34 616 89 625 87 6 -1 11 -116 13 -313z m-788 -57 l0 -265 -275 0 -275 0 0 225 0 225 23 5 c12 2 92 14 177 25 85 12 196 27 245 35 50 7 93 13 98 14 4 1 7 -118 7 -264z m0 -585 l0 -260 -22 0 c-22 0 -459 57 -505 66 l-23 4 0 225 0 225 275 0 275 0 0 -260z m768 253 c22 -5 22 -5 22 -319 0 -173 -2 -314 -5 -314 -3 0 -80 11 -172 24 -93 14 -249 37 -348 51 -99 14 -186 28 -192 30 -10 3 -13 66 -13 270 l0 265 343 0 c189 -1 353 -4 365 -7z"/>
 <path d="M1945 1087 c-3 -7 -4 -134 -3 -282 l3 -270 179 -3 c196 -3 196 -3 196 56 l0 32 -130 0 -130 0 0 240 0 240 -55 0 c-36 0 -57 -5 -60 -13z"/>
 <path d="M2490 1085 c-77 -35 -122 -101 -140 -207 -20 -113 12 -228 81 -296 84 -82 245 -77 326 10 48 51 68 116 68 224 0 92 -2 105 -30 159 -20 40 -45 69 -73 90 -38 26 -53 30 -120 33 -53 1 -88 -3 -112 -13z m177 -109 c12 -15 27 -45 34 -69 15 -56 7 -183 -14 -224 -32 -61 -111 -81 -161 -42 -46 36 -60 75 -60 174 -1 99 13 137 61 175 39 30 108 23 140 -14z"/>
 <path d="M2910 814 l0 -286 148 4 c165 4 210 17 243 72 35 58 18 160 -32 187 -21 11 -21 11 9 29 19 12 36 35 47 64 15 40 16 53 6 89 -29 98 -96 127 -293 127 l-128 0 0 -286z m256 186 c57 -22 72 -83 29 -125 -21 -22 -33 -25 -95 -25 l-70 0 0 80 0 80 54 0 c30 0 67 -5 82 -10z m-9 -241 c35 -13 43 -25 43 -71 0 -51 -27 -68 -107 -68 l-63 0 0 75 0 75 49 0 c27 0 62 -5 78 -11z"/>
 <path d="M3420 815 l0 -285 60 0 60 0 0 115 0 115 115 0 115 0 0 -115 0 -115 54 0 c30 0 56 4 58 10 2 5 2 134 0 285 l-3 275 -54 0 -55 0 0 -125 0 -125 -115 0 -115 0 0 125 0 125 -60 0 -60 0 0 -285z"/>
 <path d="M4104 1081 c-84 -38 -134 -136 -134 -265 0 -108 22 -172 80 -228 93 -90 227 -90 320 0 58 56 80 120 80 228 0 180 -88 284 -241 284 -40 0 -79 -7 -105 -19z m182 -102 c31 -29 44 -77 44 -164 0 -130 -31 -183 -112 -192 -37 -4 -49 -1 -76 22 -42 35 -55 88 -50 198 4 93 20 129 69 155 33 18 96 8 125 -19z"/>
 <path d="M4552 1088 c-21 -27 -23 -55 -5 -76 28 -31 56 -35 86 -11 31 24 35 59 9 82 -22 20 -75 22 -90 5z"/>
 <path d="M4546 843 c-3 -42 -6 -129 -6 -195 l0 -118 61 0 61 0 -6 63 c-3 34 -7 114 -8 177 -3 153 -2 150 -53 150 l-42 0 -7 -77z"/>
 </g>

</svg>