<!DOCTYPE svg PUBLIC "-//W3C//DTD SVG 20010904//EN" "http://www.w3.org/TR/2001/REC-SVG-20010904/DTD/svg10.dtd">
<svg version="1.0" xmlns="http://www.w3.org/2000/svg" width="512px" height="160px" viewBox="0 0 5120 1600" preserveAspectRatio="xMidYMid meet">
<g id="layer101" fill="#26061a" stroke="none">
 <path d="M0 805 l0 -745 760 0 760 0 0 70 0 70 1800 0 1800 0 0 605 0 605 -1800 0 -1800 0 0 70 0 70 -760 0 -760 0 0 -745z"/>
 </g>
<g id="layer102" fill="#d94d99" stroke="none">
 <path d="M0 805 l0 -745 760 0 760 0 0 745 0 745 -760 0 -760 0 0 -745z m1450 0 l0 -675 -690 0 -690 0 0 675 0 675 690 0 690 0 0 -675z"/>
 <path d="M663 1102 c-6 -4 -37 -59 -68 -122 -31 -63 -59 -118 -63 -122 -5 -5 -33 47 -64 115 l-57 122 -61 3 c-64 3 -70 -2 -46 -41 7 -12 45 -84 84 -160 l71 -137 -84 -164 c-47 -89 -85 -166 -85 -169 0 -4 29 -7 64 -7 l63 0 60 126 59 127 16 -34 c9 -19 35 -76 58 -127 l43 -92 58 0 c33 0 59 3 59 6 0 4 -37 78 -82 166 l-82 159 87 168 c48 93 87 173 87 180 0 12 -97 16 -117 3z"/>
 <path d="M966 1096 c-62 -23 -89 -47 -118 -106 -47 -95 -35 -234 27 -316 34 -45 117 -84 177 -84 l48 0 0 -85 0 -85 60 0 60 0 0 326 0 325 -37 16 c-53 22 -168 27 -217 9z m132 -248 l3 -158 -36 0 c-84 0 -129 59 -128 167 1 100 48 155 128 150 l30 -2 3 -157z"/>
 <path d="M2547 1096 c-86 -23 -135 -75 -164 -175 -17 -61 -14 -177 8 -244 21 -65 82 -124 146 -143 135 -39 259 32 294 170 18 70 7 222 -18 272 -31 59 -81 103 -137 119 -59 18 -66 18 -129 1z m132 -92 c40 -29 61 -90 61 -184 0 -107 -12 -152 -51 -184 -42 -36 -90 -43 -136 -19 -51 27 -75 78 -81 172 -5 96 10 155 53 198 28 28 40 33 82 33 29 0 58 -7 72 -16z"/>
 <path d="M4175 1101 c-75 -19 -121 -58 -157 -136 -19 -42 -23 -67 -23 -150 0 -137 30 -205 117 -262 55 -37 161 -39 226 -5 48 25 96 92 113 157 18 64 7 222 -18 271 -33 62 -92 110 -152 123 -57 12 -63 12 -106 2z m128 -101 c43 -34 60 -95 55 -202 -2 -55 -9 -105 -18 -122 -22 -43 -65 -71 -109 -71 -87 0 -131 60 -139 185 -5 95 10 154 53 197 28 28 40 33 83 33 34 0 57 -6 75 -20z"/>
 <path d="M1970 815 l0 -285 180 0 180 0 0 40 0 40 -130 0 -130 0 0 245 0 245 -50 0 -50 0 0 -285z"/>
 <path d="M2940 814 l0 -286 143 4 c159 4 192 14 228 71 31 50 22 127 -20 171 l-32 33 25 11 c42 19 61 70 58 151 -2 43 -62 105 -117 120 -22 6 -95 11 -162 11 l-123 0 0 -286z m273 183 c23 -15 27 -24 27 -66 0 -70 -21 -85 -121 -90 l-79 -3 0 92 0 92 73 -4 c48 -2 83 -9 100 -21z m-2 -256 c19 -23 25 -76 11 -97 -15 -23 -53 -34 -116 -34 l-66 0 0 81 0 81 76 -4 c65 -3 79 -7 95 -27z"/>
 <path d="M3440 815 l0 -285 50 0 50 0 0 115 0 115 125 0 125 0 1 -107 c1 -60 1 -111 0 -115 0 -5 21 -8 49 -8 l50 0 0 286 0 285 -47 -3 -48 -3 -2 -110 c-1 -60 -2 -116 -3 -122 0 -10 -32 -13 -125 -13 l-125 0 0 125 0 125 -50 0 -50 0 0 -285z"/>
 <path d="M4572 1088 c-17 -17 -15 -54 4 -73 40 -39 110 14 80 60 -15 23 -66 31 -84 13z"/>
 <path d="M4567 788 c-4 -79 -7 -169 -7 -200 l0 -58 50 0 50 0 0 133 c0 72 -3 162 -7 200 l-6 67 -37 0 -37 0 -6 -142z"/>
 </g>

</svg>