<!DOCTYPE svg PUBLIC "-//W3C//DTD SVG 20010904//EN" "http://www.w3.org/TR/2001/REC-SVG-20010904/DTD/svg10.dtd">
<svg version="1.0" xmlns="http://www.w3.org/2000/svg" width="512px" height="160px" viewBox="0 0 5120 1600" preserveAspectRatio="xMidYMid meet">
<g id="layer101" fill="#3391ba" stroke="none">
 <path d="M608 1585 c-263 -64 -481 -265 -569 -525 -28 -83 -33 -111 -37 -226 -4 -110 -1 -144 17 -215 42 -166 140 -320 273 -429 73 -60 216 -132 306 -155 212 -54 451 -12 635 112 l80 53 1904 0 1903 0 0 605 0 605 -1901 0 -1900 0 -63 45 c-144 102 -285 145 -470 144 -67 0 -147 -7 -178 -14z"/>
 </g>
<g id="layer102" fill="#f2fbfd" stroke="none">
 <path d="M608 1585 c-263 -64 -481 -265 -569 -525 -28 -83 -33 -111 -37 -226 -4 -110 -1 -144 17 -215 58 -230 213 -420 426 -524 204 -99 409 -110 622 -33 233 84 429 300 494 545 16 57 22 110 22 198 1 144 -16 220 -78 350 -101 210 -294 368 -519 425 -95 24 -289 26 -378 5z m405 -106 c221 -74 386 -247 458 -479 30 -97 32 -271 5 -370 -93 -340 -425 -566 -766 -521 -172 23 -291 82 -415 206 -213 212 -267 535 -136 800 72 145 170 245 311 319 160 84 373 102 543 45z"/>
 <path d="M627 1264 c-4 -4 -35 -9 -69 -10 -66 -3 -110 -26 -116 -60 -2 -10 -10 -33 -17 -50 -30 -65 -29 -105 4 -166 17 -32 31 -72 31 -90 0 -42 39 -126 73 -157 25 -22 25 -25 12 -52 -29 -55 -9 -133 42 -165 15 -10 41 -28 56 -41 15 -12 45 -27 67 -33 27 -7 44 -20 59 -45 28 -49 62 -63 96 -41 14 9 31 28 37 41 6 15 21 25 37 27 41 5 56 47 56 158 0 86 -3 102 -31 160 l-31 66 24 34 c27 39 53 119 53 162 l0 28 38 -23 c56 -35 94 -48 141 -49 55 -1 81 23 81 72 0 42 -18 62 -70 79 -19 6 -61 27 -93 46 -32 19 -97 51 -145 71 -79 33 -98 37 -207 41 -66 3 -124 2 -128 -3z m173 -44 c94 -10 94 -10 266 -96 66 -33 131 -63 143 -67 25 -6 29 -42 5 -51 -30 -11 -51 -6 -130 33 -129 64 -124 64 -123 -16 1 -80 -17 -133 -63 -180 l-30 -31 19 -29 c58 -82 78 -164 63 -256 -5 -33 -11 -62 -14 -64 -2 -3 -13 0 -23 6 -17 9 -22 4 -41 -35 -12 -24 -28 -44 -35 -44 -8 0 -25 20 -38 45 -20 38 -29 45 -54 45 -16 0 -42 8 -56 18 -73 48 -85 57 -96 71 -19 22 -16 81 5 116 18 29 18 29 -10 53 -43 36 -78 104 -85 163 -4 32 -16 70 -31 91 -20 31 -24 46 -19 85 3 27 12 52 22 59 11 8 15 20 10 33 -7 24 19 41 63 41 33 0 56 -22 66 -63 6 -24 9 -27 21 -17 12 10 12 15 -1 35 -8 12 -12 29 -8 38 10 27 47 31 174 17z"/>
 <path d="M2632 1091 c-112 -39 -165 -128 -165 -278 -1 -83 2 -97 31 -156 48 -98 139 -147 241 -132 128 19 200 110 209 266 13 220 -138 363 -316 300z m155 -115 c12 -15 27 -45 34 -69 15 -56 7 -183 -14 -224 -32 -61 -111 -81 -161 -42 -44 35 -56 69 -57 172 -1 104 11 139 58 177 39 30 108 23 140 -14z"/>
 <path d="M4268 1096 c-120 -32 -178 -125 -178 -287 0 -106 26 -175 86 -228 94 -82 225 -79 314 7 58 56 80 120 80 227 0 148 -60 247 -169 279 -64 19 -71 19 -133 2z m138 -117 c31 -29 44 -77 44 -164 0 -136 -34 -190 -120 -190 -92 0 -125 59 -118 211 4 101 19 135 69 162 33 18 96 8 125 -19z"/>
 <path d="M4675 1085 c-28 -27 -30 -37 -14 -66 15 -28 55 -42 82 -28 45 24 50 67 11 98 -34 27 -50 26 -79 -4z"/>
 <path d="M2067 1093 c-4 -3 -7 -132 -7 -285 l0 -278 190 0 190 0 0 45 0 45 -130 0 -130 0 0 240 0 240 -53 0 c-30 0 -57 -3 -60 -7z"/>
 <path d="M3030 814 l0 -285 148 3 c165 3 209 16 243 72 35 58 18 160 -32 187 -21 11 -21 11 8 29 40 24 66 90 58 142 -4 22 -20 55 -37 74 -43 49 -104 64 -260 64 l-128 0 0 -286z m259 185 c54 -19 67 -84 26 -124 -21 -22 -33 -25 -95 -25 l-70 0 0 80 0 80 54 0 c29 0 68 -5 85 -11z m-12 -240 c35 -13 43 -25 43 -71 0 -51 -27 -68 -107 -68 l-63 0 0 75 0 75 49 0 c27 0 62 -5 78 -11z"/>
 <path d="M3540 815 l0 -285 60 0 60 0 0 115 0 115 115 0 115 0 0 -115 0 -115 60 0 60 0 -2 283 -3 282 -57 3 -58 3 0 -126 0 -125 -115 0 -115 0 0 125 0 125 -60 0 -60 0 0 -285z"/>
 <path d="M4666 843 c-3 -42 -6 -129 -6 -195 l0 -118 59 0 58 0 -4 163 c-2 89 -6 177 -9 195 -5 30 -7 32 -48 32 l-43 0 -7 -77z"/>
 </g>

</svg>